<?xml version="1.0" encoding="UTF-8"?>
<svg xmlns="http://www.w3.org/2000/svg" xmlns:xlink="http://www.w3.org/1999/xlink" width="16pt" height="16pt" viewBox="0 0 16 16" version="1.1">
<g id="surface1">
<path style=" stroke:none;fill-rule:nonzero;fill:rgb(54.117647%,54.117647%,54.117647%);fill-opacity:1;" d="M 7.929688 2.664062 C 6.703125 2.664062 5.71875 3.652344 5.71875 4.875 L 5.71875 8.273438 C 5.71875 9.492188 6.703125 10.476562 7.929688 10.476562 C 9.148438 10.476562 10.132812 9.492188 10.132812 8.273438 L 10.132812 4.875 C 10.132812 3.652344 9.148438 2.664062 7.929688 2.664062 Z M 4.429688 7.992188 C 4.429688 7.992188 4.425781 11.90625 7.632812 11.898438 L 7.632812 12.625 L 6.570312 12.625 L 6.570312 13.335938 L 9.429688 13.335938 L 9.429688 12.625 L 8.351562 12.625 L 8.351562 11.898438 C 11.898438 11.664062 11.5625 7.992188 11.5625 7.992188 L 10.84375 7.992188 C 10.84375 7.992188 10.851562 11.195312 8 11.195312 C 5.148438 11.195312 5.148438 7.992188 5.148438 7.992188 Z M 4.429688 7.992188 "/>
</g>
</svg>
