<?xml version="1.0" encoding="UTF-8"?>
<svg xmlns="http://www.w3.org/2000/svg" xmlns:xlink="http://www.w3.org/1999/xlink" width="16pt" height="16pt" viewBox="0 0 16 16" version="1.1">
<g id="surface1">
<path style=" stroke:none;fill-rule:nonzero;fill:rgb(54.117647%,54.117647%,54.117647%);fill-opacity:1;" d="M 13.5 12 C 13.5 12.828125 12.828125 13.5 12 13.5 C 11.171875 13.5 10.5 12.828125 10.5 12 C 10.5 11.171875 11.171875 10.5 12 10.5 C 12.828125 10.5 13.5 11.171875 13.5 12 Z M 13.5 12 "/>
<path style=" stroke:none;fill-rule:nonzero;fill:rgb(54.117647%,54.117647%,54.117647%);fill-opacity:1;" d="M 13.5 4 C 13.5 4.828125 12.828125 5.5 12 5.5 C 11.171875 5.5 10.5 4.828125 10.5 4 C 10.5 3.171875 11.171875 2.5 12 2.5 C 12.828125 2.5 13.5 3.171875 13.5 4 Z M 13.5 4 "/>
<path style=" stroke:none;fill-rule:nonzero;fill:rgb(54.117647%,54.117647%,54.117647%);fill-opacity:1;" d="M 5.5 12 C 5.5 12.828125 4.828125 13.5 4 13.5 C 3.171875 13.5 2.5 12.828125 2.5 12 C 2.5 11.171875 3.171875 10.5 4 10.5 C 4.828125 10.5 5.5 11.171875 5.5 12 Z M 5.5 12 "/>
<path style=" stroke:none;fill-rule:nonzero;fill:rgb(54.117647%,54.117647%,54.117647%);fill-opacity:1;" d="M 5.5 4 C 5.5 4.828125 4.828125 5.5 4 5.5 C 3.171875 5.5 2.5 4.828125 2.5 4 C 2.5 3.171875 3.171875 2.5 4 2.5 C 4.828125 2.5 5.5 3.171875 5.5 4 Z M 5.5 4 "/>
<path style=" stroke:none;fill-rule:nonzero;fill:rgb(54.901961%,73.72549%,39.607843%);fill-opacity:1;" d="M 14 8 C 14 11.3125 11.3125 14 8 14 C 4.6875 14 2 11.3125 2 8 C 2 4.6875 4.6875 2 8 2 C 11.3125 2 14 4.6875 14 8 Z M 14 8 "/>
<path style=" stroke:none;fill-rule:nonzero;fill:rgb(54.117647%,54.117647%,54.117647%);fill-opacity:1;" d="M 12.875 8 C 12.875 10.691406 10.691406 12.875 8 12.875 C 5.308594 12.875 3.125 10.691406 3.125 8 C 3.125 5.308594 5.308594 3.125 8 3.125 C 10.691406 3.125 12.875 5.308594 12.875 8 Z M 12.875 8 "/>
<path style=" stroke:none;fill-rule:nonzero;fill:rgb(54.901961%,73.72549%,39.607843%);fill-opacity:0.254902;" d="M 8 8 L 8.398438 12.851562 C 9.550781 12.757812 10.621094 12.257812 11.429688 11.453125 Z M 8 8 "/>
<path style=" stroke:none;fill-rule:nonzero;fill:rgb(54.901961%,73.72549%,39.607843%);fill-opacity:0.254902;" d="M 8 8 L 10.769531 12 C 11.722656 11.34375 12.398438 10.375 12.699219 9.277344 Z M 8 8 "/>
<path style="fill:none;stroke-width:2;stroke-linecap:butt;stroke-linejoin:miter;stroke:rgb(99.215686%,96.470588%,89.019608%);stroke-opacity:0.156863;stroke-miterlimit:4;" d="M 37.000002 24.000085 C 37.000002 31.177129 31.177084 37.000014 24 37.000014 C 16.822915 37.000014 10.999998 31.177129 10.999998 24.000085 C 10.999998 16.823041 16.822915 11.000157 24 11.000157 C 31.177084 11.000157 37.000002 16.823041 37.000002 24.000085 Z M 37.000002 24.000085 " transform="matrix(0.375,0,0,0.375002,-0.999998,-1.000081)"/>
<path style=" stroke:none;fill-rule:nonzero;fill:rgb(54.901961%,73.72549%,39.607843%);fill-opacity:0.262745;" d="M 8 8 L 7.601562 3.148438 C 6.449219 3.242188 5.378906 3.742188 4.570312 4.546875 Z M 8 8 "/>
<path style=" stroke:none;fill-rule:nonzero;fill:rgb(54.901961%,73.72549%,39.607843%);fill-opacity:0.145098;" d="M 8 8 L 5.230469 4 C 4.277344 4.65625 3.601562 5.625 3.300781 6.722656 Z M 8 8 "/>
<path style=" stroke:none;fill-rule:nonzero;fill:rgb(54.901961%,73.72549%,39.607843%);fill-opacity:1;" d="M 10 8 C 10 9.105469 9.105469 10 8 10 C 6.894531 10 6 9.105469 6 8 C 6 6.894531 6.894531 6 8 6 C 9.105469 6 10 6.894531 10 8 Z M 10 8 "/>
</g>
</svg>
