<?xml version="1.0" encoding="UTF-8"?>
<svg xmlns="http://www.w3.org/2000/svg" xmlns:xlink="http://www.w3.org/1999/xlink" width="16pt" height="16pt" viewBox="0 0 16 16" version="1.1">
<g id="surface1">
<path style=" stroke:none;fill-rule:nonzero;fill:rgb(54.117647%,54.117647%,54.117647%);fill-opacity:1;" d="M 8 3.664062 C 6.375 3.664062 5.484375 4.609375 5.070312 5.523438 C 4.789062 6.148438 4.710938 6.757812 4.6875 7.085938 C 3.527344 7.371094 2.664062 8.414062 2.664062 9.664062 C 2.664062 11.140625 3.859375 12.335938 5.335938 12.335938 L 5.335938 7.335938 C 5.335938 7.335938 5.335938 6.5625 5.679688 5.804688 C 6.015625 5.046875 6.625 4.335938 8 4.335938 C 9.375 4.335938 9.984375 5.046875 10.320312 5.804688 C 10.664062 6.5625 10.664062 7.335938 10.664062 7.335938 L 10.664062 12.335938 C 12.140625 12.335938 13.335938 11.140625 13.335938 9.664062 C 13.335938 8.414062 12.472656 7.371094 11.3125 7.085938 C 11.289062 6.757812 11.210938 6.148438 10.929688 5.523438 C 10.515625 4.609375 9.625 3.664062 8 3.664062 Z M 8 3.664062 "/>
</g>
</svg>
