<?xml version="1.0" encoding="UTF-8"?>
<svg xmlns="http://www.w3.org/2000/svg" xmlns:xlink="http://www.w3.org/1999/xlink" width="16pt" height="16pt" viewBox="0 0 16 16" version="1.1">
<g id="surface1">
<path style=" stroke:none;fill-rule:nonzero;fill:rgb(54.117647%,54.117647%,54.117647%);fill-opacity:1;" d="M 8 2.664062 C 5.789062 2.664062 4 4.457031 4 6.664062 C 4 8.875 5.789062 10.664062 8 10.664062 C 10.210938 10.664062 12 8.875 12 6.664062 C 12 4.457031 10.210938 2.664062 8 2.664062 Z M 8 4.335938 C 9.289062 4.335938 10.335938 5.382812 10.335938 6.664062 C 10.335938 7.953125 9.289062 9 8 9 C 6.710938 9 5.664062 7.953125 5.664062 6.664062 C 5.664062 5.382812 6.710938 4.335938 8 4.335938 Z M 8 4.664062 C 6.890625 4.664062 6 5.5625 6 6.664062 C 6 7.773438 6.890625 8.664062 8 8.664062 C 9.109375 8.664062 10 7.773438 10 6.664062 C 10 5.5625 9.109375 4.664062 8 4.664062 Z M 8 5.664062 C 8.664062 5.664062 9 6 9 6.664062 C 9 7.335938 8.664062 7.664062 8 7.664062 C 7.335938 7.664062 7 7.335938 7 6.664062 C 7 6 7.335938 5.664062 8 5.664062 Z M 7 11.023438 L 7 12.023438 L 9 12.023438 L 9 11.023438 Z M 5.335938 12.351562 L 5.335938 13.023438 L 10.664062 13.023438 L 10.664062 12.351562 Z M 5.335938 12.351562 "/>
</g>
</svg>
