<?xml version="1.0" encoding="UTF-8"?>
<svg xmlns="http://www.w3.org/2000/svg" xmlns:xlink="http://www.w3.org/1999/xlink" width="16pt" height="16pt" viewBox="0 0 16 16" version="1.1">
<g id="surface1">
<path style="fill:none;stroke-width:0.5;stroke-linecap:butt;stroke-linejoin:miter;stroke:rgb(100%,100%,100%);stroke-opacity:1;stroke-miterlimit:4;" d="M 15.000693 16.869907 L 12.818874 31.09718 L 32.750693 31.09718 L 30.000693 16.869907 Z M 15.000693 16.869907 " transform="matrix(0.34375,0,0,0.34375,-1.418207,-1.064656)"/>
<path style="fill:none;stroke-width:0.5;stroke-linecap:butt;stroke-linejoin:miter;stroke:rgb(100%,100%,100%);stroke-opacity:1;stroke-miterlimit:4;" d="M 12.739329 31.585816 L 12.739329 34.608544 L 32.830238 34.608544 L 32.830238 31.585816 Z M 12.739329 31.585816 " transform="matrix(0.34375,0,0,0.34375,-1.418207,-1.064656)"/>
<path style="fill:none;stroke-width:0.4;stroke-linecap:butt;stroke-linejoin:miter;stroke:rgb(100%,100%,100%);stroke-opacity:1;stroke-miterlimit:4;" d="M 24.86493 1036.34628 L 15.717203 1036.34628 L 15.717203 1035.425825 C 18.683112 1035.425825 22.137657 1035.425825 24.86493 1035.425825 Z M 24.86493 1036.34628 " transform="matrix(0.34375,0,0,0.34375,-1.836382,-345.71669)"/>
<path style="fill:none;stroke-width:0.4;stroke-linecap:butt;stroke-linejoin:miter;stroke:rgb(100%,100%,100%);stroke-opacity:1;stroke-miterlimit:4;" d="M 26.580839 1036.34628 L 31.092203 1036.34628 L 31.092203 1035.698553 L 26.580839 1035.698553 Z M 26.580839 1036.34628 " transform="matrix(0.34375,0,0,0.34375,-1.836382,-345.71669)"/>
<path style=" stroke:none;fill-rule:nonzero;fill:rgb(54.117647%,54.117647%,54.117647%);fill-opacity:1;" d="M 3.984375 3.992188 L 4.984375 3.992188 C 5.261719 3.992188 5.484375 4.214844 5.484375 4.492188 C 5.484375 4.769531 5.261719 4.992188 4.984375 4.992188 L 3.984375 4.992188 C 3.710938 4.992188 3.484375 4.769531 3.484375 4.492188 C 3.484375 4.214844 3.710938 3.992188 3.984375 3.992188 Z M 3.984375 3.992188 "/>
<path style=" stroke:none;fill-rule:nonzero;fill:rgb(54.117647%,54.117647%,54.117647%);fill-opacity:1;" d="M 3.136719 4.492188 L 12.863281 4.492188 C 13.214844 4.492188 13.5 4.777344 13.5 5.128906 L 13.5 10.855469 C 13.5 11.207031 13.214844 11.492188 12.863281 11.492188 L 3.136719 11.492188 C 2.785156 11.492188 2.5 11.207031 2.5 10.855469 L 2.5 5.128906 C 2.5 4.777344 2.785156 4.492188 3.136719 4.492188 Z M 3.136719 4.492188 "/>
<path style=" stroke:none;fill-rule:nonzero;fill:rgb(93.333333%,90.980392%,83.529412%);fill-opacity:0.290196;" d="M 11.511719 4.492188 L 13.011719 4.492188 L 13.011719 11.492188 L 11.511719 11.492188 Z M 11.511719 4.492188 "/>
<path style=" stroke:none;fill-rule:nonzero;fill:rgb(37.254902%,37.254902%,37.254902%);fill-opacity:1;" d="M 12 8 C 12 10.210938 10.210938 12 8 12 C 5.789062 12 4 10.210938 4 8 C 4 5.789062 5.789062 4 8 4 C 10.210938 4 12 5.789062 12 8 Z M 12 8 "/>
<path style=" stroke:none;fill-rule:nonzero;fill:rgb(87.45098%,87.45098%,87.45098%);fill-opacity:1;" d="M 10.492188 8 C 10.492188 9.378906 9.375 10.496094 7.996094 10.496094 C 6.617188 10.496094 5.5 9.378906 5.5 8 C 5.5 6.621094 6.617188 5.503906 7.996094 5.503906 C 9.375 5.503906 10.492188 6.621094 10.492188 8 Z M 10.492188 8 "/>
<path style=" stroke:none;fill-rule:nonzero;fill:rgb(54.509804%,58.823529%,57.254902%);fill-opacity:0.498039;" d="M 9.328125 5.894531 C 9.734375 6.335938 9.980469 6.921875 9.980469 7.570312 C 9.980469 8.949219 8.863281 10.066406 7.484375 10.066406 C 6.996094 10.066406 6.550781 9.929688 6.167969 9.691406 C 6.625 10.183594 7.277344 10.496094 8.003906 10.496094 C 9.382812 10.496094 10.5 9.378906 10.5 8 C 10.5 7.113281 10.027344 6.335938 9.328125 5.894531 Z M 9.328125 5.894531 "/>
<path style=" stroke:none;fill-rule:nonzero;fill:rgb(87.45098%,87.45098%,87.45098%);fill-opacity:1;" d="M 12.757812 5.273438 C 12.757812 5.558594 12.527344 5.785156 12.246094 5.785156 C 11.960938 5.785156 11.734375 5.558594 11.734375 5.273438 C 11.734375 4.992188 11.960938 4.761719 12.246094 4.761719 C 12.527344 4.761719 12.757812 4.992188 12.757812 5.273438 Z M 12.757812 5.273438 "/>
</g>
</svg>
