<?xml version="1.0" encoding="UTF-8"?>
<svg xmlns="http://www.w3.org/2000/svg" xmlns:xlink="http://www.w3.org/1999/xlink" width="16pt" height="16pt" viewBox="0 0 16 16" version="1.1">
<g id="surface1">
<path style=" stroke:none;fill-rule:nonzero;fill:rgb(40.392157%,65.098039%,82.352941%);fill-opacity:1;" d="M 2.84375 2.867188 L 13.15625 2.867188 L 13.15625 10.429688 L 2.84375 10.429688 Z M 2.84375 2.867188 "/>
<path style=" stroke:none;fill-rule:nonzero;fill:rgb(93.333333%,90.980392%,83.529412%);fill-opacity:0.231373;" d="M 9.375 2.867188 L 6.742188 10.429688 L 13.15625 10.429688 L 13.15625 2.867188 Z M 9.375 2.867188 "/>
<path style=" stroke:none;fill-rule:nonzero;fill:rgb(11.764706%,25.098039%,30.196078%);fill-opacity:1;" d="M 3.457031 2.527344 C 3.457031 2.527344 2.5 2.527344 2.5 3.527344 L 2.5 10.027344 C 2.5 10.246094 2.5 11.027344 3.5 11.027344 L 6.5 11.027344 L 6.5 11.527344 L 9.5 11.527344 L 9.5 11.027344 L 12.5 11.027344 C 13.5 11.027344 13.5 10.027344 13.5 10.027344 L 13.5 3.527344 C 13.5 2.527344 12.5 2.527344 12.5 2.527344 Z M 3.722656 3.527344 C 3.738281 3.527344 3.757812 3.527344 3.773438 3.527344 L 12.210938 3.527344 C 12.355469 3.527344 12.488281 3.660156 12.488281 3.804688 L 12.519531 9.769531 C 12.519531 9.914062 12.386719 10.046875 12.246094 10.046875 L 3.804688 10.046875 C 3.660156 10.046875 3.53125 9.914062 3.53125 9.769531 L 3.5 3.804688 C 3.496094 3.675781 3.597656 3.554688 3.722656 3.527344 Z M 4.5 12.027344 L 4.5 13.027344 L 11.5 13.027344 L 11.5 12.027344 Z M 4.5 12.027344 "/>
</g>
</svg>
