<?xml version="1.0" encoding="UTF-8"?>
<svg xmlns="http://www.w3.org/2000/svg" xmlns:xlink="http://www.w3.org/1999/xlink" width="16pt" height="16pt" viewBox="0 0 16 16" version="1.1">
<g id="surface1">
<path style=" stroke:none;fill-rule:nonzero;fill:rgb(54.117647%,54.117647%,54.117647%);fill-opacity:1;" d="M 4.476562 2.664062 C 4.03125 2.664062 3.664062 3.03125 3.664062 3.476562 L 3.664062 10.179688 C 3.664062 10.625 4.03125 11 4.476562 11 L 11.523438 11 C 11.96875 11 12.335938 10.625 12.335938 10.179688 L 12.335938 3.476562 C 12.335938 3.03125 11.96875 2.664062 11.523438 2.664062 Z M 4.476562 3.335938 L 11.523438 3.335938 C 11.609375 3.335938 11.664062 3.390625 11.664062 3.476562 L 11.664062 10.179688 C 11.664062 10.265625 11.609375 10.335938 11.523438 10.335938 L 4.476562 10.335938 C 4.390625 10.335938 4.335938 10.265625 4.335938 10.179688 L 4.335938 3.476562 C 4.335938 3.390625 4.390625 3.335938 4.476562 3.335938 Z M 11 9.335938 C 10.816406 9.335938 10.664062 9.484375 10.664062 9.664062 C 10.664062 9.851562 10.816406 10 11 10 C 11.183594 10 11.335938 9.851562 11.335938 9.664062 C 11.335938 9.484375 11.183594 9.335938 11 9.335938 Z M 4.882812 11.335938 C 5.375 12.507812 6.585938 13.335938 8 13.335938 C 9.414062 13.335938 10.625 12.507812 11.117188 11.335938 Z M 4.882812 11.335938 "/>
</g>
</svg>
