<?xml version="1.0" encoding="UTF-8"?>
<svg xmlns="http://www.w3.org/2000/svg" xmlns:xlink="http://www.w3.org/1999/xlink" width="16pt" height="16pt" viewBox="0 0 16 16" version="1.1">
<g id="surface1">
<path style=" stroke:none;fill-rule:nonzero;fill:rgb(54.117647%,54.117647%,54.117647%);fill-opacity:1;" d="M 6.21875 2.664062 C 5.734375 2.664062 5.335938 3.0625 5.335938 3.554688 L 5.335938 12.4375 C 5.335938 12.921875 5.734375 13.335938 6.21875 13.335938 L 9.773438 13.335938 C 10.257812 13.335938 10.664062 12.921875 10.664062 12.4375 L 10.664062 3.554688 C 10.664062 3.0625 10.257812 2.664062 9.773438 2.664062 Z M 6.554688 3.335938 L 9.445312 3.335938 C 9.757812 3.335938 10 3.578125 10 3.882812 L 10 8.148438 C 10 8.453125 9.757812 8.695312 9.445312 8.695312 L 6.554688 8.695312 C 6.242188 8.695312 6 8.453125 6 8.148438 L 6 3.882812 C 6 3.578125 6.242188 3.335938 6.554688 3.335938 Z M 8 9.335938 C 8.921875 9.335938 9.664062 10.078125 9.664062 11 C 9.664062 11.921875 8.921875 12.664062 8 12.664062 C 7.078125 12.664062 6.335938 11.921875 6.335938 11 C 6.335938 10.078125 7.078125 9.335938 8 9.335938 Z M 8 9.335938 "/>
<path style=" stroke:none;fill-rule:nonzero;fill:rgb(54.117647%,54.117647%,54.117647%);fill-opacity:1;" d="M 7.335938 12 L 7.335938 10 L 9 11 Z M 7.335938 12 "/>
</g>
</svg>
