<?xml version="1.0" encoding="UTF-8"?>
<svg xmlns="http://www.w3.org/2000/svg" xmlns:xlink="http://www.w3.org/1999/xlink" width="16pt" height="16pt" viewBox="0 0 16 16" version="1.1">
<g id="surface1">
<path style=" stroke:none;fill-rule:nonzero;fill:rgb(93.333333%,90.980392%,83.529412%);fill-opacity:1;" d="M 8 2.5 C 4.960938 2.5 2.5 4.960938 2.5 8 C 2.5 11.039062 4.960938 13.5 8 13.5 C 11.039062 13.5 13.5 11.039062 13.5 8 C 13.5 4.960938 11.039062 2.5 8 2.5 Z M 8 6.28125 C 8.945312 6.28125 9.71875 7.054688 9.71875 8 C 9.71875 8.945312 8.945312 9.71875 8 9.71875 C 7.054688 9.71875 6.28125 8.945312 6.28125 8 C 6.28125 7.054688 7.054688 6.28125 8 6.28125 Z M 8 6.625 C 7.238281 6.625 6.625 7.238281 6.625 8 C 6.625 8.761719 7.238281 9.375 8 9.375 C 8.761719 9.375 9.375 8.761719 9.375 8 C 9.375 7.238281 8.761719 6.625 8 6.625 Z M 8 7.140625 C 8.476562 7.140625 8.859375 7.523438 8.859375 8 C 8.859375 8.476562 8.476562 8.859375 8 8.859375 C 7.523438 8.859375 7.140625 8.476562 7.140625 8 C 7.140625 7.523438 7.523438 7.140625 8 7.140625 Z M 8 7.140625 "/>
<path style=" stroke:none;fill-rule:nonzero;fill:rgb(39.607843%,48.235294%,51.372549%);fill-opacity:0.254902;" d="M 7.40625 7.386719 C 7.539062 7.257812 7.710938 7.167969 7.894531 7.144531 L 7.828125 6.640625 C 7.53125 6.675781 7.261719 6.808594 7.046875 7.015625 Z M 6.808594 6.769531 C 7.074219 6.515625 7.421875 6.347656 7.789062 6.300781 L 7.3125 2.550781 C 6.128906 2.699219 5.023438 3.226562 4.171875 4.054688 Z M 6.808594 6.769531 "/>
<path style=" stroke:none;fill-rule:nonzero;fill:rgb(100%,99.607843%,98.431373%);fill-opacity:0.462745;" d="M 8.800781 8.296875 C 8.738281 8.472656 8.621094 8.625 8.460938 8.726562 L 8.738281 9.152344 C 8.992188 8.992188 9.179688 8.757812 9.285156 8.480469 Z M 9.605469 8.597656 C 9.472656 8.941406 9.234375 9.242188 8.921875 9.441406 L 10.96875 12.621094 C 11.972656 11.976562 12.742188 11.023438 13.15625 9.914062 Z M 9.605469 8.597656 "/>
<path style=" stroke:none;fill-rule:nonzero;fill:rgb(39.607843%,48.235294%,51.372549%);fill-opacity:0.254902;" d="M 8.617188 8.59375 C 8.488281 8.726562 8.316406 8.820312 8.132812 8.851562 L 8.21875 9.351562 C 8.511719 9.304688 8.777344 9.167969 8.984375 8.953125 Z M 9.234375 9.1875 C 8.976562 9.453125 8.636719 9.628906 8.269531 9.691406 L 8.875 13.421875 C 10.054688 13.230469 11.140625 12.667969 11.960938 11.8125 Z M 9.234375 9.1875 "/>
<path style=" stroke:none;fill-rule:nonzero;fill:rgb(100%,99.607843%,98.431373%);fill-opacity:0.427451;" d="M 7.203125 7.6875 C 7.273438 7.511719 7.390625 7.363281 7.550781 7.265625 L 7.28125 6.832031 C 7.027344 6.988281 6.835938 7.21875 6.726562 7.496094 Z M 6.40625 7.375 C 6.542969 7.03125 6.789062 6.734375 7.105469 6.539062 L 5.117188 3.324219 C 4.105469 3.949219 3.316406 4.886719 2.882812 5.992188 Z M 6.40625 7.375 "/>
<path style=" stroke:none;fill-rule:nonzero;fill:rgb(39.607843%,48.235294%,51.372549%);fill-opacity:1;" d="M 8 6 C 6.894531 6 6 6.894531 6 8 C 6 9.105469 6.894531 10 8 10 C 9.105469 10 10 9.105469 10 8 C 10 6.894531 9.105469 6 8 6 Z M 8 6.5 C 8.828125 6.5 9.5 7.171875 9.5 8 C 9.5 8.828125 8.828125 9.5 8 9.5 C 7.171875 9.5 6.5 8.828125 6.5 8 C 6.5 7.171875 7.171875 6.5 8 6.5 Z M 8 6.5 "/>
</g>
</svg>
