<?xml version="1.0" encoding="UTF-8"?>
<svg xmlns="http://www.w3.org/2000/svg" xmlns:xlink="http://www.w3.org/1999/xlink" width="16pt" height="16pt" viewBox="0 0 16 16" version="1.1">
<g id="surface1">
<path style=" stroke:none;fill-rule:nonzero;fill:rgb(54.117647%,54.117647%,54.117647%);fill-opacity:1;" d="M 3.273438 3.027344 L 10.742188 3.027344 C 11.0625 3.027344 11.320312 3.285156 11.320312 3.601562 L 11.320312 11.089844 C 11.320312 11.40625 11.0625 11.664062 10.742188 11.664062 L 3.273438 11.664062 C 2.953125 11.664062 2.695312 11.40625 2.695312 11.089844 L 2.695312 3.601562 C 2.695312 3.285156 2.953125 3.027344 3.273438 3.027344 Z M 3.273438 3.027344 "/>
<path style=" stroke:none;fill-rule:nonzero;fill:rgb(54.117647%,54.117647%,54.117647%);fill-opacity:1;" d="M 12.976562 11.4375 L 12.960938 5.257812 L 13.164062 4.757812 L 13.320312 5.226562 L 13.335938 11.4375 Z M 12.976562 11.4375 "/>
<path style=" stroke:none;fill-rule:nonzero;fill:rgb(54.117647%,54.117647%,54.117647%);fill-opacity:1;" d="M 13.054688 11.347656 C 13.046875 11.429688 13.066406 11.5625 13.085938 11.691406 C 13.097656 11.800781 13.101562 11.867188 13.101562 11.898438 C 13.078125 11.914062 13.054688 11.929688 13 11.953125 C 12.960938 11.96875 12.917969 11.984375 12.882812 11.992188 C 12.851562 12.003906 12.828125 12 12.835938 12.003906 C 12.828125 12 12.820312 11.992188 12.8125 11.984375 C 12.792969 11.960938 12.757812 11.925781 12.726562 11.890625 C 12.667969 11.820312 12.589844 11.734375 12.5 11.660156 C 12.410156 11.589844 12.3125 11.53125 12.195312 11.535156 C 12.085938 11.539062 11.96875 11.621094 11.882812 11.773438 C 11.722656 12.070312 11.738281 12.273438 11.71875 12.390625 C 11.710938 12.445312 11.695312 12.476562 11.65625 12.503906 C 11.617188 12.53125 11.542969 12.554688 11.40625 12.578125 C 11.117188 12.617188 10.890625 12.703125 10.726562 12.710938 C 10.648438 12.71875 10.578125 12.707031 10.53125 12.671875 C 10.484375 12.632812 10.449219 12.570312 10.414062 12.453125 C 10.285156 11.96875 10.429688 11.617188 10.429688 11.617188 L 10.320312 11.578125 C 10.320312 11.578125 10.164062 11.96875 10.304688 12.484375 C 10.335938 12.617188 10.394531 12.710938 10.46875 12.765625 C 10.542969 12.820312 10.632812 12.832031 10.726562 12.828125 C 10.921875 12.816406 11.148438 12.734375 11.429688 12.691406 C 11.570312 12.671875 11.65625 12.632812 11.71875 12.585938 C 11.78125 12.539062 11.8125 12.480469 11.820312 12.410156 C 11.84375 12.273438 11.835938 12.105469 11.992188 11.828125 C 12.0625 11.695312 12.125 11.65625 12.195312 11.648438 C 12.265625 11.648438 12.359375 11.679688 12.4375 11.742188 C 12.515625 11.804688 12.585938 11.890625 12.648438 11.960938 C 12.675781 12 12.707031 12.03125 12.726562 12.054688 C 12.742188 12.070312 12.75 12.078125 12.757812 12.085938 C 12.769531 12.097656 12.78125 12.101562 12.804688 12.109375 C 12.84375 12.121094 12.875 12.109375 12.914062 12.097656 C 12.957031 12.085938 13 12.074219 13.039062 12.054688 C 13.125 12.023438 13.195312 11.984375 13.195312 11.984375 L 13.226562 11.960938 L 13.226562 11.921875 C 13.226562 11.921875 13.203125 11.8125 13.1875 11.679688 C 13.171875 11.554688 13.164062 11.394531 13.164062 11.347656 Z M 13.054688 11.347656 "/>
</g>
</svg>
