<?xml version="1.0" encoding="UTF-8"?>
<svg xmlns="http://www.w3.org/2000/svg" xmlns:xlink="http://www.w3.org/1999/xlink" width="16pt" height="16pt" viewBox="0 0 16 16" version="1.1">
<g id="surface1">
<path style=" stroke:none;fill-rule:nonzero;fill:rgb(54.117647%,54.117647%,54.117647%);fill-opacity:1;" d="M 4.773438 4 L 4.773438 4.335938 L 4.664062 4.335938 L 4.664062 5.335938 L 4.804688 5.335938 C 4.804688 5.40625 4.820312 5.476562 4.84375 5.554688 C 4.898438 5.710938 5.007812 5.867188 5.195312 5.976562 C 5.390625 6.09375 5.648438 6.164062 6 6.164062 C 6.222656 6.164062 6.414062 6.0625 6.601562 5.929688 C 6.792969 5.792969 6.984375 5.621094 7.1875 5.460938 C 7.59375 5.132812 8.054688 4.835938 8.664062 4.835938 C 8.945312 4.835938 9.136719 4.953125 9.304688 5.179688 C 9.46875 5.398438 9.585938 5.710938 9.664062 6.03125 C 9.761719 6.410156 9.796875 6.75 9.8125 7 L 3.601562 7 C 3.089844 7 2.664062 7.421875 2.664062 7.9375 L 2.664062 11.398438 C 2.664062 11.910156 3.089844 12.335938 3.601562 12.335938 L 12.398438 12.335938 C 12.910156 12.335938 13.335938 11.910156 13.335938 11.398438 L 13.335938 7.9375 C 13.335938 7.421875 12.910156 7 12.398438 7 L 10.148438 7 C 10.132812 6.738281 10.105469 6.382812 10 5.960938 C 9.914062 5.613281 9.78125 5.257812 9.570312 4.976562 C 9.363281 4.703125 9.054688 4.5 8.664062 4.5 C 7.945312 4.5 7.40625 4.859375 6.976562 5.195312 C 6.765625 5.367188 6.582031 5.539062 6.414062 5.65625 C 6.25 5.773438 6.109375 5.835938 6 5.835938 C 5.6875 5.835938 5.484375 5.773438 5.367188 5.695312 C 5.242188 5.625 5.1875 5.539062 5.15625 5.445312 C 5.140625 5.40625 5.128906 5.375 5.125 5.335938 L 5.335938 5.335938 L 5.335938 4.335938 L 5.21875 4.335938 L 5.21875 4 Z M 3.601562 7.664062 L 12.398438 7.664062 C 12.554688 7.664062 12.664062 7.78125 12.664062 7.9375 L 12.664062 11.398438 C 12.664062 11.554688 12.554688 11.664062 12.398438 11.664062 L 3.601562 11.664062 C 3.445312 11.664062 3.335938 11.554688 3.335938 11.398438 L 3.335938 7.9375 C 3.335938 7.78125 3.445312 7.664062 3.601562 7.664062 Z M 3.664062 8 L 3.664062 8.664062 L 4 8.664062 L 4 8 Z M 4.335938 8 L 4.335938 8.664062 L 5 8.664062 L 5 8 Z M 5.335938 8 L 5.335938 8.664062 L 6 8.664062 L 6 8 Z M 6.335938 8 L 6.335938 8.664062 L 7 8.664062 L 7 8 Z M 7.335938 8 L 7.335938 8.664062 L 8 8.664062 L 8 8 Z M 8.335938 8 L 8.335938 8.664062 L 9 8.664062 L 9 8 Z M 9.335938 8 L 9.335938 8.664062 L 10 8.664062 L 10 8 Z M 10.335938 8 L 10.335938 8.664062 L 11.664062 8.664062 L 11.664062 8 Z M 12 8 L 12 8.664062 L 12.335938 8.664062 L 12.335938 8 Z M 3.664062 9 L 3.664062 9.335938 L 4.335938 9.335938 L 4.335938 9 Z M 4.664062 9 L 4.664062 9.335938 L 5.335938 9.335938 L 5.335938 9 Z M 5.664062 9 L 5.664062 9.335938 L 6.335938 9.335938 L 6.335938 9 Z M 6.664062 9 L 6.664062 9.335938 L 7.335938 9.335938 L 7.335938 9 Z M 7.664062 9 L 7.664062 9.335938 L 8.335938 9.335938 L 8.335938 9 Z M 8.664062 9 L 8.664062 9.335938 L 9.335938 9.335938 L 9.335938 9 Z M 9.664062 9 L 9.664062 9.335938 L 10.335938 9.335938 L 10.335938 9 Z M 10.664062 9 L 10.664062 9.335938 L 11 9.335938 L 11 10.335938 L 11.664062 10.335938 L 11.664062 9 Z M 12 9 L 12 9.335938 L 12.335938 9.335938 L 12.335938 9 Z M 3.664062 9.664062 L 3.664062 10.335938 L 4.664062 10.335938 L 4.664062 9.664062 Z M 5 9.664062 L 5 10.335938 L 5.664062 10.335938 L 5.664062 9.664062 Z M 6 9.664062 L 6 10.335938 L 6.664062 10.335938 L 6.664062 9.664062 Z M 7 9.664062 L 7 10.335938 L 7.664062 10.335938 L 7.664062 9.664062 Z M 8 9.664062 L 8 10.335938 L 8.664062 10.335938 L 8.664062 9.664062 Z M 9 9.664062 L 9 10.335938 L 9.664062 10.335938 L 9.664062 9.664062 Z M 10 9.664062 L 10 10.335938 L 10.664062 10.335938 L 10.664062 9.664062 Z M 12 9.664062 L 12 10.335938 L 12.335938 10.335938 L 12.335938 9.664062 Z M 3.664062 10.664062 L 3.664062 11.335938 L 4.335938 11.335938 L 4.335938 10.664062 Z M 4.664062 10.664062 L 4.664062 11.335938 L 5.335938 11.335938 L 5.335938 10.664062 Z M 5.664062 10.664062 L 5.664062 11.335938 L 10 11.335938 L 10 10.664062 Z M 10.335938 10.664062 L 10.335938 11.335938 L 11 11.335938 L 11 10.664062 Z M 11.335938 10.664062 L 11.335938 11.335938 L 11.664062 11.335938 L 11.664062 10.664062 Z M 12 10.664062 L 12 11.335938 L 12.335938 11.335938 L 12.335938 10.664062 Z M 12 10.664062 "/>
</g>
</svg>
