<?xml version="1.0" encoding="UTF-8"?>
<svg xmlns="http://www.w3.org/2000/svg" xmlns:xlink="http://www.w3.org/1999/xlink" width="16pt" height="16pt" viewBox="0 0 16 16" version="1.1">
<g id="surface1">
<path style=" stroke:none;fill-rule:nonzero;fill:rgb(54.117647%,54.117647%,54.117647%);fill-opacity:1;" d="M 0.992188 3.960938 C 0.441406 3.960938 0 4.398438 0 4.945312 L 0 11.875 C 0 12.421875 0.441406 12.867188 0.992188 12.867188 L 14.84375 12.867188 C 15.390625 12.867188 15.835938 12.421875 15.835938 11.875 L 15.835938 4.945312 C 15.835938 4.398438 15.390625 3.960938 14.84375 3.960938 Z M 2.96875 5.9375 L 12.867188 5.9375 C 13.414062 5.9375 13.851562 6.378906 13.851562 6.929688 L 13.851562 9.898438 C 13.851562 10.445312 13.414062 10.882812 12.867188 10.882812 L 2.96875 10.882812 C 2.421875 10.882812 1.976562 10.445312 1.976562 9.898438 L 1.976562 6.929688 C 1.976562 6.378906 2.421875 5.9375 2.96875 5.9375 Z M 2.96875 5.9375 "/>
<path style=" stroke:none;fill-rule:nonzero;fill:rgb(54.117647%,54.117647%,54.117647%);fill-opacity:1;" d="M 2.96875 6.929688 L 2.96875 7.914062 L 3.960938 7.914062 L 3.960938 6.929688 Z M 2.96875 6.929688 "/>
<path style=" stroke:none;fill-rule:nonzero;fill:rgb(54.117647%,54.117647%,54.117647%);fill-opacity:1;" d="M 4.945312 6.929688 L 4.945312 7.914062 L 5.9375 7.914062 L 5.9375 6.929688 Z M 4.945312 6.929688 "/>
<path style=" stroke:none;fill-rule:nonzero;fill:rgb(54.117647%,54.117647%,54.117647%);fill-opacity:1;" d="M 6.929688 6.929688 L 6.929688 7.914062 L 7.914062 7.914062 L 7.914062 6.929688 Z M 6.929688 6.929688 "/>
<path style=" stroke:none;fill-rule:nonzero;fill:rgb(54.117647%,54.117647%,54.117647%);fill-opacity:1;" d="M 8.90625 6.929688 L 8.90625 7.914062 L 9.898438 7.914062 L 9.898438 6.929688 Z M 8.90625 6.929688 "/>
<path style=" stroke:none;fill-rule:nonzero;fill:rgb(54.117647%,54.117647%,54.117647%);fill-opacity:1;" d="M 2.96875 8.90625 L 2.96875 9.898438 L 4.984375 9.898438 L 4.984375 8.90625 Z M 2.96875 8.90625 "/>
<path style=" stroke:none;fill-rule:nonzero;fill:rgb(54.117647%,54.117647%,54.117647%);fill-opacity:1;" d="M 5.9375 8.90625 L 5.9375 9.898438 L 10.851562 9.898438 L 10.851562 8.90625 Z M 5.9375 8.90625 "/>
<path style=" stroke:none;fill-rule:nonzero;fill:rgb(54.117647%,54.117647%,54.117647%);fill-opacity:1;" d="M 10.882812 6.929688 L 10.882812 7.914062 L 11.875 7.914062 L 11.875 9.898438 L 12.867188 9.898438 L 12.867188 6.929688 Z M 10.882812 6.929688 "/>
</g>
</svg>
