<?xml version="1.0" encoding="UTF-8"?>
<svg xmlns="http://www.w3.org/2000/svg" xmlns:xlink="http://www.w3.org/1999/xlink" width="16pt" height="16pt" viewBox="0 0 16 16" version="1.1">
<g id="surface1">
<path style=" stroke:none;fill-rule:nonzero;fill:rgb(54.117647%,54.117647%,54.117647%);fill-opacity:1;" d="M 8 2.664062 C 5.054688 2.664062 2.664062 5.054688 2.664062 8 C 2.664062 9.109375 3.003906 10.136719 3.585938 10.992188 C 3.53125 9.851562 4.25 8.648438 5.414062 7.976562 C 6.28125 7.484375 7.234375 7.351562 8.070312 7.5625 L 7.53125 4.117188 L 7.3125 3.8125 L 7.65625 3.507812 C 7.65625 3.507812 8.226562 2.980469 9.023438 2.757812 C 8.6875 2.695312 8.351562 2.664062 8 2.664062 Z M 9.492188 3.679688 C 9.117188 3.730469 8.761719 3.960938 8.539062 4.117188 L 8.632812 4.726562 C 8.640625 4.722656 8.640625 4.726562 8.648438 4.71875 C 8.726562 4.648438 8.835938 4.585938 8.96875 4.53125 C 9.238281 4.421875 9.609375 4.351562 10.1875 4.375 C 10.453125 4.382812 10.695312 4.210938 10.914062 3.976562 C 10.617188 3.953125 10.292969 3.894531 9.945312 3.726562 C 9.820312 3.667969 9.652344 3.652344 9.492188 3.679688 Z M 11.90625 4.382812 C 11.886719 4.410156 11.875 4.433594 11.851562 4.460938 C 11.507812 4.898438 10.9375 5.40625 10.148438 5.375 C 9.738281 5.359375 9.578125 5.40625 9.46875 5.4375 L 10.054688 9.539062 L 10.054688 9.554688 C 10.054688 9.5625 10.066406 9.59375 10.070312 9.65625 C 10.203125 10.882812 9.394531 12.101562 8.179688 12.804688 C 7.8125 13.015625 7.421875 13.15625 7.03125 13.242188 C 7.347656 13.296875 7.667969 13.335938 8 13.335938 C 10.945312 13.335938 13.335938 10.945312 13.335938 8 C 13.335938 6.601562 12.789062 5.335938 11.90625 4.382812 Z M 7.28125 8.46875 C 6.84375 8.46875 6.359375 8.59375 5.90625 8.851562 C 4.730469 9.53125 4.304688 10.777344 4.757812 11.570312 C 5.21875 12.367188 6.5 12.617188 7.679688 11.9375 C 8.609375 11.398438 9.144531 10.453125 9.070312 9.757812 C 9.074219 9.765625 9.070312 9.75 9.0625 9.695312 L 9.0625 9.6875 L 8.992188 9.179688 L 8.414062 8.78125 C 8.125 8.578125 7.71875 8.464844 7.28125 8.46875 Z M 7.28125 8.46875 "/>
<path style=" stroke:none;fill-rule:nonzero;fill:rgb(54.117647%,54.117647%,54.117647%);fill-opacity:1;" d="M 9.414062 3.183594 C 9.664062 3.144531 9.929688 3.167969 10.164062 3.28125 C 11.109375 3.734375 11.921875 3.382812 11.921875 3.382812 C 11.921875 3.382812 11.28125 4.921875 10.164062 4.878906 C 9.105469 4.839844 8.945312 5.128906 8.917969 5.164062 L 9.5625 9.625 C 9.5625 9.65625 9.570312 9.679688 9.574219 9.710938 C 9.671875 10.671875 9.003906 11.757812 7.929688 12.375 C 6.5625 13.15625 4.953125 12.914062 4.328125 11.824219 C 3.703125 10.734375 4.296875 9.203125 5.664062 8.421875 C 6.71875 7.8125 7.921875 7.835938 8.703125 8.375 L 8.007812 3.925781 L 7.984375 3.890625 C 7.984375 3.890625 8.671875 3.289062 9.414062 3.183594 Z M 9.414062 3.183594 "/>
</g>
</svg>
