<?xml version="1.0" encoding="UTF-8"?>
<svg xmlns="http://www.w3.org/2000/svg" xmlns:xlink="http://www.w3.org/1999/xlink" width="16pt" height="16pt" viewBox="0 0 16 16" version="1.1">
<g id="surface1">
<path style="fill:none;stroke-width:1;stroke-linecap:butt;stroke-linejoin:miter;stroke:rgb(18.039216%,20.392157%,21.176471%);stroke-opacity:1;stroke-miterlimit:4;" d="M 301.482863 53.238015 L 301.482863 93.620626 C 301.553175 94.675308 302.478951 95.718271 303.861757 95.624522 L 335.71316 95.624522 C 336.615499 95.577647 337.494401 94.827651 337.482683 93.362814 L 337.482683 56.425499 C 337.482683 55.710659 337.248309 55.230193 336.720968 54.71457 C 336.720968 54.71457 333.978794 51.878647 333.978794 51.878647 C 333.709264 51.609117 333.521765 51.503649 332.736613 51.503649 L 302.736763 51.503649 C 301.799267 51.562242 301.435988 52.499738 301.5063 53.238015 Z M 301.482863 53.238015 " transform="matrix(0.333335,0,0,0.333335,-98.666665,-17)"/>
<path style="fill-rule:evenodd;fill:rgb(92.54902%,83.137255%,0%);fill-opacity:1;stroke-width:3;stroke-linecap:butt;stroke-linejoin:miter;stroke:rgb(18.039216%,20.392157%,21.176471%);stroke-opacity:1;stroke-miterlimit:4;" d="M 307.377364 55.616909 L 331.564743 55.616909 C 332.607707 55.616909 333.463171 56.472374 333.463171 57.515337 L 333.463171 70.722303 C 333.463171 71.765266 332.607707 72.620731 331.564743 72.620731 L 307.377364 72.620731 C 306.334401 72.620731 305.478936 71.765266 305.478936 70.722303 L 305.478936 57.515337 C 305.478936 56.472374 306.334401 55.616909 307.377364 55.616909 Z M 307.377364 55.616909 " transform="matrix(0.333335,0,0,0.333335,-98.666665,-17)"/>
<path style="fill:none;stroke-width:1;stroke-linecap:butt;stroke-linejoin:miter;stroke:rgb(76.470588%,62.352941%,0%);stroke-opacity:1;stroke-miterlimit:4;" d="M 307.377364 55.616909 L 331.564743 55.616909 C 332.607707 55.616909 333.463171 56.472374 333.463171 57.515337 L 333.463171 70.722303 C 333.463171 71.765266 332.607707 72.620731 331.564743 72.620731 L 307.377364 72.620731 C 306.334401 72.620731 305.478936 71.765266 305.478936 70.722303 L 305.478936 57.515337 C 305.478936 56.472374 306.334401 55.616909 307.377364 55.616909 Z M 307.377364 55.616909 " transform="matrix(0.333335,0,0,0.333335,-98.666665,-17)"/>
<path style="fill:none;stroke-width:1;stroke-linecap:butt;stroke-linejoin:miter;stroke:rgb(100%,100%,100%);stroke-opacity:0.447059;stroke-miterlimit:4;" d="M 307.983692 56.614697 L 331.690605 56.614697 C 332.323414 56.614697 332.841891 57.130335 332.845394 57.763163 L 332.845395 70.466605 C 332.837179 71.099434 332.32441 71.615072 331.691601 71.615072 L 307.984688 71.615072 C 307.351879 71.615072 306.845121 71.099434 306.841618 70.466605 L 306.841617 57.763163 C 306.838115 57.130335 307.350883 56.614697 307.983692 56.614697 Z M 307.983692 56.614697 " transform="matrix(0.333335,0,-0.001845,0.333325,-98.666665,-17)"/>
<path style=" stroke:none;fill-rule:evenodd;fill:rgb(100%,100%,100%);fill-opacity:0.447059;" d="M 3.992188 1.703125 L 3.992188 3.703125 C 6.394531 2.75 9.011719 5.03125 11.660156 4.371094 L 11.660156 1.726562 L 11.992188 1.726562 L 11.992188 7.039062 L 11.660156 7.039062 L 11.660156 5.039062 C 8.773438 5.6875 6.476562 3.359375 3.992188 4.371094 L 3.992188 7.039062 L 3.660156 7.039062 L 3.660156 1.703125 Z M 3.992188 1.703125 "/>
<path style=" stroke:none;fill-rule:evenodd;fill:rgb(100%,100%,100%);fill-opacity:0.447059;" d="M 4.328125 1.703125 L 4.328125 3.28125 L 4.660156 3.203125 L 4.660156 1.703125 Z M 4.328125 1.703125 "/>
<path style=" stroke:none;fill-rule:evenodd;fill:rgb(100%,100%,100%);fill-opacity:0.447059;" d="M 4.992188 3.203125 L 4.992188 1.703125 L 5.328125 1.703125 L 5.328125 3.171875 Z M 4.992188 3.203125 "/>
<path style=" stroke:none;fill-rule:evenodd;fill:rgb(100%,100%,100%);fill-opacity:0.447059;" d="M 5.660156 3.171875 L 5.660156 1.703125 L 5.992188 1.703125 L 5.992188 3.226562 Z M 5.660156 3.171875 "/>
<path style=" stroke:none;fill-rule:evenodd;fill:rgb(100%,100%,100%);fill-opacity:0.447059;" d="M 6.328125 3.296875 L 6.328125 1.703125 L 6.660156 1.703125 L 6.660156 3.371094 Z M 6.328125 3.296875 "/>
<path style=" stroke:none;fill-rule:evenodd;fill:rgb(100%,100%,100%);fill-opacity:0.447059;" d="M 6.992188 3.425781 L 6.992188 1.703125 L 7.328125 1.703125 L 7.328125 3.484375 Z M 6.992188 3.425781 "/>
<path style=" stroke:none;fill-rule:evenodd;fill:rgb(100%,100%,100%);fill-opacity:0.447059;" d="M 7.660156 3.601562 L 7.660156 1.703125 L 7.992188 1.703125 L 7.992188 3.648438 Z M 7.660156 3.601562 "/>
<path style=" stroke:none;fill-rule:evenodd;fill:rgb(100%,100%,100%);fill-opacity:0.447059;" d="M 8.328125 3.78125 L 8.328125 1.703125 L 8.660156 1.703125 L 8.660156 3.835938 Z M 8.328125 3.78125 "/>
<path style=" stroke:none;fill-rule:evenodd;fill:rgb(100%,100%,100%);fill-opacity:0.447059;" d="M 8.992188 3.910156 L 8.992188 1.703125 L 9.328125 1.703125 L 9.328125 3.96875 Z M 8.992188 3.910156 "/>
<path style=" stroke:none;fill-rule:evenodd;fill:rgb(100%,100%,100%);fill-opacity:0.447059;" d="M 9.660156 4.070312 L 9.660156 1.703125 L 9.992188 1.703125 L 9.992188 4.101562 Z M 9.660156 4.070312 "/>
<path style=" stroke:none;fill-rule:evenodd;fill:rgb(100%,100%,100%);fill-opacity:0.447059;" d="M 10.328125 4.132812 L 10.328125 1.703125 L 10.660156 1.703125 L 10.660156 4.132812 Z M 10.328125 4.132812 "/>
<path style=" stroke:none;fill-rule:evenodd;fill:rgb(100%,100%,100%);fill-opacity:0.447059;" d="M 10.992188 4.132812 L 10.992188 1.703125 L 11.328125 1.703125 L 11.328125 4.085938 Z M 10.992188 4.132812 "/>
<path style=" stroke:none;fill-rule:evenodd;fill:rgb(100%,100%,100%);fill-opacity:0.447059;" d="M 4.328125 7.023438 L 4.328125 4.546875 L 4.660156 4.507812 L 4.660156 7.023438 Z M 4.328125 7.023438 "/>
<path style=" stroke:none;fill-rule:evenodd;fill:rgb(100%,100%,100%);fill-opacity:0.447059;" d="M 4.992188 4.492188 L 4.992188 7.023438 L 5.328125 7.023438 L 5.328125 4.449219 Z M 4.992188 4.492188 "/>
<path style=" stroke:none;fill-rule:evenodd;fill:rgb(100%,100%,100%);fill-opacity:0.447059;" d="M 5.660156 4.449219 L 5.660156 7.023438 L 5.992188 7.023438 L 5.992188 4.488281 Z M 5.660156 4.449219 "/>
<path style=" stroke:none;fill-rule:evenodd;fill:rgb(100%,100%,100%);fill-opacity:0.447059;" d="M 6.328125 4.589844 L 6.328125 7.023438 L 6.660156 7.023438 L 6.660156 4.664062 Z M 6.328125 4.589844 "/>
<path style=" stroke:none;fill-rule:evenodd;fill:rgb(100%,100%,100%);fill-opacity:0.447059;" d="M 6.992188 4.742188 L 6.992188 7.023438 L 7.328125 7.023438 L 7.328125 4.832031 Z M 6.992188 4.742188 "/>
<path style=" stroke:none;fill-rule:evenodd;fill:rgb(100%,100%,100%);fill-opacity:0.447059;" d="M 7.660156 4.953125 L 7.660156 7.023438 L 7.992188 7.023438 L 7.992188 5.070312 Z M 7.660156 4.953125 "/>
<path style=" stroke:none;fill-rule:evenodd;fill:rgb(100%,100%,100%);fill-opacity:0.447059;" d="M 8.328125 5.125 L 8.328125 7.023438 L 8.660156 7.023438 L 8.660156 5.214844 Z M 8.328125 5.125 "/>
<path style=" stroke:none;fill-rule:evenodd;fill:rgb(100%,100%,100%);fill-opacity:0.447059;" d="M 8.992188 5.273438 L 8.992188 7.023438 L 9.328125 7.023438 L 9.328125 5.335938 Z M 8.992188 5.273438 "/>
<path style=" stroke:none;fill-rule:evenodd;fill:rgb(100%,100%,100%);fill-opacity:0.447059;" d="M 9.660156 5.390625 L 9.660156 7.023438 L 9.992188 7.023438 L 9.992188 5.40625 Z M 9.660156 5.390625 "/>
<path style=" stroke:none;fill-rule:evenodd;fill:rgb(100%,100%,100%);fill-opacity:0.447059;" d="M 10.328125 5.46875 L 10.328125 7.023438 L 10.660156 7.023438 L 10.660156 5.421875 Z M 10.328125 5.46875 "/>
<path style=" stroke:none;fill-rule:evenodd;fill:rgb(100%,100%,100%);fill-opacity:0.447059;" d="M 10.992188 5.453125 L 10.992188 7.023438 L 11.328125 7.023438 L 11.328125 5.390625 Z M 10.992188 5.453125 "/>
<path style=" stroke:none;fill-rule:evenodd;fill:rgb(18.039216%,20.392157%,21.176471%);fill-opacity:1;" d="M 2.929688 11.371094 L 12.71875 11.371094 C 12.871094 11.371094 12.992188 11.492188 12.992188 11.644531 L 12.992188 14.765625 C 12.992188 14.914062 12.871094 15.039062 12.71875 15.039062 L 2.929688 15.039062 C 2.78125 15.039062 2.660156 14.914062 2.660156 14.765625 L 2.660156 11.644531 C 2.660156 11.492188 2.78125 11.371094 2.929688 11.371094 Z M 2.929688 11.371094 "/>
<path style=" stroke:none;fill-rule:evenodd;fill:rgb(90.980392%,72.54902%,43.137255%);fill-opacity:1;" d="M 3.703125 12.039062 L 6.960938 12.039062 C 6.984375 12.039062 7.007812 12.058594 7.007812 12.082031 L 7.007812 12.664062 C 7.007812 12.6875 6.984375 12.703125 6.960938 12.703125 L 3.703125 12.703125 C 3.679688 12.703125 3.660156 12.6875 3.660156 12.664062 L 3.660156 12.082031 C 3.660156 12.058594 3.679688 12.039062 3.703125 12.039062 Z M 3.703125 12.039062 "/>
<path style=" stroke:none;fill-rule:evenodd;fill:rgb(90.980392%,72.54902%,43.137255%);fill-opacity:1;" d="M 7.695312 12.039062 L 8.953125 12.039062 C 8.976562 12.039062 8.996094 12.058594 8.996094 12.082031 L 8.996094 12.664062 C 8.996094 12.6875 8.976562 12.703125 8.953125 12.703125 L 7.695312 12.703125 C 7.671875 12.703125 7.648438 12.6875 7.648438 12.664062 L 7.648438 12.082031 C 7.648438 12.058594 7.671875 12.039062 7.695312 12.039062 Z M 7.695312 12.039062 "/>
<path style="fill:none;stroke-width:1;stroke-linecap:butt;stroke-linejoin:miter;stroke:rgb(100%,100%,100%);stroke-opacity:0.137255;stroke-miterlimit:4;" d="M 308.525796 76.472269 L 306.557056 78.441009 L 306.557056 81.499588 L 322.564788 81.499588 L 322.564788 76.472269 Z M 308.525796 76.472269 " transform="matrix(0.333335,0,0,0.333335,-98.666665,-16.666665)"/>
</g>
</svg>
