<?xml version="1.0" encoding="UTF-8"?>
<svg xmlns="http://www.w3.org/2000/svg" xmlns:xlink="http://www.w3.org/1999/xlink" width="16pt" height="16pt" viewBox="0 0 16 16" version="1.1">
<defs>
<radialGradient id="radial0" gradientUnits="userSpaceOnUse" cx="24.218" cy="45.26" fx="24.218" fy="45.26" r="21.39" gradientTransform="matrix(0.374,0,0,0.023375,-1.057865,10.942)">
<stop offset="0" style="stop-color:rgb(0%,0%,0%);stop-opacity:0.301961;"/>
<stop offset="1" style="stop-color:rgb(0%,0%,0%);stop-opacity:0;"/>
</radialGradient>
<radialGradient id="radial1" gradientUnits="userSpaceOnUse" cx="10.125" cy="15.833" fx="10.125" fy="15.833" r="23" gradientTransform="matrix(1.6034,0.01259,-0.00619,0.788,-6.011,9.3958)">
<stop offset="0" style="stop-color:rgb(72.156863%,69.803922%,92.54902%);stop-opacity:1;"/>
<stop offset="1" style="stop-color:rgb(50.196078%,50.196078%,70.588235%);stop-opacity:1;"/>
</radialGradient>
<linearGradient id="linear0" gradientUnits="userSpaceOnUse" x1="19.885" y1="0" x2="18.962" y2="0" gradientTransform="matrix(0,-1.0833,1.0357,0,-0.5893,51.542)">
<stop offset="0" style="stop-color:rgb(42.352941%,42.352941%,67.058824%);stop-opacity:1;"/>
<stop offset="1" style="stop-color:rgb(67.058824%,67.058824%,81.176471%);stop-opacity:1;"/>
</linearGradient>
<linearGradient id="linear1" gradientUnits="userSpaceOnUse" x1="0" y1="13.962" x2="0" y2="33.038" gradientTransform="matrix(1,0,0,1,0,2)">
<stop offset="0" style="stop-color:rgb(100%,100%,100%);stop-opacity:0.45098;"/>
<stop offset="1" style="stop-color:rgb(100%,100%,100%);stop-opacity:0;"/>
</linearGradient>
</defs>
<g id="surface1">
<path style=" stroke:none;fill-rule:evenodd;fill:url(#radial0);" d="M 16 12 C 16 12.273438 12.417969 12.5 8 12.5 C 3.582031 12.5 0 12.273438 0 12 C 0 11.726562 3.582031 11.5 8 11.5 C 12.417969 11.5 16 11.726562 16 12 Z M 16 12 "/>
<path style="fill-rule:evenodd;fill:url(#radial1);stroke-width:1;stroke-linecap:butt;stroke-linejoin:round;stroke:rgb(37.647059%,37.647059%,56.078431%);stroke-opacity:1;stroke-miterlimit:4;" d="M 5.99997 35.495916 L 45.269305 35.495916 C 46.089613 35.531072 46.499768 35.402167 46.499768 34.617014 L 46.499768 32.085777 C 46.499768 31.324062 45.445085 31.312343 45.445085 31.312343 L 45.480241 18.726469 C 45.480241 18.726469 46.499768 18.785062 46.499768 17.953035 L 46.499768 15.503829 L 2.5078 15.503829 C 2.027334 15.503829 1.499993 16.03117 1.499993 16.499918 L 1.499993 32.50765 Z M 5.99997 35.495916 " transform="matrix(0.333335,0,0,0.333335,0,0)"/>
<path style="fill:none;stroke-width:1;stroke-linecap:butt;stroke-linejoin:miter;stroke:url(#linear0);stroke-miterlimit:4;" d="M 44.999775 31.499843 L 17.449132 31.499843 C 16.92179 31.499843 16.499918 31.066251 16.499918 30.53891 L 16.499918 19.476465 C 16.499918 18.937405 16.92179 18.503814 17.449132 18.503814 L 44.999775 18.503814 " transform="matrix(0.333335,0,0,0.333335,0,0)"/>
<path style="fill:none;stroke-width:0.951;stroke-linecap:butt;stroke-linejoin:round;stroke:url(#linear1);stroke-miterlimit:4;" d="M 2.5078 16.441324 L 2.5078 32.003746 C 3.796856 32.859211 5.027319 33.714675 6.316375 34.57014 L 45.562272 34.57014 L 45.562272 32.284995 C 44.77712 32.320151 44.355247 31.534999 44.50759 30.831877 C 44.531027 26.730335 44.495871 22.628793 44.554465 18.53897 C 44.50759 17.777255 45.644303 18.035066 45.562272 17.496006 L 45.503679 16.499918 C 31.406093 16.499918 16.605386 16.441324 2.5078 16.441324 Z M 2.5078 16.441324 " transform="matrix(0.333335,0,0,0.333335,0,0)"/>
<path style=" stroke:none;fill-rule:evenodd;fill:rgb(26.666667%,26.666667%,34.901961%);fill-opacity:1;" d="M 3 7.84375 C 2.296875 7.84375 1.71875 7.835938 1.71875 7.867188 C 1.71875 7.894531 2.296875 7.929688 3 7.929688 C 3.703125 7.929688 4.28125 7.894531 4.28125 7.867188 C 4.28125 7.835938 3.703125 7.84375 3 7.84375 Z M 3 8.039062 C 2.472656 8.039062 2.039062 8.023438 2.039062 8.046875 C 2.039062 8.066406 2.472656 8.109375 3 8.109375 C 3.527344 8.109375 3.960938 8.066406 3.960938 8.046875 C 3.960938 8.023438 3.527344 8.039062 3 8.039062 Z M 3 8.265625 C 2.609375 8.265625 2.296875 8.257812 2.296875 8.277344 C 2.296875 8.296875 2.609375 8.335938 3 8.335938 C 3.386719 8.335938 3.703125 8.296875 3.703125 8.277344 C 3.703125 8.257812 3.386719 8.265625 3 8.265625 Z M 2.253906 7.710938 C 2.398438 7.695312 2.46875 7.632812 2.5 7.546875 C 2.53125 7.457031 2.585938 7.398438 2.691406 7.40625 C 2.796875 7.40625 2.8125 7.453125 2.796875 7.507812 C 2.777344 7.5625 2.78125 7.59375 2.765625 7.644531 C 2.742188 7.753906 3.257812 7.75 3.234375 7.644531 C 3.21875 7.59375 3.222656 7.5625 3.203125 7.507812 C 3.1875 7.453125 3.203125 7.40625 3.308594 7.40625 C 3.410156 7.398438 3.46875 7.457031 3.5 7.546875 C 3.53125 7.632812 3.601562 7.695312 3.746094 7.710938 C 3.890625 7.726562 4.058594 7.722656 4.203125 7.726562 C 4.34375 7.726562 4.398438 7.695312 4.21875 7.679688 C 4.035156 7.660156 3.789062 7.59375 3.742188 7.5 C 3.699219 7.40625 3.648438 7.359375 3.484375 7.351562 C 3.132812 7.328125 2.882812 7.328125 2.515625 7.351562 C 2.351562 7.359375 2.300781 7.40625 2.257812 7.5 C 2.210938 7.59375 1.964844 7.660156 1.78125 7.679688 C 1.601562 7.695312 1.65625 7.726562 1.796875 7.726562 C 1.941406 7.722656 2.109375 7.726562 2.253906 7.710938 Z M 2.253906 7.710938 "/>
<path style=" stroke:none;fill-rule:evenodd;fill:rgb(22.352941%,22.352941%,34.901961%);fill-opacity:1;" d="M 10.175781 9.320312 L 9.917969 9.320312 C 9.847656 9.320312 9.789062 9.378906 9.789062 9.453125 L 9.789062 9.867188 C 9.789062 9.9375 9.847656 10 9.917969 10 L 10.175781 10 C 10.246094 10 10.304688 9.9375 10.304688 9.867188 L 10.304688 9.453125 C 10.304688 9.378906 10.246094 9.320312 10.175781 9.320312 Z M 10.160156 9.820312 C 10.160156 9.882812 10.132812 9.929688 10.101562 9.929688 L 9.992188 9.929688 C 9.960938 9.929688 9.933594 9.882812 9.933594 9.820312 L 9.933594 9.496094 C 9.933594 9.4375 9.960938 9.390625 9.992188 9.390625 L 10.101562 9.390625 C 10.132812 9.390625 10.160156 9.4375 10.160156 9.496094 Z M 12.175781 9.523438 L 11.929688 9.523438 C 11.902344 9.523438 11.875 9.457031 11.875 9.390625 L 11.875 9.351562 C 11.875 9.285156 11.902344 9.230469 11.929688 9.230469 L 12.289062 9.230469 L 12.289062 9.148438 L 11.867188 9.148438 C 11.796875 9.148438 11.738281 9.21875 11.738281 9.300781 L 11.738281 9.4375 C 11.738281 9.523438 11.796875 9.609375 11.867188 9.609375 L 12.113281 9.609375 C 12.144531 9.609375 12.167969 9.664062 12.167969 9.726562 L 12.167969 9.796875 C 12.167969 9.863281 12.140625 9.917969 12.113281 9.917969 L 11.742188 9.917969 L 11.742188 10 L 12.175781 10 C 12.242188 10 12.304688 9.929688 12.304688 9.847656 L 12.304688 9.679688 C 12.304688 9.59375 12.242188 9.523438 12.175781 9.523438 Z M 8.492188 9.453125 L 8.492188 9.867188 C 8.492188 9.9375 8.554688 10 8.628906 10 L 8.941406 10 L 8.941406 9.929688 L 8.703125 9.929688 C 8.671875 9.929688 8.644531 9.882812 8.644531 9.820312 L 8.644531 9.691406 L 8.9375 9.691406 L 8.9375 9.625 L 8.644531 9.625 L 8.644531 9.496094 C 8.644531 9.4375 8.671875 9.390625 8.703125 9.390625 L 8.941406 9.390625 L 8.941406 9.320312 L 8.628906 9.320312 C 8.554688 9.320312 8.492188 9.378906 8.492188 9.453125 Z M 13.28125 9.453125 L 13.28125 9.867188 C 13.28125 9.9375 13.34375 10 13.414062 10 L 13.730469 10 L 13.730469 9.929688 L 13.492188 9.929688 C 13.460938 9.929688 13.433594 9.882812 13.433594 9.820312 L 13.433594 9.496094 C 13.433594 9.4375 13.460938 9.390625 13.492188 9.390625 L 13.730469 9.390625 L 13.730469 9.320312 L 13.414062 9.320312 C 13.34375 9.320312 13.28125 9.378906 13.28125 9.453125 Z M 9.324219 9.816406 L 9.203125 9.320312 L 9.0625 9.320312 L 9.0625 10 L 9.15625 10 L 9.15625 9.53125 L 9.273438 10 L 9.375 10 L 9.484375 9.554688 L 9.484375 10 L 9.632812 10 L 9.632812 9.320312 L 9.445312 9.320312 Z M 8 9.769531 L 7.847656 9.144531 L 7.664062 9.144531 L 7.664062 10 L 7.789062 10 L 7.789062 9.40625 L 7.929688 10 L 8.0625 10 L 8.210938 9.398438 L 8.210938 10 L 8.390625 10 L 8.390625 9.144531 L 8.148438 9.144531 Z M 10.898438 9.574219 L 10.898438 9.453125 C 10.898438 9.378906 10.84375 9.320312 10.773438 9.320312 L 10.453125 9.320312 L 10.453125 10 L 10.578125 10 L 10.578125 9.390625 L 10.730469 9.390625 C 10.757812 9.390625 10.785156 9.4375 10.785156 9.496094 L 10.785156 9.53125 C 10.785156 9.585938 10.757812 9.636719 10.730469 9.636719 L 10.695312 9.636719 L 10.695312 9.640625 L 10.640625 9.640625 L 10.789062 10 L 10.898438 10 L 10.777344 9.707031 C 10.84375 9.703125 10.898438 9.648438 10.898438 9.574219 Z M 12.945312 10 L 13.078125 10 L 13.078125 9.320312 L 12.945312 9.320312 Z M 12.335938 9.433594 L 12.507812 9.433594 L 12.507812 10 L 12.640625 10 L 12.640625 9.433594 L 12.8125 9.433594 L 12.8125 9.320312 L 12.335938 9.320312 Z M 14.335938 9.320312 L 14.203125 9.320312 L 14.003906 9.558594 L 14.003906 9.320312 L 13.875 9.320312 L 13.875 10 L 14.003906 10 L 14.003906 9.707031 L 14.203125 10 L 14.335938 10 L 14.078125 9.625 Z M 11.25 9.585938 L 11.136719 9.320312 L 11.007812 9.320312 L 11.171875 9.707031 L 11.171875 10 L 11.300781 10 L 11.300781 9.703125 L 11.453125 9.320312 L 11.355469 9.320312 Z M 11.25 9.585938 "/>
<path style=" stroke:none;fill-rule:evenodd;fill:rgb(26.666667%,26.666667%,34.901961%);fill-opacity:1;" d="M 4.105469 6.359375 L 4.105469 6.4375 L 4.125 6.4375 C 4.144531 6.4375 4.148438 6.441406 4.148438 6.453125 C 4.148438 6.457031 4.148438 6.460938 4.140625 6.472656 L 4.0625 6.601562 C 4.046875 6.617188 4.039062 6.617188 4.03125 6.601562 L 3.949219 6.476562 C 3.945312 6.472656 3.9375 6.464844 3.9375 6.453125 C 3.9375 6.445312 3.945312 6.4375 3.96875 6.4375 L 3.992188 6.4375 L 3.992188 6.359375 L 3.703125 6.359375 L 3.703125 6.4375 C 3.773438 6.4375 3.769531 6.445312 3.796875 6.492188 L 3.953125 6.734375 L 3.953125 6.859375 C 3.953125 6.890625 3.9375 6.90625 3.90625 6.90625 L 3.859375 6.90625 L 3.859375 6.980469 L 4.175781 6.980469 L 4.175781 6.90625 L 4.125 6.90625 C 4.09375 6.90625 4.082031 6.890625 4.082031 6.859375 L 4.082031 6.734375 L 4.214844 6.53125 C 4.261719 6.445312 4.269531 6.4375 4.304688 6.4375 L 4.335938 6.4375 L 4.335938 6.359375 Z M 1.789062 6.5 C 1.789062 6.453125 1.851562 6.417969 1.929688 6.417969 C 1.984375 6.417969 2.054688 6.453125 2.089844 6.496094 C 2.109375 6.519531 2.125 6.539062 2.132812 6.582031 L 2.195312 6.582031 L 2.195312 6.359375 L 2.125 6.359375 C 2.125 6.410156 2.113281 6.40625 2.097656 6.394531 C 2.046875 6.351562 1.992188 6.335938 1.921875 6.335938 C 1.765625 6.335938 1.664062 6.417969 1.664062 6.546875 C 1.664062 6.671875 1.746094 6.703125 1.851562 6.726562 L 1.949219 6.75 C 2.0625 6.773438 2.097656 6.789062 2.097656 6.835938 C 2.097656 6.878906 2.0625 6.914062 1.960938 6.914062 C 1.890625 6.914062 1.816406 6.882812 1.785156 6.84375 C 1.765625 6.820312 1.746094 6.808594 1.734375 6.75 L 1.667969 6.75 L 1.667969 6.980469 L 1.742188 6.980469 C 1.742188 6.945312 1.75 6.921875 1.765625 6.9375 C 1.816406 6.976562 1.90625 7 1.960938 7 C 2.128906 7 2.222656 6.921875 2.222656 6.789062 C 2.222656 6.53125 1.789062 6.640625 1.789062 6.5 Z M 3.398438 6.4375 L 3.4375 6.4375 C 3.472656 6.4375 3.484375 6.453125 3.484375 6.484375 L 3.484375 6.734375 L 3.207031 6.363281 L 2.976562 6.363281 L 2.976562 6.4375 L 3.023438 6.4375 C 3.054688 6.4375 3.070312 6.453125 3.070312 6.484375 L 3.070312 6.867188 C 3.070312 6.898438 3.054688 6.90625 3.023438 6.90625 L 2.976562 6.90625 L 2.976562 6.984375 L 3.242188 6.984375 L 3.242188 6.90625 L 3.199219 6.90625 C 3.164062 6.90625 3.152344 6.898438 3.152344 6.867188 L 3.152344 6.546875 L 3.476562 6.984375 L 3.574219 6.984375 L 3.574219 6.484375 C 3.574219 6.453125 3.585938 6.4375 3.617188 6.4375 L 3.652344 6.4375 L 3.652344 6.363281 L 3.398438 6.363281 Z M 2.632812 6.335938 C 2.429688 6.335938 2.304688 6.460938 2.304688 6.664062 C 2.304688 6.867188 2.429688 6.996094 2.625 6.996094 C 2.835938 6.996094 2.960938 6.871094 2.960938 6.65625 C 2.960938 6.464844 2.828125 6.335938 2.632812 6.335938 Z M 2.628906 6.914062 C 2.515625 6.914062 2.453125 6.820312 2.453125 6.664062 C 2.453125 6.507812 2.519531 6.414062 2.632812 6.414062 C 2.742188 6.414062 2.808594 6.507812 2.808594 6.667969 C 2.808594 6.828125 2.742188 6.914062 2.628906 6.914062 Z M 2.628906 6.914062 "/>
<path style=" stroke:none;fill-rule:evenodd;fill:rgb(26.666667%,26.666667%,34.901961%);fill-opacity:1;" d="M 2.277344 9.585938 L 1.664062 10.140625 L 2.277344 10.699219 Z M 2.277344 9.585938 "/>
<path style=" stroke:none;fill-rule:nonzero;fill:rgb(22.352941%,22.352941%,34.901961%);fill-opacity:1;" d="M 2.847656 10.429688 C 2.90625 10.359375 3.046875 10.171875 3.046875 10.007812 C 3.046875 9.867188 2.960938 9.78125 2.863281 9.78125 C 2.796875 9.78125 2.742188 9.800781 2.675781 9.828125 L 2.6875 9.992188 C 2.71875 9.960938 2.773438 9.929688 2.8125 9.929688 C 2.859375 9.929688 2.898438 9.972656 2.898438 10.039062 C 2.898438 10.15625 2.773438 10.304688 2.710938 10.390625 L 2.664062 10.457031 L 2.664062 10.597656 L 3.054688 10.597656 L 3.054688 10.457031 L 2.824219 10.457031 Z M 3.296875 10.074219 C 3.277344 10.074219 3.257812 10.078125 3.242188 10.078125 L 3.242188 9.929688 L 3.460938 9.929688 L 3.460938 9.792969 L 3.117188 9.792969 L 3.117188 10.21875 C 3.148438 10.210938 3.183594 10.199219 3.214844 10.199219 C 3.257812 10.199219 3.34375 10.226562 3.34375 10.335938 C 3.34375 10.390625 3.308594 10.46875 3.226562 10.46875 C 3.1875 10.46875 3.15625 10.453125 3.109375 10.429688 L 3.101562 10.574219 C 3.148438 10.59375 3.175781 10.609375 3.257812 10.609375 C 3.414062 10.609375 3.492188 10.472656 3.492188 10.34375 C 3.492188 10.167969 3.421875 10.074219 3.296875 10.074219 Z M 3.773438 10.082031 C 3.757812 10.082031 3.707031 10.085938 3.664062 10.152344 C 3.664062 10.039062 3.6875 9.914062 3.796875 9.914062 C 3.835938 9.914062 3.875 9.9375 3.902344 9.953125 L 3.914062 9.8125 C 3.863281 9.792969 3.828125 9.78125 3.773438 9.78125 C 3.585938 9.78125 3.523438 10 3.523438 10.226562 C 3.523438 10.398438 3.5625 10.609375 3.742188 10.609375 C 3.921875 10.609375 3.945312 10.40625 3.945312 10.351562 C 3.945312 10.179688 3.863281 10.082031 3.773438 10.082031 Z M 3.734375 10.484375 C 3.671875 10.484375 3.671875 10.382812 3.671875 10.359375 C 3.671875 10.316406 3.671875 10.21875 3.734375 10.21875 C 3.792969 10.21875 3.796875 10.308594 3.796875 10.34375 C 3.796875 10.386719 3.792969 10.484375 3.734375 10.484375 Z M 4.367188 10.390625 L 4.363281 10.390625 L 4.289062 10.011719 L 4.125 10.011719 L 4.125 10.59375 L 4.226562 10.59375 L 4.226562 10.132812 L 4.328125 10.59375 L 4.398438 10.59375 L 4.5 10.132812 L 4.503906 10.132812 L 4.503906 10.59375 L 4.601562 10.59375 L 4.601562 10.011719 L 4.445312 10.011719 Z M 4.90625 10.292969 C 4.933594 10.289062 4.992188 10.25 4.992188 10.15625 C 4.992188 10.09375 4.960938 10.011719 4.863281 10.011719 L 4.6875 10.011719 L 4.6875 10.597656 L 4.859375 10.597656 C 4.882812 10.597656 5 10.585938 5 10.4375 C 5 10.34375 4.960938 10.304688 4.90625 10.292969 Z M 4.796875 10.109375 L 4.824219 10.109375 C 4.875 10.109375 4.886719 10.15625 4.886719 10.179688 C 4.886719 10.1875 4.882812 10.25 4.820312 10.25 L 4.796875 10.25 Z M 4.828125 10.5 L 4.796875 10.5 L 4.796875 10.34375 L 4.835938 10.34375 C 4.875 10.34375 4.898438 10.371094 4.898438 10.421875 C 4.898438 10.5 4.839844 10.5 4.828125 10.5 Z M 4.828125 10.5 "/>
<path style=" stroke:none;fill-rule:nonzero;fill:rgb(22.352941%,22.352941%,34.901961%);fill-opacity:1;" d="M 9.664062 6.796875 L 9.785156 6.796875 L 9.785156 7.320312 L 9.914062 7.320312 L 9.914062 6.796875 L 10.03125 6.796875 L 10.03125 6.679688 L 9.664062 6.679688 Z M 10.296875 6.664062 C 10.140625 6.664062 10.066406 6.8125 10.066406 7 C 10.066406 7.1875 10.140625 7.335938 10.296875 7.335938 C 10.453125 7.335938 10.53125 7.1875 10.53125 7 C 10.53125 6.8125 10.453125 6.664062 10.296875 6.664062 Z M 10.296875 7.226562 C 10.226562 7.226562 10.199219 7.125 10.199219 7 C 10.199219 6.875 10.226562 6.773438 10.296875 6.773438 C 10.375 6.773438 10.398438 6.875 10.398438 7 C 10.398438 7.125 10.375 7.226562 10.296875 7.226562 Z M 10.929688 6.679688 L 10.566406 6.679688 L 10.566406 6.796875 L 10.6875 6.796875 L 10.6875 7.320312 L 10.8125 7.320312 L 10.8125 6.796875 L 10.929688 6.796875 Z M 11.085938 6.679688 L 10.90625 7.320312 L 11.03125 7.320312 L 11.066406 7.179688 L 11.238281 7.179688 L 11.273438 7.320312 L 11.40625 7.320312 L 11.226562 6.679688 Z M 11.089844 7.070312 L 11.15625 6.800781 L 11.210938 7.070312 Z M 11.585938 6.679688 L 11.460938 6.679688 L 11.460938 7.320312 L 11.765625 7.320312 L 11.765625 7.203125 L 11.585938 7.203125 Z M 12.179688 7.1875 C 12.234375 7.132812 12.351562 6.984375 12.351562 6.847656 C 12.351562 6.738281 12.28125 6.664062 12.195312 6.664062 C 12.140625 6.664062 12.09375 6.683594 12.03125 6.703125 L 12.042969 6.835938 C 12.070312 6.8125 12.117188 6.789062 12.148438 6.789062 C 12.195312 6.789062 12.226562 6.820312 12.226562 6.875 C 12.226562 6.96875 12.117188 7.085938 12.0625 7.15625 L 12.023438 7.210938 L 12.023438 7.320312 L 12.359375 7.320312 L 12.359375 7.210938 L 12.164062 7.210938 Z M 12.597656 6.902344 C 12.582031 6.902344 12.566406 6.90625 12.550781 6.90625 L 12.550781 6.789062 L 12.742188 6.789062 L 12.742188 6.679688 L 12.441406 6.679688 L 12.441406 7.019531 C 12.472656 7.011719 12.5 7 12.527344 7 C 12.566406 7 12.636719 7.023438 12.636719 7.117188 C 12.636719 7.15625 12.609375 7.21875 12.539062 7.21875 C 12.503906 7.21875 12.476562 7.210938 12.4375 7.1875 L 12.429688 7.304688 C 12.46875 7.320312 12.492188 7.335938 12.5625 7.335938 C 12.699219 7.335938 12.765625 7.222656 12.765625 7.117188 C 12.765625 6.976562 12.703125 6.902344 12.597656 6.902344 Z M 13.039062 6.910156 C 13.023438 6.910156 12.980469 6.914062 12.945312 6.964844 C 12.945312 6.875 12.964844 6.773438 13.058594 6.773438 C 13.09375 6.773438 13.125 6.792969 13.148438 6.804688 L 13.15625 6.695312 C 13.117188 6.675781 13.085938 6.664062 13.039062 6.664062 C 12.875 6.664062 12.824219 6.84375 12.824219 7.023438 C 12.824219 7.164062 12.859375 7.335938 13.011719 7.335938 C 13.164062 7.335938 13.183594 7.164062 13.183594 7.125 C 13.183594 6.984375 13.117188 6.910156 13.039062 6.910156 Z M 13.003906 7.230469 C 12.949219 7.230469 12.949219 7.148438 12.949219 7.132812 C 12.949219 7.097656 12.949219 7.015625 13.003906 7.015625 C 13.054688 7.015625 13.0625 7.09375 13.0625 7.117188 C 13.0625 7.152344 13.054688 7.230469 13.003906 7.230469 Z M 13.59375 7.167969 L 13.523438 6.890625 L 13.378906 6.890625 L 13.378906 7.320312 L 13.46875 7.320312 L 13.46875 6.976562 L 13.554688 7.320312 L 13.621094 7.320312 L 13.710938 6.976562 L 13.714844 6.976562 L 13.714844 7.320312 L 13.804688 7.320312 L 13.804688 6.890625 L 13.664062 6.890625 Z M 14.070312 7.097656 L 14.070312 7.09375 C 14.09375 7.09375 14.144531 7.0625 14.144531 6.996094 C 14.144531 6.949219 14.117188 6.890625 14.03125 6.890625 L 13.878906 6.890625 L 13.878906 7.320312 L 14.027344 7.320312 C 14.050781 7.320312 14.15625 7.3125 14.15625 7.203125 C 14.15625 7.132812 14.117188 7.109375 14.070312 7.097656 Z M 13.972656 6.960938 L 14 6.960938 C 14.046875 6.960938 14.054688 6.996094 14.054688 7.011719 C 14.054688 7.019531 14.050781 7.0625 13.996094 7.0625 L 13.972656 7.0625 Z M 14 7.25 L 13.972656 7.25 L 13.972656 7.132812 L 14.007812 7.132812 C 14.039062 7.132812 14.0625 7.15625 14.0625 7.195312 C 14.0625 7.25 14.011719 7.25 14 7.25 Z M 14 7.25 "/>
</g>
</svg>
