<?xml version="1.0" encoding="UTF-8"?>
<svg xmlns="http://www.w3.org/2000/svg" xmlns:xlink="http://www.w3.org/1999/xlink" width="16pt" height="16pt" viewBox="0 0 16 16" version="1.1">
<g id="surface1">
<path style=" stroke:none;fill-rule:nonzero;fill:rgb(54.117647%,54.117647%,54.117647%);fill-opacity:1;" d="M 3.46875 4.664062 C 3.027344 4.664062 2.664062 5.027344 2.664062 5.46875 L 2.664062 10.523438 C 2.664062 10.960938 3.027344 11.335938 3.46875 11.335938 L 4 11.335938 L 4 11.664062 L 12 11.664062 L 12 11.335938 L 12.53125 11.335938 C 12.972656 11.335938 13.335938 10.960938 13.335938 10.523438 L 13.335938 5.46875 C 13.335938 5.027344 12.972656 4.664062 12.53125 4.664062 Z M 3.46875 5.335938 L 12.53125 5.335938 C 12.617188 5.335938 12.664062 5.382812 12.664062 5.46875 L 12.664062 10.523438 C 12.664062 10.601562 12.617188 10.664062 12.53125 10.664062 L 11.804688 10.664062 L 11.664062 7.695312 L 11.664062 7.664062 C 11.664062 7.617188 11.660156 7.570312 11.65625 7.523438 C 11.578125 6.671875 10.867188 6 10 6 C 9.078125 6 8.335938 6.746094 8.335938 7.664062 C 8.335938 8.585938 9.078125 9.335938 10 9.335938 C 10.570312 9.335938 11.074219 9.039062 11.375 8.601562 L 11.46875 10.664062 L 11.335938 10.664062 L 11.335938 11 L 4.664062 11 L 4.664062 10.664062 L 4.65625 10.664062 L 5.1875 8.25 C 5.367188 8.5 5.664062 8.664062 6 8.664062 C 6.554688 8.664062 7 8.21875 7 7.664062 C 7 7.117188 6.554688 6.664062 6 6.664062 C 5.507812 6.664062 5.105469 7.023438 5.023438 7.492188 L 5.007812 7.492188 L 4.304688 10.664062 L 3.46875 10.664062 C 3.382812 10.664062 3.335938 10.601562 3.335938 10.523438 L 3.335938 5.46875 C 3.335938 5.382812 3.382812 5.335938 3.46875 5.335938 Z M 3.835938 5.664062 C 3.742188 5.664062 3.664062 5.742188 3.664062 5.835938 C 3.664062 5.925781 3.742188 6 3.835938 6 C 3.925781 6 4 5.925781 4 5.835938 C 4 5.742188 3.925781 5.664062 3.835938 5.664062 Z M 12.164062 5.664062 C 12.074219 5.664062 12 5.742188 12 5.835938 C 12 5.925781 12.074219 6 12.164062 6 C 12.257812 6 12.335938 5.925781 12.335938 5.835938 C 12.335938 5.742188 12.257812 5.664062 12.164062 5.664062 Z M 6 7 C 6.367188 7 6.664062 7.296875 6.664062 7.664062 C 6.664062 8.035156 6.367188 8.335938 6 8.335938 C 5.632812 8.335938 5.335938 8.035156 5.335938 7.664062 C 5.335938 7.296875 5.632812 7 6 7 Z M 10 7 C 10.367188 7 10.664062 7.296875 10.664062 7.664062 C 10.664062 8.035156 10.367188 8.335938 10 8.335938 C 9.632812 8.335938 9.335938 8.035156 9.335938 7.664062 C 9.335938 7.296875 9.632812 7 10 7 Z M 3.835938 10 C 3.742188 10 3.664062 10.074219 3.664062 10.164062 C 3.664062 10.257812 3.742188 10.335938 3.835938 10.335938 C 3.925781 10.335938 4 10.257812 4 10.164062 C 4 10.074219 3.925781 10 3.835938 10 Z M 5.960938 10 C 5.796875 10 5.664062 10.132812 5.664062 10.289062 L 5.664062 10.375 C 5.664062 10.539062 5.796875 10.664062 5.960938 10.664062 L 10.039062 10.664062 C 10.203125 10.664062 10.335938 10.539062 10.335938 10.375 L 10.335938 10.289062 C 10.335938 10.132812 10.203125 10 10.039062 10 Z M 12.164062 10 C 12.074219 10 12 10.074219 12 10.164062 C 12 10.257812 12.074219 10.335938 12.164062 10.335938 C 12.257812 10.335938 12.335938 10.257812 12.335938 10.164062 C 12.335938 10.074219 12.257812 10 12.164062 10 Z M 12.164062 10 "/>
</g>
</svg>
