<?xml version="1.0" encoding="UTF-8"?>
<svg xmlns="http://www.w3.org/2000/svg" xmlns:xlink="http://www.w3.org/1999/xlink" width="16pt" height="16pt" viewBox="0 0 16 16" version="1.1">
<defs>
<linearGradient id="linear0" gradientUnits="userSpaceOnUse" x1="0" y1="366.648" x2="0" y2="609.505" gradientTransform="matrix(0.02186,0,0,0.01098,0.09846,9.135865)">
<stop offset="0" style="stop-color:rgb(0%,0%,0%);stop-opacity:0;"/>
<stop offset="0.5" style="stop-color:rgb(0%,0%,0%);stop-opacity:0.403922;"/>
<stop offset="1" style="stop-color:rgb(0%,0%,0%);stop-opacity:0;"/>
</linearGradient>
<radialGradient id="radial0" gradientUnits="userSpaceOnUse" cx="605.714" cy="486.648" fx="605.714" fy="486.648" r="117.143" gradientTransform="matrix(0.02186,0,0,0.01098,0.10276,9.135865)">
<stop offset="0" style="stop-color:rgb(0%,0%,0%);stop-opacity:0.403922;"/>
<stop offset="1" style="stop-color:rgb(0%,0%,0%);stop-opacity:0;"/>
</radialGradient>
<radialGradient id="radial1" gradientUnits="userSpaceOnUse" cx="605.714" cy="486.648" fx="605.714" fy="486.648" r="117.143" gradientTransform="matrix(-0.02186,0,0,0.01098,15.897395,9.135865)">
<stop offset="0" style="stop-color:rgb(0%,0%,0%);stop-opacity:0.403922;"/>
<stop offset="1" style="stop-color:rgb(0%,0%,0%);stop-opacity:0;"/>
</radialGradient>
<radialGradient id="radial2" gradientUnits="userSpaceOnUse" cx="9" cy="19.149" fx="9" fy="19.149" r="22" gradientTransform="matrix(1.90909,0,0,1.40909,-8.18182,-4.98219)">
<stop offset="0" style="stop-color:rgb(47.058824%,47.058824%,47.058824%);stop-opacity:1;"/>
<stop offset="1" style="stop-color:rgb(23.529412%,23.529412%,23.529412%);stop-opacity:1;"/>
</radialGradient>
<radialGradient id="radial3" gradientUnits="userSpaceOnUse" cx="5" cy="7.1" fx="5" fy="7.1" r="21" gradientTransform="matrix(2.28528,0.06529,-0.04762,1.66667,-6.08829,-0.1598)">
<stop offset="0" style="stop-color:rgb(100%,100%,100%);stop-opacity:0.4;"/>
<stop offset="1" style="stop-color:rgb(100%,100%,100%);stop-opacity:0;"/>
</radialGradient>
<linearGradient id="linear1" gradientUnits="userSpaceOnUse" x1="0" y1="11" x2="0" y2="42" gradientTransform="matrix(0.333335,0,0,0.333335,0,0)">
<stop offset="0" style="stop-color:rgb(89.803922%,89.803922%,89.803922%);stop-opacity:1;"/>
<stop offset="1" style="stop-color:rgb(66.666667%,66.666667%,66.666667%);stop-opacity:1;"/>
</linearGradient>
<linearGradient id="linear2" gradientUnits="userSpaceOnUse" x1="0" y1="3.656" x2="0" y2="21" gradientTransform="matrix(0.333335,0,0,0.333335,0,0.666665)">
<stop offset="0" style="stop-color:rgb(92.54902%,83.529412%,38.431373%);stop-opacity:1;"/>
<stop offset="1" style="stop-color:rgb(87.45098%,50.588235%,13.333333%);stop-opacity:1;"/>
</linearGradient>
</defs>
<g id="surface1">
<path style=" stroke:none;fill-rule:nonzero;fill:url(#linear0);" d="M 2.722656 13.160156 L 13.277344 13.160156 L 13.277344 15.828125 L 2.722656 15.828125 Z M 2.722656 13.160156 "/>
<path style=" stroke:none;fill-rule:nonzero;fill:url(#radial0);" d="M 13.277344 13.160156 C 13.277344 13.160156 13.277344 15.828125 13.277344 15.828125 C 14.40625 15.832031 16 15.230469 16 14.492188 C 16 13.757812 14.742188 13.160156 13.277344 13.160156 Z M 13.277344 13.160156 "/>
<path style=" stroke:none;fill-rule:nonzero;fill:url(#radial1);" d="M 2.722656 13.160156 C 2.722656 13.160156 2.722656 15.828125 2.722656 15.828125 C 1.59375 15.832031 0 15.230469 0 14.492188 C 0 13.757812 1.257812 13.160156 2.722656 13.160156 Z M 2.722656 13.160156 "/>
<path style="fill-rule:nonzero;fill:url(#radial2);stroke-width:1;stroke-linecap:round;stroke-linejoin:round;stroke:rgb(15.686275%,15.686275%,15.686275%);stroke-opacity:1;stroke-miterlimit:4;" d="M 3.31639 8.50777 L 44.68337 8.50777 C 45.140399 8.50777 45.503679 8.871049 45.503679 9.31636 L 45.503679 43.687282 C 45.503679 44.132592 45.140399 44.50759 44.68337 44.50759 L 3.31639 44.50759 C 2.871079 44.50759 2.5078 44.132592 2.5078 43.687282 L 2.5078 9.31636 C 2.5078 8.871049 2.871079 8.50777 3.31639 8.50777 Z M 3.31639 8.50777 " transform="matrix(0.333335,0,0,0.333335,0,0)"/>
<path style="fill:none;stroke-width:1;stroke-linecap:round;stroke-linejoin:miter;stroke:url(#radial3);stroke-miterlimit:4;" d="M 3.503889 9.503859 L 44.50759 9.503859 L 44.50759 43.499783 L 3.503889 43.499783 Z M 3.503889 9.503859 " transform="matrix(0.333335,0,0,0.333335,0,0)"/>
<path style=" stroke:none;fill-rule:nonzero;fill:url(#linear1);" d="M 2 3.664062 C 1.8125 3.664062 1.664062 3.8125 1.664062 4 L 1.664062 7.664062 L 2 7.664062 L 2 13.664062 C 2 13.824219 2.175781 14 2.335938 14 L 13.664062 14 C 13.824219 14 14 13.824219 14 13.664062 L 14 7.664062 L 14.335938 7.664062 L 14.335938 4 C 14.335938 3.8125 14.1875 3.664062 14 3.664062 Z M 2 3.664062 "/>
<path style=" stroke:none;fill-rule:nonzero;fill:rgb(100%,100%,100%);fill-opacity:1;" d="M 2.335938 7.335938 L 2.335938 13 C 2.335938 13.15625 2.507812 13.335938 2.664062 13.335938 L 13.335938 13.335938 C 13.492188 13.335938 13.664062 13.15625 13.664062 13 L 13.664062 7.335938 "/>
<path style=" stroke:none;fill-rule:nonzero;fill:url(#linear2);" d="M 2.335938 7.664062 L 2.335938 4.304688 C 2.335938 4.164062 2.507812 4 2.664062 4 L 13.335938 4 C 13.492188 4 13.664062 4.164062 13.664062 4.304688 L 13.664062 7.664062 "/>
<path style="fill-rule:nonzero;fill:rgb(100%,100%,100%);fill-opacity:1;stroke-width:0.784;stroke-linecap:butt;stroke-linejoin:round;stroke:rgb(72.941176%,36.470588%,7.058824%);stroke-opacity:1;stroke-miterlimit:4;" d="M 58.076302 31.000093 L 64.000332 24.00007 L 69.924362 31.000093 Z M 58.076302 31.000093 " transform="matrix(0.211005,0,0,0.214285,-5.50439,-0.392855)"/>
<path style=" stroke:none;fill-rule:nonzero;fill:rgb(15.686275%,15.686275%,15.686275%);fill-opacity:1;" d="M 7.992188 11.570312 L 8.632812 11.78125 C 8.585938 11.976562 8.519531 12.140625 8.429688 12.269531 C 8.335938 12.398438 8.21875 12.5 8.082031 12.566406 C 7.945312 12.632812 7.773438 12.664062 7.5625 12.664062 C 7.304688 12.664062 7.09375 12.625 6.929688 12.546875 C 6.769531 12.460938 6.628906 12.320312 6.507812 12.117188 C 6.390625 11.910156 6.335938 11.648438 6.335938 11.328125 C 6.335938 10.898438 6.4375 10.570312 6.644531 10.34375 C 6.851562 10.117188 7.148438 10 7.527344 10 C 7.824219 10 8.058594 10.066406 8.226562 10.195312 C 8.398438 10.328125 8.523438 10.53125 8.609375 10.800781 L 7.960938 10.957031 C 7.941406 10.878906 7.917969 10.820312 7.890625 10.785156 C 7.851562 10.726562 7.804688 10.679688 7.742188 10.644531 C 7.683594 10.609375 7.617188 10.59375 7.546875 10.59375 C 7.378906 10.59375 7.25 10.667969 7.164062 10.8125 C 7.097656 10.921875 7.0625 11.09375 7.0625 11.320312 C 7.0625 11.609375 7.101562 11.804688 7.183594 11.910156 C 7.265625 12.015625 7.375 12.070312 7.519531 12.070312 C 7.65625 12.070312 7.765625 12.023438 7.835938 11.941406 C 7.90625 11.855469 7.960938 11.730469 7.992188 11.570312 "/>
<path style=" stroke:none;fill-rule:nonzero;fill:rgb(15.686275%,15.686275%,15.686275%);fill-opacity:1;" d="M 8.984375 10.042969 L 10.789062 10.042969 L 10.789062 10.597656 L 9.71875 10.597656 L 9.71875 11.046875 L 10.632812 11.046875 L 10.632812 11.570312 L 9.71875 11.570312 L 9.71875 12.621094 L 8.984375 12.621094 L 8.984375 10.042969 "/>
<path style=" stroke:none;fill-rule:nonzero;fill:rgb(15.686275%,15.686275%,15.686275%);fill-opacity:1;" d="M 13 12.621094 L 11.03125 12.621094 C 11.054688 12.40625 11.125 12.210938 11.234375 12.023438 C 11.351562 11.835938 11.566406 11.617188 11.882812 11.359375 C 12.070312 11.203125 12.195312 11.085938 12.25 11.007812 C 12.304688 10.921875 12.328125 10.847656 12.328125 10.773438 C 12.328125 10.695312 12.304688 10.628906 12.25 10.574219 C 12.195312 10.515625 12.132812 10.492188 12.046875 10.492188 C 11.96875 10.492188 11.898438 10.519531 11.84375 10.578125 C 11.789062 10.632812 11.757812 10.734375 11.734375 10.882812 L 11.078125 10.820312 C 11.105469 10.621094 11.152344 10.464844 11.222656 10.351562 C 11.289062 10.238281 11.386719 10.148438 11.511719 10.09375 C 11.636719 10.03125 11.8125 10 12.03125 10 C 12.265625 10 12.441406 10.03125 12.570312 10.085938 C 12.699219 10.140625 12.796875 10.234375 12.875 10.351562 C 12.945312 10.46875 12.984375 10.601562 12.984375 10.75 C 12.984375 10.90625 12.941406 11.054688 12.859375 11.203125 C 12.773438 11.34375 12.617188 11.5 12.398438 11.671875 C 12.265625 11.773438 12.179688 11.84375 12.132812 11.882812 C 12.085938 11.921875 12.035156 11.972656 11.976562 12.039062 L 13 12.039062 L 13 12.621094 "/>
</g>
</svg>
