<?xml version="1.0" encoding="UTF-8"?>
<svg xmlns="http://www.w3.org/2000/svg" xmlns:xlink="http://www.w3.org/1999/xlink" width="16pt" height="16pt" viewBox="0 0 16 16" version="1.1">
<g id="surface1">
<path style=" stroke:none;fill-rule:nonzero;fill:rgb(17.647059%,17.647059%,17.647059%);fill-opacity:1;" d="M 8 6.449219 L 7.84375 6.949219 L 5 15 L 6 15 L 8 13.25 L 10 15 L 11 15 L 8.15625 6.949219 Z M 8 7.542969 L 8.363281 8.699219 L 8 8.988281 L 7.636719 8.699219 Z M 7.53125 9.03125 L 7.738281 9.199219 L 7.386719 9.480469 Z M 8.46875 9.03125 L 8.613281 9.488281 L 8.261719 9.199219 Z M 8 9.40625 L 8.730469 9.988281 L 8 10.542969 L 7.269531 9.988281 Z M 7.125 10.300781 L 7.71875 10.75 L 6.75 11.480469 Z M 8.886719 10.300781 L 9.25 11.480469 L 8.28125 10.75 Z M 8 10.957031 L 9.363281 11.988281 L 8 12.78125 L 6.636719 11.988281 Z M 6.488281 12.28125 L 7.667969 12.96875 L 6 14 Z M 9.511719 12.28125 L 10 14 L 8.332031 12.96875 Z M 9.511719 12.28125 "/>
<path style=" stroke:none;fill-rule:evenodd;fill:rgb(17.647059%,17.647059%,17.647059%);fill-opacity:1;" d="M 9 6.667969 C 9 7.21875 8.550781 7.667969 8 7.667969 C 7.449219 7.667969 7 7.21875 7 6.667969 C 7 6.113281 7.449219 5.667969 8 5.667969 C 8.550781 5.667969 9 6.113281 9 6.667969 Z M 9 6.667969 "/>
<path style=" stroke:none;fill-rule:evenodd;fill:rgb(54.901961%,73.72549%,39.607843%);fill-opacity:0.556863;" d="M 8 4.332031 C 6.710938 4.332031 5.667969 5.378906 5.667969 6.667969 C 5.667969 7.425781 6.03125 8.105469 6.59375 8.53125 L 6.824219 7.84375 C 6.519531 7.542969 6.332031 7.125 6.332031 6.667969 C 6.332031 5.746094 7.078125 5 8 5 C 8.921875 5 9.667969 5.746094 9.667969 6.667969 C 9.667969 7.125 9.480469 7.542969 9.175781 7.84375 L 9.40625 8.53125 C 9.96875 8.105469 10.332031 7.425781 10.332031 6.667969 C 10.332031 5.378906 9.289062 4.332031 8 4.332031 Z M 8 4.332031 "/>
<path style=" stroke:none;fill-rule:evenodd;fill:rgb(54.901961%,73.72549%,39.607843%);fill-opacity:0.556863;" d="M 8 3 C 5.976562 3 4.332031 4.640625 4.332031 6.667969 C 4.332031 8.023438 5.070312 9.210938 6.167969 9.84375 L 6.375 9.1875 C 5.546875 8.652344 5 7.722656 5 6.667969 C 5 5.011719 6.34375 3.667969 8 3.667969 C 9.65625 3.667969 11 5.011719 11 6.667969 C 11 7.722656 10.453125 8.652344 9.625 9.1875 L 9.832031 9.84375 C 10.929688 9.210938 11.667969 8.023438 11.667969 6.667969 C 11.667969 4.640625 10.023438 3 8 3 Z M 8 3 "/>
<path style=" stroke:none;fill-rule:evenodd;fill:rgb(54.901961%,73.72549%,39.607843%);fill-opacity:0.556863;" d="M 8 1.667969 C 5.238281 1.667969 3 3.90625 3 6.667969 C 3 8.613281 4.113281 10.300781 5.738281 11.125 L 5.949219 10.480469 C 4.59375 9.746094 3.667969 8.316406 3.667969 6.667969 C 3.667969 4.273438 5.605469 2.332031 8 2.332031 C 10.394531 2.332031 12.332031 4.273438 12.332031 6.667969 C 12.332031 8.316406 11.40625 9.746094 10.050781 10.480469 L 10.261719 11.125 C 11.886719 10.300781 13 8.613281 13 6.667969 C 13 3.90625 10.761719 1.667969 8 1.667969 Z M 8 1.667969 "/>
</g>
</svg>
