<?xml version="1.0" encoding="UTF-8"?>
<svg xmlns="http://www.w3.org/2000/svg" xmlns:xlink="http://www.w3.org/1999/xlink" width="16pt" height="16pt" viewBox="0 0 16 16" version="1.1">
<g id="surface1">
<path style=" stroke:none;fill-rule:nonzero;fill:rgb(54.117647%,54.117647%,54.117647%);fill-opacity:1;" d="M 1.734375 2.640625 C 1.5 2.679688 1.320312 2.898438 1.320312 3.132812 L 1.320312 12.703125 C 1.320312 12.957031 1.554688 13.1875 1.8125 13.195312 L 14.015625 13.195312 C 14.277344 13.1875 14.507812 12.957031 14.515625 12.703125 L 14.515625 4.492188 C 14.507812 4.234375 14.277344 4.003906 14.015625 4 L 9.234375 4 L 9.234375 3.132812 C 9.234375 2.875 9 2.640625 8.742188 2.640625 L 1.8125 2.640625 C 1.789062 2.636719 1.757812 2.636719 1.734375 2.640625 Z M 7.585938 5.96875 L 7.914062 5.96875 C 9.371094 5.96875 10.554688 7.15625 10.554688 8.609375 C 10.554688 10.066406 9.371094 11.25 7.585938 11.25 C 6.460938 11.25 5.28125 10.066406 5.28125 8.609375 C 5.28125 7.15625 6.460938 5.96875 7.585938 5.96875 Z M 7.628906 6.34375 C 7.523438 6.359375 7.414062 6.378906 7.320312 6.40625 L 7.007812 6.921875 C 7.039062 6.921875 7.054688 6.921875 7.09375 6.941406 C 7.257812 7.035156 7.335938 7.117188 7.382812 7.125 C 7.429688 7.140625 7.636719 6.851562 7.484375 7.167969 C 7.328125 7.484375 7.269531 7.59375 7.09375 7.664062 C 7.082031 7.664062 7.0625 7.65625 7.050781 7.664062 C 7.007812 7.71875 6.941406 7.78125 6.867188 7.847656 C 6.699219 7.996094 6.617188 8.007812 6.617188 8.15625 C 6.617188 8.304688 6.632812 8.433594 6.515625 8.632812 C 6.398438 8.828125 6.300781 8.835938 6.351562 8.984375 C 6.398438 9.132812 6.433594 9.386719 6.351562 9.273438 C 6.265625 9.15625 6.3125 8.929688 6.246094 9.0625 C 6.1875 9.179688 6.050781 9.214844 6.039062 9.332031 C 6.039062 9.351562 6.039062 9.375 6.039062 9.394531 C 6.085938 9.539062 6.328125 9.34375 6.328125 9.457031 C 6.328125 9.570312 6.117188 9.5625 6.164062 9.664062 C 6.214844 9.761719 6.410156 9.46875 6.578125 9.515625 C 6.742188 9.566406 6.632812 9.59375 6.78125 9.664062 C 6.929688 9.726562 7.007812 9.789062 7.007812 9.890625 C 7.007812 9.988281 7.492188 9.953125 7.445312 10.117188 C 7.390625 10.28125 7.34375 10.242188 7.195312 10.425781 C 7.113281 10.523438 7.039062 10.582031 6.988281 10.632812 C 7.054688 10.679688 7.074219 10.699219 7.152344 10.671875 C 7.257812 10.640625 7.132812 10.59375 7.214844 10.546875 C 7.234375 10.539062 7.242188 10.515625 7.257812 10.507812 C 7.269531 10.5 7.273438 10.492188 7.296875 10.484375 C 7.351562 10.472656 7.4375 10.46875 7.671875 10.46875 C 8.128906 10.46875 8.371094 10.484375 8.371094 10.484375 C 8.371094 10.484375 8.511719 10.484375 8.371094 10.570312 C 8.265625 10.632812 8.066406 10.726562 8.039062 10.757812 C 8.050781 10.753906 8.054688 10.765625 8.082031 10.757812 C 8.296875 10.695312 8.597656 10.65625 8.679688 10.632812 C 8.714844 10.621094 8.898438 10.515625 9.050781 10.445312 C 9.054688 10.429688 9.066406 10.417969 9.070312 10.40625 L 9.050781 10.40625 C 8.933594 10.355469 8.832031 10.121094 8.867188 10.054688 C 8.898438 9.984375 8.988281 9.929688 9.070312 9.765625 C 9.15625 9.601562 9.140625 9.734375 8.90625 9.4375 C 8.671875 9.132812 8.546875 9.453125 8.433594 9.351562 C 8.316406 9.25 8.078125 9.164062 7.976562 8.984375 C 7.878906 8.796875 7.914062 8.933594 7.914062 8.734375 C 7.914062 8.535156 7.90625 8.675781 7.957031 8.507812 C 8.007812 8.34375 8.140625 8.3125 8.308594 8.195312 C 8.332031 8.179688 8.34375 8.1875 8.371094 8.179688 C 8.335938 8.140625 8.289062 8.054688 8.1875 7.953125 C 8.1875 7.953125 8.289062 7.738281 8.371094 7.703125 C 8.453125 7.671875 8.507812 7.695312 8.617188 7.726562 C 8.625 7.707031 8.613281 7.703125 8.617188 7.664062 C 8.632812 7.53125 8.578125 7.601562 8.578125 7.515625 C 8.578125 7.4375 8.601562 7.53125 8.71875 7.5 C 8.835938 7.464844 8.832031 7.21875 8.945312 7.25 C 9.0625 7.28125 9.074219 7.214844 9.171875 7.066406 C 9.273438 6.914062 9.164062 6.988281 9.03125 6.921875 C 8.898438 6.851562 9.023438 7.03125 8.988281 7.148438 C 8.953125 7.265625 8.859375 7.191406 8.742188 6.941406 C 8.625 6.691406 8.714844 6.789062 8.78125 6.589844 C 8.792969 6.554688 8.804688 6.53125 8.824219 6.507812 C 8.609375 6.414062 8.367188 6.367188 8.125 6.34375 C 8.121094 6.351562 8.125 6.351562 8.125 6.363281 C 8.101562 6.585938 7.984375 6.445312 7.9375 6.46875 C 7.890625 6.492188 7.585938 6.929688 7.585938 6.882812 C 7.585938 6.832031 7.628906 6.757812 7.628906 6.757812 C 7.628906 6.757812 7.664062 6.554688 7.628906 6.34375 Z M 8.578125 7.230469 C 8.625 7.238281 8.675781 7.28125 8.699219 7.332031 C 8.714844 7.359375 8.695312 7.367188 8.679688 7.375 C 8.679688 7.375 8.699219 7.4375 8.699219 7.453125 C 8.699219 7.472656 8.65625 7.476562 8.578125 7.453125 C 8.515625 7.441406 8.578125 7.425781 8.617188 7.394531 L 8.535156 7.394531 C 8.507812 7.394531 8.5 7.378906 8.492188 7.375 C 8.5 7.375 8.484375 7.386719 8.492188 7.394531 C 8.53125 7.441406 8.484375 7.40625 8.429688 7.414062 C 8.375 7.429688 8.429688 7.378906 8.453125 7.332031 C 8.453125 7.332031 8.488281 7.363281 8.492188 7.375 C 8.503906 7.351562 8.515625 7.308594 8.515625 7.25 C 8.535156 7.242188 8.558594 7.226562 8.578125 7.230469 Z M 9.835938 7.375 C 9.75 7.4375 9.65625 7.574219 9.5625 7.664062 C 9.414062 7.8125 9.648438 7.832031 9.734375 7.847656 C 9.8125 7.867188 9.894531 7.804688 10.0625 7.804688 C 10.058594 7.796875 10.046875 7.796875 10.039062 7.789062 C 10.015625 7.789062 10.007812 7.789062 9.976562 7.789062 C 9.882812 7.789062 9.9375 7.710938 9.957031 7.578125 C 9.921875 7.511719 9.875 7.4375 9.835938 7.375 Z M 8.804688 7.683594 C 8.765625 7.671875 8.722656 7.710938 8.65625 7.746094 C 8.703125 7.8125 8.566406 7.984375 8.492188 8.117188 C 8.492188 8.117188 8.476562 8.132812 8.472656 8.136719 C 8.617188 8.113281 8.84375 8.15625 9.339844 8.28125 C 9.339844 8.28125 9.53125 8.214844 9.566406 8.28125 C 9.578125 8.304688 9.632812 8.316406 9.710938 8.320312 C 9.914062 8.242188 9.8125 8.195312 9.8125 8.03125 C 9.8125 7.867188 9.554688 8.03125 9.585938 7.953125 C 9.617188 7.867188 9.558594 7.882812 9.441406 7.765625 C 9.328125 7.648438 9.34375 8.054688 9.257812 7.972656 C 9.171875 7.890625 9.164062 7.953125 9.132812 7.890625 C 9.101562 7.820312 8.992188 7.703125 8.992188 7.703125 C 8.992188 7.703125 9.070312 7.804688 9.050781 7.972656 C 9.03125 8.140625 8.804688 7.992188 8.804688 7.992188 C 8.804688 7.992188 8.839844 7.96875 8.90625 7.953125 C 8.972656 7.9375 8.894531 7.84375 8.84375 7.726562 C 8.832031 7.695312 8.820312 7.6875 8.804688 7.683594 Z M 10.203125 8.507812 C 10.1875 8.523438 10.164062 8.539062 10.140625 8.546875 C 9.960938 8.617188 9.8125 8.757812 9.8125 8.757812 C 9.8125 8.757812 10.03125 8.765625 10.183594 8.898438 C 10.195312 8.808594 10.203125 8.703125 10.203125 8.609375 C 10.203125 8.578125 10.207031 8.539062 10.203125 8.507812 Z M 10.203125 8.507812 "/>
</g>
</svg>
