<?xml version="1.0" encoding="UTF-8"?>
<svg xmlns="http://www.w3.org/2000/svg" xmlns:xlink="http://www.w3.org/1999/xlink" width="16pt" height="16pt" viewBox="0 0 16 16" version="1.1">
<g id="surface1">
<path style=" stroke:none;fill-rule:nonzero;fill:rgb(54.117647%,54.117647%,54.117647%);fill-opacity:1;" d="M 4.835938 2.664062 C 4.5625 2.664062 4.335938 2.894531 4.335938 3.164062 L 4.335938 12.5 C 4.335938 12.523438 4.359375 12.726562 4.46875 12.84375 C 4.578125 12.960938 4.726562 13.039062 4.945312 13.101562 C 5.386719 13.234375 6.152344 13.335938 7.664062 13.335938 L 8.335938 13.335938 C 9.683594 13.335938 10.453125 13.226562 10.914062 13.101562 C 11.148438 13.042969 11.304688 12.976562 11.429688 12.898438 C 11.546875 12.8125 11.664062 12.726562 11.664062 12.5 L 11.664062 3.164062 C 11.664062 2.894531 11.4375 2.664062 11.164062 2.664062 Z M 5 3.335938 L 11 3.335938 L 11 10 L 5 10 Z M 5.335938 10.335938 C 5.515625 10.335938 5.664062 10.484375 5.664062 10.664062 C 5.664062 10.851562 5.515625 11 5.335938 11 C 5.148438 11 5 10.851562 5 10.664062 C 5 10.484375 5.148438 10.335938 5.335938 10.335938 Z M 6.335938 10.335938 C 6.515625 10.335938 6.664062 10.484375 6.664062 10.664062 C 6.664062 10.851562 6.515625 11 6.335938 11 C 6.148438 11 6 10.851562 6 10.664062 C 6 10.484375 6.148438 10.335938 6.335938 10.335938 Z M 7.335938 10.335938 C 7.515625 10.335938 7.664062 10.484375 7.664062 10.664062 C 7.664062 10.851562 7.515625 11 7.335938 11 C 7.148438 11 7 10.851562 7 10.664062 C 7 10.484375 7.148438 10.335938 7.335938 10.335938 Z M 8.664062 10.335938 C 8.851562 10.335938 9 10.484375 9 10.664062 C 9 10.851562 8.851562 11 8.664062 11 C 8.484375 11 8.335938 10.851562 8.335938 10.664062 C 8.335938 10.484375 8.484375 10.335938 8.664062 10.335938 Z M 9.664062 10.335938 C 9.851562 10.335938 10 10.484375 10 10.664062 C 10 10.851562 9.851562 11 9.664062 11 C 9.484375 11 9.335938 10.851562 9.335938 10.664062 C 9.335938 10.484375 9.484375 10.335938 9.664062 10.335938 Z M 10.664062 10.335938 C 10.851562 10.335938 11 10.484375 11 10.664062 C 11 10.851562 10.851562 11 10.664062 11 C 10.484375 11 10.335938 10.851562 10.335938 10.664062 C 10.335938 10.484375 10.484375 10.335938 10.664062 10.335938 Z M 5.335938 11.335938 C 5.515625 11.335938 5.664062 11.484375 5.664062 11.664062 C 5.664062 11.851562 5.515625 12 5.335938 12 C 5.148438 12 5 11.851562 5 11.664062 C 5 11.484375 5.148438 11.335938 5.335938 11.335938 Z M 6.335938 11.335938 C 6.515625 11.335938 6.664062 11.484375 6.664062 11.664062 C 6.664062 11.851562 6.515625 12 6.335938 12 C 6.148438 12 6 11.851562 6 11.664062 C 6 11.484375 6.148438 11.335938 6.335938 11.335938 Z M 8 11.335938 C 8.367188 11.335938 8.664062 11.632812 8.664062 12 C 8.664062 12.367188 8.367188 12.664062 8 12.664062 C 7.632812 12.664062 7.335938 12.367188 7.335938 12 C 7.335938 11.632812 7.632812 11.335938 8 11.335938 Z M 9.664062 11.335938 C 9.851562 11.335938 10 11.484375 10 11.664062 C 10 11.851562 9.851562 12 9.664062 12 C 9.484375 12 9.335938 11.851562 9.335938 11.664062 C 9.335938 11.484375 9.484375 11.335938 9.664062 11.335938 Z M 10.664062 11.335938 C 10.851562 11.335938 11 11.484375 11 11.664062 C 11 11.851562 10.851562 12 10.664062 12 C 10.484375 12 10.335938 11.851562 10.335938 11.664062 C 10.335938 11.484375 10.484375 11.335938 10.664062 11.335938 Z M 10.664062 11.335938 "/>
</g>
</svg>
