<?xml version="1.0" encoding="UTF-8"?>
<svg xmlns="http://www.w3.org/2000/svg" xmlns:xlink="http://www.w3.org/1999/xlink" width="16pt" height="16pt" viewBox="0 0 16 16" version="1.1">
<g id="surface1">
<path style=" stroke:none;fill-rule:nonzero;fill:rgb(54.117647%,54.117647%,54.117647%);fill-opacity:1;" d="M 4.851562 2.664062 C 4.367188 2.664062 3.96875 3.0625 3.96875 3.554688 L 3.96875 12.4375 C 3.96875 12.921875 4.367188 13.335938 4.851562 13.335938 L 11.148438 13.335938 C 11.632812 13.335938 12.03125 12.921875 12.03125 12.4375 L 12.03125 3.554688 C 12.03125 3.0625 11.632812 2.664062 11.148438 2.664062 Z M 4.851562 3.335938 L 11.148438 3.335938 C 11.273438 3.335938 11.367188 3.421875 11.367188 3.554688 L 11.367188 11.757812 C 11.367188 11.890625 11.273438 11.992188 11.148438 11.992188 L 4.851562 11.992188 C 4.726562 11.992188 4.632812 11.890625 4.632812 11.757812 L 4.632812 3.554688 C 4.632812 3.421875 4.726562 3.335938 4.851562 3.335938 Z M 11 12.335938 C 11.183594 12.335938 11.335938 12.484375 11.335938 12.664062 C 11.335938 12.851562 11.183594 13 11 13 C 10.816406 13 10.664062 12.851562 10.664062 12.664062 C 10.664062 12.484375 10.816406 12.335938 11 12.335938 Z M 11 12.335938 "/>
<path style=" stroke:none;fill-rule:nonzero;fill:rgb(54.117647%,54.117647%,54.117647%);fill-opacity:1;" d="M 4.335938 8.664062 L 11.664062 8.664062 L 11.664062 9 L 4.335938 9 Z M 4.335938 8.664062 "/>
<path style=" stroke:none;fill-rule:nonzero;fill:rgb(54.117647%,54.117647%,54.117647%);fill-opacity:1;" d="M 5.664062 4.335938 L 5.664062 11.335938 L 10.335938 11.335938 L 10.335938 5 L 9.664062 4.335938 Z M 6 8.664062 L 10 8.664062 L 10 11 L 6 11 Z M 6 8.664062 "/>
</g>
</svg>
