<?xml version="1.0" encoding="UTF-8"?>
<svg xmlns="http://www.w3.org/2000/svg" xmlns:xlink="http://www.w3.org/1999/xlink" width="16pt" height="16pt" viewBox="0 0 16 16" version="1.1">
<g id="surface1">
<path style=" stroke:none;fill-rule:nonzero;fill:rgb(54.117647%,54.117647%,54.117647%);fill-opacity:1;" d="M 6.210938 2.664062 C 5.730469 2.664062 5.335938 3.054688 5.335938 3.53125 L 5.335938 12.460938 C 5.335938 12.9375 5.730469 13.335938 6.210938 13.335938 L 9.789062 13.335938 C 10.269531 13.335938 10.664062 12.9375 10.664062 12.460938 L 10.664062 3.53125 C 10.664062 3.054688 10.269531 2.664062 9.789062 2.664062 Z M 7.5 3.335938 L 8.5 3.335938 C 8.59375 3.335938 8.664062 3.40625 8.664062 3.5 C 8.664062 3.59375 8.59375 3.664062 8.5 3.664062 L 7.5 3.664062 C 7.40625 3.664062 7.335938 3.59375 7.335938 3.5 C 7.335938 3.40625 7.40625 3.335938 7.5 3.335938 Z M 6 4 L 10 4 L 10 12 L 6 12 Z M 8 12.335938 C 8.183594 12.335938 8.335938 12.484375 8.335938 12.664062 C 8.335938 12.851562 8.183594 13 8 13 C 7.816406 13 7.664062 12.851562 7.664062 12.664062 C 7.664062 12.484375 7.816406 12.335938 8 12.335938 Z M 8 12.335938 "/>
</g>
</svg>
