<?xml version="1.0" encoding="UTF-8"?>
<svg xmlns="http://www.w3.org/2000/svg" xmlns:xlink="http://www.w3.org/1999/xlink" width="16pt" height="16pt" viewBox="0 0 16 16" version="1.1">
<g id="surface1">
<path style=" stroke:none;fill-rule:nonzero;fill:rgb(54.901961%,54.901961%,54.901961%);fill-opacity:1;" d="M 4.335938 2.664062 L 11.664062 2.664062 C 12.035156 2.664062 12.335938 2.964844 12.335938 3.335938 L 12.335938 12.664062 C 12.335938 13.035156 12.035156 13.335938 11.664062 13.335938 L 4.335938 13.335938 C 3.964844 13.335938 3.664062 13.035156 3.664062 12.664062 L 3.664062 3.335938 C 3.664062 2.964844 3.964844 2.664062 4.335938 2.664062 Z M 4.335938 2.664062 "/>
<path style=" stroke:none;fill-rule:nonzero;fill:rgb(54.901961%,73.72549%,39.607843%);fill-opacity:0.462745;" d="M 10.015625 2.664062 L 11.34375 2.664062 L 11.34375 13.335938 L 10.015625 13.335938 Z M 10.015625 2.664062 "/>
<path style=" stroke:none;fill-rule:nonzero;fill:rgb(86.666667%,86.666667%,86.666667%);fill-opacity:1;" d="M 8.015625 4.414062 C 7.539062 4.40625 7.054688 4.515625 6.601562 4.757812 C 5.152344 5.523438 4.617188 7.320312 5.382812 8.765625 C 6.015625 9.96875 7.355469 10.546875 8.621094 10.277344 L 8.070312 8.328125 C 8.050781 8.328125 8.035156 8.339844 8.015625 8.339844 C 7.464844 8.339844 7.015625 7.890625 7.015625 7.339844 C 7.015625 6.789062 7.464844 6.339844 8.015625 6.339844 C 8.570312 6.339844 9.015625 6.789062 9.015625 7.339844 C 9.015625 7.585938 8.925781 7.8125 8.777344 7.984375 L 10.058594 9.515625 C 10.988281 8.617188 11.257812 7.179688 10.621094 5.984375 C 10.09375 4.988281 9.070312 4.421875 8.015625 4.414062 Z M 8.015625 4.414062 "/>
<path style=" stroke:none;fill-rule:nonzero;fill:rgb(86.666667%,86.666667%,86.666667%);fill-opacity:1;" d="M 9 8.996094 L 10 11.996094 L 11 11.996094 L 11 11.328125 Z M 9 8.996094 "/>
<path style=" stroke:none;fill-rule:nonzero;fill:rgb(57.647059%,63.137255%,63.137255%);fill-opacity:0.494118;" d="M 5.195312 8.257812 C 5.460938 9.089844 6.097656 9.78125 6.945312 10.113281 L 7.648438 8.25 C 7.546875 8.210938 7.453125 8.15625 7.367188 8.082031 C 7.226562 7.960938 7.125 7.808594 7.070312 7.644531 Z M 5.195312 8.257812 "/>
<path style=" stroke:none;fill-rule:nonzero;fill:rgb(54.901961%,73.72549%,39.607843%);fill-opacity:0.247059;" d="M 5.109375 6.726562 C 4.921875 7.585938 5.128906 8.5 5.699219 9.214844 L 7.234375 7.953125 C 7.164062 7.867188 7.117188 7.773438 7.078125 7.664062 C 7.015625 7.492188 7.003906 7.308594 7.039062 7.140625 Z M 5.109375 6.726562 "/>
<path style=" stroke:none;fill-rule:nonzero;fill:rgb(57.647059%,63.137255%,63.137255%);fill-opacity:0.494118;" d="M 10.796875 6.390625 C 10.527344 5.5625 9.882812 4.875 9.03125 4.546875 L 8.347656 6.414062 C 8.445312 6.453125 8.539062 6.507812 8.625 6.578125 C 8.765625 6.703125 8.871094 6.851562 8.929688 7.015625 Z M 10.796875 6.390625 "/>
<path style=" stroke:none;fill-rule:nonzero;fill:rgb(54.901961%,73.72549%,39.607843%);fill-opacity:0.192157;" d="M 10.894531 7.914062 C 11.078125 7.0625 10.863281 6.144531 10.289062 5.4375 L 8.761719 6.710938 C 8.828125 6.792969 8.882812 6.886719 8.917969 6.992188 C 8.980469 7.171875 8.996094 7.351562 8.960938 7.523438 Z M 10.894531 7.914062 "/>
</g>
</svg>
