<?xml version="1.0" encoding="UTF-8"?>
<svg xmlns="http://www.w3.org/2000/svg" xmlns:xlink="http://www.w3.org/1999/xlink" width="16pt" height="16pt" viewBox="0 0 16 16" version="1.1">
<g id="surface1">
<path style=" stroke:none;fill-rule:nonzero;fill:rgb(65.098039%,70.588235%,29.019608%);fill-opacity:1;" d="M 13.5 10 L 3.5 10 L 3.5 4.5 L 13.5 4.5 Z M 13.5 10 "/>
<path style=" stroke:none;fill-rule:nonzero;fill:rgb(2.745098%,21.176471%,25.882353%);fill-opacity:1;" d="M 4.5 5.5 L 4.5 6.5 L 8 6.5 L 8 5.5 Z M 4.5 5.5 "/>
<path style=" stroke:none;fill-rule:nonzero;fill:rgb(2.745098%,21.176471%,25.882353%);fill-opacity:1;" d="M 9 5.5 L 9 6.5 L 12.5 6.5 L 12.5 5.5 Z M 9 5.5 "/>
<path style=" stroke:none;fill-rule:nonzero;fill:rgb(2.745098%,21.176471%,25.882353%);fill-opacity:1;" d="M 4.5 7.5 L 4.5 8 L 12.5 8 L 12.5 7.5 Z M 4.5 7.5 "/>
<path style=" stroke:none;fill-rule:nonzero;fill:rgb(2.745098%,21.176471%,25.882353%);fill-opacity:1;" d="M 4.5 8.5 L 4.5 9 L 12.5 9 L 12.5 8.5 Z M 4.5 8.5 "/>
<path style=" stroke:none;fill-rule:nonzero;fill:rgb(52.156863%,60%,0%);fill-opacity:1;" d="M 2 4.5 L 3 4.5 L 3 6 L 2 6 Z M 2 4.5 "/>
<path style=" stroke:none;fill-rule:nonzero;fill:rgb(14.901961%,54.509804%,82.352941%);fill-opacity:1;" d="M 2 6.5 L 3 6.5 L 3 8 L 2 8 Z M 2 6.5 "/>
<path style=" stroke:none;fill-rule:nonzero;fill:rgb(86.27451%,19.607843%,18.431373%);fill-opacity:1;" d="M 2 8.5 L 3 8.5 L 3 10 L 2 10 Z M 2 8.5 "/>
<path style=" stroke:none;fill-rule:nonzero;fill:rgb(39.607843%,48.235294%,51.372549%);fill-opacity:1;" d="M 3.5 2.5 L 3 2.5 L 3 13 L 2.5 13 L 2.5 13.5 L 3.5 13.5 Z M 3.5 2.5 "/>
<path style=" stroke:none;fill-rule:nonzero;fill:rgb(99.215686%,96.470588%,89.019608%);fill-opacity:0.337255;" d="M 12 4.5 L 13 4.5 L 13 10 L 12 10 Z M 12 4.5 "/>
</g>
</svg>
