<?xml version="1.0" encoding="UTF-8" standalone="no"?>
<svg
   xmlns:dc="http://purl.org/dc/elements/1.1/"
   xmlns:cc="http://creativecommons.org/ns#"
   xmlns:rdf="http://www.w3.org/1999/02/22-rdf-syntax-ns#"
   xmlns:svg="http://www.w3.org/2000/svg"
   xmlns="http://www.w3.org/2000/svg"
   xmlns:sodipodi="http://sodipodi.sourceforge.net/DTD/sodipodi-0.dtd"
   xmlns:inkscape="http://www.inkscape.org/namespaces/inkscape"
   width="32"
   height="32"
   viewBox="0 0 32 32"
   id="svg2997"
   version="1.1"
   inkscape:version="0.48.5 r10040"
   sodipodi:docname="camera-web.svg">
  <metadata
     id="metadata3005">
    <rdf:RDF>
      <cc:Work
         rdf:about="">
        <dc:format>image/svg+xml</dc:format>
        <dc:type
           rdf:resource="http://purl.org/dc/dcmitype/StillImage" />
      </cc:Work>
    </rdf:RDF>
  </metadata>
  <defs
     id="defs3003" />
  <sodipodi:namedview
     pagecolor="#ffffff"
     bordercolor="#666666"
     borderopacity="1"
     objecttolerance="10"
     gridtolerance="10"
     guidetolerance="10"
     inkscape:pageopacity="0"
     inkscape:pageshadow="2"
     inkscape:window-width="640"
     inkscape:window-height="480"
     id="namedview3001"
     showgrid="false"
     inkscape:zoom="7.375"
     inkscape:cx="16"
     inkscape:cy="16"
     inkscape:window-x="0"
     inkscape:window-y="29"
     inkscape:window-maximized="0"
     inkscape:current-layer="svg2997" />
  <path
     style="fill:#8a8a8a;fill-opacity:1"
     d="M 16 5.332031 C 11.582031 5.332031 8 8.914062 8 13.332031 C 8 17.75 11.582031 21.332031 16 21.332031 C 20.417969 21.332031 24 17.75 24 13.332031 C 24 8.914062 20.417969 5.332031 16 5.332031 Z M 16 8.667969 C 18.574219 8.667969 20.667969 10.761719 20.667969 13.332031 C 20.667969 15.90625 18.574219 18 16 18 C 13.425781 18 11.332031 15.90625 11.332031 13.332031 C 11.332031 10.761719 13.425781 8.667969 16 8.667969 Z M 16 9.332031 C 13.785156 9.332031 12 11.121094 12 13.332031 C 12 15.546875 13.785156 17.332031 16 17.332031 C 18.214844 17.332031 20 15.546875 20 13.332031 C 20 11.121094 18.214844 9.332031 16 9.332031 Z M 16 11.332031 C 17.332031 11.332031 18 12 18 13.332031 C 18 14.667969 17.332031 15.332031 16 15.332031 C 14.667969 15.332031 14 14.667969 14 13.332031 C 14 12 14.667969 11.332031 16 11.332031 Z M 14 22.042969 L 14 24.042969 L 18 24.042969 L 18 22.042969 Z M 10.667969 24.707031 L 10.667969 26.042969 L 21.332031 26.042969 L 21.332031 24.707031 Z "
     id="path2999" />
</svg>
