<?xml version="1.0" encoding="UTF-8" standalone="no"?>
<svg
   xmlns:dc="http://purl.org/dc/elements/1.1/"
   xmlns:cc="http://creativecommons.org/ns#"
   xmlns:rdf="http://www.w3.org/1999/02/22-rdf-syntax-ns#"
   xmlns:svg="http://www.w3.org/2000/svg"
   xmlns="http://www.w3.org/2000/svg"
   xmlns:sodipodi="http://sodipodi.sourceforge.net/DTD/sodipodi-0.dtd"
   xmlns:inkscape="http://www.inkscape.org/namespaces/inkscape"
   width="32"
   height="32"
   viewBox="0 0 32 32"
   id="svg2"
   version="1.1"
   inkscape:version="0.48.5 r10040"
   sodipodi:docname="drive-cdrom.svg">
  <metadata
     id="metadata10">
    <rdf:RDF>
      <cc:Work
         rdf:about="">
        <dc:format>image/svg+xml</dc:format>
        <dc:type
           rdf:resource="http://purl.org/dc/dcmitype/StillImage" />
      </cc:Work>
    </rdf:RDF>
  </metadata>
  <defs
     id="defs8" />
  <sodipodi:namedview
     pagecolor="#ffffff"
     bordercolor="#666666"
     borderopacity="1"
     objecttolerance="10"
     gridtolerance="10"
     guidetolerance="10"
     inkscape:pageopacity="0"
     inkscape:pageshadow="2"
     inkscape:window-width="640"
     inkscape:window-height="480"
     id="namedview6"
     showgrid="false"
     inkscape:zoom="7.375"
     inkscape:cx="16"
     inkscape:cy="16"
     inkscape:window-x="0"
     inkscape:window-y="29"
     inkscape:window-maximized="0"
     inkscape:current-layer="svg2" />
  <path
     style="fill:#8a8a8a;fill-opacity:1"
     d="M 8.957031 5.332031 C 8.066406 5.332031 7.332031 6.066406 7.332031 6.957031 L 7.332031 20.355469 C 7.332031 21.246094 8.066406 22 8.957031 22 L 23.042969 22 C 23.933594 22 24.667969 21.246094 24.667969 20.355469 L 24.667969 6.957031 C 24.667969 6.066406 23.933594 5.332031 23.042969 5.332031 Z M 8.957031 6.667969 L 23.042969 6.667969 C 23.214844 6.667969 23.332031 6.785156 23.332031 6.957031 L 23.332031 20.355469 C 23.332031 20.527344 23.214844 20.667969 23.042969 20.667969 L 8.957031 20.667969 C 8.785156 20.667969 8.667969 20.527344 8.667969 20.355469 L 8.667969 6.957031 C 8.667969 6.785156 8.785156 6.667969 8.957031 6.667969 Z M 22 18.667969 C 21.632812 18.667969 21.332031 18.964844 21.332031 19.332031 C 21.332031 19.703125 21.632812 20 22 20 C 22.367188 20 22.667969 19.703125 22.667969 19.332031 C 22.667969 18.964844 22.367188 18.667969 22 18.667969 Z M 9.769531 22.667969 C 10.746094 25.011719 13.171875 26.667969 16 26.667969 C 18.828125 26.667969 21.253906 25.011719 22.230469 22.667969 Z "
     id="path4" />
</svg>
