<?xml version="1.0" encoding="UTF-8" standalone="no"?>
<svg
   xmlns:dc="http://purl.org/dc/elements/1.1/"
   xmlns:cc="http://creativecommons.org/ns#"
   xmlns:rdf="http://www.w3.org/1999/02/22-rdf-syntax-ns#"
   xmlns:svg="http://www.w3.org/2000/svg"
   xmlns="http://www.w3.org/2000/svg"
   xmlns:sodipodi="http://sodipodi.sourceforge.net/DTD/sodipodi-0.dtd"
   xmlns:inkscape="http://www.inkscape.org/namespaces/inkscape"
   width="32"
   height="32"
   viewBox="0 0 32 32"
   id="svg3023"
   version="1.1"
   inkscape:version="0.48.5 r10040"
   sodipodi:docname="gnome-phone-manager.svg">
  <metadata
     id="metadata3031">
    <rdf:RDF>
      <cc:Work
         rdf:about="">
        <dc:format>image/svg+xml</dc:format>
        <dc:type
           rdf:resource="http://purl.org/dc/dcmitype/StillImage" />
      </cc:Work>
    </rdf:RDF>
  </metadata>
  <defs
     id="defs3029" />
  <sodipodi:namedview
     pagecolor="#ffffff"
     bordercolor="#666666"
     borderopacity="1"
     objecttolerance="10"
     gridtolerance="10"
     guidetolerance="10"
     inkscape:pageopacity="0"
     inkscape:pageshadow="2"
     inkscape:window-width="640"
     inkscape:window-height="480"
     id="namedview3027"
     showgrid="false"
     inkscape:zoom="7.375"
     inkscape:cx="16"
     inkscape:cy="16"
     inkscape:window-x="0"
     inkscape:window-y="29"
     inkscape:window-maximized="0"
     inkscape:current-layer="svg3023" />
  <path
     style="fill:#8a8a8a;fill-opacity:1"
     d="M 12.417969 5.332031 C 11.460938 5.332031 10.667969 6.105469 10.667969 7.0625 L 10.667969 24.917969 C 10.667969 25.871094 11.460938 26.667969 12.417969 26.667969 L 19.582031 26.667969 C 20.539062 26.667969 21.332031 25.871094 21.332031 24.917969 L 21.332031 7.0625 C 21.332031 6.105469 20.539062 5.332031 19.582031 5.332031 Z M 15 6.667969 L 17 6.667969 C 17.183594 6.667969 17.332031 6.816406 17.332031 7 C 17.332031 7.183594 17.183594 7.332031 17 7.332031 L 15 7.332031 C 14.816406 7.332031 14.667969 7.183594 14.667969 7 C 14.667969 6.816406 14.816406 6.667969 15 6.667969 Z M 12 8 L 20 8 L 20 24 L 12 24 Z M 16 24.667969 C 16.367188 24.667969 16.667969 24.964844 16.667969 25.332031 C 16.667969 25.703125 16.367188 26 16 26 C 15.632812 26 15.332031 25.703125 15.332031 25.332031 C 15.332031 24.964844 15.632812 24.667969 16 24.667969 Z "
     id="path3025" />
</svg>
