<?xml version="1.0" encoding="UTF-8" standalone="no"?>
<svg
   xmlns:dc="http://purl.org/dc/elements/1.1/"
   xmlns:cc="http://creativecommons.org/ns#"
   xmlns:rdf="http://www.w3.org/1999/02/22-rdf-syntax-ns#"
   xmlns:svg="http://www.w3.org/2000/svg"
   xmlns="http://www.w3.org/2000/svg"
   xmlns:sodipodi="http://sodipodi.sourceforge.net/DTD/sodipodi-0.dtd"
   xmlns:inkscape="http://www.inkscape.org/namespaces/inkscape"
   width="32"
   height="32"
   viewBox="0 0 32 32"
   id="svg3131"
   version="1.1"
   inkscape:version="0.48.5 r10040"
   sodipodi:docname="kxkb.svg">
  <metadata
     id="metadata3155">
    <rdf:RDF>
      <cc:Work
         rdf:about="">
        <dc:format>image/svg+xml</dc:format>
        <dc:type
           rdf:resource="http://purl.org/dc/dcmitype/StillImage" />
      </cc:Work>
    </rdf:RDF>
  </metadata>
  <defs
     id="defs3153" />
  <sodipodi:namedview
     pagecolor="#ffffff"
     bordercolor="#666666"
     borderopacity="1"
     objecttolerance="10"
     gridtolerance="10"
     guidetolerance="10"
     inkscape:pageopacity="0"
     inkscape:pageshadow="2"
     inkscape:window-width="640"
     inkscape:window-height="480"
     id="namedview3151"
     showgrid="false"
     inkscape:zoom="7.375"
     inkscape:cx="16"
     inkscape:cy="16"
     inkscape:window-x="0"
     inkscape:window-y="29"
     inkscape:window-maximized="0"
     inkscape:current-layer="svg3131" />
  <g
     style="fill:#8a8a8a;fill-opacity:1"
     id="g3133">
    <path
       d="M 1.980469 7.917969 C 0.882812 7.917969 0 8.800781 0 9.894531 L 0 23.75 C 0 24.847656 0.882812 25.730469 1.980469 25.730469 L 29.6875 25.730469 C 30.785156 25.730469 31.667969 24.847656 31.667969 23.75 L 31.667969 9.894531 C 31.667969 8.800781 30.785156 7.917969 29.6875 7.917969 Z M 5.9375 11.875 L 25.730469 11.875 C 26.824219 11.875 27.707031 12.757812 27.707031 13.855469 L 27.707031 19.792969 C 27.707031 20.886719 26.824219 21.769531 25.730469 21.769531 L 5.9375 21.769531 C 4.839844 21.769531 3.957031 20.886719 3.957031 19.792969 L 3.957031 13.855469 C 3.957031 12.757812 4.839844 11.875 5.9375 11.875 Z "
       id="path3135"
       style="fill:#8a8a8a;fill-opacity:1" />
    <path
       d="M 5.9375 13.855469 L 5.9375 15.832031 L 7.917969 15.832031 L 7.917969 13.855469 Z "
       id="path3137"
       style="fill:#8a8a8a;fill-opacity:1" />
    <path
       d="M 9.894531 13.855469 L 9.894531 15.832031 L 11.875 15.832031 L 11.875 13.855469 Z "
       id="path3139"
       style="fill:#8a8a8a;fill-opacity:1" />
    <path
       d="M 13.855469 13.855469 L 13.855469 15.832031 L 15.832031 15.832031 L 15.832031 13.855469 Z "
       id="path3141"
       style="fill:#8a8a8a;fill-opacity:1" />
    <path
       d="M 17.8125 13.855469 L 17.8125 15.832031 L 19.792969 15.832031 L 19.792969 13.855469 Z "
       id="path3143"
       style="fill:#8a8a8a;fill-opacity:1" />
    <path
       d="M 5.9375 17.8125 L 5.9375 19.792969 L 9.96875 19.792969 L 9.96875 17.8125 Z "
       id="path3145"
       style="fill:#8a8a8a;fill-opacity:1" />
    <path
       d="M 11.875 17.8125 L 11.875 19.792969 L 21.699219 19.792969 L 21.699219 17.8125 Z "
       id="path3147"
       style="fill:#8a8a8a;fill-opacity:1" />
    <path
       d="M 21.769531 13.855469 L 21.769531 15.832031 L 23.75 15.832031 L 23.75 19.792969 L 25.730469 19.792969 L 25.730469 13.855469 Z "
       id="path3149"
       style="fill:#8a8a8a;fill-opacity:1" />
  </g>
</svg>
