<?xml version="1.0" encoding="UTF-8"?>
<svg xmlns="http://www.w3.org/2000/svg" xmlns:xlink="http://www.w3.org/1999/xlink" width="24pt" height="24pt" viewBox="0 0 24 24" version="1.1">
<g id="surface1">
<path style=" stroke:none;fill-rule:nonzero;fill:rgb(54.117647%,54.117647%,54.117647%);fill-opacity:1;" d="M 20.25 18 C 20.25 19.242188 19.242188 20.25 18 20.25 C 16.757812 20.25 15.75 19.242188 15.75 18 C 15.75 16.757812 16.757812 15.75 18 15.75 C 19.242188 15.75 20.25 16.757812 20.25 18 Z M 20.25 18 "/>
<path style=" stroke:none;fill-rule:nonzero;fill:rgb(54.117647%,54.117647%,54.117647%);fill-opacity:1;" d="M 20.25 6 C 20.25 7.242188 19.242188 8.25 18 8.25 C 16.757812 8.25 15.75 7.242188 15.75 6 C 15.75 4.757812 16.757812 3.75 18 3.75 C 19.242188 3.75 20.25 4.757812 20.25 6 Z M 20.25 6 "/>
<path style=" stroke:none;fill-rule:nonzero;fill:rgb(54.117647%,54.117647%,54.117647%);fill-opacity:1;" d="M 8.25 18 C 8.25 19.242188 7.242188 20.25 6 20.25 C 4.757812 20.25 3.75 19.242188 3.75 18 C 3.75 16.757812 4.757812 15.75 6 15.75 C 7.242188 15.75 8.25 16.757812 8.25 18 Z M 8.25 18 "/>
<path style=" stroke:none;fill-rule:nonzero;fill:rgb(54.117647%,54.117647%,54.117647%);fill-opacity:1;" d="M 8.25 6 C 8.25 7.242188 7.242188 8.25 6 8.25 C 4.757812 8.25 3.75 7.242188 3.75 6 C 3.75 4.757812 4.757812 3.75 6 3.75 C 7.242188 3.75 8.25 4.757812 8.25 6 Z M 8.25 6 "/>
<path style=" stroke:none;fill-rule:nonzero;fill:rgb(54.901961%,73.72549%,39.607843%);fill-opacity:1;" d="M 21 12 C 21 16.96875 16.96875 21 12 21 C 7.03125 21 3 16.96875 3 12 C 3 7.03125 7.03125 3 12 3 C 16.96875 3 21 7.03125 21 12 Z M 21 12 "/>
<path style=" stroke:none;fill-rule:nonzero;fill:rgb(54.117647%,54.117647%,54.117647%);fill-opacity:1;" d="M 19.3125 12 C 19.3125 16.039062 16.039062 19.3125 12 19.3125 C 7.960938 19.3125 4.6875 16.039062 4.6875 12 C 4.6875 7.960938 7.960938 4.6875 12 4.6875 C 16.039062 4.6875 19.3125 7.960938 19.3125 12 Z M 19.3125 12 "/>
<path style=" stroke:none;fill-rule:nonzero;fill:rgb(54.901961%,73.72549%,39.607843%);fill-opacity:0.254902;" d="M 12 12 L 12.597656 19.277344 C 14.324219 19.132812 15.929688 18.382812 17.144531 17.183594 Z M 12 12 "/>
<path style=" stroke:none;fill-rule:nonzero;fill:rgb(54.901961%,73.72549%,39.607843%);fill-opacity:0.254902;" d="M 12 12 L 16.15625 18 C 17.582031 17.015625 18.597656 15.5625 19.046875 13.914062 Z M 12 12 "/>
<path style="fill:none;stroke-width:2;stroke-linecap:butt;stroke-linejoin:miter;stroke:rgb(99.215686%,96.470588%,89.019608%);stroke-opacity:0.156863;stroke-miterlimit:4;" d="M 37.000002 24.000085 C 37.000002 31.180601 31.180557 37.000014 24 37.000014 C 16.819443 37.000014 10.999998 31.180601 10.999998 24.000085 C 10.999998 16.819569 16.819443 11.000157 24 11.000157 C 31.180557 11.000157 37.000002 16.819569 37.000002 24.000085 Z M 37.000002 24.000085 " transform="matrix(0.5625,0,0,0.562503,-1.499998,-1.500122)"/>
<path style=" stroke:none;fill-rule:nonzero;fill:rgb(54.901961%,73.72549%,39.607843%);fill-opacity:0.262745;" d="M 12 12 L 11.402344 4.722656 C 9.675781 4.863281 8.070312 5.617188 6.855469 6.816406 Z M 12 12 "/>
<path style=" stroke:none;fill-rule:nonzero;fill:rgb(54.901961%,73.72549%,39.607843%);fill-opacity:0.145098;" d="M 12 12 L 7.84375 5.996094 C 6.417969 6.984375 5.402344 8.4375 4.953125 10.085938 Z M 12 12 "/>
<path style=" stroke:none;fill-rule:nonzero;fill:rgb(54.901961%,73.72549%,39.607843%);fill-opacity:1;" d="M 15 12 C 15 13.65625 13.65625 15 12 15 C 10.34375 15 9 13.65625 9 12 C 9 10.34375 10.34375 9 12 9 C 13.65625 9 15 10.34375 15 12 Z M 15 12 "/>
</g>
</svg>
