<?xml version="1.0" encoding="UTF-8"?>
<svg xmlns="http://www.w3.org/2000/svg" xmlns:xlink="http://www.w3.org/1999/xlink" width="24pt" height="24pt" viewBox="0 0 24 24" version="1.1">
<g id="surface1">
<path style="fill:none;stroke-width:0.5;stroke-linecap:butt;stroke-linejoin:miter;stroke:rgb(100%,100%,100%);stroke-opacity:1;stroke-miterlimit:4;" d="M 14.996905 16.877483 L 12.815086 31.09718 L 32.746905 31.09718 L 29.996905 16.869907 Z M 14.996905 16.877483 " transform="matrix(0.515625,0,0,0.515625,-2.12731,-1.596983)"/>
<path style="fill:none;stroke-width:0.5;stroke-linecap:butt;stroke-linejoin:miter;stroke:rgb(100%,100%,100%);stroke-opacity:1;stroke-miterlimit:4;" d="M 12.739329 31.582028 L 12.739329 34.612331 L 32.822662 34.612331 L 32.822662 31.582028 Z M 12.739329 31.582028 " transform="matrix(0.515625,0,0,0.515625,-2.12731,-1.596983)"/>
<path style="fill:none;stroke-width:0.4;stroke-linecap:butt;stroke-linejoin:miter;stroke:rgb(100%,100%,100%);stroke-opacity:1;stroke-miterlimit:4;" d="M 24.857354 1036.350068 L 15.713415 1036.350068 L 15.713415 1035.41825 C 18.675536 1035.41825 22.137657 1035.41825 24.857354 1035.41825 Z M 24.857354 1036.350068 " transform="matrix(0.515625,0,0,0.515625,-2.754573,-518.575035)"/>
<path style="fill:none;stroke-width:0.4;stroke-linecap:butt;stroke-linejoin:miter;stroke:rgb(100%,100%,100%);stroke-opacity:1;stroke-miterlimit:4;" d="M 26.584627 1036.350068 L 31.092203 1036.350068 L 31.092203 1035.698553 L 26.584627 1035.698553 Z M 26.584627 1036.350068 " transform="matrix(0.515625,0,0,0.515625,-2.754573,-518.575035)"/>
<path style=" stroke:none;fill-rule:nonzero;fill:rgb(54.117647%,54.117647%,54.117647%);fill-opacity:1;" d="M 5.976562 5.988281 L 7.476562 5.988281 C 7.894531 5.988281 8.226562 6.324219 8.226562 6.738281 C 8.226562 7.152344 7.894531 7.488281 7.476562 7.488281 L 5.976562 7.488281 C 5.5625 7.488281 5.226562 7.152344 5.226562 6.738281 C 5.226562 6.324219 5.5625 5.988281 5.976562 5.988281 Z M 5.976562 5.988281 "/>
<path style=" stroke:none;fill-rule:nonzero;fill:rgb(54.117647%,54.117647%,54.117647%);fill-opacity:1;" d="M 4.703125 6.738281 L 19.296875 6.738281 C 19.824219 6.738281 20.25 7.164062 20.25 7.691406 L 20.25 16.285156 C 20.25 16.8125 19.824219 17.238281 19.296875 17.238281 L 4.703125 17.238281 C 4.175781 17.238281 3.75 16.8125 3.75 16.285156 L 3.75 7.691406 C 3.75 7.164062 4.175781 6.738281 4.703125 6.738281 Z M 4.703125 6.738281 "/>
<path style=" stroke:none;fill-rule:nonzero;fill:rgb(93.333333%,90.980392%,83.529412%);fill-opacity:0.290196;" d="M 17.269531 6.738281 L 19.519531 6.738281 L 19.519531 17.238281 L 17.269531 17.238281 Z M 17.269531 6.738281 "/>
<path style=" stroke:none;fill-rule:nonzero;fill:rgb(37.254902%,37.254902%,37.254902%);fill-opacity:1;" d="M 18 12 C 18 15.3125 15.3125 18 12 18 C 8.6875 18 6 15.3125 6 12 C 6 8.6875 8.6875 6 12 6 C 15.3125 6 18 8.6875 18 12 Z M 18 12 "/>
<path style=" stroke:none;fill-rule:nonzero;fill:rgb(87.45098%,87.45098%,87.45098%);fill-opacity:1;" d="M 15.742188 12 C 15.742188 14.070312 14.0625 15.746094 11.996094 15.746094 C 9.925781 15.746094 8.25 14.070312 8.25 12 C 8.25 9.929688 9.925781 8.253906 11.996094 8.253906 C 14.0625 8.253906 15.742188 9.929688 15.742188 12 Z M 15.742188 12 "/>
<path style=" stroke:none;fill-rule:nonzero;fill:rgb(54.509804%,58.823529%,57.254902%);fill-opacity:0.498039;" d="M 13.996094 8.839844 C 14.605469 9.507812 14.96875 10.382812 14.96875 11.355469 C 14.96875 13.425781 13.292969 15.101562 11.222656 15.101562 C 10.496094 15.101562 9.828125 14.894531 9.253906 14.535156 C 9.9375 15.277344 10.917969 15.746094 12.003906 15.746094 C 14.074219 15.746094 15.75 14.070312 15.75 12 C 15.75 10.667969 15.042969 9.503906 13.996094 8.839844 Z M 13.996094 8.839844 "/>
<path style=" stroke:none;fill-rule:nonzero;fill:rgb(87.45098%,87.45098%,87.45098%);fill-opacity:1;" d="M 19.136719 7.910156 C 19.136719 8.335938 18.792969 8.679688 18.367188 8.679688 C 17.945312 8.679688 17.601562 8.335938 17.601562 7.910156 C 17.601562 7.484375 17.945312 7.140625 18.367188 7.140625 C 18.792969 7.140625 19.136719 7.484375 19.136719 7.910156 Z M 19.136719 7.910156 "/>
</g>
</svg>
