<?xml version="1.0" encoding="UTF-8"?>
<svg xmlns="http://www.w3.org/2000/svg" xmlns:xlink="http://www.w3.org/1999/xlink" width="24pt" height="24pt" viewBox="0 0 24 24" version="1.1">
<g id="surface1">
<path style=" stroke:none;fill-rule:nonzero;fill:rgb(54.117647%,54.117647%,54.117647%);fill-opacity:1;" d="M 12 4 C 8.6875 4 6 6.683594 6 10 C 6 13.3125 8.6875 16 12 16 C 15.3125 16 18 13.3125 18 10 C 18 6.683594 15.3125 4 12 4 Z M 12 6.5 C 13.929688 6.5 15.5 8.070312 15.5 10 C 15.5 11.929688 13.929688 13.5 12 13.5 C 10.070312 13.5 8.5 11.929688 8.5 10 C 8.5 8.070312 10.070312 6.5 12 6.5 Z M 12 7 C 10.339844 7 9 8.339844 9 10 C 9 11.660156 10.339844 13 12 13 C 13.660156 13 15 11.660156 15 10 C 15 8.339844 13.660156 7 12 7 Z M 12 8.5 C 13 8.5 13.5 9 13.5 10 C 13.5 11 13 11.5 12 11.5 C 11 11.5 10.5 11 10.5 10 C 10.5 9 11 8.5 12 8.5 Z M 10.5 16.53125 L 10.5 18.03125 L 13.5 18.03125 L 13.5 16.53125 Z M 8 18.53125 L 8 19.53125 L 16 19.53125 L 16 18.53125 Z M 8 18.53125 "/>
</g>
</svg>
