<?xml version="1.0" encoding="UTF-8"?>
<svg xmlns="http://www.w3.org/2000/svg" xmlns:xlink="http://www.w3.org/1999/xlink" width="24pt" height="24pt" viewBox="0 0 24 24" version="1.1">
<g id="surface1">
<path style=" stroke:none;fill-rule:nonzero;fill:rgb(97.254902%,91.372549%,72.156863%);fill-opacity:1;" d="M 6 3.75 L 18 3.75 L 18 10.5 L 6 10.5 Z M 6 3.75 "/>
<path style=" stroke:none;fill-rule:nonzero;fill:rgb(45.490196%,61.960784%,73.333333%);fill-opacity:1;" d="M 4.78125 10.503906 C 4.210938 10.503906 3.75 10.964844 3.75 11.535156 L 3.75 17.722656 C 3.75 18.292969 4.210938 18.753906 4.78125 18.753906 L 6 18.75 L 6 15.75 L 18 15.75 L 18 18.75 L 19.21875 18.753906 C 19.789062 18.753906 20.25 18.292969 20.25 17.722656 L 20.25 11.535156 C 20.25 10.964844 19.789062 10.503906 19.21875 10.503906 Z M 4.78125 10.503906 "/>
<path style=" stroke:none;fill-rule:nonzero;fill:rgb(97.254902%,91.372549%,72.156863%);fill-opacity:1;" d="M 6 15.75 L 18 15.75 L 18 20.25 L 6 20.25 Z M 6 15.75 "/>
<path style=" stroke:none;fill-rule:nonzero;fill:rgb(33.333333%,50.196078%,61.568627%);fill-opacity:1;" d="M 6 10.5 L 18 10.5 L 18 11.25 L 6 11.25 Z M 6 10.5 "/>
<path style=" stroke:none;fill-rule:nonzero;fill:rgb(33.333333%,50.196078%,61.568627%);fill-opacity:1;" d="M 6 12 L 18 12 L 18 15 L 6 15 Z M 6 12 "/>
<path style=" stroke:none;fill-rule:nonzero;fill:rgb(93.333333%,90.980392%,83.529412%);fill-opacity:1;" d="M 17.257812 13.535156 C 17.257812 13.953125 16.917969 14.292969 16.5 14.292969 C 16.082031 14.292969 15.742188 13.953125 15.742188 13.535156 C 15.742188 13.117188 16.082031 12.777344 16.5 12.777344 C 16.917969 12.777344 17.257812 13.117188 17.257812 13.535156 Z M 17.257812 13.535156 "/>
<path style=" stroke:none;fill-rule:nonzero;fill:rgb(93.333333%,90.980392%,83.529412%);fill-opacity:0.309804;" d="M 18 10.5 L 19.5 10.5 L 19.5 18.75 L 18 18.75 Z M 18 10.5 "/>
</g>
</svg>
