<?xml version="1.0" encoding="UTF-8"?>
<svg xmlns="http://www.w3.org/2000/svg" xmlns:xlink="http://www.w3.org/1999/xlink" width="24pt" height="24pt" viewBox="0 0 24 24" version="1.1">
<g id="surface1">
<path style=" stroke:none;fill-rule:nonzero;fill:rgb(40.392157%,65.098039%,82.352941%);fill-opacity:1;" d="M 4.265625 4.300781 L 19.734375 4.300781 L 19.734375 15.644531 L 4.265625 15.644531 Z M 4.265625 4.300781 "/>
<path style=" stroke:none;fill-rule:nonzero;fill:rgb(93.333333%,90.980392%,83.529412%);fill-opacity:0.231373;" d="M 14.0625 4.300781 L 10.113281 15.644531 L 19.734375 15.644531 L 19.734375 4.300781 Z M 14.0625 4.300781 "/>
<path style=" stroke:none;fill-rule:nonzero;fill:rgb(11.764706%,25.098039%,30.196078%);fill-opacity:1;" d="M 5.183594 3.792969 C 5.183594 3.792969 3.75 3.792969 3.75 5.292969 L 3.75 15.042969 C 3.75 15.367188 3.75 16.542969 5.25 16.542969 L 9.75 16.542969 L 9.75 17.292969 L 14.25 17.292969 L 14.25 16.542969 L 18.75 16.542969 C 20.25 16.542969 20.25 15.042969 20.25 15.042969 L 20.25 5.292969 C 20.25 3.792969 18.75 3.792969 18.75 3.792969 Z M 5.582031 5.292969 C 5.609375 5.289062 5.632812 5.289062 5.660156 5.292969 L 18.316406 5.292969 C 18.535156 5.292969 18.730469 5.488281 18.730469 5.707031 L 18.777344 14.65625 C 18.777344 14.871094 18.582031 15.070312 18.367188 15.070312 L 5.707031 15.070312 C 5.492188 15.070312 5.296875 14.871094 5.296875 14.65625 L 5.246094 5.707031 C 5.246094 5.511719 5.394531 5.328125 5.582031 5.292969 Z M 6.75 18.042969 L 6.75 19.542969 L 17.25 19.542969 L 17.25 18.042969 Z M 6.75 18.042969 "/>
<path style="fill-rule:nonzero;fill:rgb(99.215686%,96.470588%,89.019608%);fill-opacity:1;stroke-width:2;stroke-linecap:round;stroke-linejoin:miter;stroke:rgb(99.215686%,96.470588%,89.019608%);stroke-opacity:1;stroke-miterlimit:4;" d="M 9.036458 11.015625 L 9.036458 9.015625 L 11.036458 9.015625 " transform="matrix(0.75,0,0,0.75,0,0)"/>
<path style="fill-rule:nonzero;fill:rgb(99.215686%,96.470588%,89.019608%);fill-opacity:1;stroke-width:2;stroke-linecap:round;stroke-linejoin:miter;stroke:rgb(99.215686%,96.470588%,89.019608%);stroke-opacity:1;stroke-miterlimit:4;" d="M 20.984375 9.015625 L 22.984375 9.015625 L 22.984375 11.015625 " transform="matrix(0.75,0,0,0.75,0,0)"/>
<path style="fill-rule:nonzero;fill:rgb(99.215686%,96.470588%,89.019608%);fill-opacity:1;stroke-width:2;stroke-linecap:round;stroke-linejoin:miter;stroke:rgb(99.215686%,96.470588%,89.019608%);stroke-opacity:1;stroke-miterlimit:4;" d="M 22.984375 15.989583 L 22.984375 17.989583 L 20.984375 17.989583 " transform="matrix(0.75,0,0,0.75,0,0)"/>
<path style="fill-rule:nonzero;fill:rgb(99.215686%,96.470588%,89.019608%);fill-opacity:1;stroke-width:2;stroke-linecap:round;stroke-linejoin:miter;stroke:rgb(99.215686%,96.470588%,89.019608%);stroke-opacity:1;stroke-miterlimit:4;" d="M 11.036458 17.989583 L 9.036458 17.989583 L 9.036458 15.989583 " transform="matrix(0.75,0,0,0.75,0,0)"/>
</g>
</svg>
