<?xml version="1.0" encoding="UTF-8"?>
<svg xmlns="http://www.w3.org/2000/svg" xmlns:xlink="http://www.w3.org/1999/xlink" width="24pt" height="24pt" viewBox="0 0 24 24" version="1.1">
<g id="surface1">
<path style=" stroke:none;fill-rule:nonzero;fill:rgb(54.117647%,54.117647%,54.117647%);fill-opacity:1;" d="M 6.71875 4 C 6.050781 4 5.5 4.550781 5.5 5.21875 L 5.5 15.265625 C 5.5 15.933594 6.050781 16.5 6.71875 16.5 L 17.28125 16.5 C 17.949219 16.5 18.5 15.933594 18.5 15.265625 L 18.5 5.21875 C 18.5 4.550781 17.949219 4 17.28125 4 Z M 6.71875 5 L 17.28125 5 C 17.410156 5 17.5 5.089844 17.5 5.21875 L 17.5 15.265625 C 17.5 15.394531 17.410156 15.5 17.28125 15.5 L 6.71875 15.5 C 6.589844 15.5 6.5 15.394531 6.5 15.265625 L 6.5 5.21875 C 6.5 5.089844 6.589844 5 6.71875 5 Z M 16.5 14 C 16.222656 14 16 14.222656 16 14.5 C 16 14.777344 16.222656 15 16.5 15 C 16.777344 15 17 14.777344 17 14.5 C 17 14.222656 16.777344 14 16.5 14 Z M 7.328125 17 C 8.058594 18.757812 9.878906 20 12 20 C 14.121094 20 15.941406 18.757812 16.671875 17 Z M 7.328125 17 "/>
</g>
</svg>
