<?xml version="1.0" encoding="UTF-8"?>
<svg xmlns="http://www.w3.org/2000/svg" xmlns:xlink="http://www.w3.org/1999/xlink" width="24pt" height="24pt" viewBox="0 0 24 24" version="1.1">
<g id="surface1">
<path style=" stroke:none;fill-rule:nonzero;fill:rgb(54.901961%,54.901961%,54.901961%);fill-opacity:1;" d="M 6.5 4 L 17.5 4 C 18.050781 4 18.5 4.449219 18.5 5 L 18.5 19 C 18.5 19.550781 18.050781 20 17.5 20 L 6.5 20 C 5.949219 20 5.5 19.550781 5.5 19 L 5.5 5 C 5.5 4.449219 5.949219 4 6.5 4 Z M 6.5 4 "/>
<path style=" stroke:none;fill-rule:nonzero;fill:rgb(54.901961%,73.72549%,39.607843%);fill-opacity:0.462745;" d="M 15.019531 4 L 17.019531 4 L 17.019531 20 L 15.019531 20 Z M 15.019531 4 "/>
<path style=" stroke:none;fill-rule:nonzero;fill:rgb(86.666667%,86.666667%,86.666667%);fill-opacity:1;" d="M 12.027344 6.617188 C 11.308594 6.609375 10.578125 6.773438 9.902344 7.132812 C 7.730469 8.285156 6.921875 10.976562 8.074219 13.148438 C 9.027344 14.949219 11.035156 15.820312 12.933594 15.417969 L 12.105469 12.492188 C 12.074219 12.496094 12.050781 12.511719 12.027344 12.511719 C 11.199219 12.511719 10.527344 11.835938 10.527344 11.011719 C 10.527344 10.179688 11.199219 9.511719 12.027344 9.511719 C 12.855469 9.511719 13.527344 10.179688 13.527344 11.011719 C 13.527344 11.378906 13.386719 11.714844 13.167969 11.976562 L 15.089844 14.273438 C 16.480469 12.929688 16.882812 10.773438 15.933594 8.976562 C 15.140625 7.480469 13.605469 6.632812 12.027344 6.617188 Z M 12.027344 6.617188 "/>
<path style=" stroke:none;fill-rule:nonzero;fill:rgb(86.666667%,86.666667%,86.666667%);fill-opacity:1;" d="M 13.5 13.496094 L 15 17.996094 L 16.5 17.996094 L 16.5 16.992188 Z M 13.5 13.496094 "/>
<path style=" stroke:none;fill-rule:nonzero;fill:rgb(57.647059%,63.137255%,63.137255%);fill-opacity:0.494118;" d="M 7.792969 12.382812 C 8.191406 13.636719 9.144531 14.671875 10.421875 15.167969 L 11.46875 12.378906 C 11.316406 12.320312 11.183594 12.234375 11.050781 12.121094 C 10.84375 11.941406 10.6875 11.714844 10.605469 11.464844 Z M 7.792969 12.382812 "/>
<path style=" stroke:none;fill-rule:nonzero;fill:rgb(54.901961%,73.72549%,39.607843%);fill-opacity:0.247059;" d="M 7.664062 10.09375 C 7.386719 11.375 7.691406 12.753906 8.550781 13.824219 L 10.851562 11.929688 C 10.75 11.800781 10.675781 11.660156 10.617188 11.5 C 10.527344 11.234375 10.503906 10.964844 10.558594 10.707031 Z M 7.664062 10.09375 "/>
<path style=" stroke:none;fill-rule:nonzero;fill:rgb(57.647059%,63.137255%,63.137255%);fill-opacity:0.494118;" d="M 16.199219 9.585938 C 15.792969 8.339844 14.828125 7.308594 13.546875 6.816406 L 12.519531 9.617188 C 12.671875 9.675781 12.808594 9.757812 12.941406 9.871094 C 13.152344 10.050781 13.308594 10.277344 13.390625 10.523438 Z M 16.199219 9.585938 "/>
<path style=" stroke:none;fill-rule:nonzero;fill:rgb(54.901961%,73.72549%,39.607843%);fill-opacity:0.192157;" d="M 16.339844 11.875 C 16.613281 10.589844 16.292969 9.214844 15.429688 8.152344 L 13.144531 10.0625 C 13.246094 10.191406 13.320312 10.332031 13.378906 10.492188 C 13.472656 10.753906 13.496094 11.027344 13.445312 11.28125 Z M 16.339844 11.875 "/>
</g>
</svg>
