<?xml version="1.0" encoding="UTF-8"?>
<svg xmlns="http://www.w3.org/2000/svg" xmlns:xlink="http://www.w3.org/1999/xlink" width="24pt" height="24pt" viewBox="0 0 24 24" version="1.1">
<g id="surface1">
<path style=" stroke:none;fill-rule:nonzero;fill:rgb(54.117647%,54.117647%,54.117647%);fill-opacity:1;" d="M 4.90625 4.542969 L 16.117188 4.542969 C 16.59375 4.542969 16.980469 4.925781 16.980469 5.40625 L 16.980469 16.636719 C 16.980469 17.113281 16.59375 17.5 16.117188 17.5 L 4.90625 17.5 C 4.429688 17.5 4.042969 17.113281 4.042969 16.636719 L 4.042969 5.40625 C 4.042969 4.925781 4.429688 4.542969 4.90625 4.542969 Z M 4.90625 4.542969 "/>
<path style=" stroke:none;fill-rule:nonzero;fill:rgb(54.117647%,54.117647%,54.117647%);fill-opacity:1;" d="M 19.464844 17.160156 L 19.445312 7.882812 L 19.746094 7.132812 L 19.984375 7.84375 L 20 17.160156 Z M 19.464844 17.160156 "/>
<path style=" stroke:none;fill-rule:nonzero;fill:rgb(54.117647%,54.117647%,54.117647%);fill-opacity:1;" d="M 19.578125 17.019531 C 19.566406 17.140625 19.597656 17.339844 19.625 17.535156 C 19.644531 17.699219 19.648438 17.804688 19.65625 17.851562 C 19.621094 17.867188 19.582031 17.894531 19.5 17.929688 C 19.441406 17.953125 19.378906 17.976562 19.328125 17.992188 C 19.277344 18.003906 19.238281 18.003906 19.25 18.003906 C 19.242188 18 19.234375 17.992188 19.21875 17.976562 C 19.191406 17.941406 19.140625 17.886719 19.09375 17.835938 C 19.003906 17.726562 18.886719 17.597656 18.75 17.488281 C 18.613281 17.386719 18.464844 17.296875 18.296875 17.300781 C 18.128906 17.3125 17.953125 17.433594 17.828125 17.664062 C 17.582031 18.109375 17.605469 18.414062 17.578125 18.585938 C 17.5625 18.671875 17.539062 18.714844 17.484375 18.753906 C 17.429688 18.796875 17.316406 18.835938 17.109375 18.867188 C 16.675781 18.929688 16.335938 19.054688 16.09375 19.070312 C 15.972656 19.074219 15.871094 19.058594 15.796875 19.007812 C 15.722656 18.953125 15.675781 18.855469 15.625 18.679688 C 15.425781 17.949219 15.640625 17.429688 15.640625 17.429688 L 15.484375 17.367188 C 15.484375 17.367188 15.242188 17.949219 15.453125 18.726562 C 15.507812 18.921875 15.589844 19.0625 15.703125 19.148438 C 15.816406 19.230469 15.949219 19.246094 16.09375 19.242188 C 16.378906 19.222656 16.726562 19.097656 17.140625 19.035156 C 17.359375 19.003906 17.480469 18.953125 17.578125 18.882812 C 17.675781 18.8125 17.714844 18.722656 17.734375 18.613281 C 17.769531 18.40625 17.757812 18.160156 17.984375 17.742188 C 18.09375 17.539062 18.191406 17.480469 18.296875 17.476562 C 18.402344 17.46875 18.535156 17.523438 18.65625 17.617188 C 18.777344 17.710938 18.878906 17.839844 18.96875 17.945312 C 19.011719 17.996094 19.058594 18.046875 19.09375 18.085938 C 19.109375 18.101562 19.125 18.117188 19.140625 18.132812 C 19.152344 18.144531 19.167969 18.152344 19.203125 18.164062 C 19.269531 18.183594 19.316406 18.164062 19.375 18.144531 C 19.433594 18.128906 19.5 18.113281 19.5625 18.085938 C 19.683594 18.03125 19.796875 17.976562 19.796875 17.976562 L 19.84375 17.945312 L 19.84375 17.882812 C 19.84375 17.882812 19.808594 17.714844 19.78125 17.523438 C 19.753906 17.328125 19.742188 17.089844 19.75 17.019531 Z M 19.578125 17.019531 "/>
</g>
</svg>
