<?xml version="1.0" encoding="UTF-8"?>
<svg xmlns="http://www.w3.org/2000/svg" xmlns:xlink="http://www.w3.org/1999/xlink" width="24pt" height="24pt" viewBox="0 0 24 24" version="1.1">
<g id="surface1">
<path style=" stroke:none;fill-rule:nonzero;fill:rgb(54.117647%,54.117647%,54.117647%);fill-opacity:1;" d="M 1.484375 5.9375 C 0.660156 5.9375 0 6.601562 0 7.421875 L 0 17.8125 C 0 18.636719 0.660156 19.296875 1.484375 19.296875 L 22.265625 19.296875 C 23.089844 19.296875 23.75 18.636719 23.75 17.8125 L 23.75 7.421875 C 23.75 6.601562 23.089844 5.9375 22.265625 5.9375 Z M 4.453125 8.90625 L 19.296875 8.90625 C 20.117188 8.90625 20.78125 9.566406 20.78125 10.390625 L 20.78125 14.84375 C 20.78125 15.664062 20.117188 16.328125 19.296875 16.328125 L 4.453125 16.328125 C 3.628906 16.328125 2.96875 15.664062 2.96875 14.84375 L 2.96875 10.390625 C 2.96875 9.566406 3.628906 8.90625 4.453125 8.90625 Z M 4.453125 8.90625 "/>
<path style=" stroke:none;fill-rule:nonzero;fill:rgb(54.117647%,54.117647%,54.117647%);fill-opacity:1;" d="M 4.453125 10.390625 L 4.453125 11.875 L 5.9375 11.875 L 5.9375 10.390625 Z M 4.453125 10.390625 "/>
<path style=" stroke:none;fill-rule:nonzero;fill:rgb(54.117647%,54.117647%,54.117647%);fill-opacity:1;" d="M 7.421875 10.390625 L 7.421875 11.875 L 8.90625 11.875 L 8.90625 10.390625 Z M 7.421875 10.390625 "/>
<path style=" stroke:none;fill-rule:nonzero;fill:rgb(54.117647%,54.117647%,54.117647%);fill-opacity:1;" d="M 10.390625 10.390625 L 10.390625 11.875 L 11.875 11.875 L 11.875 10.390625 Z M 10.390625 10.390625 "/>
<path style=" stroke:none;fill-rule:nonzero;fill:rgb(54.117647%,54.117647%,54.117647%);fill-opacity:1;" d="M 13.359375 10.390625 L 13.359375 11.875 L 14.84375 11.875 L 14.84375 10.390625 Z M 13.359375 10.390625 "/>
<path style=" stroke:none;fill-rule:nonzero;fill:rgb(54.117647%,54.117647%,54.117647%);fill-opacity:1;" d="M 4.453125 13.359375 L 4.453125 14.84375 L 7.476562 14.84375 L 7.476562 13.359375 Z M 4.453125 13.359375 "/>
<path style=" stroke:none;fill-rule:nonzero;fill:rgb(54.117647%,54.117647%,54.117647%);fill-opacity:1;" d="M 8.90625 13.359375 L 8.90625 14.84375 L 16.273438 14.84375 L 16.273438 13.359375 Z M 8.90625 13.359375 "/>
<path style=" stroke:none;fill-rule:nonzero;fill:rgb(54.117647%,54.117647%,54.117647%);fill-opacity:1;" d="M 16.328125 10.390625 L 16.328125 11.875 L 17.8125 11.875 L 17.8125 14.84375 L 19.296875 14.84375 L 19.296875 10.390625 Z M 16.328125 10.390625 "/>
</g>
</svg>
