<?xml version="1.0" encoding="UTF-8"?>
<svg xmlns="http://www.w3.org/2000/svg" xmlns:xlink="http://www.w3.org/1999/xlink" width="24pt" height="24pt" viewBox="0 0 24 24" version="1.1">
<g id="surface1">
<path style="fill:none;stroke-width:1;stroke-linecap:butt;stroke-linejoin:miter;stroke:rgb(18.039216%,20.392157%,21.176471%);stroke-opacity:1;stroke-miterlimit:4;" d="M 301.47505 53.241921 L 301.47505 93.624532 C 301.545362 94.671402 302.482858 95.718271 303.865663 95.616709 L 335.717066 95.616709 C 336.607687 95.569835 337.498308 94.827651 337.47487 93.358908 L 337.47487 56.429405 C 337.47487 55.710659 337.248309 55.234099 336.724874 54.718476 C 336.724874 54.718476 333.974888 51.882553 333.974888 51.882553 C 333.701451 51.609117 333.521765 51.499743 332.732706 51.499743 L 302.732856 51.499743 C 301.795361 51.562242 301.435988 52.499738 301.498488 53.241921 Z M 301.47505 53.241921 " transform="matrix(0.500003,0,0,0.500003,-147.999998,-25.5)"/>
<path style="fill-rule:evenodd;fill:rgb(92.54902%,83.137255%,0%);fill-opacity:1;stroke-width:3;stroke-linecap:butt;stroke-linejoin:miter;stroke:rgb(18.039216%,20.392157%,21.176471%);stroke-opacity:1;stroke-miterlimit:4;" d="M 307.381271 55.616909 L 331.560837 55.616909 C 332.607707 55.616909 333.459265 56.468468 333.459265 57.515337 L 333.459265 70.718396 C 333.459265 71.765266 332.607707 72.616824 331.560837 72.616824 L 307.381271 72.616824 C 306.326588 72.616824 305.482843 71.765266 305.482843 70.718396 L 305.482843 57.515337 C 305.482843 56.468468 306.326588 55.616909 307.381271 55.616909 Z M 307.381271 55.616909 " transform="matrix(0.500003,0,0,0.500003,-147.999998,-25.5)"/>
<path style="fill:none;stroke-width:1;stroke-linecap:butt;stroke-linejoin:miter;stroke:rgb(76.470588%,62.352941%,0%);stroke-opacity:1;stroke-miterlimit:4;" d="M 307.381271 55.616909 L 331.560837 55.616909 C 332.607707 55.616909 333.459265 56.468468 333.459265 57.515337 L 333.459265 70.718396 C 333.459265 71.765266 332.607707 72.616824 331.560837 72.616824 L 307.381271 72.616824 C 306.326588 72.616824 305.482843 71.765266 305.482843 70.718396 L 305.482843 57.515337 C 305.482843 56.468468 306.326588 55.616909 307.381271 55.616909 Z M 307.381271 55.616909 " transform="matrix(0.500003,0,0,0.500003,-147.999998,-25.5)"/>
<path style="fill:none;stroke-width:1;stroke-linecap:butt;stroke-linejoin:miter;stroke:rgb(100%,100%,100%);stroke-opacity:0.447059;stroke-miterlimit:4;" d="M 307.983671 56.61079 L 331.69449 56.61079 C 332.327299 56.61079 332.837963 57.126428 332.841466 57.759256 L 332.84151 70.470512 C 332.8372 71.10334 332.324389 71.611165 331.691579 71.611165 L 307.988573 71.611165 C 307.355764 71.611165 306.83733 71.10334 306.84164 70.470512 L 306.841596 57.759256 C 306.838093 57.126428 307.350861 56.61079 307.983671 56.61079 Z M 307.983671 56.61079 " transform="matrix(0.500003,0,-0.0027675,0.499987,-147.999998,-25.5)"/>
<path style=" stroke:none;fill-rule:evenodd;fill:rgb(100%,100%,100%);fill-opacity:0.447059;" d="M 5.992188 2.558594 L 5.992188 5.558594 C 9.589844 4.128906 13.519531 7.546875 17.488281 6.558594 L 17.488281 2.59375 L 17.992188 2.59375 L 17.992188 10.558594 L 17.488281 10.558594 L 17.488281 7.558594 C 13.15625 8.527344 9.710938 5.035156 5.992188 6.558594 L 5.992188 10.558594 L 5.488281 10.558594 L 5.488281 2.558594 Z M 5.992188 2.558594 "/>
<path style=" stroke:none;fill-rule:evenodd;fill:rgb(100%,100%,100%);fill-opacity:0.447059;" d="M 6.488281 2.558594 L 6.488281 4.925781 L 6.988281 4.804688 L 6.988281 2.558594 Z M 6.488281 2.558594 "/>
<path style=" stroke:none;fill-rule:evenodd;fill:rgb(100%,100%,100%);fill-opacity:0.447059;" d="M 7.492188 4.804688 L 7.492188 2.558594 L 7.988281 2.558594 L 7.988281 4.761719 Z M 7.492188 4.804688 "/>
<path style=" stroke:none;fill-rule:evenodd;fill:rgb(100%,100%,100%);fill-opacity:0.447059;" d="M 8.488281 4.761719 L 8.488281 2.558594 L 8.992188 2.558594 L 8.992188 4.835938 Z M 8.488281 4.761719 "/>
<path style=" stroke:none;fill-rule:evenodd;fill:rgb(100%,100%,100%);fill-opacity:0.447059;" d="M 9.488281 4.949219 L 9.488281 2.558594 L 9.988281 2.558594 L 9.988281 5.058594 Z M 9.488281 4.949219 "/>
<path style=" stroke:none;fill-rule:evenodd;fill:rgb(100%,100%,100%);fill-opacity:0.447059;" d="M 10.492188 5.136719 L 10.492188 2.558594 L 10.988281 2.558594 L 10.988281 5.226562 Z M 10.492188 5.136719 "/>
<path style=" stroke:none;fill-rule:evenodd;fill:rgb(100%,100%,100%);fill-opacity:0.447059;" d="M 11.488281 5.402344 L 11.488281 2.558594 L 11.992188 2.558594 L 11.992188 5.46875 Z M 11.488281 5.402344 "/>
<path style=" stroke:none;fill-rule:evenodd;fill:rgb(100%,100%,100%);fill-opacity:0.447059;" d="M 12.488281 5.667969 L 12.488281 2.558594 L 12.988281 2.558594 L 12.988281 5.757812 Z M 12.488281 5.667969 "/>
<path style=" stroke:none;fill-rule:evenodd;fill:rgb(100%,100%,100%);fill-opacity:0.447059;" d="M 13.492188 5.863281 L 13.492188 2.558594 L 13.988281 2.558594 L 13.988281 5.957031 Z M 13.492188 5.863281 "/>
<path style=" stroke:none;fill-rule:evenodd;fill:rgb(100%,100%,100%);fill-opacity:0.447059;" d="M 14.488281 6.109375 L 14.488281 2.558594 L 14.992188 2.558594 L 14.992188 6.152344 Z M 14.488281 6.109375 "/>
<path style=" stroke:none;fill-rule:evenodd;fill:rgb(100%,100%,100%);fill-opacity:0.447059;" d="M 15.488281 6.199219 L 15.488281 2.558594 L 15.988281 2.558594 L 15.988281 6.199219 Z M 15.488281 6.199219 "/>
<path style=" stroke:none;fill-rule:evenodd;fill:rgb(100%,100%,100%);fill-opacity:0.447059;" d="M 16.492188 6.199219 L 16.492188 2.558594 L 16.988281 2.558594 L 16.988281 6.132812 Z M 16.492188 6.199219 "/>
<path style=" stroke:none;fill-rule:evenodd;fill:rgb(100%,100%,100%);fill-opacity:0.447059;" d="M 6.488281 10.535156 L 6.488281 6.820312 L 6.988281 6.761719 L 6.988281 10.535156 Z M 6.488281 10.535156 "/>
<path style=" stroke:none;fill-rule:evenodd;fill:rgb(100%,100%,100%);fill-opacity:0.447059;" d="M 7.492188 6.742188 L 7.492188 10.535156 L 7.988281 10.535156 L 7.988281 6.675781 Z M 7.492188 6.742188 "/>
<path style=" stroke:none;fill-rule:evenodd;fill:rgb(100%,100%,100%);fill-opacity:0.447059;" d="M 8.488281 6.675781 L 8.488281 10.535156 L 8.992188 10.535156 L 8.992188 6.730469 Z M 8.488281 6.675781 "/>
<path style=" stroke:none;fill-rule:evenodd;fill:rgb(100%,100%,100%);fill-opacity:0.447059;" d="M 9.488281 6.886719 L 9.488281 10.535156 L 9.988281 10.535156 L 9.988281 6.996094 Z M 9.488281 6.886719 "/>
<path style=" stroke:none;fill-rule:evenodd;fill:rgb(100%,100%,100%);fill-opacity:0.447059;" d="M 10.492188 7.117188 L 10.492188 10.535156 L 10.988281 10.535156 L 10.988281 7.246094 Z M 10.492188 7.117188 "/>
<path style=" stroke:none;fill-rule:evenodd;fill:rgb(100%,100%,100%);fill-opacity:0.447059;" d="M 11.488281 7.425781 L 11.488281 10.535156 L 11.992188 10.535156 L 11.992188 7.601562 Z M 11.488281 7.425781 "/>
<path style=" stroke:none;fill-rule:evenodd;fill:rgb(100%,100%,100%);fill-opacity:0.447059;" d="M 12.488281 7.691406 L 12.488281 10.535156 L 12.988281 10.535156 L 12.988281 7.824219 Z M 12.488281 7.691406 "/>
<path style=" stroke:none;fill-rule:evenodd;fill:rgb(100%,100%,100%);fill-opacity:0.447059;" d="M 13.492188 7.910156 L 13.492188 10.535156 L 13.988281 10.535156 L 13.988281 8 Z M 13.492188 7.910156 "/>
<path style=" stroke:none;fill-rule:evenodd;fill:rgb(100%,100%,100%);fill-opacity:0.447059;" d="M 14.488281 8.089844 L 14.488281 10.535156 L 14.992188 10.535156 L 14.992188 8.109375 Z M 14.488281 8.089844 "/>
<path style=" stroke:none;fill-rule:evenodd;fill:rgb(100%,100%,100%);fill-opacity:0.447059;" d="M 15.488281 8.199219 L 15.488281 10.535156 L 15.988281 10.535156 L 15.988281 8.132812 Z M 15.488281 8.199219 "/>
<path style=" stroke:none;fill-rule:evenodd;fill:rgb(100%,100%,100%);fill-opacity:0.447059;" d="M 16.492188 8.175781 L 16.492188 10.535156 L 16.988281 10.535156 L 16.988281 8.089844 Z M 16.492188 8.175781 "/>
<path style=" stroke:none;fill-rule:evenodd;fill:rgb(18.039216%,20.392157%,21.176471%);fill-opacity:1;" d="M 4.398438 17.058594 L 19.082031 17.058594 C 19.308594 17.058594 19.492188 17.242188 19.492188 17.464844 L 19.492188 22.148438 C 19.492188 22.375 19.308594 22.558594 19.082031 22.558594 L 4.398438 22.558594 C 4.171875 22.558594 3.988281 22.375 3.988281 22.148438 L 3.988281 17.464844 C 3.988281 17.242188 4.171875 17.058594 4.398438 17.058594 Z M 4.398438 17.058594 "/>
<path style=" stroke:none;fill-rule:evenodd;fill:rgb(90.980392%,72.54902%,43.137255%);fill-opacity:1;" d="M 5.554688 18.058594 L 10.445312 18.058594 C 10.480469 18.058594 10.507812 18.089844 10.507812 18.121094 L 10.507812 18.992188 C 10.507812 19.027344 10.480469 19.058594 10.445312 19.058594 L 5.554688 19.058594 C 5.519531 19.058594 5.488281 19.027344 5.488281 18.992188 L 5.488281 18.121094 C 5.488281 18.089844 5.519531 18.058594 5.554688 18.058594 Z M 5.554688 18.058594 "/>
<path style=" stroke:none;fill-rule:evenodd;fill:rgb(90.980392%,72.54902%,43.137255%);fill-opacity:1;" d="M 11.539062 18.058594 L 13.425781 18.058594 C 13.464844 18.058594 13.496094 18.089844 13.496094 18.121094 L 13.496094 18.992188 C 13.496094 19.027344 13.464844 19.058594 13.425781 19.058594 L 11.539062 19.058594 C 11.503906 19.058594 11.476562 19.027344 11.476562 18.992188 L 11.476562 18.121094 C 11.476562 18.089844 11.503906 18.058594 11.539062 18.058594 Z M 11.539062 18.058594 "/>
<path style="fill:none;stroke-width:1;stroke-linecap:butt;stroke-linejoin:miter;stroke:rgb(100%,100%,100%);stroke-opacity:0.137255;stroke-miterlimit:4;" d="M 308.529702 76.468363 L 306.560962 78.437103 L 306.560962 81.499588 L 322.560882 81.499588 L 322.560882 76.468363 Z M 308.529702 76.468363 " transform="matrix(0.500003,0,0,0.500003,-147.999998,-24.999997)"/>
</g>
</svg>
