<?xml version="1.0" encoding="UTF-8"?>
<svg xmlns="http://www.w3.org/2000/svg" xmlns:xlink="http://www.w3.org/1999/xlink" width="24pt" height="24pt" viewBox="0 0 24 24" version="1.1">
<defs>
<radialGradient id="radial0" gradientUnits="userSpaceOnUse" cx="24.218" cy="45.26" fx="24.218" fy="45.26" r="21.39" gradientTransform="matrix(0.561,0,0,0.0350625,-1.586798,16.413)">
<stop offset="0" style="stop-color:rgb(0%,0%,0%);stop-opacity:0.301961;"/>
<stop offset="1" style="stop-color:rgb(0%,0%,0%);stop-opacity:0;"/>
</radialGradient>
<radialGradient id="radial1" gradientUnits="userSpaceOnUse" cx="10.125" cy="15.833" fx="10.125" fy="15.833" r="23" gradientTransform="matrix(1.6034,0.01259,-0.00619,0.788,-6.011,9.3958)">
<stop offset="0" style="stop-color:rgb(72.156863%,69.803922%,92.54902%);stop-opacity:1;"/>
<stop offset="1" style="stop-color:rgb(50.196078%,50.196078%,70.588235%);stop-opacity:1;"/>
</radialGradient>
<linearGradient id="linear0" gradientUnits="userSpaceOnUse" x1="19.885" y1="0" x2="18.962" y2="0" gradientTransform="matrix(0,-1.0833,1.0357,0,-0.5893,51.542)">
<stop offset="0" style="stop-color:rgb(42.352941%,42.352941%,67.058824%);stop-opacity:1;"/>
<stop offset="1" style="stop-color:rgb(67.058824%,67.058824%,81.176471%);stop-opacity:1;"/>
</linearGradient>
<linearGradient id="linear1" gradientUnits="userSpaceOnUse" x1="0" y1="13.962" x2="0" y2="33.038" gradientTransform="matrix(1,0,0,1,0,2)">
<stop offset="0" style="stop-color:rgb(100%,100%,100%);stop-opacity:0.45098;"/>
<stop offset="1" style="stop-color:rgb(100%,100%,100%);stop-opacity:0;"/>
</linearGradient>
</defs>
<g id="surface1">
<path style=" stroke:none;fill-rule:evenodd;fill:url(#radial0);" d="M 24 18 C 24 18.414062 18.628906 18.75 12 18.75 C 5.371094 18.75 0 18.414062 0 18 C 0 17.585938 5.371094 17.25 12 17.25 C 18.628906 17.25 24 17.585938 24 18 Z M 24 18 "/>
<path style="fill-rule:evenodd;fill:url(#radial1);stroke-width:1;stroke-linecap:butt;stroke-linejoin:round;stroke:rgb(37.647059%,37.647059%,56.078431%);stroke-opacity:1;stroke-miterlimit:4;" d="M 5.99997 35.499823 L 45.265399 35.499823 C 46.085707 35.52326 46.491955 35.406073 46.491955 34.609202 L 46.491955 32.085777 C 46.491955 31.327968 45.445085 31.304531 45.445085 31.304531 L 45.484148 18.718656 C 45.484148 18.718656 46.499768 18.781156 46.499768 17.953035 L 46.499768 15.499923 L 2.499988 15.499923 C 2.03124 15.499923 1.499993 16.023357 1.499993 16.499918 L 1.499993 32.499838 Z M 5.99997 35.499823 " transform="matrix(0.500003,0,0,0.500003,0,0)"/>
<path style="fill:none;stroke-width:1;stroke-linecap:butt;stroke-linejoin:miter;stroke:url(#linear0);stroke-miterlimit:4;" d="M 44.999775 31.499843 L 17.453038 31.499843 C 16.92179 31.499843 16.499918 31.070157 16.499918 30.531097 L 16.499918 19.468653 C 16.499918 18.929593 16.92179 18.499908 17.453038 18.499908 L 44.999775 18.499908 " transform="matrix(0.500003,0,0,0.500003,0,0)"/>
<path style="fill:none;stroke-width:0.951;stroke-linecap:butt;stroke-linejoin:round;stroke:url(#linear1);stroke-miterlimit:4;" d="M 2.499988 16.437418 L 2.499988 31.99984 C 3.789044 32.851398 5.023412 33.710769 6.312468 34.562327 L 45.562272 34.562327 L 45.562272 32.281089 C 44.781026 32.312338 44.351341 31.531092 44.499778 30.835783 C 44.523215 26.734241 44.499778 22.632699 44.546652 18.531157 C 44.50759 17.781161 45.640397 18.03116 45.562272 17.499913 L 45.499773 16.499918 C 31.398281 16.499918 16.601479 16.437418 2.499988 16.437418 Z M 2.499988 16.437418 " transform="matrix(0.500003,0,0,0.500003,0,0)"/>
<path style=" stroke:none;fill-rule:evenodd;fill:rgb(26.666667%,26.666667%,34.901961%);fill-opacity:1;" d="M 4.5 11.769531 C 3.441406 11.769531 2.578125 11.757812 2.578125 11.796875 C 2.578125 11.839844 3.441406 11.894531 4.5 11.894531 C 5.558594 11.894531 6.417969 11.839844 6.417969 11.796875 C 6.417969 11.757812 5.558594 11.769531 4.5 11.769531 Z M 4.5 12.054688 C 3.707031 12.054688 3.0625 12.039062 3.0625 12.070312 C 3.0625 12.097656 3.707031 12.160156 4.5 12.160156 C 5.292969 12.160156 5.9375 12.097656 5.9375 12.070312 C 5.9375 12.039062 5.292969 12.054688 4.5 12.054688 Z M 4.5 12.402344 C 3.917969 12.402344 3.445312 12.390625 3.445312 12.417969 C 3.445312 12.441406 3.917969 12.5 4.5 12.5 C 5.082031 12.5 5.554688 12.441406 5.554688 12.417969 C 5.554688 12.390625 5.082031 12.402344 4.5 12.402344 Z M 3.378906 11.5625 C 3.597656 11.539062 3.703125 11.449219 3.75 11.316406 C 3.792969 11.183594 3.882812 11.101562 4.035156 11.105469 C 4.191406 11.113281 4.214844 11.183594 4.191406 11.261719 C 4.167969 11.34375 4.171875 11.394531 4.152344 11.464844 C 4.109375 11.628906 4.886719 11.621094 4.847656 11.464844 C 4.828125 11.394531 4.832031 11.34375 4.808594 11.261719 C 4.78125 11.183594 4.808594 11.113281 4.964844 11.105469 C 5.113281 11.101562 5.207031 11.183594 5.25 11.316406 C 5.296875 11.449219 5.402344 11.539062 5.621094 11.5625 C 5.835938 11.589844 6.089844 11.582031 6.300781 11.585938 C 6.519531 11.589844 6.601562 11.542969 6.324219 11.515625 C 6.050781 11.488281 5.6875 11.386719 5.617188 11.246094 C 5.550781 11.105469 5.476562 11.042969 5.222656 11.027344 C 4.695312 10.992188 4.328125 10.992188 3.777344 11.027344 C 3.523438 11.042969 3.449219 11.109375 3.382812 11.246094 C 3.3125 11.386719 2.949219 11.488281 2.675781 11.515625 C 2.398438 11.542969 2.480469 11.589844 2.699219 11.585938 C 2.910156 11.582031 3.160156 11.589844 3.378906 11.5625 Z M 3.378906 11.5625 "/>
<path style=" stroke:none;fill-rule:evenodd;fill:rgb(22.352941%,22.352941%,34.901961%);fill-opacity:1;" d="M 15.261719 13.976562 L 14.878906 13.976562 C 14.769531 13.976562 14.6875 14.066406 14.6875 14.179688 L 14.6875 14.800781 C 14.6875 14.910156 14.769531 15 14.878906 15 L 15.261719 15 C 15.371094 15 15.453125 14.910156 15.453125 14.800781 L 15.453125 14.179688 C 15.453125 14.066406 15.371094 13.980469 15.261719 13.980469 Z M 15.238281 14.734375 C 15.238281 14.820312 15.203125 14.890625 15.15625 14.890625 L 14.984375 14.890625 C 14.9375 14.890625 14.902344 14.820312 14.902344 14.734375 L 14.902344 14.246094 C 14.902344 14.160156 14.9375 14.085938 14.984375 14.085938 L 15.15625 14.085938 C 15.203125 14.085938 15.238281 14.160156 15.238281 14.246094 Z M 18.261719 14.289062 L 17.898438 14.289062 C 17.855469 14.289062 17.816406 14.183594 17.816406 14.085938 L 17.816406 14.027344 C 17.816406 13.925781 17.855469 13.847656 17.898438 13.847656 L 18.433594 13.847656 L 18.433594 13.722656 L 17.796875 13.722656 C 17.691406 13.722656 17.605469 13.824219 17.605469 13.949219 L 17.605469 14.160156 C 17.605469 14.285156 17.691406 14.410156 17.796875 14.410156 L 18.167969 14.410156 C 18.214844 14.410156 18.253906 14.492188 18.253906 14.59375 L 18.253906 14.695312 C 18.253906 14.792969 18.214844 14.878906 18.167969 14.878906 L 17.609375 14.878906 L 17.609375 15 L 18.261719 15 C 18.367188 15 18.453125 14.898438 18.453125 14.769531 L 18.453125 14.515625 C 18.453125 14.390625 18.367188 14.289062 18.261719 14.289062 Z M 12.742188 14.179688 L 12.742188 14.800781 C 12.742188 14.910156 12.832031 15 12.941406 15 L 13.410156 15 L 13.410156 14.890625 L 13.058594 14.890625 C 13.007812 14.890625 12.964844 14.820312 12.964844 14.734375 L 12.964844 14.535156 L 13.40625 14.535156 L 13.40625 14.441406 L 12.964844 14.441406 L 12.964844 14.246094 C 12.964844 14.160156 13.007812 14.085938 13.058594 14.085938 L 13.410156 14.085938 L 13.410156 13.980469 L 12.941406 13.980469 C 12.832031 13.980469 12.742188 14.066406 12.742188 14.179688 Z M 19.925781 14.179688 L 19.925781 14.800781 C 19.925781 14.910156 20.015625 15 20.125 15 L 20.597656 15 L 20.597656 14.890625 L 20.238281 14.890625 C 20.1875 14.890625 20.152344 14.820312 20.152344 14.734375 L 20.152344 14.246094 C 20.152344 14.15625 20.1875 14.085938 20.238281 14.085938 L 20.597656 14.085938 L 20.597656 13.976562 L 20.125 13.976562 C 20.015625 13.980469 19.925781 14.066406 19.925781 14.179688 Z M 13.988281 14.722656 L 13.804688 13.976562 L 13.589844 13.976562 L 13.589844 15 L 13.738281 15 L 13.738281 14.292969 L 13.90625 15 L 14.066406 15 L 14.226562 14.332031 L 14.226562 15 L 14.453125 15 L 14.453125 13.976562 L 14.164062 13.976562 Z M 11.996094 14.652344 L 11.769531 13.714844 L 11.5 13.714844 L 11.5 15 L 11.683594 15 L 11.683594 14.113281 L 11.898438 15 L 12.097656 15 L 12.3125 14.097656 L 12.3125 15 L 12.582031 15 L 12.582031 13.714844 L 12.222656 13.714844 Z M 16.351562 14.363281 L 16.351562 14.179688 C 16.351562 14.066406 16.265625 13.980469 16.160156 13.980469 L 15.675781 13.980469 L 15.675781 15 L 15.871094 15 L 15.871094 14.085938 L 16.097656 14.085938 C 16.140625 14.085938 16.175781 14.15625 16.175781 14.246094 L 16.175781 14.296875 C 16.175781 14.382812 16.140625 14.457031 16.097656 14.457031 L 16.046875 14.457031 L 16.046875 14.464844 L 15.957031 14.464844 L 16.183594 15 L 16.351562 15 L 16.167969 14.558594 C 16.269531 14.558594 16.351562 14.46875 16.351562 14.363281 Z M 19.417969 15 L 19.613281 15 L 19.613281 13.980469 L 19.417969 13.980469 Z M 18.5 14.152344 L 18.761719 14.152344 L 18.761719 15 L 18.957031 15 L 18.957031 14.152344 L 19.21875 14.152344 L 19.21875 13.980469 L 18.5 13.980469 Z M 21.5 13.980469 L 21.304688 13.980469 L 21.003906 14.339844 L 21.003906 13.980469 L 20.8125 13.980469 L 20.8125 15 L 21.003906 15 L 21.003906 14.558594 L 21.304688 15 L 21.5 15 L 21.117188 14.4375 Z M 16.875 14.382812 L 16.707031 13.980469 L 16.507812 13.980469 L 16.757812 14.558594 L 16.757812 15 L 16.949219 15 L 16.949219 14.558594 L 17.175781 13.980469 L 17.035156 13.980469 L 16.875 14.378906 Z M 16.875 14.382812 "/>
<path style=" stroke:none;fill-rule:evenodd;fill:rgb(26.666667%,26.666667%,34.901961%);fill-opacity:1;" d="M 6.160156 9.535156 L 6.160156 9.65625 L 6.191406 9.65625 C 6.214844 9.65625 6.226562 9.660156 6.226562 9.675781 C 6.226562 9.683594 6.222656 9.695312 6.214844 9.707031 L 6.089844 9.898438 C 6.074219 9.925781 6.054688 9.921875 6.042969 9.902344 L 5.925781 9.71875 C 5.917969 9.707031 5.910156 9.699219 5.910156 9.683594 C 5.910156 9.664062 5.921875 9.660156 5.953125 9.660156 L 5.984375 9.660156 L 5.984375 9.535156 L 5.550781 9.535156 L 5.550781 9.660156 C 5.660156 9.660156 5.652344 9.671875 5.691406 9.734375 L 5.925781 10.105469 L 5.925781 10.292969 C 5.925781 10.339844 5.910156 10.355469 5.859375 10.355469 L 5.785156 10.355469 L 5.785156 10.472656 L 6.261719 10.472656 L 6.261719 10.355469 L 6.1875 10.355469 C 6.140625 10.355469 6.121094 10.339844 6.121094 10.292969 L 6.121094 10.105469 L 6.324219 9.800781 C 6.394531 9.667969 6.402344 9.660156 6.453125 9.660156 L 6.5 9.660156 L 6.5 9.535156 Z M 2.683594 9.753906 C 2.683594 9.675781 2.78125 9.628906 2.890625 9.628906 C 2.980469 9.628906 3.085938 9.679688 3.136719 9.746094 C 3.160156 9.777344 3.191406 9.804688 3.199219 9.871094 L 3.296875 9.871094 L 3.296875 9.535156 L 3.191406 9.535156 C 3.191406 9.613281 3.167969 9.613281 3.144531 9.589844 C 3.066406 9.527344 2.984375 9.507812 2.886719 9.507812 C 2.648438 9.507812 2.5 9.628906 2.5 9.820312 C 2.5 10.003906 2.621094 10.058594 2.78125 10.09375 L 2.925781 10.125 C 3.09375 10.164062 3.144531 10.179688 3.144531 10.25 C 3.144531 10.316406 3.089844 10.367188 2.9375 10.371094 C 2.835938 10.371094 2.722656 10.328125 2.675781 10.265625 C 2.648438 10.230469 2.621094 10.214844 2.597656 10.125 L 2.503906 10.125 L 2.503906 10.472656 L 2.609375 10.472656 C 2.613281 10.421875 2.625 10.382812 2.648438 10.402344 C 2.722656 10.460938 2.855469 10.5 2.945312 10.5 C 3.191406 10.5 3.332031 10.386719 3.332031 10.183594 C 3.332031 9.792969 2.683594 9.957031 2.683594 9.753906 Z M 5.097656 9.660156 L 5.160156 9.660156 C 5.207031 9.660156 5.226562 9.675781 5.226562 9.726562 L 5.222656 10.097656 L 4.808594 9.542969 L 4.46875 9.542969 L 4.46875 9.660156 L 4.535156 9.660156 C 4.585938 9.660156 4.601562 9.675781 4.601562 9.726562 L 4.601562 10.296875 C 4.601562 10.34375 4.585938 10.363281 4.535156 10.363281 L 4.46875 10.363281 L 4.46875 10.476562 L 4.863281 10.476562 L 4.863281 10.363281 L 4.800781 10.363281 C 4.746094 10.363281 4.730469 10.34375 4.730469 10.296875 L 4.730469 9.824219 L 5.210938 10.476562 L 5.363281 10.476562 L 5.363281 9.726562 C 5.363281 9.675781 5.378906 9.660156 5.429688 9.660156 L 5.480469 9.660156 L 5.480469 9.542969 L 5.097656 9.542969 Z M 3.949219 9.5 C 3.644531 9.5 3.457031 9.691406 3.457031 10 C 3.457031 10.304688 3.640625 10.496094 3.941406 10.496094 C 4.253906 10.496094 4.4375 10.308594 4.4375 9.984375 C 4.4375 9.699219 4.238281 9.5 3.949219 9.5 Z M 3.941406 10.371094 C 3.773438 10.371094 3.675781 10.234375 3.675781 9.992188 C 3.675781 9.757812 3.777344 9.621094 3.949219 9.621094 C 4.117188 9.621094 4.214844 9.761719 4.214844 10.003906 C 4.214844 10.238281 4.113281 10.371094 3.941406 10.371094 Z M 3.941406 10.371094 "/>
<path style=" stroke:none;fill-rule:evenodd;fill:rgb(26.666667%,26.666667%,34.901961%);fill-opacity:1;" d="M 3.417969 14.375 L 2.5 15.214844 L 3.417969 16.050781 Z M 3.417969 14.375 "/>
<path style=" stroke:none;fill-rule:nonzero;fill:rgb(22.352941%,22.352941%,34.901961%);fill-opacity:1;" d="M 4.269531 15.640625 C 4.359375 15.535156 4.570312 15.261719 4.570312 15.007812 C 4.570312 14.804688 4.445312 14.667969 4.292969 14.667969 C 4.195312 14.667969 4.113281 14.699219 4.011719 14.738281 L 4.027344 14.988281 C 4.074219 14.945312 4.15625 14.894531 4.214844 14.894531 C 4.292969 14.894531 4.34375 14.957031 4.34375 15.054688 C 4.34375 15.230469 4.160156 15.453125 4.066406 15.585938 L 3.996094 15.683594 L 3.996094 15.894531 L 4.578125 15.894531 L 4.578125 15.683594 L 4.238281 15.683594 Z M 4.941406 15.113281 C 4.917969 15.113281 4.890625 15.113281 4.859375 15.117188 L 4.859375 14.894531 L 5.195312 14.894531 L 5.195312 14.691406 L 4.671875 14.691406 L 4.671875 15.332031 C 4.726562 15.3125 4.777344 15.300781 4.824219 15.300781 C 4.890625 15.300781 5.011719 15.335938 5.011719 15.507812 C 5.011719 15.589844 4.964844 15.707031 4.839844 15.707031 C 4.78125 15.707031 4.734375 15.683594 4.664062 15.648438 L 4.652344 15.863281 C 4.71875 15.894531 4.761719 15.917969 4.882812 15.917969 C 5.121094 15.917969 5.238281 15.707031 5.238281 15.511719 C 5.238281 15.253906 5.128906 15.113281 4.941406 15.113281 Z M 5.660156 15.121094 C 5.632812 15.121094 5.558594 15.128906 5.496094 15.230469 L 5.492188 15.230469 C 5.5 15.054688 5.53125 14.875 5.695312 14.875 C 5.753906 14.875 5.816406 14.90625 5.855469 14.925781 L 5.867188 14.71875 C 5.792969 14.691406 5.738281 14.667969 5.664062 14.667969 C 5.378906 14.667969 5.289062 14.996094 5.289062 15.335938 C 5.289062 15.597656 5.34375 15.917969 5.613281 15.917969 C 5.882812 15.917969 5.914062 15.605469 5.914062 15.53125 C 5.914062 15.265625 5.792969 15.121094 5.660156 15.121094 Z M 5.601562 15.722656 C 5.503906 15.722656 5.503906 15.574219 5.503906 15.539062 C 5.503906 15.472656 5.503906 15.328125 5.601562 15.328125 C 5.691406 15.328125 5.699219 15.464844 5.699219 15.519531 C 5.699219 15.582031 5.691406 15.722656 5.601562 15.722656 Z M 6.546875 15.582031 L 6.542969 15.582031 L 6.433594 15.019531 L 6.1875 15.019531 L 6.1875 15.894531 L 6.335938 15.894531 L 6.335938 15.203125 L 6.339844 15.203125 L 6.488281 15.894531 L 6.597656 15.894531 L 6.753906 15.203125 L 6.753906 15.894531 L 6.90625 15.894531 L 6.90625 15.019531 L 6.667969 15.019531 Z M 7.359375 15.441406 C 7.402344 15.429688 7.484375 15.378906 7.484375 15.238281 C 7.484375 15.144531 7.441406 15.019531 7.292969 15.019531 L 7.035156 15.019531 L 7.035156 15.894531 L 7.285156 15.894531 C 7.328125 15.894531 7.5 15.875 7.5 15.652344 C 7.5 15.515625 7.4375 15.460938 7.359375 15.441406 Z M 7.191406 15.160156 L 7.238281 15.160156 C 7.316406 15.160156 7.332031 15.238281 7.332031 15.265625 C 7.332031 15.285156 7.328125 15.375 7.234375 15.375 L 7.191406 15.375 Z M 7.238281 15.746094 L 7.191406 15.746094 L 7.191406 15.519531 L 7.257812 15.519531 C 7.308594 15.519531 7.34375 15.558594 7.34375 15.632812 C 7.34375 15.746094 7.261719 15.746094 7.238281 15.746094 Z M 7.238281 15.746094 "/>
<path style=" stroke:none;fill-rule:nonzero;fill:rgb(22.352941%,22.352941%,34.901961%);fill-opacity:1;" d="M 14.5 10.191406 L 14.675781 10.191406 L 14.675781 10.984375 L 14.871094 10.984375 L 14.871094 10.191406 L 15.050781 10.191406 L 15.050781 10.015625 L 14.5 10.015625 Z M 15.449219 10 C 15.210938 10 15.097656 10.214844 15.097656 10.5 C 15.097656 10.785156 15.210938 11 15.449219 11 C 15.683594 11 15.796875 10.785156 15.796875 10.5 C 15.796875 10.214844 15.683594 10 15.449219 10 Z M 15.449219 10.835938 C 15.335938 10.835938 15.300781 10.683594 15.300781 10.5 C 15.300781 10.316406 15.335938 10.164062 15.449219 10.164062 C 15.558594 10.164062 15.601562 10.316406 15.601562 10.5 C 15.601562 10.683594 15.558594 10.835938 15.449219 10.835938 Z M 16.398438 10.015625 L 15.847656 10.015625 L 15.847656 10.191406 L 16.027344 10.191406 L 16.027344 10.984375 L 16.21875 10.984375 L 16.21875 10.191406 L 16.398438 10.191406 Z M 16.632812 10.015625 L 16.359375 10.984375 L 16.542969 10.984375 L 16.597656 10.765625 L 16.855469 10.765625 L 16.90625 10.984375 L 17.105469 10.984375 L 16.84375 10.015625 Z M 16.636719 10.601562 L 16.734375 10.199219 L 16.820312 10.601562 Z M 17.382812 10.015625 L 17.1875 10.015625 L 17.1875 10.984375 L 17.652344 10.984375 L 17.652344 10.808594 L 17.382812 10.808594 Z M 18.273438 10.78125 C 18.347656 10.695312 18.527344 10.472656 18.527344 10.269531 C 18.527344 10.105469 18.421875 10 18.292969 10 C 18.207031 10 18.136719 10.027344 18.050781 10.054688 L 18.066406 10.257812 C 18.105469 10.222656 18.171875 10.179688 18.226562 10.179688 C 18.289062 10.179688 18.335938 10.230469 18.335938 10.308594 C 18.335938 10.449219 18.175781 10.628906 18.097656 10.734375 L 18.035156 10.8125 L 18.035156 10.984375 L 18.535156 10.984375 L 18.535156 10.8125 L 18.242188 10.8125 Z M 18.894531 10.355469 C 18.871094 10.355469 18.847656 10.355469 18.824219 10.359375 L 18.824219 10.179688 L 19.109375 10.179688 L 19.109375 10.015625 L 18.660156 10.015625 L 18.660156 10.527344 C 18.707031 10.519531 18.753906 10.503906 18.792969 10.503906 C 18.847656 10.503906 18.957031 10.535156 18.957031 10.671875 C 18.957031 10.738281 18.914062 10.832031 18.808594 10.832031 C 18.753906 10.832031 18.71875 10.8125 18.65625 10.785156 L 18.644531 10.953125 C 18.703125 10.980469 18.742188 11 18.84375 11 C 19.050781 11 19.148438 10.832031 19.148438 10.675781 C 19.148438 10.46875 19.054688 10.355469 18.894531 10.355469 Z M 19.554688 10.363281 C 19.53125 10.363281 19.472656 10.367188 19.414062 10.449219 C 19.421875 10.308594 19.449219 10.164062 19.589844 10.164062 C 19.636719 10.164062 19.691406 10.191406 19.722656 10.207031 L 19.734375 10.039062 C 19.671875 10.011719 19.625 10 19.558594 10 C 19.316406 10 19.238281 10.261719 19.238281 10.535156 C 19.238281 10.746094 19.285156 11 19.519531 11 C 19.75 11 19.777344 10.75 19.777344 10.691406 C 19.777344 10.480469 19.671875 10.363281 19.554688 10.363281 Z M 19.503906 10.847656 C 19.425781 10.847656 19.425781 10.726562 19.425781 10.695312 C 19.425781 10.644531 19.425781 10.527344 19.503906 10.527344 C 19.582031 10.527344 19.589844 10.636719 19.589844 10.679688 C 19.589844 10.730469 19.582031 10.847656 19.503906 10.847656 Z M 20.386719 10.753906 L 20.289062 10.332031 L 20.066406 10.332031 L 20.066406 10.984375 L 20.199219 10.984375 L 20.199219 10.46875 L 20.203125 10.46875 L 20.335938 10.984375 L 20.433594 10.984375 L 20.570312 10.46875 L 20.574219 10.46875 L 20.574219 10.984375 L 20.703125 10.984375 L 20.703125 10.332031 L 20.496094 10.332031 Z M 21.109375 10.644531 C 21.144531 10.636719 21.214844 10.597656 21.214844 10.496094 C 21.214844 10.425781 21.179688 10.332031 21.046875 10.332031 L 20.816406 10.332031 L 20.816406 10.984375 L 21.042969 10.984375 C 21.074219 10.984375 21.230469 10.96875 21.230469 10.800781 C 21.230469 10.699219 21.175781 10.660156 21.109375 10.644531 Z M 20.957031 10.4375 L 20.996094 10.4375 C 21.066406 10.4375 21.078125 10.496094 21.078125 10.519531 C 21.078125 10.527344 21.074219 10.597656 20.996094 10.597656 L 20.957031 10.597656 Z M 20.996094 10.871094 L 20.957031 10.871094 L 20.957031 10.703125 L 21.015625 10.703125 C 21.0625 10.703125 21.089844 10.730469 21.089844 10.789062 C 21.089844 10.871094 21.019531 10.871094 20.996094 10.871094 Z M 20.996094 10.871094 "/>
</g>
</svg>
