<?xml version="1.0" encoding="UTF-8"?>
<svg xmlns="http://www.w3.org/2000/svg" xmlns:xlink="http://www.w3.org/1999/xlink" width="24pt" height="24pt" viewBox="0 0 24 24" version="1.1">
<g id="surface1">
<path style=" stroke:none;fill-rule:nonzero;fill:rgb(93.333333%,90.980392%,83.529412%);fill-opacity:1;" d="M 12 3.75 C 7.445312 3.75 3.75 7.445312 3.75 12 C 3.75 16.554688 7.445312 20.25 12 20.25 C 16.554688 20.25 20.25 16.554688 20.25 12 C 20.25 7.445312 16.554688 3.75 12 3.75 Z M 12 9.421875 C 13.421875 9.421875 14.578125 10.578125 14.578125 12 C 14.578125 13.421875 13.421875 14.578125 12 14.578125 C 10.578125 14.578125 9.421875 13.421875 9.421875 12 C 9.421875 10.578125 10.578125 9.421875 12 9.421875 Z M 12 9.9375 C 10.859375 9.9375 9.9375 10.859375 9.9375 12 C 9.9375 13.140625 10.859375 14.0625 12 14.0625 C 13.140625 14.0625 14.0625 13.140625 14.0625 12 C 14.0625 10.859375 13.140625 9.9375 12 9.9375 Z M 12 10.710938 C 12.710938 10.710938 13.289062 11.289062 13.289062 12 C 13.289062 12.710938 12.710938 13.289062 12 13.289062 C 11.289062 13.289062 10.710938 12.710938 10.710938 12 C 10.710938 11.289062 11.289062 10.710938 12 10.710938 Z M 12 10.710938 "/>
<path style=" stroke:none;fill-rule:nonzero;fill:rgb(39.607843%,48.235294%,51.372549%);fill-opacity:0.254902;" d="M 11.105469 11.078125 C 11.308594 10.882812 11.566406 10.753906 11.84375 10.71875 L 11.746094 9.960938 C 11.300781 10.015625 10.890625 10.210938 10.570312 10.523438 Z M 10.214844 10.15625 C 10.613281 9.773438 11.128906 9.523438 11.683594 9.453125 L 10.964844 3.824219 C 9.195312 4.050781 7.535156 4.839844 6.257812 6.078125 Z M 10.214844 10.15625 "/>
<path style=" stroke:none;fill-rule:nonzero;fill:rgb(100%,99.607843%,98.431373%);fill-opacity:0.462745;" d="M 13.203125 12.445312 C 13.105469 12.707031 12.929688 12.9375 12.691406 13.089844 L 13.109375 13.730469 C 13.488281 13.488281 13.769531 13.136719 13.925781 12.71875 Z M 14.40625 12.894531 C 14.210938 13.414062 13.851562 13.859375 13.382812 14.164062 L 16.457031 18.933594 C 17.957031 17.964844 19.113281 16.535156 19.734375 14.867188 Z M 14.40625 12.894531 "/>
<path style=" stroke:none;fill-rule:nonzero;fill:rgb(39.607843%,48.235294%,51.372549%);fill-opacity:0.254902;" d="M 12.925781 12.890625 C 12.730469 13.089844 12.476562 13.230469 12.199219 13.273438 L 12.324219 14.027344 C 12.769531 13.957031 13.167969 13.75 13.476562 13.425781 Z M 13.847656 13.78125 C 13.460938 14.179688 12.953125 14.445312 12.402344 14.535156 L 13.316406 20.136719 C 15.078125 19.847656 16.710938 19 17.945312 17.71875 Z M 13.847656 13.78125 "/>
<path style=" stroke:none;fill-rule:nonzero;fill:rgb(100%,99.607843%,98.431373%);fill-opacity:0.427451;" d="M 10.804688 11.53125 C 10.90625 11.269531 11.089844 11.042969 11.328125 10.898438 L 10.921875 10.25 C 10.542969 10.484375 10.25 10.828125 10.089844 11.246094 Z M 9.609375 11.0625 C 9.816406 10.542969 10.183594 10.105469 10.660156 9.8125 L 7.675781 4.984375 C 6.15625 5.921875 4.972656 7.332031 4.320312 8.984375 Z M 9.609375 11.0625 "/>
<path style=" stroke:none;fill-rule:nonzero;fill:rgb(39.607843%,48.235294%,51.372549%);fill-opacity:1;" d="M 12 9 C 10.34375 9 9 10.34375 9 12 C 9 13.65625 10.34375 15 12 15 C 13.65625 15 15 13.65625 15 12 C 15 10.34375 13.65625 9 12 9 Z M 12 9.75 C 13.242188 9.75 14.25 10.757812 14.25 12 C 14.25 13.242188 13.242188 14.25 12 14.25 C 10.757812 14.25 9.75 13.242188 9.75 12 C 9.75 10.757812 10.757812 9.75 12 9.75 Z M 12 9.75 "/>
</g>
</svg>
