<?xml version="1.0" encoding="UTF-8"?>
<svg xmlns="http://www.w3.org/2000/svg" xmlns:xlink="http://www.w3.org/1999/xlink" width="24pt" height="24pt" viewBox="0 0 24 24" version="1.1">
<g id="surface1">
<path style=" stroke:none;fill-rule:nonzero;fill:rgb(17.647059%,17.647059%,17.647059%);fill-opacity:1;" d="M 12 9.671875 L 11.765625 10.421875 L 7.5 22.5 L 9 22.5 L 12 19.875 L 15 22.5 L 16.5 22.5 L 12.234375 10.421875 Z M 12 11.3125 L 12.546875 13.046875 L 12 13.484375 L 11.453125 13.046875 Z M 11.296875 13.546875 L 11.609375 13.796875 L 11.078125 14.21875 Z M 12.703125 13.546875 L 12.921875 14.234375 L 12.390625 13.796875 Z M 12 14.109375 L 13.09375 14.984375 L 12 15.8125 L 10.90625 14.984375 Z M 10.6875 15.453125 L 11.578125 16.125 L 10.125 17.21875 Z M 13.328125 15.453125 L 13.875 17.21875 L 12.421875 16.125 Z M 12 16.4375 L 14.046875 17.984375 L 12 19.171875 L 9.953125 17.984375 Z M 9.734375 18.421875 L 11.5 19.453125 L 9 21 Z M 14.265625 18.421875 L 15 21 L 12.5 19.453125 Z M 14.265625 18.421875 "/>
<path style=" stroke:none;fill-rule:evenodd;fill:rgb(17.647059%,17.647059%,17.647059%);fill-opacity:1;" d="M 13.5 10 C 13.5 10.828125 12.828125 11.5 12 11.5 C 11.171875 11.5 10.5 10.828125 10.5 10 C 10.5 9.171875 11.171875 8.5 12 8.5 C 12.828125 8.5 13.5 9.171875 13.5 10 Z M 13.5 10 "/>
<path style=" stroke:none;fill-rule:evenodd;fill:rgb(54.901961%,73.72549%,39.607843%);fill-opacity:0.556863;" d="M 12 6.5 C 10.066406 6.5 8.5 8.066406 8.5 10 C 8.5 11.140625 9.046875 12.15625 9.890625 12.796875 L 10.234375 11.765625 C 9.78125 11.3125 9.5 10.691406 9.5 10 C 9.5 8.621094 10.621094 7.5 12 7.5 C 13.378906 7.5 14.5 8.621094 14.5 10 C 14.5 10.691406 14.21875 11.3125 13.765625 11.765625 L 14.109375 12.796875 C 14.953125 12.15625 15.5 11.140625 15.5 10 C 15.5 8.066406 13.933594 6.5 12 6.5 Z M 12 6.5 "/>
<path style=" stroke:none;fill-rule:evenodd;fill:rgb(54.901961%,73.72549%,39.607843%);fill-opacity:0.556863;" d="M 12 4.5 C 8.960938 4.5 6.5 6.960938 6.5 10 C 6.5 12.035156 7.605469 13.816406 9.25 14.765625 L 9.5625 13.78125 C 8.324219 12.980469 7.5 11.585938 7.5 10 C 7.5 7.515625 9.515625 5.5 12 5.5 C 14.484375 5.5 16.5 7.515625 16.5 10 C 16.5 11.585938 15.675781 12.980469 14.4375 13.78125 L 14.75 14.765625 C 16.394531 13.816406 17.5 12.035156 17.5 10 C 17.5 6.960938 15.039062 4.5 12 4.5 Z M 12 4.5 "/>
<path style=" stroke:none;fill-rule:evenodd;fill:rgb(54.901961%,73.72549%,39.607843%);fill-opacity:0.556863;" d="M 12 2.5 C 7.859375 2.5 4.5 5.859375 4.5 10 C 4.5 12.921875 6.171875 15.449219 8.609375 16.6875 L 8.921875 15.71875 C 6.890625 14.621094 5.5 12.472656 5.5 10 C 5.5 6.410156 8.410156 3.5 12 3.5 C 15.589844 3.5 18.5 6.410156 18.5 10 C 18.5 12.472656 17.109375 14.621094 15.078125 15.71875 L 15.390625 16.6875 C 17.828125 15.449219 19.5 12.921875 19.5 10 C 19.5 5.859375 16.140625 2.5 12 2.5 Z M 12 2.5 "/>
</g>
</svg>
