<?xml version="1.0" encoding="UTF-8"?>
<svg xmlns="http://www.w3.org/2000/svg" xmlns:xlink="http://www.w3.org/1999/xlink" width="24pt" height="24pt" viewBox="0 0 24 24" version="1.1">
<g id="surface1">
<path style=" stroke:none;fill-rule:nonzero;fill:rgb(54.117647%,54.117647%,54.117647%);fill-opacity:1;" d="M 7.25 4 C 6.84375 4 6.5 4.339844 6.5 4.75 L 6.5 18.75 C 6.5 18.785156 6.539062 19.085938 6.703125 19.265625 C 6.867188 19.445312 7.09375 19.558594 7.421875 19.65625 C 8.082031 19.851562 9.230469 20 11.5 20 L 12.5 20 C 14.527344 20 15.675781 19.84375 16.375 19.65625 C 16.722656 19.566406 16.960938 19.46875 17.140625 19.34375 C 17.320312 19.21875 17.5 19.085938 17.5 18.75 L 17.5 4.75 C 17.5 4.339844 17.15625 4 16.75 4 Z M 7.5 5 L 16.5 5 L 16.5 15 L 7.5 15 Z M 8 15.5 C 8.277344 15.5 8.5 15.722656 8.5 16 C 8.5 16.277344 8.277344 16.5 8 16.5 C 7.722656 16.5 7.5 16.277344 7.5 16 C 7.5 15.722656 7.722656 15.5 8 15.5 Z M 9.5 15.5 C 9.777344 15.5 10 15.722656 10 16 C 10 16.277344 9.777344 16.5 9.5 16.5 C 9.222656 16.5 9 16.277344 9 16 C 9 15.722656 9.222656 15.5 9.5 15.5 Z M 11 15.5 C 11.277344 15.5 11.5 15.722656 11.5 16 C 11.5 16.277344 11.277344 16.5 11 16.5 C 10.722656 16.5 10.5 16.277344 10.5 16 C 10.5 15.722656 10.722656 15.5 11 15.5 Z M 13 15.5 C 13.277344 15.5 13.5 15.722656 13.5 16 C 13.5 16.277344 13.277344 16.5 13 16.5 C 12.722656 16.5 12.5 16.277344 12.5 16 C 12.5 15.722656 12.722656 15.5 13 15.5 Z M 14.5 15.5 C 14.777344 15.5 15 15.722656 15 16 C 15 16.277344 14.777344 16.5 14.5 16.5 C 14.222656 16.5 14 16.277344 14 16 C 14 15.722656 14.222656 15.5 14.5 15.5 Z M 16 15.5 C 16.277344 15.5 16.5 15.722656 16.5 16 C 16.5 16.277344 16.277344 16.5 16 16.5 C 15.722656 16.5 15.5 16.277344 15.5 16 C 15.5 15.722656 15.722656 15.5 16 15.5 Z M 8 17 C 8.277344 17 8.5 17.222656 8.5 17.5 C 8.5 17.777344 8.277344 18 8 18 C 7.722656 18 7.5 17.777344 7.5 17.5 C 7.5 17.222656 7.722656 17 8 17 Z M 9.5 17 C 9.777344 17 10 17.222656 10 17.5 C 10 17.777344 9.777344 18 9.5 18 C 9.222656 18 9 17.777344 9 17.5 C 9 17.222656 9.222656 17 9.5 17 Z M 12 17 C 12.554688 17 13 17.445312 13 18 C 13 18.554688 12.554688 19 12 19 C 11.445312 19 11 18.554688 11 18 C 11 17.445312 11.445312 17 12 17 Z M 14.5 17 C 14.777344 17 15 17.222656 15 17.5 C 15 17.777344 14.777344 18 14.5 18 C 14.222656 18 14 17.777344 14 17.5 C 14 17.222656 14.222656 17 14.5 17 Z M 16 17 C 16.277344 17 16.5 17.222656 16.5 17.5 C 16.5 17.777344 16.277344 18 16 18 C 15.722656 18 15.5 17.777344 15.5 17.5 C 15.5 17.222656 15.722656 17 16 17 Z M 16 17 "/>
</g>
</svg>
