<?xml version="1.0" encoding="UTF-8"?>
<svg xmlns="http://www.w3.org/2000/svg" xmlns:xlink="http://www.w3.org/1999/xlink" width="24pt" height="24pt" viewBox="0 0 24 24" version="1.1">
<g id="surface1">
<path style=" stroke:none;fill-rule:nonzero;fill:rgb(54.117647%,54.117647%,54.117647%);fill-opacity:1;" d="M 2.597656 3.957031 C 2.253906 4.023438 1.980469 4.351562 1.980469 4.699219 L 1.980469 19.050781 C 1.984375 19.433594 2.335938 19.785156 2.722656 19.792969 L 21.027344 19.792969 C 21.417969 19.785156 21.765625 19.433594 21.769531 19.050781 L 21.769531 6.742188 C 21.765625 6.355469 21.417969 6.003906 21.027344 5.996094 L 13.855469 5.996094 L 13.855469 4.699219 C 13.847656 4.316406 13.496094 3.964844 13.113281 3.957031 L 2.722656 3.957031 C 2.679688 3.957031 2.640625 3.957031 2.597656 3.957031 Z M 11.378906 8.957031 L 11.875 8.957031 C 14.058594 8.957031 15.832031 10.734375 15.832031 12.917969 C 15.832031 15.097656 14.058594 16.875 11.378906 16.875 C 9.691406 16.875 7.917969 15.097656 7.917969 12.917969 C 7.917969 10.734375 9.691406 8.957031 11.378906 8.957031 Z M 11.441406 9.511719 C 11.289062 9.535156 11.125 9.566406 10.976562 9.605469 L 10.515625 10.378906 C 10.554688 10.386719 10.585938 10.382812 10.636719 10.410156 C 10.886719 10.550781 11 10.671875 11.070312 10.691406 C 11.140625 10.707031 11.457031 10.273438 11.226562 10.753906 C 10.996094 11.230469 10.902344 11.390625 10.636719 11.492188 C 10.621094 11.5 10.59375 11.488281 10.574219 11.492188 C 10.507812 11.574219 10.410156 11.667969 10.296875 11.769531 C 10.050781 11.996094 9.925781 12.015625 9.925781 12.238281 C 9.925781 12.460938 9.945312 12.652344 9.773438 12.945312 C 9.597656 13.246094 9.449219 13.25 9.523438 13.472656 C 9.601562 13.695312 9.652344 14.082031 9.523438 13.90625 C 9.398438 13.734375 9.46875 13.398438 9.371094 13.597656 C 9.28125 13.769531 9.074219 13.824219 9.058594 13.996094 C 9.058594 14.023438 9.054688 14.058594 9.058594 14.089844 C 9.125 14.304688 9.496094 14.015625 9.496094 14.183594 C 9.496094 14.359375 9.171875 14.347656 9.246094 14.496094 C 9.324219 14.644531 9.613281 14.203125 9.863281 14.277344 C 10.113281 14.347656 9.949219 14.394531 10.171875 14.496094 C 10.398438 14.59375 10.515625 14.6875 10.515625 14.832031 C 10.515625 14.980469 11.238281 14.925781 11.164062 15.171875 C 11.089844 15.421875 11.019531 15.367188 10.792969 15.636719 C 10.667969 15.789062 10.554688 15.871094 10.480469 15.945312 C 10.585938 16.023438 10.613281 16.050781 10.730469 16.007812 C 10.890625 15.957031 10.703125 15.894531 10.824219 15.824219 C 10.855469 15.804688 10.867188 15.777344 10.886719 15.761719 C 10.902344 15.746094 10.910156 15.742188 10.949219 15.730469 C 11.023438 15.707031 11.160156 15.699219 11.503906 15.699219 C 12.191406 15.699219 12.558594 15.730469 12.558594 15.730469 C 12.558594 15.730469 12.769531 15.730469 12.558594 15.855469 C 12.402344 15.945312 12.097656 16.089844 12.0625 16.132812 C 12.074219 16.128906 12.082031 16.144531 12.121094 16.132812 C 12.441406 16.046875 12.894531 15.984375 13.019531 15.945312 C 13.074219 15.933594 13.351562 15.769531 13.574219 15.667969 C 13.585938 15.648438 13.597656 15.628906 13.605469 15.605469 L 13.574219 15.605469 C 13.402344 15.535156 13.246094 15.183594 13.296875 15.078125 C 13.347656 14.980469 13.480469 14.898438 13.605469 14.648438 C 13.734375 14.398438 13.707031 14.605469 13.359375 14.152344 C 13.011719 13.703125 12.824219 14.179688 12.652344 14.03125 C 12.472656 13.878906 12.117188 13.75 11.96875 13.472656 C 11.816406 13.199219 11.875 13.402344 11.875 13.105469 C 11.875 12.800781 11.863281 13.011719 11.933594 12.761719 C 12.011719 12.511719 12.210938 12.472656 12.464844 12.296875 C 12.496094 12.273438 12.519531 12.285156 12.558594 12.269531 C 12.5 12.214844 12.433594 12.082031 12.277344 11.925781 C 12.277344 11.925781 12.429688 11.605469 12.558594 11.554688 C 12.675781 11.507812 12.761719 11.539062 12.929688 11.585938 C 12.933594 11.558594 12.917969 11.554688 12.929688 11.492188 C 12.953125 11.292969 12.863281 11.402344 12.863281 11.277344 C 12.863281 11.152344 12.90625 11.296875 13.082031 11.246094 C 13.257812 11.199219 13.246094 10.824219 13.421875 10.878906 C 13.597656 10.925781 13.613281 10.824219 13.761719 10.597656 C 13.910156 10.371094 13.746094 10.480469 13.542969 10.378906 C 13.34375 10.28125 13.53125 10.546875 13.480469 10.71875 C 13.433594 10.894531 13.285156 10.785156 13.113281 10.410156 C 12.9375 10.035156 13.074219 10.1875 13.175781 9.886719 C 13.191406 9.835938 13.210938 9.792969 13.238281 9.765625 C 12.910156 9.621094 12.554688 9.546875 12.183594 9.515625 C 12.183594 9.53125 12.183594 9.527344 12.183594 9.542969 C 12.148438 9.882812 11.976562 9.664062 11.90625 9.699219 C 11.835938 9.734375 11.378906 10.390625 11.378906 10.320312 C 11.378906 10.246094 11.441406 10.132812 11.441406 10.132812 C 11.441406 10.132812 11.5 9.835938 11.441406 9.515625 Z M 12.863281 10.847656 C 12.941406 10.855469 13.011719 10.925781 13.050781 10.996094 C 13.074219 11.039062 13.042969 11.054688 13.019531 11.0625 C 13.019531 11.0625 13.050781 11.160156 13.050781 11.183594 C 13.050781 11.207031 12.984375 11.214844 12.863281 11.183594 C 12.777344 11.160156 12.867188 11.136719 12.929688 11.089844 L 12.800781 11.089844 C 12.757812 11.089844 12.753906 11.066406 12.742188 11.0625 C 12.746094 11.066406 12.730469 11.082031 12.742188 11.089844 C 12.796875 11.160156 12.730469 11.105469 12.648438 11.125 C 12.566406 11.140625 12.640625 11.066406 12.675781 10.996094 C 12.675781 10.996094 12.730469 11.042969 12.742188 11.0625 C 12.753906 11.027344 12.769531 10.964844 12.769531 10.875 C 12.800781 10.859375 12.839844 10.835938 12.863281 10.847656 Z M 14.75 11.0625 C 14.628906 11.152344 14.480469 11.363281 14.347656 11.492188 C 14.125 11.71875 14.46875 11.746094 14.597656 11.769531 C 14.722656 11.796875 14.839844 11.710938 15.089844 11.710938 C 15.089844 11.699219 15.066406 11.691406 15.0625 11.679688 C 15.027344 11.683594 15.007812 11.679688 14.96875 11.679688 C 14.820312 11.679688 14.902344 11.570312 14.933594 11.371094 C 14.886719 11.269531 14.8125 11.15625 14.75 11.0625 Z M 13.203125 11.527344 C 13.152344 11.507812 13.082031 11.5625 12.988281 11.621094 C 13.058594 11.714844 12.847656 11.976562 12.742188 12.175781 C 12.738281 12.179688 12.714844 12.195312 12.707031 12.207031 C 12.925781 12.167969 13.261719 12.234375 14.011719 12.421875 C 14.011719 12.421875 14.300781 12.324219 14.347656 12.421875 C 14.367188 12.457031 14.453125 12.472656 14.566406 12.484375 C 14.867188 12.367188 14.71875 12.292969 14.71875 12.050781 C 14.71875 11.800781 14.332031 12.050781 14.378906 11.925781 C 14.429688 11.800781 14.339844 11.824219 14.160156 11.648438 C 13.988281 11.476562 14.011719 12.082031 13.882812 11.957031 C 13.761719 11.832031 13.75 11.933594 13.699219 11.832031 C 13.648438 11.734375 13.484375 11.554688 13.484375 11.554688 C 13.484375 11.554688 13.601562 11.710938 13.574219 11.957031 C 13.550781 12.207031 13.203125 11.988281 13.203125 11.988281 C 13.203125 11.988281 13.261719 11.949219 13.359375 11.925781 C 13.457031 11.902344 13.339844 11.761719 13.265625 11.585938 C 13.246094 11.546875 13.226562 11.535156 13.203125 11.527344 Z M 15.308594 12.761719 C 15.28125 12.78125 15.25 12.8125 15.214844 12.824219 C 14.9375 12.925781 14.71875 13.132812 14.71875 13.132812 C 14.71875 13.132812 15.050781 13.148438 15.277344 13.351562 C 15.292969 13.214844 15.308594 13.058594 15.308594 12.917969 C 15.308594 12.867188 15.308594 12.8125 15.308594 12.761719 Z M 15.308594 12.761719 "/>
</g>
</svg>
