<?xml version="1.0" encoding="UTF-8"?>
<svg xmlns="http://www.w3.org/2000/svg" xmlns:xlink="http://www.w3.org/1999/xlink" width="24pt" height="24pt" viewBox="0 0 24 24" version="1.1">
<g id="surface1">
<path style=" stroke:none;fill-rule:nonzero;fill:rgb(65.098039%,70.588235%,29.019608%);fill-opacity:1;" d="M 20.25 15 L 5.25 15 L 5.25 6.75 L 20.25 6.75 Z M 20.25 15 "/>
<path style=" stroke:none;fill-rule:nonzero;fill:rgb(2.745098%,21.176471%,25.882353%);fill-opacity:1;" d="M 6.75 8.25 L 6.75 9.75 L 12 9.75 L 12 8.25 Z M 6.75 8.25 "/>
<path style=" stroke:none;fill-rule:nonzero;fill:rgb(2.745098%,21.176471%,25.882353%);fill-opacity:1;" d="M 13.5 8.25 L 13.5 9.75 L 18.75 9.75 L 18.75 8.25 Z M 13.5 8.25 "/>
<path style=" stroke:none;fill-rule:nonzero;fill:rgb(2.745098%,21.176471%,25.882353%);fill-opacity:1;" d="M 6.75 11.25 L 6.75 12 L 18.75 12 L 18.75 11.25 Z M 6.75 11.25 "/>
<path style=" stroke:none;fill-rule:nonzero;fill:rgb(2.745098%,21.176471%,25.882353%);fill-opacity:1;" d="M 6.75 12.75 L 6.75 13.5 L 18.75 13.5 L 18.75 12.75 Z M 6.75 12.75 "/>
<path style=" stroke:none;fill-rule:nonzero;fill:rgb(52.156863%,60%,0%);fill-opacity:1;" d="M 3 6.75 L 4.5 6.75 L 4.5 9 L 3 9 Z M 3 6.75 "/>
<path style=" stroke:none;fill-rule:nonzero;fill:rgb(14.901961%,54.509804%,82.352941%);fill-opacity:1;" d="M 3 9.75 L 4.5 9.75 L 4.5 12 L 3 12 Z M 3 9.75 "/>
<path style=" stroke:none;fill-rule:nonzero;fill:rgb(86.27451%,19.607843%,18.431373%);fill-opacity:1;" d="M 3 12.75 L 4.5 12.75 L 4.5 15 L 3 15 Z M 3 12.75 "/>
<path style=" stroke:none;fill-rule:nonzero;fill:rgb(39.607843%,48.235294%,51.372549%);fill-opacity:1;" d="M 5.25 3.75 L 4.5 3.75 L 4.5 19.5 L 3.75 19.5 L 3.75 20.25 L 5.25 20.25 Z M 5.25 3.75 "/>
<path style=" stroke:none;fill-rule:nonzero;fill:rgb(99.215686%,96.470588%,89.019608%);fill-opacity:0.337255;" d="M 18 6.75 L 19.5 6.75 L 19.5 15 L 18 15 Z M 18 6.75 "/>
</g>
</svg>
