<?xml version="1.0" encoding="UTF-8"?>
<svg xmlns="http://www.w3.org/2000/svg" xmlns:xlink="http://www.w3.org/1999/xlink" width="48pt" height="48pt" viewBox="0 0 48 48" version="1.1">
<g id="surface1">
<path style=" stroke:none;fill-rule:nonzero;fill:rgb(54.117647%,54.117647%,54.117647%);fill-opacity:1;" d="M 23.785156 7.996094 C 20.113281 7.996094 17.15625 10.957031 17.15625 14.625 L 17.15625 24.816406 C 17.15625 28.476562 20.113281 31.433594 23.785156 31.433594 C 27.445312 31.433594 30.402344 28.476562 30.402344 24.816406 L 30.402344 14.625 C 30.402344 10.957031 27.445312 7.996094 23.785156 7.996094 Z M 13.285156 23.972656 C 13.285156 23.972656 13.277344 35.71875 22.902344 35.691406 L 22.902344 37.875 L 19.714844 37.875 L 19.714844 40.003906 L 28.285156 40.003906 L 28.285156 37.875 L 25.058594 37.875 L 25.058594 35.691406 C 35.695312 34.996094 34.6875 23.972656 34.6875 23.972656 L 32.53125 23.972656 C 32.53125 23.972656 32.558594 33.589844 24 33.589844 C 15.441406 33.589844 15.441406 23.972656 15.441406 23.972656 Z M 13.285156 23.972656 "/>
</g>
</svg>
