<?xml version="1.0" encoding="UTF-8"?>
<svg xmlns="http://www.w3.org/2000/svg" xmlns:xlink="http://www.w3.org/1999/xlink" width="48pt" height="48pt" viewBox="0 0 48 48" version="1.1">
<g id="surface1">
<path style=" stroke:none;fill-rule:nonzero;fill:rgb(54.117647%,54.117647%,54.117647%);fill-opacity:1;" d="M 40.5 36 C 40.5 38.484375 38.484375 40.5 36 40.5 C 33.515625 40.5 31.5 38.484375 31.5 36 C 31.5 33.515625 33.515625 31.5 36 31.5 C 38.484375 31.5 40.5 33.515625 40.5 36 Z M 40.5 36 "/>
<path style=" stroke:none;fill-rule:nonzero;fill:rgb(54.117647%,54.117647%,54.117647%);fill-opacity:1;" d="M 40.5 12 C 40.5 14.484375 38.484375 16.5 36 16.5 C 33.515625 16.5 31.5 14.484375 31.5 12 C 31.5 9.515625 33.515625 7.5 36 7.5 C 38.484375 7.5 40.5 9.515625 40.5 12 Z M 40.5 12 "/>
<path style=" stroke:none;fill-rule:nonzero;fill:rgb(54.117647%,54.117647%,54.117647%);fill-opacity:1;" d="M 16.5 36 C 16.5 38.484375 14.484375 40.5 12 40.5 C 9.515625 40.5 7.5 38.484375 7.5 36 C 7.5 33.515625 9.515625 31.5 12 31.5 C 14.484375 31.5 16.5 33.515625 16.5 36 Z M 16.5 36 "/>
<path style=" stroke:none;fill-rule:nonzero;fill:rgb(54.117647%,54.117647%,54.117647%);fill-opacity:1;" d="M 16.5 12 C 16.5 14.484375 14.484375 16.5 12 16.5 C 9.515625 16.5 7.5 14.484375 7.5 12 C 7.5 9.515625 9.515625 7.5 12 7.5 C 14.484375 7.5 16.5 9.515625 16.5 12 Z M 16.5 12 "/>
<path style=" stroke:none;fill-rule:nonzero;fill:rgb(54.901961%,73.72549%,39.607843%);fill-opacity:1;" d="M 42 24 C 42 33.941406 33.941406 42 24 42 C 14.058594 42 6 33.941406 6 24 C 6 14.058594 14.058594 6 24 6 C 33.941406 6 42 14.058594 42 24 Z M 42 24 "/>
<path style=" stroke:none;fill-rule:nonzero;fill:rgb(54.117647%,54.117647%,54.117647%);fill-opacity:1;" d="M 38.625 24 C 38.625 32.078125 32.078125 38.625 24 38.625 C 15.921875 38.625 9.375 32.078125 9.375 24 C 9.375 15.921875 15.921875 9.375 24 9.375 C 32.078125 9.375 38.625 15.921875 38.625 24 Z M 38.625 24 "/>
<path style=" stroke:none;fill-rule:nonzero;fill:rgb(54.901961%,73.72549%,39.607843%);fill-opacity:0.254902;" d="M 24 24 L 25.195312 38.550781 C 28.652344 38.269531 31.859375 36.769531 34.289062 34.363281 Z M 24 24 "/>
<path style=" stroke:none;fill-rule:nonzero;fill:rgb(54.901961%,73.72549%,39.607843%);fill-opacity:0.254902;" d="M 24 24 L 32.3125 36.003906 C 35.164062 34.03125 37.191406 31.128906 38.09375 27.832031 Z M 24 24 "/>
<path style="fill:none;stroke-width:2;stroke-linecap:butt;stroke-linejoin:miter;stroke:rgb(99.215686%,96.470588%,89.019608%);stroke-opacity:0.156863;stroke-miterlimit:4;" d="M 37.000002 24.000085 C 37.000002 31.180601 31.180557 37.000014 24 37.000014 C 16.819443 37.000014 10.999998 31.180601 10.999998 24.000085 C 10.999998 16.819569 16.819443 11.000157 24 11.000157 C 31.180557 11.000157 37.000002 16.819569 37.000002 24.000085 Z M 37.000002 24.000085 " transform="matrix(1.125,0,0,1.125006,-2.999995,-3.000244)"/>
<path style=" stroke:none;fill-rule:nonzero;fill:rgb(54.901961%,73.72549%,39.607843%);fill-opacity:0.262745;" d="M 24 24 L 22.804688 9.449219 C 19.347656 9.730469 16.140625 11.230469 13.710938 13.636719 Z M 24 24 "/>
<path style=" stroke:none;fill-rule:nonzero;fill:rgb(54.901961%,73.72549%,39.607843%);fill-opacity:0.145098;" d="M 24 24 L 15.6875 11.996094 C 12.835938 13.96875 10.808594 16.871094 9.90625 20.167969 Z M 24 24 "/>
<path style=" stroke:none;fill-rule:nonzero;fill:rgb(54.901961%,73.72549%,39.607843%);fill-opacity:1;" d="M 30 24 C 30 27.3125 27.3125 30 24 30 C 20.6875 30 18 27.3125 18 24 C 18 20.6875 20.6875 18 24 18 C 27.3125 18 30 20.6875 30 24 Z M 30 24 "/>
</g>
</svg>
