<?xml version="1.0" encoding="UTF-8"?>
<svg xmlns="http://www.w3.org/2000/svg" xmlns:xlink="http://www.w3.org/1999/xlink" width="48pt" height="48pt" viewBox="0 0 48 48" version="1.1">
<g id="surface1">
<path style=" stroke:none;fill-rule:nonzero;fill:rgb(54.117647%,54.117647%,54.117647%);fill-opacity:1;" d="M 24 10.996094 C 19.128906 10.996094 16.449219 13.832031 15.214844 16.566406 C 14.367188 18.449219 14.136719 20.273438 14.0625 21.253906 C 10.582031 22.113281 7.996094 25.246094 7.996094 28.996094 C 7.996094 33.417969 11.582031 37.003906 16.003906 37.003906 L 16.003906 22.003906 C 16.003906 22.003906 16.007812 19.683594 17.035156 17.410156 C 18.050781 15.136719 19.871094 13.003906 24 13.003906 C 28.128906 13.003906 29.949219 15.136719 30.964844 17.410156 C 31.992188 19.683594 31.996094 22.003906 31.996094 22.003906 L 31.996094 37.003906 C 36.417969 37.003906 40.003906 33.417969 40.003906 28.996094 C 40.003906 25.246094 37.417969 22.113281 33.9375 21.253906 C 33.863281 20.273438 33.632812 18.449219 32.785156 16.566406 C 31.550781 13.832031 28.871094 10.996094 24 10.996094 Z M 24 10.996094 "/>
</g>
</svg>
