<?xml version="1.0" encoding="UTF-8"?>
<svg xmlns="http://www.w3.org/2000/svg" xmlns:xlink="http://www.w3.org/1999/xlink" width="48pt" height="48pt" viewBox="0 0 48 48" version="1.1">
<g id="surface1">
<path style=" stroke:none;fill-rule:nonzero;fill:rgb(54.117647%,54.117647%,54.117647%);fill-opacity:1;" d="M 24 7.996094 C 17.371094 7.996094 12 13.371094 12 19.996094 C 12 26.625 17.371094 31.996094 24 31.996094 C 30.628906 31.996094 36 26.625 36 19.996094 C 36 13.371094 30.628906 7.996094 24 7.996094 Z M 24 13.003906 C 27.863281 13.003906 31.003906 16.144531 31.003906 19.996094 C 31.003906 23.859375 27.863281 27 24 27 C 20.136719 27 16.996094 23.859375 16.996094 19.996094 C 16.996094 16.144531 20.136719 13.003906 24 13.003906 Z M 24 13.996094 C 20.675781 13.996094 18 16.683594 18 19.996094 C 18 23.320312 20.675781 25.996094 24 25.996094 C 27.324219 25.996094 30 23.320312 30 19.996094 C 30 16.683594 27.324219 13.996094 24 13.996094 Z M 24 16.996094 C 25.996094 16.996094 27 18 27 19.996094 C 27 22.003906 25.996094 22.996094 24 22.996094 C 22.003906 22.996094 21 22.003906 21 19.996094 C 21 18 22.003906 16.996094 24 16.996094 Z M 21 33.066406 L 21 36.066406 L 27 36.066406 L 27 33.066406 Z M 16.003906 37.058594 L 16.003906 39.066406 L 31.996094 39.066406 L 31.996094 37.058594 Z M 16.003906 37.058594 "/>
</g>
</svg>
