<?xml version="1.0" encoding="UTF-8"?>
<svg xmlns="http://www.w3.org/2000/svg" xmlns:xlink="http://www.w3.org/1999/xlink" width="48pt" height="48pt" viewBox="0 0 48 48" version="1.1">
<g id="surface1">
<path style=" stroke:none;fill-rule:nonzero;fill:rgb(54.117647%,54.117647%,54.117647%);fill-opacity:1;" d="M 13.433594 7.996094 C 12.097656 7.996094 10.996094 9.097656 10.996094 10.433594 L 10.996094 30.535156 C 10.996094 31.871094 12.097656 33 13.433594 33 L 34.566406 33 C 35.902344 33 37.003906 31.871094 37.003906 30.535156 L 37.003906 10.433594 C 37.003906 9.097656 35.902344 7.996094 34.566406 7.996094 Z M 13.433594 10.003906 L 34.566406 10.003906 C 34.824219 10.003906 34.996094 10.175781 34.996094 10.433594 L 34.996094 30.535156 C 34.996094 30.792969 34.824219 31.003906 34.566406 31.003906 L 13.433594 31.003906 C 13.175781 31.003906 13.003906 30.792969 13.003906 30.535156 L 13.003906 10.433594 C 13.003906 10.175781 13.175781 10.003906 13.433594 10.003906 Z M 33 28.003906 C 32.449219 28.003906 31.996094 28.449219 31.996094 28.996094 C 31.996094 29.554688 32.449219 30 33 30 C 33.550781 30 34.003906 29.554688 34.003906 28.996094 C 34.003906 28.449219 33.550781 28.003906 33 28.003906 Z M 14.652344 34.003906 C 16.121094 37.519531 19.757812 40.003906 24 40.003906 C 28.242188 40.003906 31.878906 37.519531 33.347656 34.003906 Z M 14.652344 34.003906 "/>
</g>
</svg>
