<?xml version="1.0" encoding="UTF-8"?>
<svg xmlns="http://www.w3.org/2000/svg" xmlns:xlink="http://www.w3.org/1999/xlink" width="48pt" height="48pt" viewBox="0 0 48 48" version="1.1">
<g id="surface1">
<path style=" stroke:none;fill-rule:nonzero;fill:rgb(54.117647%,54.117647%,54.117647%);fill-opacity:1;" d="M 18.628906 7.996094 C 17.191406 7.996094 16.003906 9.160156 16.003906 10.59375 L 16.003906 37.378906 C 16.003906 38.808594 17.191406 40.003906 18.628906 40.003906 L 29.371094 40.003906 C 30.808594 40.003906 31.996094 38.808594 31.996094 37.378906 L 31.996094 10.59375 C 31.996094 9.160156 30.808594 7.996094 29.371094 7.996094 Z M 22.5 10.003906 L 25.5 10.003906 C 25.777344 10.003906 25.996094 10.222656 25.996094 10.5 C 25.996094 10.777344 25.777344 10.996094 25.5 10.996094 L 22.5 10.996094 C 22.222656 10.996094 22.003906 10.777344 22.003906 10.5 C 22.003906 10.222656 22.222656 10.003906 22.5 10.003906 Z M 18 12 L 30 12 L 30 36 L 18 36 Z M 24 37.003906 C 24.550781 37.003906 25.003906 37.449219 25.003906 37.996094 C 25.003906 38.554688 24.550781 39 24 39 C 23.449219 39 22.996094 38.554688 22.996094 37.996094 C 22.996094 37.449219 23.449219 37.003906 24 37.003906 Z M 24 37.003906 "/>
</g>
</svg>
