<?xml version="1.0" encoding="UTF-8"?>
<svg xmlns="http://www.w3.org/2000/svg" xmlns:xlink="http://www.w3.org/1999/xlink" width="48pt" height="48pt" viewBox="0 0 48 48" version="1.1">
<g id="surface1">
<path style=" stroke:none;fill-rule:nonzero;fill:rgb(54.117647%,54.117647%,54.117647%);fill-opacity:1;" d="M 23.980469 12.058594 C 19.058594 12.058594 15.074219 16.042969 15.074219 20.957031 C 15.074219 25.875 19.058594 29.882812 23.980469 29.882812 C 28.898438 29.882812 32.882812 25.875 32.882812 20.957031 C 32.882812 16.042969 28.898438 12.058594 23.980469 12.058594 Z M 23.980469 19.324219 C 24.886719 19.324219 25.613281 20.050781 25.613281 20.957031 C 25.613281 21.867188 24.886719 22.617188 23.980469 22.617188 C 23.074219 22.617188 22.347656 21.867188 22.347656 20.957031 C 22.347656 20.050781 23.074219 19.324219 23.980469 19.324219 Z M 23.980469 19.324219 "/>
<path style=" stroke:none;fill-rule:nonzero;fill:rgb(54.117647%,54.117647%,54.117647%);fill-opacity:1;" d="M 13.6875 8.015625 C 12.277344 8.015625 11.128906 9.164062 11.128906 10.574219 L 11.128906 37.417969 C 11.128906 38.832031 12.277344 40.011719 13.6875 40.011719 L 34.3125 40.011719 C 35.722656 40.011719 36.871094 38.832031 36.871094 37.417969 L 36.871094 10.574219 C 36.871094 9.164062 35.722656 8.015625 34.3125 8.015625 Z M 13.6875 10.011719 L 34.3125 10.011719 C 34.652344 10.011719 34.875 10.238281 34.875 10.574219 L 34.875 37.417969 C 34.875 37.757812 34.652344 38.015625 34.3125 38.015625 L 13.6875 38.015625 C 13.347656 38.015625 13.125 37.757812 13.125 37.417969 L 13.125 10.574219 C 13.125 10.238281 13.347656 10.011719 13.6875 10.011719 Z M 13.6875 10.011719 "/>
<path style=" stroke:none;fill-rule:nonzero;fill:rgb(54.117647%,54.117647%,54.117647%);fill-opacity:1;" d="M 27 31.003906 L 31.003906 36 L 33 36 L 33 34.003906 Z M 27 31.003906 "/>
</g>
</svg>
