<?xml version="1.0" encoding="UTF-8"?>
<svg xmlns="http://www.w3.org/2000/svg" xmlns:xlink="http://www.w3.org/1999/xlink" width="48pt" height="48pt" viewBox="0 0 48 48" version="1.1">
<g id="surface1">
<path style=" stroke:none;fill-rule:nonzero;fill:rgb(54.901961%,54.901961%,54.901961%);fill-opacity:1;" d="M 13.003906 7.996094 L 34.996094 7.996094 C 36.105469 7.996094 37.003906 8.894531 37.003906 10.003906 L 37.003906 37.996094 C 37.003906 39.105469 36.105469 40.003906 34.996094 40.003906 L 13.003906 40.003906 C 11.894531 40.003906 10.996094 39.105469 10.996094 37.996094 L 10.996094 10.003906 C 10.996094 8.894531 11.894531 7.996094 13.003906 7.996094 Z M 13.003906 7.996094 "/>
<path style=" stroke:none;fill-rule:nonzero;fill:rgb(54.901961%,73.72549%,39.607843%);fill-opacity:0.462745;" d="M 30.042969 7.996094 L 34.035156 7.996094 L 34.035156 40.003906 L 30.042969 40.003906 Z M 30.042969 7.996094 "/>
<path style=" stroke:none;fill-rule:nonzero;fill:rgb(86.666667%,86.666667%,86.666667%);fill-opacity:1;" d="M 24.050781 13.238281 C 22.617188 13.21875 21.160156 13.546875 19.804688 14.269531 C 15.457031 16.570312 13.847656 21.957031 16.148438 26.296875 C 18.050781 29.902344 22.066406 31.640625 25.863281 30.832031 L 24.210938 24.984375 C 24.152344 24.988281 24.105469 25.019531 24.050781 25.019531 C 22.394531 25.019531 21.050781 23.671875 21.050781 22.019531 C 21.050781 20.363281 22.394531 19.019531 24.050781 19.019531 C 25.710938 19.019531 27.050781 20.363281 27.050781 22.019531 C 27.050781 22.757812 26.777344 23.433594 26.332031 23.953125 L 30.175781 28.546875 C 32.964844 25.855469 33.769531 21.542969 31.863281 17.953125 C 30.28125 14.964844 27.210938 13.265625 24.050781 13.238281 Z M 24.050781 13.238281 "/>
<path style=" stroke:none;fill-rule:nonzero;fill:rgb(86.666667%,86.666667%,86.666667%);fill-opacity:1;" d="M 27 26.988281 L 30 35.988281 L 33 35.988281 L 33 33.984375 Z M 27 26.988281 "/>
<path style=" stroke:none;fill-rule:nonzero;fill:rgb(57.647059%,63.137255%,63.137255%);fill-opacity:0.494118;" d="M 15.585938 24.769531 C 16.382812 27.269531 18.292969 29.34375 20.839844 30.339844 L 22.941406 24.753906 C 22.636719 24.636719 22.363281 24.46875 22.101562 24.246094 C 21.683594 23.882812 21.375 23.425781 21.210938 22.933594 Z M 15.585938 24.769531 "/>
<path style=" stroke:none;fill-rule:nonzero;fill:rgb(54.901961%,73.72549%,39.607843%);fill-opacity:0.247059;" d="M 15.328125 20.183594 C 14.769531 22.753906 15.386719 25.503906 17.097656 27.644531 L 21.703125 23.859375 C 21.496094 23.601562 21.351562 23.320312 21.234375 22.996094 C 21.050781 22.472656 21.011719 21.925781 21.117188 21.417969 Z M 15.328125 20.183594 "/>
<path style=" stroke:none;fill-rule:nonzero;fill:rgb(57.647059%,63.137255%,63.137255%);fill-opacity:0.494118;" d="M 32.394531 19.171875 C 31.582031 16.683594 29.652344 14.621094 27.09375 13.636719 L 25.042969 19.238281 C 25.339844 19.355469 25.617188 19.519531 25.878906 19.738281 C 26.300781 20.105469 26.613281 20.554688 26.785156 21.046875 Z M 32.394531 19.171875 "/>
<path style=" stroke:none;fill-rule:nonzero;fill:rgb(54.901961%,73.72549%,39.607843%);fill-opacity:0.192157;" d="M 32.683594 23.746094 C 33.230469 21.183594 32.589844 18.433594 30.863281 16.308594 L 26.285156 20.128906 C 26.488281 20.378906 26.644531 20.660156 26.753906 20.980469 C 26.941406 21.511719 26.988281 22.054688 26.886719 22.566406 Z M 32.683594 23.746094 "/>
</g>
</svg>
