<?xml version="1.0" encoding="UTF-8"?>
<svg xmlns="http://www.w3.org/2000/svg" xmlns:xlink="http://www.w3.org/1999/xlink" width="48pt" height="48pt" viewBox="0 0 48 48" version="1.1">
<g id="surface1">
<path style=" stroke:none;fill-rule:nonzero;fill:rgb(54.117647%,54.117647%,54.117647%);fill-opacity:1;" d="M 9.816406 9.082031 L 32.230469 9.082031 C 33.1875 9.082031 33.960938 9.855469 33.960938 10.808594 L 33.960938 33.269531 C 33.960938 34.222656 33.1875 34.996094 32.230469 34.996094 L 9.816406 34.996094 C 8.859375 34.996094 8.085938 34.222656 8.085938 33.269531 L 8.085938 10.808594 C 8.085938 9.855469 8.859375 9.082031 9.816406 9.082031 Z M 9.816406 9.082031 "/>
<path style=" stroke:none;fill-rule:nonzero;fill:rgb(54.117647%,54.117647%,54.117647%);fill-opacity:1;" d="M 38.929688 34.316406 L 38.886719 15.769531 L 39.492188 14.269531 L 39.964844 15.683594 L 40.003906 34.316406 Z M 38.929688 34.316406 "/>
<path style=" stroke:none;fill-rule:nonzero;fill:rgb(54.117647%,54.117647%,54.117647%);fill-opacity:1;" d="M 39.160156 34.042969 C 39.136719 34.285156 39.199219 34.683594 39.253906 35.074219 C 39.292969 35.402344 39.300781 35.605469 39.308594 35.699219 C 39.238281 35.738281 39.164062 35.789062 39 35.859375 C 38.882812 35.90625 38.753906 35.953125 38.652344 35.980469 C 38.554688 36.011719 38.480469 36.003906 38.503906 36.011719 C 38.484375 36 38.464844 35.980469 38.4375 35.953125 C 38.378906 35.882812 38.277344 35.777344 38.183594 35.671875 C 38.003906 35.457031 37.769531 35.199219 37.5 34.980469 C 37.230469 34.769531 36.933594 34.59375 36.589844 34.605469 C 36.257812 34.621094 35.90625 34.863281 35.652344 35.324219 C 35.167969 36.214844 35.214844 36.824219 35.15625 37.171875 C 35.128906 37.339844 35.082031 37.429688 34.96875 37.511719 C 34.855469 37.59375 34.628906 37.667969 34.21875 37.734375 C 33.351562 37.855469 32.671875 38.109375 32.183594 38.136719 C 31.945312 38.152344 31.738281 38.121094 31.59375 38.015625 C 31.449219 37.902344 31.347656 37.710938 31.246094 37.359375 C 30.855469 35.902344 31.285156 34.855469 31.285156 34.855469 L 30.964844 34.734375 C 30.964844 34.734375 30.488281 35.902344 30.910156 37.453125 C 31.011719 37.847656 31.183594 38.128906 31.40625 38.296875 C 31.628906 38.460938 31.898438 38.496094 32.183594 38.484375 C 32.761719 38.449219 33.449219 38.199219 34.285156 38.074219 C 34.714844 38.011719 34.964844 37.902344 35.15625 37.761719 C 35.347656 37.621094 35.433594 37.441406 35.464844 37.230469 C 35.535156 36.816406 35.511719 36.316406 35.972656 35.484375 C 36.1875 35.082031 36.378906 34.964844 36.589844 34.949219 C 36.800781 34.941406 37.074219 35.042969 37.3125 35.230469 C 37.550781 35.417969 37.757812 35.675781 37.941406 35.886719 C 38.027344 35.996094 38.121094 36.09375 38.183594 36.167969 C 38.222656 36.207031 38.25 36.234375 38.277344 36.261719 C 38.308594 36.292969 38.339844 36.304688 38.410156 36.328125 C 38.535156 36.363281 38.628906 36.328125 38.746094 36.292969 C 38.871094 36.257812 39 36.222656 39.121094 36.167969 C 39.371094 36.066406 39.589844 35.953125 39.589844 35.953125 L 39.683594 35.886719 L 39.683594 35.765625 C 39.683594 35.765625 39.613281 35.433594 39.5625 35.042969 C 39.511719 34.660156 39.488281 34.183594 39.496094 34.042969 Z M 39.160156 34.042969 "/>
</g>
</svg>
