<?xml version="1.0" encoding="UTF-8"?>
<svg xmlns="http://www.w3.org/2000/svg" xmlns:xlink="http://www.w3.org/1999/xlink" width="48pt" height="48pt" viewBox="0 0 48 48" version="1.1">
<g id="surface1">
<path style=" stroke:none;fill-rule:nonzero;fill:rgb(54.117647%,54.117647%,54.117647%);fill-opacity:1;" d="M 18.65625 7.996094 C 17.199219 7.996094 16.003906 9.191406 16.003906 10.660156 L 16.003906 37.3125 C 16.003906 38.769531 17.199219 40.003906 18.65625 40.003906 L 29.316406 40.003906 C 30.773438 40.003906 31.996094 38.769531 31.996094 37.3125 L 31.996094 10.660156 C 31.996094 9.191406 30.773438 7.996094 29.316406 7.996094 Z M 19.660156 10.003906 L 28.339844 10.003906 C 29.269531 10.003906 30 10.734375 30 11.652344 L 30 24.441406 C 30 25.359375 29.269531 26.089844 28.339844 26.089844 L 19.660156 26.089844 C 18.730469 26.089844 18 25.359375 18 24.441406 L 18 11.652344 C 18 10.734375 18.730469 10.003906 19.660156 10.003906 Z M 24 28.003906 C 26.761719 28.003906 28.996094 30.238281 28.996094 33 C 28.996094 35.761719 26.761719 37.996094 24 37.996094 C 21.238281 37.996094 19.003906 35.761719 19.003906 33 C 19.003906 30.238281 21.238281 28.003906 24 28.003906 Z M 24 28.003906 "/>
<path style=" stroke:none;fill-rule:nonzero;fill:rgb(54.117647%,54.117647%,54.117647%);fill-opacity:1;" d="M 22.003906 36 L 22.003906 30 L 27 33 Z M 22.003906 36 "/>
</g>
</svg>
