<?xml version="1.0" encoding="UTF-8"?>
<svg xmlns="http://www.w3.org/2000/svg" xmlns:xlink="http://www.w3.org/1999/xlink" width="48pt" height="48pt" viewBox="0 0 48 48" version="1.1">
<g id="surface1">
<path style=" stroke:none;fill-rule:nonzero;fill:rgb(54.117647%,54.117647%,54.117647%);fill-opacity:1;" d="M 2.972656 11.878906 C 1.324219 11.878906 0 13.199219 0 14.839844 L 0 35.625 C 0 37.269531 1.324219 38.597656 2.972656 38.597656 L 44.53125 38.597656 C 46.175781 38.597656 47.503906 37.269531 47.503906 35.625 L 47.503906 14.839844 C 47.503906 13.199219 46.175781 11.878906 44.53125 11.878906 Z M 8.90625 17.8125 L 38.597656 17.8125 C 40.238281 17.8125 41.558594 19.136719 41.558594 20.785156 L 41.558594 29.691406 C 41.558594 31.332031 40.238281 32.652344 38.597656 32.652344 L 8.90625 32.652344 C 7.261719 32.652344 5.933594 31.332031 5.933594 29.691406 L 5.933594 20.785156 C 5.933594 19.136719 7.261719 17.8125 8.90625 17.8125 Z M 8.90625 17.8125 "/>
<path style=" stroke:none;fill-rule:nonzero;fill:rgb(54.117647%,54.117647%,54.117647%);fill-opacity:1;" d="M 8.90625 20.785156 L 8.90625 23.746094 L 11.878906 23.746094 L 11.878906 20.785156 Z M 8.90625 20.785156 "/>
<path style=" stroke:none;fill-rule:nonzero;fill:rgb(54.117647%,54.117647%,54.117647%);fill-opacity:1;" d="M 14.839844 20.785156 L 14.839844 23.746094 L 17.8125 23.746094 L 17.8125 20.785156 Z M 14.839844 20.785156 "/>
<path style=" stroke:none;fill-rule:nonzero;fill:rgb(54.117647%,54.117647%,54.117647%);fill-opacity:1;" d="M 20.785156 20.785156 L 20.785156 23.746094 L 23.746094 23.746094 L 23.746094 20.785156 Z M 20.785156 20.785156 "/>
<path style=" stroke:none;fill-rule:nonzero;fill:rgb(54.117647%,54.117647%,54.117647%);fill-opacity:1;" d="M 26.71875 20.785156 L 26.71875 23.746094 L 29.691406 23.746094 L 29.691406 20.785156 Z M 26.71875 20.785156 "/>
<path style=" stroke:none;fill-rule:nonzero;fill:rgb(54.117647%,54.117647%,54.117647%);fill-opacity:1;" d="M 8.90625 26.71875 L 8.90625 29.691406 L 14.953125 29.691406 L 14.953125 26.71875 Z M 8.90625 26.71875 "/>
<path style=" stroke:none;fill-rule:nonzero;fill:rgb(54.117647%,54.117647%,54.117647%);fill-opacity:1;" d="M 17.8125 26.71875 L 17.8125 29.691406 L 32.550781 29.691406 L 32.550781 26.71875 Z M 17.8125 26.71875 "/>
<path style=" stroke:none;fill-rule:nonzero;fill:rgb(54.117647%,54.117647%,54.117647%);fill-opacity:1;" d="M 32.652344 20.785156 L 32.652344 23.746094 L 35.625 23.746094 L 35.625 29.691406 L 38.597656 29.691406 L 38.597656 20.785156 Z M 32.652344 20.785156 "/>
</g>
</svg>
