<?xml version="1.0" encoding="UTF-8"?>
<svg xmlns="http://www.w3.org/2000/svg" xmlns:xlink="http://www.w3.org/1999/xlink" width="48pt" height="48pt" viewBox="0 0 48 48" version="1.1">
<g id="surface1">
<path style=" stroke:none;fill-rule:nonzero;fill:rgb(54.117647%,54.117647%,54.117647%);fill-opacity:1;" d="M 24 7.996094 C 15.164062 7.996094 7.996094 15.164062 7.996094 24 C 7.996094 27.328125 9.011719 30.410156 10.753906 32.972656 C 10.59375 29.550781 12.746094 25.949219 16.246094 23.933594 C 18.84375 22.449219 21.707031 22.058594 24.214844 22.6875 L 22.59375 12.347656 L 21.9375 11.4375 L 22.96875 10.527344 C 22.96875 10.527344 24.675781 8.941406 27.066406 8.277344 C 26.066406 8.085938 25.050781 7.996094 24 7.996094 Z M 28.472656 11.035156 C 27.351562 11.191406 26.285156 11.878906 25.621094 12.347656 L 25.902344 14.183594 C 25.925781 14.167969 25.917969 14.175781 25.941406 14.15625 C 26.175781 13.945312 26.503906 13.757812 26.90625 13.59375 C 27.714844 13.265625 28.832031 13.058594 30.5625 13.125 C 31.363281 13.152344 32.089844 12.628906 32.746094 11.933594 C 31.851562 11.863281 30.878906 11.683594 29.839844 11.183594 C 29.457031 11.003906 28.957031 10.957031 28.472656 11.035156 Z M 35.71875 13.152344 C 35.660156 13.230469 35.621094 13.300781 35.558594 13.378906 C 34.519531 14.695312 32.8125 16.21875 30.441406 16.125 C 29.214844 16.078125 28.738281 16.214844 28.40625 16.3125 L 30.160156 28.621094 L 30.160156 28.660156 C 30.164062 28.691406 30.199219 28.785156 30.214844 28.96875 C 30.605469 32.652344 28.183594 36.308594 24.535156 38.410156 C 23.433594 39.042969 22.265625 39.46875 21.09375 39.722656 C 22.042969 39.890625 23.003906 40.003906 24 40.003906 C 32.835938 40.003906 40.003906 32.835938 40.003906 24 C 40.003906 19.804688 38.363281 16.007812 35.71875 13.152344 Z M 21.84375 25.40625 C 20.527344 25.410156 19.082031 25.777344 17.71875 26.558594 C 14.191406 28.589844 12.914062 32.332031 14.277344 34.714844 C 15.652344 37.105469 19.496094 37.847656 23.035156 35.8125 C 25.832031 34.199219 27.433594 31.363281 27.214844 29.277344 C 27.222656 29.300781 27.210938 29.25 27.1875 29.089844 L 27.1875 29.0625 L 26.972656 27.535156 L 25.246094 26.34375 C 24.371094 25.734375 23.160156 25.394531 21.84375 25.40625 Z M 21.84375 25.40625 "/>
<path style=" stroke:none;fill-rule:nonzero;fill:rgb(54.117647%,54.117647%,54.117647%);fill-opacity:1;" d="M 28.242188 9.550781 C 28.988281 9.433594 29.785156 9.503906 30.496094 9.84375 C 33.332031 11.207031 35.761719 10.152344 35.761719 10.152344 C 35.761719 10.152344 33.847656 14.769531 30.492188 14.636719 C 27.316406 14.519531 26.839844 15.386719 26.753906 15.492188 L 28.683594 28.871094 C 28.691406 28.964844 28.710938 29.042969 28.722656 29.132812 C 29.019531 32.015625 27.011719 35.269531 23.785156 37.121094 C 19.6875 39.472656 14.859375 38.742188 12.984375 35.472656 C 11.109375 32.203125 12.890625 27.613281 16.988281 25.261719 C 20.152344 23.4375 23.765625 23.503906 26.105469 25.125 L 24.023438 11.777344 L 23.953125 11.675781 C 23.953125 11.675781 26.015625 9.867188 28.242188 9.550781 Z M 28.242188 9.550781 "/>
</g>
</svg>
