<?xml version="1.0" encoding="UTF-8"?>
<svg xmlns="http://www.w3.org/2000/svg" xmlns:xlink="http://www.w3.org/1999/xlink" width="48pt" height="48pt" viewBox="0 0 48 48" version="1.1">
<g id="surface1">
<path style=" stroke:none;fill-rule:nonzero;fill:rgb(54.117647%,54.117647%,54.117647%);fill-opacity:1;" d="M 13.5 7.996094 C 13.378906 8.019531 13.261719 8.0625 13.152344 8.128906 L 8.464844 11.035156 C 8.183594 11.207031 8.003906 11.535156 7.996094 11.878906 L 7.996094 38.035156 C 7.996094 38.554688 8.480469 39.027344 9 39.027344 L 12.683594 39.027344 C 12.703125 39.542969 13.171875 40.003906 13.6875 40.003906 L 34.3125 40.003906 C 34.828125 40.003906 35.296875 39.542969 35.316406 39.027344 L 39 39.027344 C 39.519531 39.027344 40.003906 38.554688 40.003906 38.035156 L 40.003906 11.878906 C 39.996094 11.535156 39.816406 11.207031 39.535156 11.035156 L 34.847656 8.128906 C 34.683594 8.035156 34.496094 7.992188 34.3125 7.996094 L 13.6875 7.996094 C 13.621094 7.992188 13.566406 7.992188 13.5 7.996094 Z M 13.996094 10.003906 L 34.996094 10.003906 L 37.996094 12 L 37.996094 37.003906 L 34.996094 37.003906 L 34.996094 27 L 13.003906 27 L 13.003906 37.003906 L 10.003906 37.003906 L 10.003906 12 Z M 13.996094 31.003906 L 34.003906 31.003906 L 34.003906 31.996094 L 13.996094 31.996094 Z M 13.996094 34.996094 L 34.003906 34.996094 L 34.003906 36 L 13.996094 36 Z M 13.996094 34.996094 "/>
<path style=" stroke:none;fill-rule:nonzero;fill:rgb(54.117647%,54.117647%,54.117647%);fill-opacity:1;" d="M 22.5 9 L 19.003906 9 L 19.003906 12 L 33 12 L 33 9 Z M 22.5 9 "/>
<path style=" stroke:none;fill-rule:nonzero;fill:rgb(54.117647%,54.117647%,54.117647%);fill-opacity:1;" d="M 13.996094 25.003906 L 13.996094 18 L 28.003906 18 L 28.003906 25.003906 Z M 13.996094 25.003906 "/>
<path style=" stroke:none;fill-rule:nonzero;fill:rgb(54.117647%,54.117647%,54.117647%);fill-opacity:1;" d="M 30 18 L 30 25.003906 L 34.003906 25.003906 L 34.003906 18 Z M 30 18 "/>
</g>
</svg>
