<?xml version="1.0" encoding="UTF-8"?>
<svg xmlns="http://www.w3.org/2000/svg" xmlns:xlink="http://www.w3.org/1999/xlink" width="48pt" height="48pt" viewBox="0 0 48 48" version="1.1">
<g id="surface1">
<path style="fill:none;stroke-width:1;stroke-linecap:butt;stroke-linejoin:miter;stroke:rgb(18.039216%,20.392157%,21.176471%);stroke-opacity:1;stroke-miterlimit:4;" d="M 301.478956 53.238015 L 301.478956 93.620626 C 301.549269 94.671402 302.478951 95.718271 303.861757 95.620616 L 335.71316 95.620616 C 336.611593 95.573741 337.494401 94.827651 337.478776 93.358908 L 337.478776 56.425499 C 337.478776 55.710659 337.248309 55.230193 336.720968 54.71457 C 336.720968 54.71457 333.974888 51.878647 333.974888 51.878647 C 333.705358 51.609117 333.521765 51.499743 332.732706 51.499743 L 302.732856 51.499743 C 301.795361 51.562242 301.435988 52.499738 301.502394 53.238015 Z M 301.478956 53.238015 " transform="matrix(1.000005,0,0,1.000005,-295.999995,-51)"/>
<path style="fill-rule:evenodd;fill:rgb(92.54902%,83.137255%,0%);fill-opacity:1;stroke-width:3;stroke-linecap:butt;stroke-linejoin:miter;stroke:rgb(18.039216%,20.392157%,21.176471%);stroke-opacity:1;stroke-miterlimit:4;" d="M 307.377364 55.616909 L 331.560837 55.616909 C 332.607707 55.616909 333.459265 56.468468 333.459265 57.515337 L 333.459265 70.718396 C 333.459265 71.765266 332.607707 72.616824 331.560837 72.616824 L 307.377364 72.616824 C 306.330495 72.616824 305.478936 71.765266 305.478936 70.718396 L 305.478936 57.515337 C 305.478936 56.468468 306.330495 55.616909 307.377364 55.616909 Z M 307.377364 55.616909 " transform="matrix(1.000005,0,0,1.000005,-295.999995,-51)"/>
<path style="fill:none;stroke-width:1;stroke-linecap:butt;stroke-linejoin:miter;stroke:rgb(76.470588%,62.352941%,0%);stroke-opacity:1;stroke-miterlimit:4;" d="M 307.377364 55.616909 L 331.560837 55.616909 C 332.607707 55.616909 333.459265 56.468468 333.459265 57.515337 L 333.459265 70.718396 C 333.459265 71.765266 332.607707 72.616824 331.560837 72.616824 L 307.377364 72.616824 C 306.330495 72.616824 305.478936 71.765266 305.478936 70.718396 L 305.478936 57.515337 C 305.478936 56.468468 306.330495 55.616909 307.377364 55.616909 Z M 307.377364 55.616909 " transform="matrix(1.000005,0,0,1.000005,-295.999995,-51)"/>
<path style="fill:none;stroke-width:1;stroke-linecap:butt;stroke-linejoin:miter;stroke:rgb(100%,100%,100%);stroke-opacity:0.447059;stroke-miterlimit:4;" d="M 307.983692 56.614697 L 331.690605 56.614697 C 332.323414 56.614697 332.837985 57.130335 332.841487 57.763163 L 332.84151 70.470512 C 332.8372 71.10334 332.32441 71.615072 331.691601 71.615072 L 307.984688 71.615072 C 307.351879 71.615072 306.841237 71.10334 306.84164 70.470512 L 306.841617 57.763163 C 306.838115 57.130335 307.350883 56.614697 307.983692 56.614697 Z M 307.983692 56.614697 " transform="matrix(1.000005,0,-0.005535,0.999975,-295.999995,-51)"/>
<path style=" stroke:none;fill-rule:evenodd;fill:rgb(100%,100%,100%);fill-opacity:0.447059;" d="M 11.980469 5.113281 L 11.980469 11.113281 C 19.183594 8.253906 27.035156 15.09375 34.980469 13.113281 L 34.980469 5.183594 L 35.980469 5.183594 L 35.980469 21.117188 L 34.980469 21.117188 L 34.980469 15.117188 C 26.316406 17.058594 19.425781 10.074219 11.980469 13.113281 L 11.980469 21.117188 L 10.980469 21.117188 L 10.980469 5.113281 Z M 11.980469 5.113281 "/>
<path style=" stroke:none;fill-rule:evenodd;fill:rgb(100%,100%,100%);fill-opacity:0.447059;" d="M 12.980469 5.113281 L 12.980469 9.847656 L 13.980469 9.609375 L 13.980469 5.113281 Z M 12.980469 5.113281 "/>
<path style=" stroke:none;fill-rule:evenodd;fill:rgb(100%,100%,100%);fill-opacity:0.447059;" d="M 14.980469 9.609375 L 14.980469 5.113281 L 15.980469 5.113281 L 15.980469 9.519531 Z M 14.980469 9.609375 "/>
<path style=" stroke:none;fill-rule:evenodd;fill:rgb(100%,100%,100%);fill-opacity:0.447059;" d="M 16.980469 9.519531 L 16.980469 5.113281 L 17.980469 5.113281 L 17.980469 9.675781 Z M 16.980469 9.519531 "/>
<path style=" stroke:none;fill-rule:evenodd;fill:rgb(100%,100%,100%);fill-opacity:0.447059;" d="M 18.980469 9.894531 L 18.980469 5.113281 L 19.980469 5.113281 L 19.980469 10.113281 Z M 18.980469 9.894531 "/>
<path style=" stroke:none;fill-rule:evenodd;fill:rgb(100%,100%,100%);fill-opacity:0.447059;" d="M 20.980469 10.277344 L 20.980469 5.113281 L 21.980469 5.113281 L 21.980469 10.453125 Z M 20.980469 10.277344 "/>
<path style=" stroke:none;fill-rule:evenodd;fill:rgb(100%,100%,100%);fill-opacity:0.447059;" d="M 22.980469 10.804688 L 22.980469 5.113281 L 23.980469 5.113281 L 23.980469 10.941406 Z M 22.980469 10.804688 "/>
<path style=" stroke:none;fill-rule:evenodd;fill:rgb(100%,100%,100%);fill-opacity:0.447059;" d="M 24.980469 11.339844 L 24.980469 5.113281 L 25.980469 5.113281 L 25.980469 11.511719 Z M 24.980469 11.339844 "/>
<path style=" stroke:none;fill-rule:evenodd;fill:rgb(100%,100%,100%);fill-opacity:0.447059;" d="M 26.980469 11.730469 L 26.980469 5.113281 L 27.980469 5.113281 L 27.980469 11.910156 Z M 26.980469 11.730469 "/>
<path style=" stroke:none;fill-rule:evenodd;fill:rgb(100%,100%,100%);fill-opacity:0.447059;" d="M 28.980469 12.214844 L 28.980469 5.113281 L 29.980469 5.113281 L 29.980469 12.304688 Z M 28.980469 12.214844 "/>
<path style=" stroke:none;fill-rule:evenodd;fill:rgb(100%,100%,100%);fill-opacity:0.447059;" d="M 30.980469 12.398438 L 30.980469 5.113281 L 31.980469 5.113281 L 31.980469 12.398438 Z M 30.980469 12.398438 "/>
<path style=" stroke:none;fill-rule:evenodd;fill:rgb(100%,100%,100%);fill-opacity:0.447059;" d="M 32.980469 12.398438 L 32.980469 5.113281 L 33.980469 5.113281 L 33.980469 12.261719 Z M 32.980469 12.398438 "/>
<path style=" stroke:none;fill-rule:evenodd;fill:rgb(100%,100%,100%);fill-opacity:0.447059;" d="M 12.980469 21.070312 L 12.980469 13.640625 L 13.980469 13.523438 L 13.980469 21.070312 Z M 12.980469 21.070312 "/>
<path style=" stroke:none;fill-rule:evenodd;fill:rgb(100%,100%,100%);fill-opacity:0.447059;" d="M 14.980469 13.480469 L 14.980469 21.070312 L 15.980469 21.070312 L 15.980469 13.347656 Z M 14.980469 13.480469 "/>
<path style=" stroke:none;fill-rule:evenodd;fill:rgb(100%,100%,100%);fill-opacity:0.447059;" d="M 16.980469 13.347656 L 16.980469 21.070312 L 17.980469 21.070312 L 17.980469 13.464844 Z M 16.980469 13.347656 "/>
<path style=" stroke:none;fill-rule:evenodd;fill:rgb(100%,100%,100%);fill-opacity:0.447059;" d="M 18.980469 13.769531 L 18.980469 21.070312 L 19.980469 21.070312 L 19.980469 13.992188 Z M 18.980469 13.769531 "/>
<path style=" stroke:none;fill-rule:evenodd;fill:rgb(100%,100%,100%);fill-opacity:0.447059;" d="M 20.980469 14.230469 L 20.980469 21.070312 L 21.980469 21.070312 L 21.980469 14.496094 Z M 20.980469 14.230469 "/>
<path style=" stroke:none;fill-rule:evenodd;fill:rgb(100%,100%,100%);fill-opacity:0.447059;" d="M 22.980469 14.855469 L 22.980469 21.070312 L 23.980469 21.070312 L 23.980469 15.207031 Z M 22.980469 14.855469 "/>
<path style=" stroke:none;fill-rule:evenodd;fill:rgb(100%,100%,100%);fill-opacity:0.447059;" d="M 24.980469 15.378906 L 24.980469 21.070312 L 25.980469 21.070312 L 25.980469 15.644531 Z M 24.980469 15.378906 "/>
<path style=" stroke:none;fill-rule:evenodd;fill:rgb(100%,100%,100%);fill-opacity:0.447059;" d="M 26.980469 15.820312 L 26.980469 21.070312 L 27.980469 21.070312 L 27.980469 16.003906 Z M 26.980469 15.820312 "/>
<path style=" stroke:none;fill-rule:evenodd;fill:rgb(100%,100%,100%);fill-opacity:0.447059;" d="M 28.980469 16.175781 L 28.980469 21.070312 L 29.980469 21.070312 L 29.980469 16.21875 Z M 28.980469 16.175781 "/>
<path style=" stroke:none;fill-rule:evenodd;fill:rgb(100%,100%,100%);fill-opacity:0.447059;" d="M 30.980469 16.402344 L 30.980469 21.070312 L 31.980469 21.070312 L 31.980469 16.265625 Z M 30.980469 16.402344 "/>
<path style=" stroke:none;fill-rule:evenodd;fill:rgb(100%,100%,100%);fill-opacity:0.447059;" d="M 32.980469 16.355469 L 32.980469 21.070312 L 33.980469 21.070312 L 33.980469 16.175781 Z M 32.980469 16.355469 "/>
<path style=" stroke:none;fill-rule:evenodd;fill:rgb(18.039216%,20.392157%,21.176471%);fill-opacity:1;" d="M 8.792969 34.113281 L 38.160156 34.113281 C 38.613281 34.113281 38.980469 34.480469 38.980469 34.933594 L 38.980469 44.296875 C 38.980469 44.746094 38.613281 45.117188 38.160156 45.117188 L 8.792969 45.117188 C 8.34375 45.117188 7.980469 44.746094 7.980469 44.296875 L 7.980469 34.933594 C 7.980469 34.480469 8.34375 34.113281 8.792969 34.113281 Z M 8.792969 34.113281 "/>
<path style=" stroke:none;fill-rule:evenodd;fill:rgb(90.980392%,72.54902%,43.137255%);fill-opacity:1;" d="M 11.109375 36.117188 L 20.886719 36.117188 C 20.957031 36.117188 21.019531 36.175781 21.019531 36.246094 L 21.019531 37.988281 C 21.019531 38.058594 20.957031 38.113281 20.886719 38.113281 L 11.109375 38.113281 C 11.039062 38.113281 10.980469 38.058594 10.980469 37.988281 L 10.980469 36.246094 C 10.980469 36.175781 11.039062 36.117188 11.109375 36.117188 Z M 11.109375 36.117188 "/>
<path style=" stroke:none;fill-rule:evenodd;fill:rgb(90.980392%,72.54902%,43.137255%);fill-opacity:1;" d="M 23.082031 36.117188 L 26.855469 36.117188 C 26.929688 36.117188 26.988281 36.175781 26.988281 36.246094 L 26.988281 37.988281 C 26.988281 38.058594 26.929688 38.113281 26.855469 38.113281 L 23.082031 38.113281 C 23.011719 38.113281 22.949219 38.058594 22.949219 37.988281 L 22.949219 36.246094 C 22.949219 36.175781 23.011719 36.117188 23.082031 36.117188 Z M 23.082031 36.117188 "/>
<path style="fill:none;stroke-width:1;stroke-linecap:butt;stroke-linejoin:miter;stroke:rgb(100%,100%,100%);stroke-opacity:0.137255;stroke-miterlimit:4;" d="M 308.525796 76.468363 L 306.557056 78.437103 L 306.557056 81.499588 L 322.560882 81.499588 L 322.560882 76.468363 Z M 308.525796 76.468363 " transform="matrix(1.000005,0,0,1.000005,-295.999995,-49.999995)"/>
</g>
</svg>
