<?xml version="1.0" encoding="UTF-8"?>
<svg xmlns="http://www.w3.org/2000/svg" xmlns:xlink="http://www.w3.org/1999/xlink" width="48pt" height="48pt" viewBox="0 0 48 48" version="1.1">
<g id="surface1">
<path style=" stroke:none;fill-rule:nonzero;fill:rgb(54.117647%,54.117647%,54.117647%);fill-opacity:1;" d="M 10.40625 13.996094 C 9.082031 13.996094 7.996094 15.082031 7.996094 16.40625 L 7.996094 31.566406 C 7.996094 32.886719 9.082031 34.003906 10.40625 34.003906 L 12 34.003906 L 12 34.996094 L 36 34.996094 L 36 34.003906 L 37.59375 34.003906 C 38.917969 34.003906 40.003906 32.886719 40.003906 31.566406 L 40.003906 16.40625 C 40.003906 15.082031 38.917969 13.996094 37.59375 13.996094 Z M 10.40625 16.003906 L 37.59375 16.003906 C 37.847656 16.003906 37.996094 16.152344 37.996094 16.40625 L 37.996094 31.566406 C 37.996094 31.808594 37.847656 31.996094 37.59375 31.996094 L 35.410156 31.996094 L 34.996094 23.089844 L 34.996094 22.996094 C 34.996094 22.851562 34.980469 22.710938 34.96875 22.566406 C 34.738281 20.011719 32.605469 18 30 18 C 27.238281 18 25.003906 20.238281 25.003906 22.996094 C 25.003906 25.761719 27.238281 28.003906 30 28.003906 C 31.710938 28.003906 33.222656 27.121094 34.125 25.808594 L 34.40625 31.996094 L 34.003906 31.996094 L 34.003906 33 L 13.996094 33 L 13.996094 31.996094 L 13.96875 31.996094 L 15.5625 24.75 C 16.105469 25.503906 16.996094 25.996094 18 25.996094 C 19.660156 25.996094 21 24.65625 21 22.996094 C 21 21.347656 19.660156 19.996094 18 19.996094 C 16.527344 19.996094 15.316406 21.070312 15.066406 22.472656 L 15.027344 22.472656 L 12.910156 31.996094 L 10.40625 31.996094 C 10.152344 31.996094 10.003906 31.808594 10.003906 31.566406 L 10.003906 16.40625 C 10.003906 16.152344 10.152344 16.003906 10.40625 16.003906 Z M 11.503906 16.996094 C 11.226562 16.996094 10.996094 17.226562 10.996094 17.503906 C 10.996094 17.777344 11.226562 18 11.503906 18 C 11.777344 18 12 17.777344 12 17.503906 C 12 17.226562 11.777344 16.996094 11.503906 16.996094 Z M 36.496094 16.996094 C 36.222656 16.996094 36 17.226562 36 17.503906 C 36 17.777344 36.222656 18 36.496094 18 C 36.773438 18 37.003906 17.777344 37.003906 17.503906 C 37.003906 17.226562 36.773438 16.996094 36.496094 16.996094 Z M 18 21 C 19.105469 21 19.996094 21.894531 19.996094 22.996094 C 19.996094 24.105469 19.105469 25.003906 18 25.003906 C 16.894531 25.003906 16.003906 24.105469 16.003906 22.996094 C 16.003906 21.894531 16.894531 21 18 21 Z M 30 21 C 31.105469 21 31.996094 21.894531 31.996094 22.996094 C 31.996094 24.105469 31.105469 25.003906 30 25.003906 C 28.894531 25.003906 28.003906 24.105469 28.003906 22.996094 C 28.003906 21.894531 28.894531 21 30 21 Z M 11.503906 30 C 11.226562 30 10.996094 30.222656 10.996094 30.496094 C 10.996094 30.773438 11.226562 31.003906 11.503906 31.003906 C 11.777344 31.003906 12 30.773438 12 30.496094 C 12 30.222656 11.777344 30 11.503906 30 Z M 17.878906 30 C 17.390625 30 16.996094 30.394531 16.996094 30.871094 L 16.996094 31.125 C 16.996094 31.613281 17.390625 31.996094 17.878906 31.996094 L 30.121094 31.996094 C 30.609375 31.996094 31.003906 31.613281 31.003906 31.125 L 31.003906 30.871094 C 31.003906 30.394531 30.609375 30 30.121094 30 Z M 36.496094 30 C 36.222656 30 36 30.222656 36 30.496094 C 36 30.773438 36.222656 31.003906 36.496094 31.003906 C 36.773438 31.003906 37.003906 30.773438 37.003906 30.496094 C 37.003906 30.222656 36.773438 30 36.496094 30 Z M 36.496094 30 "/>
</g>
</svg>
