<?xml version="1.0" encoding="UTF-8"?>
<svg xmlns="http://www.w3.org/2000/svg" xmlns:xlink="http://www.w3.org/1999/xlink" width="48pt" height="48pt" viewBox="0 0 48 48" version="1.1">
<g id="surface1">
<path style=" stroke:none;fill-rule:nonzero;fill:rgb(15.294118%,68.235294%,37.647059%);fill-opacity:1;" d="M 24 40.5 C 33 40.5 33 31.5 33 31.5 L 33 18.011719 C 33 15.011719 30 15.011719 30 15.011719 L 18 15.011719 C 18 15.011719 15 15.011719 15 18.011719 L 15 31.5 C 15 31.5 15 40.5 24 40.5 Z M 24 40.5 "/>
<path style=" stroke:none;fill-rule:nonzero;fill:rgb(100%,100%,100%);fill-opacity:0.396078;" d="M 25.5 40.285156 L 25.5 15 L 30 15 L 30 38.425781 C 29.457031 38.847656 28.5 40.5 25.5 40.285156 Z M 25.5 40.285156 "/>
<path style=" stroke:none;fill-rule:nonzero;fill:rgb(39.607843%,48.235294%,51.372549%);fill-opacity:1;" d="M 18 15 L 30 15 L 30 7.5 L 18 7.5 Z M 18 15 "/>
<path style=" stroke:none;fill-rule:nonzero;fill:rgb(100%,100%,100%);fill-opacity:0.309804;" d="M 24 15 L 28.5 15 L 28.5 7.5 L 24 7.5 Z M 24 15 "/>
<path style=" stroke:none;fill-rule:nonzero;fill:rgb(2.745098%,21.176471%,25.882353%);fill-opacity:0.654902;" d="M 19.5 12 L 22.5 12 L 22.5 9 L 19.5 9 Z M 19.5 12 "/>
<path style=" stroke:none;fill-rule:nonzero;fill:rgb(2.745098%,21.176471%,25.882353%);fill-opacity:0.654902;" d="M 25.5 12 L 28.5 12 L 28.5 9 L 25.5 9 Z M 25.5 12 "/>
</g>
</svg>
