<?xml version="1.0" encoding="UTF-8"?>
<svg xmlns="http://www.w3.org/2000/svg" xmlns:xlink="http://www.w3.org/1999/xlink" width="48pt" height="48pt" viewBox="0 0 48 48" version="1.1">
<g id="surface1">
<path style=" stroke:none;fill-rule:nonzero;fill:rgb(54.117647%,54.117647%,54.117647%);fill-opacity:1;" d="M 5.199219 7.917969 C 4.503906 8.042969 3.960938 8.699219 3.960938 9.398438 L 3.960938 38.105469 C 3.964844 38.871094 4.667969 39.566406 5.441406 39.585938 L 42.050781 39.585938 C 42.832031 39.566406 43.527344 38.871094 43.542969 38.105469 L 43.542969 13.480469 C 43.527344 12.707031 42.832031 12.011719 42.050781 11.996094 L 27.707031 11.996094 L 27.707031 9.398438 C 27.699219 8.628906 26.996094 7.925781 26.226562 7.917969 L 5.441406 7.917969 C 5.363281 7.910156 5.277344 7.910156 5.199219 7.917969 Z M 22.757812 17.910156 L 23.746094 17.910156 C 28.113281 17.910156 31.664062 21.46875 31.664062 25.832031 C 31.664062 30.199219 28.113281 33.75 22.757812 33.75 C 19.382812 33.75 15.839844 30.199219 15.839844 25.832031 C 15.839844 21.46875 19.382812 17.910156 22.757812 17.910156 Z M 22.886719 19.027344 C 22.574219 19.074219 22.246094 19.136719 21.957031 19.214844 L 21.027344 20.761719 C 21.113281 20.769531 21.167969 20.765625 21.277344 20.824219 C 21.773438 21.105469 22.003906 21.347656 22.144531 21.378906 C 22.285156 21.417969 22.910156 20.550781 22.453125 21.503906 C 21.988281 22.457031 21.808594 22.78125 21.277344 22.988281 C 21.246094 22.996094 21.1875 22.972656 21.152344 22.988281 C 21.019531 23.152344 20.824219 23.339844 20.597656 23.542969 C 20.097656 23.988281 19.851562 24.027344 19.851562 24.472656 C 19.851562 24.917969 19.894531 25.300781 19.546875 25.894531 C 19.195312 26.488281 18.902344 26.503906 19.050781 26.949219 C 19.199219 27.394531 19.300781 28.160156 19.050781 27.816406 C 18.796875 27.46875 18.9375 26.792969 18.738281 27.191406 C 18.5625 27.539062 18.152344 27.644531 18.117188 27.996094 C 18.117188 28.050781 18.113281 28.121094 18.117188 28.183594 C 18.253906 28.613281 18.988281 28.03125 18.988281 28.371094 C 18.988281 28.714844 18.347656 28.691406 18.492188 28.992188 C 18.644531 29.285156 19.230469 28.40625 19.730469 28.550781 C 20.226562 28.699219 19.898438 28.785156 20.34375 28.992188 C 20.792969 29.183594 21.027344 29.371094 21.027344 29.667969 C 21.027344 29.964844 22.476562 29.855469 22.332031 30.347656 C 22.175781 30.84375 22.035156 30.730469 21.585938 31.277344 C 21.339844 31.574219 21.113281 31.746094 20.964844 31.894531 C 21.167969 32.042969 21.222656 32.097656 21.457031 32.015625 C 21.777344 31.917969 21.402344 31.785156 21.644531 31.644531 C 21.707031 31.613281 21.730469 31.550781 21.773438 31.523438 C 21.808594 31.496094 21.820312 31.480469 21.894531 31.457031 C 22.050781 31.417969 22.316406 31.402344 23.011719 31.402344 C 24.386719 31.402344 25.113281 31.457031 25.113281 31.457031 C 25.113281 31.457031 25.535156 31.457031 25.113281 31.710938 C 24.800781 31.894531 24.199219 32.179688 24.121094 32.269531 C 24.152344 32.261719 24.164062 32.292969 24.246094 32.269531 C 24.886719 32.089844 25.792969 31.96875 26.039062 31.894531 C 26.144531 31.863281 26.699219 31.542969 27.152344 31.335938 C 27.167969 31.292969 27.199219 31.253906 27.210938 31.214844 L 27.152344 31.214844 C 26.800781 31.066406 26.496094 30.363281 26.597656 30.160156 C 26.695312 29.957031 26.964844 29.792969 27.210938 29.296875 C 27.46875 28.800781 27.417969 29.207031 26.71875 28.308594 C 26.019531 27.402344 25.644531 28.359375 25.300781 28.058594 C 24.949219 27.753906 24.234375 27.496094 23.933594 26.949219 C 23.636719 26.394531 23.746094 26.800781 23.746094 26.207031 C 23.746094 25.605469 23.722656 26.027344 23.871094 25.523438 C 24.023438 25.027344 24.421875 24.941406 24.925781 24.589844 C 24.996094 24.542969 25.035156 24.566406 25.113281 24.539062 C 25.003906 24.425781 24.867188 24.164062 24.558594 23.855469 C 24.558594 23.855469 24.863281 23.214844 25.113281 23.109375 C 25.355469 23.015625 25.523438 23.082031 25.855469 23.175781 C 25.871094 23.121094 25.839844 23.109375 25.855469 22.988281 C 25.902344 22.589844 25.730469 22.804688 25.730469 22.550781 C 25.730469 22.308594 25.808594 22.59375 26.160156 22.496094 C 26.511719 22.394531 26.496094 21.652344 26.839844 21.753906 C 27.191406 21.847656 27.222656 21.644531 27.519531 21.199219 C 27.820312 20.742188 27.492188 20.964844 27.089844 20.761719 C 26.691406 20.558594 27.066406 21.09375 26.964844 21.441406 C 26.863281 21.792969 26.574219 21.574219 26.226562 20.824219 C 25.875 20.074219 26.144531 20.371094 26.347656 19.769531 C 26.378906 19.667969 26.417969 19.589844 26.472656 19.527344 C 25.824219 19.242188 25.105469 19.097656 24.371094 19.03125 C 24.363281 19.058594 24.371094 19.054688 24.371094 19.089844 C 24.300781 19.761719 23.953125 19.332031 23.8125 19.402344 C 23.671875 19.472656 22.757812 20.785156 22.757812 20.644531 C 22.757812 20.496094 22.886719 20.269531 22.886719 20.269531 C 22.886719 20.269531 22.996094 19.667969 22.886719 19.03125 Z M 25.730469 21.691406 C 25.878906 21.714844 26.027344 21.847656 26.097656 21.996094 C 26.144531 22.078125 26.085938 22.105469 26.039062 22.125 C 26.039062 22.125 26.097656 22.316406 26.097656 22.363281 C 26.097656 22.417969 25.96875 22.429688 25.730469 22.363281 C 25.550781 22.324219 25.734375 22.277344 25.855469 22.183594 L 25.605469 22.183594 C 25.519531 22.183594 25.503906 22.136719 25.480469 22.125 C 25.496094 22.128906 25.457031 22.160156 25.480469 22.183594 C 25.59375 22.324219 25.457031 22.214844 25.292969 22.246094 C 25.128906 22.285156 25.285156 22.136719 25.355469 21.996094 C 25.355469 21.996094 25.464844 22.089844 25.480469 22.125 C 25.511719 22.054688 25.542969 21.925781 25.542969 21.75 C 25.605469 21.722656 25.675781 21.675781 25.730469 21.691406 Z M 29.503906 22.125 C 29.253906 22.308594 28.964844 22.722656 28.691406 22.988281 C 28.246094 23.4375 28.941406 23.496094 29.199219 23.542969 C 29.441406 23.597656 29.683594 23.417969 30.183594 23.417969 C 30.175781 23.394531 30.136719 23.386719 30.121094 23.363281 C 30.050781 23.367188 30.019531 23.363281 29.933594 23.363281 C 29.644531 23.363281 29.808594 23.136719 29.871094 22.738281 C 29.769531 22.535156 29.625 22.3125 29.503906 22.125 Z M 26.410156 23.050781 C 26.300781 23.015625 26.167969 23.128906 25.972656 23.238281 C 26.113281 23.433594 25.699219 23.953125 25.480469 24.351562 C 25.476562 24.355469 25.429688 24.394531 25.417969 24.410156 C 25.851562 24.339844 26.527344 24.46875 28.019531 24.84375 C 28.019531 24.84375 28.597656 24.644531 28.699219 24.84375 C 28.734375 24.914062 28.902344 24.949219 29.132812 24.964844 C 29.738281 24.730469 29.4375 24.585938 29.4375 24.097656 C 29.4375 23.601562 28.664062 24.097656 28.757812 23.855469 C 28.855469 23.601562 28.675781 23.648438 28.324219 23.296875 C 27.980469 22.949219 28.027344 24.164062 27.769531 23.917969 C 27.519531 23.667969 27.496094 23.863281 27.398438 23.667969 C 27.300781 23.464844 26.972656 23.109375 26.972656 23.109375 C 26.972656 23.109375 27.207031 23.417969 27.152344 23.917969 C 27.097656 24.417969 26.410156 23.976562 26.410156 23.976562 C 26.410156 23.976562 26.519531 23.902344 26.71875 23.855469 C 26.917969 23.808594 26.683594 23.527344 26.53125 23.175781 C 26.496094 23.089844 26.457031 23.066406 26.410156 23.050781 Z M 30.613281 25.523438 C 30.5625 25.566406 30.496094 25.621094 30.425781 25.644531 C 29.878906 25.851562 29.4375 26.269531 29.4375 26.269531 C 29.4375 26.269531 30.097656 26.296875 30.550781 26.699219 C 30.585938 26.425781 30.613281 26.113281 30.613281 25.832031 C 30.613281 25.734375 30.621094 25.621094 30.613281 25.523438 Z M 30.613281 25.523438 "/>
</g>
</svg>
