<?xml version="1.0" encoding="UTF-8"?>
<svg xmlns="http://www.w3.org/2000/svg" xmlns:xlink="http://www.w3.org/1999/xlink" width="48pt" height="48pt" viewBox="0 0 48 48" version="1.1">
<g id="surface1">
<path style=" stroke:none;fill-rule:nonzero;fill:rgb(17.647059%,17.647059%,17.647059%);fill-opacity:1;" d="M 24 19.34375 L 23.53125 20.84375 L 15 45 L 18 45 L 24 39.75 L 30 45 L 33 45 L 24.46875 20.84375 Z M 24 22.625 L 25.09375 26.09375 L 24 26.96875 L 22.90625 26.09375 Z M 22.59375 27.09375 L 23.21875 27.59375 L 22.15625 28.4375 Z M 25.40625 27.09375 L 25.84375 28.46875 L 24.78125 27.59375 Z M 24 28.21875 L 26.1875 29.96875 L 24 31.625 L 21.8125 29.96875 Z M 21.375 30.90625 L 23.15625 32.25 L 20.25 34.4375 Z M 26.65625 30.90625 L 27.75 34.4375 L 24.84375 32.25 Z M 24 32.875 L 28.09375 35.96875 L 24 38.34375 L 19.90625 35.96875 Z M 19.46875 36.84375 L 23 38.90625 L 18 42 Z M 28.53125 36.84375 L 30 42 L 25 38.90625 Z M 28.53125 36.84375 "/>
<path style=" stroke:none;fill-rule:evenodd;fill:rgb(17.647059%,17.647059%,17.647059%);fill-opacity:1;" d="M 27 20 C 27 21.65625 25.65625 23 24 23 C 22.34375 23 21 21.65625 21 20 C 21 18.34375 22.34375 17 24 17 C 25.65625 17 27 18.34375 27 20 Z M 27 20 "/>
<path style=" stroke:none;fill-rule:evenodd;fill:rgb(54.901961%,73.72549%,39.607843%);fill-opacity:0.556863;" d="M 24 13 C 20.132812 13 17 16.132812 17 20 C 17 22.277344 18.09375 24.316406 19.78125 25.59375 L 20.46875 23.53125 C 19.5625 22.625 19 21.378906 19 20 C 19 17.238281 21.238281 15 24 15 C 26.761719 15 29 17.238281 29 20 C 29 21.378906 28.4375 22.625 27.53125 23.53125 L 28.21875 25.59375 C 29.90625 24.316406 31 22.277344 31 20 C 31 16.132812 27.867188 13 24 13 Z M 24 13 "/>
<path style=" stroke:none;fill-rule:evenodd;fill:rgb(54.901961%,73.72549%,39.607843%);fill-opacity:0.556863;" d="M 24 9 C 17.925781 9 13 13.925781 13 20 C 13 24.070312 15.210938 27.628906 18.5 29.53125 L 19.125 27.5625 C 16.644531 25.960938 15 23.171875 15 20 C 15 15.03125 19.03125 11 24 11 C 28.96875 11 33 15.03125 33 20 C 33 23.171875 31.355469 25.960938 28.875 27.5625 L 29.5 29.53125 C 32.789062 27.628906 35 24.070312 35 20 C 35 13.925781 30.074219 9 24 9 Z M 24 9 "/>
<path style=" stroke:none;fill-rule:evenodd;fill:rgb(54.901961%,73.72549%,39.607843%);fill-opacity:0.556863;" d="M 24 5 C 15.714844 5 9 11.714844 9 20 C 9 25.84375 12.339844 30.898438 17.21875 33.375 L 17.84375 31.4375 C 13.777344 29.242188 11 24.945312 11 20 C 11 12.820312 16.820312 7 24 7 C 31.179688 7 37 12.820312 37 20 C 37 24.945312 34.222656 29.242188 30.15625 31.4375 L 30.78125 33.375 C 35.660156 30.898438 39 25.84375 39 20 C 39 11.714844 32.285156 5 24 5 Z M 24 5 "/>
</g>
</svg>
