<?xml version="1.0" encoding="UTF-8"?>
<svg xmlns="http://www.w3.org/2000/svg" xmlns:xlink="http://www.w3.org/1999/xlink" width="48pt" height="48pt" viewBox="0 0 48 48" version="1.1">
<defs>
<linearGradient id="linear0" gradientUnits="userSpaceOnUse" x1="9.326" y1="1.163" x2="14.637" y2="6.233" gradientTransform="matrix(1,0,0,1,0.31691,-0.51107)">
<stop offset="0" style="stop-color:rgb(54.901961%,73.72549%,39.607843%);stop-opacity:1;"/>
<stop offset="0.5" style="stop-color:rgb(41.960784%,81.960784%,28.627451%);stop-opacity:1;"/>
<stop offset="1" style="stop-color:rgb(54.901961%,73.72549%,39.607843%);stop-opacity:1;"/>
</linearGradient>
<linearGradient id="linear1" gradientUnits="userSpaceOnUse" x1="6.6" y1="3.655" x2="11.689" y2="9.616" gradientTransform="matrix(1,0,0,1,-0.57019,0.4429)">
<stop offset="0" style="stop-color:rgb(54.901961%,73.72549%,39.607843%);stop-opacity:1;"/>
<stop offset="0.5" style="stop-color:rgb(41.960784%,81.960784%,28.627451%);stop-opacity:1;"/>
<stop offset="1" style="stop-color:rgb(54.901961%,73.72549%,39.607843%);stop-opacity:1;"/>
</linearGradient>
</defs>
<g id="surface1">
<path style="fill:none;stroke-width:1;stroke-linecap:butt;stroke-linejoin:round;stroke:rgb(29.803922%,29.803922%,29.803922%);stroke-opacity:1;stroke-miterlimit:4;" d="M 17.442074 -0.778944 L 16.722339 -1.442101 L 13.277608 2.001314 L 13.999975 2.665787 Z M 17.442074 -0.778944 " transform="matrix(2.968755,0,0,2.968755,-5.937495,5.937495)"/>
<path style="fill-rule:nonzero;fill:url(#linear0);stroke-width:1;stroke-linecap:round;stroke-linejoin:round;stroke:rgb(40%,58.039216%,25.098039%);stroke-opacity:1;stroke-miterlimit:4;" d="M 8.499984 1.815788 C 10.068402 0.259212 12.601293 0.103949 14.156553 1.673683 C 15.711814 3.240786 15.703919 5.77236 14.134185 7.330252 C 14.073659 7.389463 13.901291 7.499989 13.838133 7.556568 L 11.3184 4.655257 Z M 8.499984 1.815788 " transform="matrix(2.968755,0,0,2.968755,-5.937495,5.937495)"/>
<path style="fill:none;stroke-width:1;stroke-linecap:butt;stroke-linejoin:round;stroke:rgb(29.803922%,29.803922%,29.803922%);stroke-opacity:1;stroke-miterlimit:4;" d="M 3.626308 11.890771 L 4.348675 12.501296 L 7.790775 9.059197 L 7.071039 8.447356 Z M 3.626308 11.890771 " transform="matrix(2.968755,0,0,2.968755,-5.937495,5.937495)"/>
<path style="fill-rule:nonzero;fill:url(#linear1);stroke-width:1;stroke-linecap:round;stroke-linejoin:round;stroke:rgb(40%,58.039216%,25.098039%);stroke-opacity:1;stroke-miterlimit:4;" d="M 12.539451 9.228934 C 10.972348 10.784194 8.215774 10.884194 6.660513 9.317091 C 5.102621 7.748673 5.114463 5.215782 6.684198 3.659206 C 6.740776 3.601311 6.969723 3.601311 7.035513 3.544733 L 8.378932 4.967099 L 9.721035 6.388149 Z M 12.539451 9.228934 " transform="matrix(2.968755,0,0,2.968755,-5.937495,5.937495)"/>
</g>
</svg>
