<?xml version="1.0" encoding="UTF-8"?>
<svg xmlns="http://www.w3.org/2000/svg" xmlns:xlink="http://www.w3.org/1999/xlink" width="48pt" height="48pt" viewBox="0 0 48 48" version="1.1">
<g id="surface1">
<path style=" stroke:none;fill-rule:nonzero;fill:rgb(54.117647%,54.117647%,54.117647%);fill-opacity:1;" d="M 14.503906 7.996094 C 13.6875 7.996094 13.003906 8.683594 13.003906 9.496094 L 13.003906 37.5 C 13.003906 37.570312 13.078125 38.175781 13.40625 38.53125 C 13.734375 38.886719 14.183594 39.117188 14.839844 39.308594 C 16.160156 39.703125 18.457031 40.003906 22.996094 40.003906 L 25.003906 40.003906 C 29.050781 40.003906 31.355469 39.683594 32.746094 39.308594 C 33.445312 39.128906 33.917969 38.933594 34.285156 38.691406 C 34.640625 38.4375 34.996094 38.175781 34.996094 37.5 L 34.996094 9.496094 C 34.996094 8.683594 34.3125 7.996094 33.496094 7.996094 Z M 15 10.003906 L 33 10.003906 L 33 30 L 15 30 Z M 16.003906 31.003906 C 16.550781 31.003906 16.996094 31.449219 16.996094 31.996094 C 16.996094 32.554688 16.550781 33 16.003906 33 C 15.445312 33 15 32.554688 15 31.996094 C 15 31.449219 15.445312 31.003906 16.003906 31.003906 Z M 19.003906 31.003906 C 19.550781 31.003906 19.996094 31.449219 19.996094 31.996094 C 19.996094 32.554688 19.550781 33 19.003906 33 C 18.445312 33 18 32.554688 18 31.996094 C 18 31.449219 18.445312 31.003906 19.003906 31.003906 Z M 22.003906 31.003906 C 22.550781 31.003906 22.996094 31.449219 22.996094 31.996094 C 22.996094 32.554688 22.550781 33 22.003906 33 C 21.445312 33 21 32.554688 21 31.996094 C 21 31.449219 21.445312 31.003906 22.003906 31.003906 Z M 25.996094 31.003906 C 26.554688 31.003906 27 31.449219 27 31.996094 C 27 32.554688 26.554688 33 25.996094 33 C 25.449219 33 25.003906 32.554688 25.003906 31.996094 C 25.003906 31.449219 25.449219 31.003906 25.996094 31.003906 Z M 28.996094 31.003906 C 29.554688 31.003906 30 31.449219 30 31.996094 C 30 32.554688 29.554688 33 28.996094 33 C 28.449219 33 28.003906 32.554688 28.003906 31.996094 C 28.003906 31.449219 28.449219 31.003906 28.996094 31.003906 Z M 31.996094 31.003906 C 32.554688 31.003906 33 31.449219 33 31.996094 C 33 32.554688 32.554688 33 31.996094 33 C 31.449219 33 31.003906 32.554688 31.003906 31.996094 C 31.003906 31.449219 31.449219 31.003906 31.996094 31.003906 Z M 16.003906 34.003906 C 16.550781 34.003906 16.996094 34.449219 16.996094 34.996094 C 16.996094 35.554688 16.550781 36 16.003906 36 C 15.445312 36 15 35.554688 15 34.996094 C 15 34.449219 15.445312 34.003906 16.003906 34.003906 Z M 19.003906 34.003906 C 19.550781 34.003906 19.996094 34.449219 19.996094 34.996094 C 19.996094 35.554688 19.550781 36 19.003906 36 C 18.445312 36 18 35.554688 18 34.996094 C 18 34.449219 18.445312 34.003906 19.003906 34.003906 Z M 24 34.003906 C 25.105469 34.003906 25.996094 34.894531 25.996094 36 C 25.996094 37.105469 25.105469 37.996094 24 37.996094 C 22.894531 37.996094 22.003906 37.105469 22.003906 36 C 22.003906 34.894531 22.894531 34.003906 24 34.003906 Z M 28.996094 34.003906 C 29.554688 34.003906 30 34.449219 30 34.996094 C 30 35.554688 29.554688 36 28.996094 36 C 28.449219 36 28.003906 35.554688 28.003906 34.996094 C 28.003906 34.449219 28.449219 34.003906 28.996094 34.003906 Z M 31.996094 34.003906 C 32.554688 34.003906 33 34.449219 33 34.996094 C 33 35.554688 32.554688 36 31.996094 36 C 31.449219 36 31.003906 35.554688 31.003906 34.996094 C 31.003906 34.449219 31.449219 34.003906 31.996094 34.003906 Z M 31.996094 34.003906 "/>
</g>
</svg>
