<?xml version="1.0" encoding="UTF-8"?>
<svg xmlns="http://www.w3.org/2000/svg" xmlns:xlink="http://www.w3.org/1999/xlink" width="48pt" height="48pt" viewBox="0 0 48 48" version="1.1">
<g id="surface1">
<path style=" stroke:none;fill-rule:nonzero;fill:rgb(54.117647%,54.117647%,54.117647%);fill-opacity:1;" d="M 14.558594 7.996094 C 13.101562 7.996094 11.90625 9.191406 11.90625 10.660156 L 11.90625 37.3125 C 11.90625 38.769531 13.101562 40.003906 14.558594 40.003906 L 33.441406 40.003906 C 34.898438 40.003906 36.09375 38.769531 36.09375 37.3125 L 36.09375 10.660156 C 36.09375 9.191406 34.898438 7.996094 33.441406 7.996094 Z M 14.558594 10.003906 L 33.441406 10.003906 C 33.824219 10.003906 34.097656 10.269531 34.097656 10.660156 L 34.097656 35.277344 C 34.097656 35.667969 33.824219 35.972656 33.441406 35.972656 L 14.558594 35.972656 C 14.175781 35.972656 13.902344 35.667969 13.902344 35.277344 L 13.902344 10.660156 C 13.902344 10.269531 14.175781 10.003906 14.558594 10.003906 Z M 33 37.003906 C 33.550781 37.003906 34.003906 37.449219 34.003906 37.996094 C 34.003906 38.554688 33.550781 39 33 39 C 32.449219 39 31.996094 38.554688 31.996094 37.996094 C 31.996094 37.449219 32.449219 37.003906 33 37.003906 Z M 33 37.003906 "/>
<path style=" stroke:none;fill-rule:nonzero;fill:rgb(54.117647%,54.117647%,54.117647%);fill-opacity:1;" d="M 13.003906 25.996094 L 34.996094 25.996094 L 34.996094 27 L 13.003906 27 Z M 13.003906 25.996094 "/>
<path style=" stroke:none;fill-rule:nonzero;fill:rgb(54.117647%,54.117647%,54.117647%);fill-opacity:1;" d="M 16.996094 13.003906 L 16.996094 34.003906 L 31.003906 34.003906 L 31.003906 15 L 28.996094 13.003906 Z M 18 25.996094 L 30 25.996094 L 30 33 L 18 33 Z M 18 25.996094 "/>
</g>
</svg>
