<?xml version="1.0" encoding="UTF-8"?>
<svg xmlns="http://www.w3.org/2000/svg" xmlns:xlink="http://www.w3.org/1999/xlink" width="48pt" height="48pt" viewBox="0 0 48 48" version="1.1">
<g id="surface1">
<path style=" stroke:none;fill-rule:nonzero;fill:rgb(40.392157%,65.098039%,82.352941%);fill-opacity:1;" d="M 8.53125 8.601562 L 39.46875 8.601562 L 39.46875 31.289062 L 8.53125 31.289062 Z M 8.53125 8.601562 "/>
<path style=" stroke:none;fill-rule:nonzero;fill:rgb(93.333333%,90.980392%,83.529412%);fill-opacity:0.231373;" d="M 28.125 8.601562 L 20.230469 31.289062 L 39.46875 31.289062 L 39.46875 8.601562 Z M 28.125 8.601562 "/>
<path style=" stroke:none;fill-rule:nonzero;fill:rgb(11.764706%,25.098039%,30.196078%);fill-opacity:1;" d="M 10.371094 7.585938 C 10.371094 7.585938 7.5 7.585938 7.5 10.585938 L 7.5 30.085938 C 7.5 30.734375 7.5 33.085938 10.5 33.085938 L 19.5 33.085938 L 19.5 34.585938 L 28.5 34.585938 L 28.5 33.085938 L 37.5 33.085938 C 40.5 33.085938 40.5 30.085938 40.5 30.085938 L 40.5 10.585938 C 40.5 7.585938 37.5 7.585938 37.5 7.585938 Z M 11.164062 10.585938 C 11.21875 10.578125 11.269531 10.578125 11.320312 10.585938 L 36.636719 10.585938 C 37.066406 10.585938 37.460938 10.980469 37.460938 11.410156 L 37.558594 29.3125 C 37.558594 29.746094 37.164062 30.136719 36.734375 30.136719 L 11.417969 30.136719 C 10.984375 30.136719 10.59375 29.746094 10.59375 29.3125 L 10.496094 11.410156 C 10.488281 11.027344 10.789062 10.660156 11.164062 10.585938 Z M 13.5 36.085938 L 13.5 39.085938 L 34.5 39.085938 L 34.5 36.085938 Z M 13.5 36.085938 "/>
<path style="fill-rule:nonzero;fill:rgb(99.215686%,96.470588%,89.019608%);fill-opacity:1;stroke-width:2;stroke-linecap:round;stroke-linejoin:miter;stroke:rgb(99.215686%,96.470588%,89.019608%);stroke-opacity:1;stroke-miterlimit:4;" d="M 9.039062 11.015625 L 9.039062 9.015625 L 11.039062 9.015625 " transform="matrix(1.5,0,0,1.5,0,0)"/>
<path style="fill-rule:nonzero;fill:rgb(99.215686%,96.470588%,89.019608%);fill-opacity:1;stroke-width:2;stroke-linecap:round;stroke-linejoin:miter;stroke:rgb(99.215686%,96.470588%,89.019608%);stroke-opacity:1;stroke-miterlimit:4;" d="M 20.984375 9.015625 L 22.984375 9.015625 L 22.984375 11.015625 " transform="matrix(1.5,0,0,1.5,0,0)"/>
<path style="fill-rule:nonzero;fill:rgb(99.215686%,96.470588%,89.019608%);fill-opacity:1;stroke-width:2;stroke-linecap:round;stroke-linejoin:miter;stroke:rgb(99.215686%,96.470588%,89.019608%);stroke-opacity:1;stroke-miterlimit:4;" d="M 22.984375 15.986979 L 22.984375 17.986979 L 20.984375 17.986979 " transform="matrix(1.5,0,0,1.5,0,0)"/>
<path style="fill-rule:nonzero;fill:rgb(99.215686%,96.470588%,89.019608%);fill-opacity:1;stroke-width:2;stroke-linecap:round;stroke-linejoin:miter;stroke:rgb(99.215686%,96.470588%,89.019608%);stroke-opacity:1;stroke-miterlimit:4;" d="M 11.039062 17.986979 L 9.039062 17.986979 L 9.039062 15.986979 " transform="matrix(1.5,0,0,1.5,0,0)"/>
</g>
</svg>
