<?xml version="1.0" encoding="UTF-8"?>
<svg xmlns="http://www.w3.org/2000/svg" xmlns:xlink="http://www.w3.org/1999/xlink" width="48pt" height="48pt" viewBox="0 0 48 48" version="1.1">
<g id="surface1">
<path style=" stroke:none;fill-rule:nonzero;fill:rgb(54.117647%,54.117647%,54.117647%);fill-opacity:1;" d="M 14.316406 12 L 14.316406 13.003906 L 13.996094 13.003906 L 13.996094 16.003906 L 14.410156 16.003906 C 14.417969 16.214844 14.457031 16.425781 14.53125 16.660156 C 14.691406 17.128906 15.023438 17.597656 15.589844 17.933594 C 16.167969 18.28125 16.941406 18.496094 18 18.496094 C 18.667969 18.496094 19.246094 18.183594 19.808594 17.785156 C 20.378906 17.378906 20.953125 16.863281 21.5625 16.378906 C 22.785156 15.394531 24.164062 14.503906 25.996094 14.503906 C 26.835938 14.503906 27.410156 14.863281 27.910156 15.535156 C 28.40625 16.195312 28.757812 17.132812 28.996094 18.09375 C 29.285156 19.230469 29.386719 20.246094 29.4375 21 L 10.808594 21 C 9.269531 21 7.996094 22.269531 7.996094 23.8125 L 7.996094 34.191406 C 7.996094 35.730469 9.269531 37.003906 10.808594 37.003906 L 37.191406 37.003906 C 38.730469 37.003906 40.003906 35.730469 40.003906 34.191406 L 40.003906 23.8125 C 40.003906 22.269531 38.730469 21 37.191406 21 L 30.441406 21 C 30.394531 20.214844 30.316406 19.144531 30 17.878906 C 29.742188 16.839844 29.34375 15.773438 28.714844 14.933594 C 28.089844 14.105469 27.164062 13.5 25.996094 13.5 C 23.835938 13.5 22.214844 14.574219 20.933594 15.589844 C 20.296875 16.101562 19.746094 16.617188 19.246094 16.96875 C 18.753906 17.320312 18.332031 17.503906 18 17.503906 C 17.0625 17.503906 16.457031 17.316406 16.097656 17.089844 C 15.726562 16.875 15.5625 16.621094 15.46875 16.339844 C 15.425781 16.222656 15.386719 16.121094 15.375 16.003906 L 16.003906 16.003906 L 16.003906 13.003906 L 15.65625 13.003906 L 15.65625 12 Z M 10.808594 22.996094 L 37.191406 22.996094 C 37.660156 22.996094 37.996094 23.34375 37.996094 23.8125 L 37.996094 34.191406 C 37.996094 34.660156 37.660156 34.996094 37.191406 34.996094 L 10.808594 34.996094 C 10.339844 34.996094 10.003906 34.660156 10.003906 34.191406 L 10.003906 23.8125 C 10.003906 23.34375 10.339844 22.996094 10.808594 22.996094 Z M 10.996094 24 L 10.996094 25.996094 L 12 25.996094 L 12 24 Z M 13.003906 24 L 13.003906 25.996094 L 15 25.996094 L 15 24 Z M 16.003906 24 L 16.003906 25.996094 L 18 25.996094 L 18 24 Z M 19.003906 24 L 19.003906 25.996094 L 21 25.996094 L 21 24 Z M 22.003906 24 L 22.003906 25.996094 L 24 25.996094 L 24 24 Z M 25.003906 24 L 25.003906 25.996094 L 27 25.996094 L 27 24 Z M 28.003906 24 L 28.003906 25.996094 L 30 25.996094 L 30 24 Z M 31.003906 24 L 31.003906 25.996094 L 34.996094 25.996094 L 34.996094 24 Z M 36 24 L 36 25.996094 L 37.003906 25.996094 L 37.003906 24 Z M 10.996094 27 L 10.996094 28.003906 L 13.003906 28.003906 L 13.003906 27 Z M 13.996094 27 L 13.996094 28.003906 L 16.003906 28.003906 L 16.003906 27 Z M 16.996094 27 L 16.996094 28.003906 L 19.003906 28.003906 L 19.003906 27 Z M 19.996094 27 L 19.996094 28.003906 L 22.003906 28.003906 L 22.003906 27 Z M 22.996094 27 L 22.996094 28.003906 L 25.003906 28.003906 L 25.003906 27 Z M 25.996094 27 L 25.996094 28.003906 L 28.003906 28.003906 L 28.003906 27 Z M 28.996094 27 L 28.996094 28.003906 L 31.003906 28.003906 L 31.003906 27 Z M 31.996094 27 L 31.996094 28.003906 L 33 28.003906 L 33 31.003906 L 34.996094 31.003906 L 34.996094 27 Z M 36 27 L 36 28.003906 L 37.003906 28.003906 L 37.003906 27 Z M 10.996094 28.996094 L 10.996094 31.003906 L 13.996094 31.003906 L 13.996094 28.996094 Z M 15 28.996094 L 15 31.003906 L 16.996094 31.003906 L 16.996094 28.996094 Z M 18 28.996094 L 18 31.003906 L 19.996094 31.003906 L 19.996094 28.996094 Z M 21 28.996094 L 21 31.003906 L 22.996094 31.003906 L 22.996094 28.996094 Z M 24 28.996094 L 24 31.003906 L 25.996094 31.003906 L 25.996094 28.996094 Z M 27 28.996094 L 27 31.003906 L 28.996094 31.003906 L 28.996094 28.996094 Z M 30 28.996094 L 30 31.003906 L 31.996094 31.003906 L 31.996094 28.996094 Z M 36 28.996094 L 36 31.003906 L 37.003906 31.003906 L 37.003906 28.996094 Z M 10.996094 31.996094 L 10.996094 34.003906 L 13.003906 34.003906 L 13.003906 31.996094 Z M 13.996094 31.996094 L 13.996094 34.003906 L 16.003906 34.003906 L 16.003906 31.996094 Z M 16.996094 31.996094 L 16.996094 34.003906 L 30 34.003906 L 30 31.996094 Z M 31.003906 31.996094 L 31.003906 34.003906 L 33 34.003906 L 33 31.996094 Z M 34.003906 31.996094 L 34.003906 34.003906 L 34.996094 34.003906 L 34.996094 31.996094 Z M 36 31.996094 L 36 34.003906 L 37.003906 34.003906 L 37.003906 31.996094 Z M 36 31.996094 "/>
</g>
</svg>
