<?xml version="1.0" encoding="UTF-8"?>
<svg xmlns="http://www.w3.org/2000/svg" xmlns:xlink="http://www.w3.org/1999/xlink" width="22pt" height="22pt" viewBox="0 0 22 22" version="1.1">
<g id="surface1">
<path style=" stroke:none;fill-rule:nonzero;fill:rgb(54.117647%,54.117647%,54.117647%);fill-opacity:1;" d="M 11 5.039062 C 8.769531 5.039062 7.539062 6.339844 6.972656 7.59375 C 6.585938 8.457031 6.480469 9.292969 6.445312 9.742188 C 4.851562 10.136719 3.664062 11.570312 3.664062 13.289062 C 3.664062 15.316406 5.308594 16.960938 7.335938 16.960938 L 7.335938 10.085938 C 7.335938 10.085938 7.335938 9.019531 7.808594 7.980469 C 8.273438 6.9375 9.105469 5.960938 11 5.960938 C 12.894531 5.960938 13.726562 6.9375 14.191406 7.980469 C 14.664062 9.019531 14.664062 10.085938 14.664062 10.085938 L 14.664062 16.960938 C 16.691406 16.960938 18.335938 15.316406 18.335938 13.289062 C 18.335938 11.570312 17.148438 10.136719 15.554688 9.742188 C 15.519531 9.292969 15.414062 8.457031 15.027344 7.59375 C 14.460938 6.339844 13.230469 5.039062 11 5.039062 Z M 11 5.039062 "/>
</g>
</svg>
