<?xml version="1.0" encoding="UTF-8"?>
<svg xmlns="http://www.w3.org/2000/svg" xmlns:xlink="http://www.w3.org/1999/xlink" width="22pt" height="22pt" viewBox="0 0 22 22" version="1.1">
<g id="surface1">
<path style=" stroke:none;fill-rule:nonzero;fill:rgb(54.117647%,54.117647%,54.117647%);fill-opacity:1;" d="M 18.5625 16.5 C 18.5625 17.640625 17.640625 18.5625 16.5 18.5625 C 15.359375 18.5625 14.4375 17.640625 14.4375 16.5 C 14.4375 15.359375 15.359375 14.4375 16.5 14.4375 C 17.640625 14.4375 18.5625 15.359375 18.5625 16.5 Z M 18.5625 16.5 "/>
<path style=" stroke:none;fill-rule:nonzero;fill:rgb(54.117647%,54.117647%,54.117647%);fill-opacity:1;" d="M 18.5625 5.5 C 18.5625 6.640625 17.640625 7.5625 16.5 7.5625 C 15.359375 7.5625 14.4375 6.640625 14.4375 5.5 C 14.4375 4.359375 15.359375 3.4375 16.5 3.4375 C 17.640625 3.4375 18.5625 4.359375 18.5625 5.5 Z M 18.5625 5.5 "/>
<path style=" stroke:none;fill-rule:nonzero;fill:rgb(54.117647%,54.117647%,54.117647%);fill-opacity:1;" d="M 7.5625 16.5 C 7.5625 17.640625 6.640625 18.5625 5.5 18.5625 C 4.359375 18.5625 3.4375 17.640625 3.4375 16.5 C 3.4375 15.359375 4.359375 14.4375 5.5 14.4375 C 6.640625 14.4375 7.5625 15.359375 7.5625 16.5 Z M 7.5625 16.5 "/>
<path style=" stroke:none;fill-rule:nonzero;fill:rgb(54.117647%,54.117647%,54.117647%);fill-opacity:1;" d="M 7.5625 5.5 C 7.5625 6.640625 6.640625 7.5625 5.5 7.5625 C 4.359375 7.5625 3.4375 6.640625 3.4375 5.5 C 3.4375 4.359375 4.359375 3.4375 5.5 3.4375 C 6.640625 3.4375 7.5625 4.359375 7.5625 5.5 Z M 7.5625 5.5 "/>
<path style=" stroke:none;fill-rule:nonzero;fill:rgb(54.901961%,73.72549%,39.607843%);fill-opacity:1;" d="M 19.25 11 C 19.25 15.554688 15.554688 19.25 11 19.25 C 6.445312 19.25 2.75 15.554688 2.75 11 C 2.75 6.445312 6.445312 2.75 11 2.75 C 15.554688 2.75 19.25 6.445312 19.25 11 Z M 19.25 11 "/>
<path style=" stroke:none;fill-rule:nonzero;fill:rgb(54.117647%,54.117647%,54.117647%);fill-opacity:1;" d="M 17.703125 11 C 17.703125 14.703125 14.703125 17.703125 11 17.703125 C 7.296875 17.703125 4.296875 14.703125 4.296875 11 C 4.296875 7.296875 7.296875 4.296875 11 4.296875 C 14.703125 4.296875 17.703125 7.296875 17.703125 11 Z M 17.703125 11 "/>
<path style=" stroke:none;fill-rule:nonzero;fill:rgb(54.901961%,73.72549%,39.607843%);fill-opacity:0.254902;" d="M 11 11 L 11.546875 17.667969 C 13.132812 17.539062 14.601562 16.851562 15.714844 15.75 Z M 11 11 "/>
<path style=" stroke:none;fill-rule:nonzero;fill:rgb(54.901961%,73.72549%,39.607843%);fill-opacity:0.254902;" d="M 11 11 L 14.808594 16.5 C 16.117188 15.597656 17.046875 14.265625 17.460938 12.753906 Z M 11 11 "/>
<path style="fill:none;stroke-width:2;stroke-linecap:butt;stroke-linejoin:miter;stroke:rgb(99.215686%,96.470588%,89.019608%);stroke-opacity:0.156863;stroke-miterlimit:4;" d="M 37.000002 24.000085 C 37.000002 31.181864 31.181819 37.000014 24 37.000014 C 16.81818 37.000014 10.999998 31.181864 10.999998 24.000085 C 10.999998 16.818306 16.81818 11.000157 24 11.000157 C 31.181819 11.000157 37.000002 16.818306 37.000002 24.000085 Z M 37.000002 24.000085 " transform="matrix(0.515625,0,0,0.515628,-1.374998,-1.375112)"/>
<path style=" stroke:none;fill-rule:nonzero;fill:rgb(54.901961%,73.72549%,39.607843%);fill-opacity:0.262745;" d="M 11 11 L 10.453125 4.332031 C 8.867188 4.460938 7.398438 5.148438 6.285156 6.25 Z M 11 11 "/>
<path style=" stroke:none;fill-rule:nonzero;fill:rgb(54.901961%,73.72549%,39.607843%);fill-opacity:0.145098;" d="M 11 11 L 7.191406 5.5 C 5.882812 6.402344 4.953125 7.734375 4.539062 9.246094 Z M 11 11 "/>
<path style=" stroke:none;fill-rule:nonzero;fill:rgb(54.901961%,73.72549%,39.607843%);fill-opacity:1;" d="M 13.75 11 C 13.75 12.519531 12.519531 13.75 11 13.75 C 9.480469 13.75 8.25 12.519531 8.25 11 C 8.25 9.480469 9.480469 8.25 11 8.25 C 12.519531 8.25 13.75 9.480469 13.75 11 Z M 13.75 11 "/>
</g>
</svg>
