<?xml version="1.0" encoding="UTF-8"?>
<svg xmlns="http://www.w3.org/2000/svg" xmlns:xlink="http://www.w3.org/1999/xlink" width="22pt" height="22pt" viewBox="0 0 22 22" version="1.1">
<g id="surface1">
<path style=" stroke:none;fill-rule:nonzero;fill:rgb(54.117647%,54.117647%,54.117647%);fill-opacity:1;" d="M 11 3.664062 C 7.960938 3.664062 5.5 6.128906 5.5 9.164062 C 5.5 12.203125 7.960938 14.664062 11 14.664062 C 14.039062 14.664062 16.5 12.203125 16.5 9.164062 C 16.5 6.128906 14.039062 3.664062 11 3.664062 Z M 11 5.960938 C 12.769531 5.960938 14.210938 7.398438 14.210938 9.164062 C 14.210938 10.9375 12.769531 12.375 11 12.375 C 9.230469 12.375 7.789062 10.9375 7.789062 9.164062 C 7.789062 7.398438 9.230469 5.960938 11 5.960938 Z M 11 6.414062 C 9.476562 6.414062 8.25 7.644531 8.25 9.164062 C 8.25 10.6875 9.476562 11.914062 11 11.914062 C 12.523438 11.914062 13.75 10.6875 13.75 9.164062 C 13.75 7.644531 12.523438 6.414062 11 6.414062 Z M 11 7.789062 C 11.914062 7.789062 12.375 8.25 12.375 9.164062 C 12.375 10.085938 11.914062 10.539062 11 10.539062 C 10.085938 10.539062 9.625 10.085938 9.625 9.164062 C 9.625 8.25 10.085938 7.789062 11 7.789062 Z M 9.625 15.15625 L 9.625 16.53125 L 12.375 16.53125 L 12.375 15.15625 Z M 7.335938 16.984375 L 7.335938 17.90625 L 14.664062 17.90625 L 14.664062 16.984375 Z M 7.335938 16.984375 "/>
</g>
</svg>
