<?xml version="1.0" encoding="UTF-8"?>
<svg xmlns="http://www.w3.org/2000/svg" xmlns:xlink="http://www.w3.org/1999/xlink" width="22pt" height="22pt" viewBox="0 0 22 22" version="1.1">
<g id="surface1">
<path style="fill:none;stroke-width:0.5;stroke-linecap:butt;stroke-linejoin:miter;stroke:rgb(100%,100%,100%);stroke-opacity:1;stroke-miterlimit:4;" d="M 15.001726 16.874039 L 12.811643 31.09718 L 32.753792 31.09718 L 30.001726 16.865775 Z M 15.001726 16.874039 " transform="matrix(0.472656,0,0,0.472656,-1.950034,-1.463901)"/>
<path style="fill:none;stroke-width:0.5;stroke-linecap:butt;stroke-linejoin:miter;stroke:rgb(100%,100%,100%);stroke-opacity:1;stroke-miterlimit:4;" d="M 12.737263 31.584783 L 12.737263 34.609577 L 32.828172 34.609577 L 32.828172 31.584783 Z M 12.737263 31.584783 " transform="matrix(0.472656,0,0,0.472656,-1.950034,-1.463901)"/>
<path style="fill:none;stroke-width:0.4;stroke-linecap:butt;stroke-linejoin:miter;stroke:rgb(100%,100%,100%);stroke-opacity:1;stroke-miterlimit:4;" d="M 24.862864 1036.349379 L 15.714103 1036.349379 L 15.714103 1035.423759 C 18.681046 1035.423759 22.135591 1035.423759 24.862864 1035.423759 Z M 24.862864 1036.349379 " transform="matrix(0.472656,0,0,0.472656,-2.525025,-475.360449)"/>
<path style="fill:none;stroke-width:0.4;stroke-linecap:butt;stroke-linejoin:miter;stroke:rgb(100%,100%,100%);stroke-opacity:1;stroke-miterlimit:4;" d="M 26.581872 1036.349379 L 31.094269 1036.349379 L 31.094269 1035.704751 L 26.581872 1035.704751 Z M 26.581872 1036.349379 " transform="matrix(0.472656,0,0,0.472656,-2.525025,-475.360449)"/>
<path style=" stroke:none;fill-rule:nonzero;fill:rgb(54.117647%,54.117647%,54.117647%);fill-opacity:1;" d="M 5.480469 5.488281 L 6.855469 5.488281 C 7.234375 5.488281 7.542969 5.796875 7.542969 6.175781 C 7.542969 6.558594 7.234375 6.863281 6.855469 6.863281 L 5.480469 6.863281 C 5.101562 6.863281 4.792969 6.558594 4.792969 6.175781 C 4.792969 5.796875 5.101562 5.488281 5.480469 5.488281 Z M 5.480469 5.488281 "/>
<path style=" stroke:none;fill-rule:nonzero;fill:rgb(54.117647%,54.117647%,54.117647%);fill-opacity:1;" d="M 4.3125 6.175781 L 17.6875 6.175781 C 18.171875 6.175781 18.5625 6.570312 18.5625 7.050781 L 18.5625 14.925781 C 18.5625 15.410156 18.171875 15.800781 17.6875 15.800781 L 4.3125 15.800781 C 3.828125 15.800781 3.4375 15.410156 3.4375 14.925781 L 3.4375 7.050781 C 3.4375 6.570312 3.828125 6.175781 4.3125 6.175781 Z M 4.3125 6.175781 "/>
<path style=" stroke:none;fill-rule:nonzero;fill:rgb(93.333333%,90.980392%,83.529412%);fill-opacity:0.290196;" d="M 15.828125 6.175781 L 17.890625 6.175781 L 17.890625 15.800781 L 15.828125 15.800781 Z M 15.828125 6.175781 "/>
<path style=" stroke:none;fill-rule:nonzero;fill:rgb(37.254902%,37.254902%,37.254902%);fill-opacity:1;" d="M 16.5 11 C 16.5 14.039062 14.039062 16.5 11 16.5 C 7.960938 16.5 5.5 14.039062 5.5 11 C 5.5 7.960938 7.960938 5.5 11 5.5 C 14.039062 5.5 16.5 7.960938 16.5 11 Z M 16.5 11 "/>
<path style=" stroke:none;fill-rule:nonzero;fill:rgb(87.45098%,87.45098%,87.45098%);fill-opacity:1;" d="M 14.429688 11 C 14.429688 12.894531 12.890625 14.433594 10.996094 14.433594 C 9.101562 14.433594 7.5625 12.894531 7.5625 11 C 7.5625 9.105469 9.101562 7.566406 10.996094 7.566406 C 12.890625 7.566406 14.429688 9.105469 14.429688 11 Z M 14.429688 11 "/>
<path style=" stroke:none;fill-rule:nonzero;fill:rgb(54.509804%,58.823529%,57.254902%);fill-opacity:0.498039;" d="M 12.828125 8.101562 C 13.386719 8.714844 13.722656 9.515625 13.722656 10.410156 C 13.722656 12.304688 12.183594 13.84375 10.289062 13.84375 C 9.621094 13.84375 9.011719 13.65625 8.484375 13.324219 C 9.109375 14.003906 10.007812 14.433594 11.003906 14.433594 C 12.898438 14.433594 14.4375 12.894531 14.4375 11 C 14.4375 9.777344 13.789062 8.710938 12.828125 8.101562 Z M 12.828125 8.101562 "/>
<path style=" stroke:none;fill-rule:nonzero;fill:rgb(87.45098%,87.45098%,87.45098%);fill-opacity:1;" d="M 17.542969 7.25 C 17.542969 7.640625 17.226562 7.957031 16.839844 7.957031 C 16.449219 7.957031 16.132812 7.640625 16.132812 7.25 C 16.132812 6.863281 16.449219 6.546875 16.839844 6.546875 C 17.226562 6.546875 17.542969 6.863281 17.542969 7.25 Z M 17.542969 7.25 "/>
</g>
</svg>
