<?xml version="1.0" encoding="UTF-8"?>
<svg xmlns="http://www.w3.org/2000/svg" xmlns:xlink="http://www.w3.org/1999/xlink" width="22pt" height="22pt" viewBox="0 0 22 22" version="1.1">
<g id="surface1">
<path style=" stroke:none;fill-rule:nonzero;fill:rgb(40.392157%,65.098039%,82.352941%);fill-opacity:1;" d="M 3.910156 3.941406 L 18.089844 3.941406 L 18.089844 14.339844 L 3.910156 14.339844 Z M 3.910156 3.941406 "/>
<path style=" stroke:none;fill-rule:nonzero;fill:rgb(93.333333%,90.980392%,83.529412%);fill-opacity:0.231373;" d="M 12.890625 3.941406 L 9.273438 14.339844 L 18.089844 14.339844 L 18.089844 3.941406 Z M 12.890625 3.941406 "/>
<path style=" stroke:none;fill-rule:nonzero;fill:rgb(11.764706%,25.098039%,30.196078%);fill-opacity:1;" d="M 4.753906 3.476562 C 4.753906 3.476562 3.4375 3.476562 3.4375 4.851562 L 3.4375 13.789062 C 3.4375 14.085938 3.4375 15.164062 4.8125 15.164062 L 8.9375 15.164062 L 8.9375 15.851562 L 13.0625 15.851562 L 13.0625 15.164062 L 17.1875 15.164062 C 18.5625 15.164062 18.5625 13.789062 18.5625 13.789062 L 18.5625 4.851562 C 18.5625 3.476562 17.1875 3.476562 17.1875 3.476562 Z M 5.117188 4.851562 C 5.140625 4.847656 5.164062 4.847656 5.1875 4.851562 L 16.792969 4.851562 C 16.988281 4.851562 17.167969 5.03125 17.167969 5.230469 L 17.214844 13.433594 C 17.214844 13.632812 17.035156 13.8125 16.835938 13.8125 L 5.234375 13.8125 C 5.035156 13.8125 4.855469 13.632812 4.855469 13.433594 L 4.808594 5.230469 C 4.808594 5.054688 4.945312 4.886719 5.117188 4.851562 Z M 6.1875 16.539062 L 6.1875 17.914062 L 15.8125 17.914062 L 15.8125 16.539062 Z M 6.1875 16.539062 "/>
</g>
</svg>
