<?xml version="1.0" encoding="UTF-8"?>
<svg xmlns="http://www.w3.org/2000/svg" xmlns:xlink="http://www.w3.org/1999/xlink" width="22pt" height="22pt" viewBox="0 0 22 22" version="1.1">
<g id="surface1">
<path style=" stroke:none;fill-rule:nonzero;fill:rgb(54.117647%,54.117647%,54.117647%);fill-opacity:1;" d="M 6.15625 3.664062 C 5.546875 3.664062 5.039062 4.171875 5.039062 4.78125 L 5.039062 13.996094 C 5.039062 14.605469 5.546875 15.125 6.15625 15.125 L 15.84375 15.125 C 16.453125 15.125 16.960938 14.605469 16.960938 13.996094 L 16.960938 4.78125 C 16.960938 4.171875 16.453125 3.664062 15.84375 3.664062 Z M 6.15625 4.585938 L 15.84375 4.585938 C 15.960938 4.585938 16.039062 4.664062 16.039062 4.78125 L 16.039062 13.996094 C 16.039062 14.113281 15.960938 14.210938 15.84375 14.210938 L 6.15625 14.210938 C 6.039062 14.210938 5.960938 14.113281 5.960938 13.996094 L 5.960938 4.78125 C 5.960938 4.664062 6.039062 4.585938 6.15625 4.585938 Z M 15.125 12.835938 C 14.871094 12.835938 14.664062 13.039062 14.664062 13.289062 C 14.664062 13.546875 14.871094 13.75 15.125 13.75 C 15.378906 13.75 15.585938 13.546875 15.585938 13.289062 C 15.585938 13.039062 15.378906 12.835938 15.125 12.835938 Z M 6.714844 15.585938 C 7.386719 17.195312 9.054688 18.335938 11 18.335938 C 12.945312 18.335938 14.613281 17.195312 15.285156 15.585938 Z M 6.714844 15.585938 "/>
</g>
</svg>
