<?xml version="1.0" encoding="UTF-8"?>
<svg xmlns="http://www.w3.org/2000/svg" xmlns:xlink="http://www.w3.org/1999/xlink" width="22pt" height="22pt" viewBox="0 0 22 22" version="1.1">
<g id="surface1">
<path style=" stroke:none;fill-rule:nonzero;fill:rgb(54.117647%,54.117647%,54.117647%);fill-opacity:1;" d="M 10.902344 3.664062 C 9.21875 3.664062 7.863281 5.023438 7.863281 6.703125 L 7.863281 11.375 C 7.863281 13.050781 9.21875 14.40625 10.902344 14.40625 C 12.578125 14.40625 13.933594 13.050781 13.933594 11.375 L 13.933594 6.703125 C 13.933594 5.023438 12.578125 3.664062 10.902344 3.664062 Z M 6.089844 10.988281 C 6.089844 10.988281 6.085938 16.371094 10.496094 16.359375 L 10.496094 17.359375 L 9.035156 17.359375 L 9.035156 18.335938 L 12.964844 18.335938 L 12.964844 17.359375 L 11.484375 17.359375 L 11.484375 16.359375 C 16.359375 16.039062 15.898438 10.988281 15.898438 10.988281 L 14.910156 10.988281 C 14.910156 10.988281 14.921875 15.394531 11 15.394531 C 7.078125 15.394531 7.078125 10.988281 7.078125 10.988281 Z M 6.089844 10.988281 "/>
</g>
</svg>
