<?xml version="1.0" encoding="UTF-8"?>
<svg xmlns="http://www.w3.org/2000/svg" xmlns:xlink="http://www.w3.org/1999/xlink" width="22pt" height="22pt" viewBox="0 0 22 22" version="1.1">
<g id="surface1">
<path style=" stroke:none;fill-rule:nonzero;fill:rgb(54.117647%,54.117647%,54.117647%);fill-opacity:1;" d="M 4.5 4.164062 L 14.773438 4.164062 C 15.210938 4.164062 15.566406 4.515625 15.566406 4.953125 L 15.566406 15.25 C 15.566406 15.6875 15.210938 16.039062 14.773438 16.039062 L 4.5 16.039062 C 4.0625 16.039062 3.707031 15.6875 3.707031 15.25 L 3.707031 4.953125 C 3.707031 4.515625 4.0625 4.164062 4.5 4.164062 Z M 4.5 4.164062 "/>
<path style=" stroke:none;fill-rule:nonzero;fill:rgb(54.117647%,54.117647%,54.117647%);fill-opacity:1;" d="M 17.84375 15.730469 L 17.824219 7.226562 L 18.101562 6.539062 L 18.316406 7.1875 L 18.335938 15.730469 Z M 17.84375 15.730469 "/>
<path style=" stroke:none;fill-rule:nonzero;fill:rgb(54.117647%,54.117647%,54.117647%);fill-opacity:1;" d="M 17.949219 15.601562 C 17.9375 15.714844 17.964844 15.894531 17.992188 16.074219 C 18.007812 16.226562 18.011719 16.320312 18.015625 16.363281 C 17.984375 16.378906 17.949219 16.402344 17.875 16.4375 C 17.820312 16.457031 17.761719 16.476562 17.714844 16.492188 C 17.671875 16.503906 17.636719 16.503906 17.648438 16.503906 C 17.640625 16.5 17.628906 16.492188 17.617188 16.476562 C 17.589844 16.445312 17.542969 16.398438 17.5 16.351562 C 17.417969 16.25 17.3125 16.132812 17.1875 16.03125 C 17.0625 15.9375 16.925781 15.855469 16.769531 15.859375 C 16.617188 15.867188 16.457031 15.980469 16.339844 16.191406 C 16.117188 16.597656 16.140625 16.878906 16.113281 17.039062 C 16.101562 17.113281 16.078125 17.15625 16.027344 17.191406 C 15.976562 17.230469 15.871094 17.265625 15.683594 17.296875 C 15.285156 17.351562 14.976562 17.46875 14.75 17.480469 C 14.640625 17.484375 14.546875 17.472656 14.480469 17.421875 C 14.414062 17.371094 14.367188 17.285156 14.320312 17.125 C 14.140625 16.453125 14.339844 15.976562 14.339844 15.976562 L 14.191406 15.921875 C 14.191406 15.921875 13.972656 16.453125 14.167969 17.164062 C 14.214844 17.347656 14.292969 17.476562 14.394531 17.554688 C 14.496094 17.628906 14.621094 17.644531 14.75 17.640625 C 15.015625 17.621094 15.332031 17.507812 15.714844 17.449219 C 15.910156 17.421875 16.023438 17.371094 16.113281 17.308594 C 16.203125 17.242188 16.238281 17.160156 16.253906 17.0625 C 16.289062 16.875 16.277344 16.644531 16.488281 16.265625 C 16.585938 16.078125 16.675781 16.023438 16.769531 16.019531 C 16.867188 16.015625 16.992188 16.0625 17.101562 16.148438 C 17.210938 16.234375 17.304688 16.351562 17.390625 16.449219 C 17.429688 16.496094 17.472656 16.542969 17.5 16.578125 C 17.519531 16.59375 17.53125 16.609375 17.542969 16.621094 C 17.558594 16.632812 17.570312 16.640625 17.605469 16.648438 C 17.664062 16.667969 17.707031 16.648438 17.757812 16.632812 C 17.816406 16.617188 17.875 16.601562 17.929688 16.578125 C 18.042969 16.53125 18.144531 16.476562 18.144531 16.476562 L 18.1875 16.449219 L 18.1875 16.390625 C 18.1875 16.390625 18.15625 16.238281 18.132812 16.0625 C 18.109375 15.886719 18.097656 15.667969 18.101562 15.601562 Z M 17.949219 15.601562 "/>
</g>
</svg>
