<?xml version="1.0" encoding="UTF-8"?>
<svg xmlns="http://www.w3.org/2000/svg" xmlns:xlink="http://www.w3.org/1999/xlink" width="22pt" height="22pt" viewBox="0 0 22 22" version="1.1">
<g id="surface1">
<path style=" stroke:none;fill-rule:nonzero;fill:rgb(54.117647%,54.117647%,54.117647%);fill-opacity:1;" d="M 8.550781 3.664062 C 7.882812 3.664062 7.335938 4.214844 7.335938 4.886719 L 7.335938 17.101562 C 7.335938 17.769531 7.882812 18.335938 8.550781 18.335938 L 13.4375 18.335938 C 14.105469 18.335938 14.664062 17.769531 14.664062 17.101562 L 14.664062 4.886719 C 14.664062 4.214844 14.105469 3.664062 13.4375 3.664062 Z M 9.011719 4.585938 L 12.988281 4.585938 C 13.414062 4.585938 13.75 4.921875 13.75 5.339844 L 13.75 11.203125 C 13.75 11.625 13.414062 11.957031 12.988281 11.957031 L 9.011719 11.957031 C 8.585938 11.957031 8.25 11.625 8.25 11.203125 L 8.25 5.339844 C 8.25 4.921875 8.585938 4.585938 9.011719 4.585938 Z M 11 12.835938 C 12.265625 12.835938 13.289062 13.859375 13.289062 15.125 C 13.289062 16.390625 12.265625 17.414062 11 17.414062 C 9.734375 17.414062 8.710938 16.390625 8.710938 15.125 C 8.710938 13.859375 9.734375 12.835938 11 12.835938 Z M 11 12.835938 "/>
<path style=" stroke:none;fill-rule:nonzero;fill:rgb(54.117647%,54.117647%,54.117647%);fill-opacity:1;" d="M 10.085938 16.5 L 10.085938 13.75 L 12.375 15.125 Z M 10.085938 16.5 "/>
</g>
</svg>
