<?xml version="1.0" encoding="UTF-8"?>
<svg xmlns="http://www.w3.org/2000/svg" xmlns:xlink="http://www.w3.org/1999/xlink" width="22pt" height="22pt" viewBox="0 0 22 22" version="1.1">
<g id="surface1">
<path style=" stroke:none;fill-rule:nonzero;fill:rgb(97.254902%,91.372549%,72.156863%);fill-opacity:1;" d="M 5.5 3.4375 L 16.5 3.4375 L 16.5 9.625 L 5.5 9.625 Z M 5.5 3.4375 "/>
<path style=" stroke:none;fill-rule:nonzero;fill:rgb(45.490196%,61.960784%,73.333333%);fill-opacity:1;" d="M 4.382812 9.628906 C 3.859375 9.628906 3.4375 10.050781 3.4375 10.574219 L 3.4375 16.246094 C 3.4375 16.769531 3.859375 17.191406 4.382812 17.191406 L 5.5 17.1875 L 5.5 14.4375 L 16.5 14.4375 L 16.5 17.1875 L 17.617188 17.191406 C 18.140625 17.191406 18.5625 16.769531 18.5625 16.246094 L 18.5625 10.574219 C 18.5625 10.050781 18.140625 9.628906 17.617188 9.628906 Z M 4.382812 9.628906 "/>
<path style=" stroke:none;fill-rule:nonzero;fill:rgb(97.254902%,91.372549%,72.156863%);fill-opacity:1;" d="M 5.5 14.4375 L 16.5 14.4375 L 16.5 18.5625 L 5.5 18.5625 Z M 5.5 14.4375 "/>
<path style=" stroke:none;fill-rule:nonzero;fill:rgb(33.333333%,50.196078%,61.568627%);fill-opacity:1;" d="M 5.5 9.625 L 16.5 9.625 L 16.5 10.3125 L 5.5 10.3125 Z M 5.5 9.625 "/>
<path style=" stroke:none;fill-rule:nonzero;fill:rgb(33.333333%,50.196078%,61.568627%);fill-opacity:1;" d="M 5.5 11 L 16.5 11 L 16.5 13.75 L 5.5 13.75 Z M 5.5 11 "/>
<path style=" stroke:none;fill-rule:nonzero;fill:rgb(93.333333%,90.980392%,83.529412%);fill-opacity:1;" d="M 15.816406 12.40625 C 15.816406 12.792969 15.507812 13.101562 15.125 13.101562 C 14.742188 13.101562 14.429688 12.792969 14.429688 12.40625 C 14.429688 12.023438 14.742188 11.714844 15.125 11.714844 C 15.507812 11.714844 15.816406 12.023438 15.816406 12.40625 Z M 15.816406 12.40625 "/>
<path style=" stroke:none;fill-rule:nonzero;fill:rgb(93.333333%,90.980392%,83.529412%);fill-opacity:0.309804;" d="M 16.5 9.625 L 17.875 9.625 L 17.875 17.1875 L 16.5 17.1875 Z M 16.5 9.625 "/>
</g>
</svg>
