<?xml version="1.0" encoding="UTF-8"?>
<svg xmlns="http://www.w3.org/2000/svg" xmlns:xlink="http://www.w3.org/1999/xlink" width="22pt" height="22pt" viewBox="0 0 22 22" version="1.1">
<g id="surface1">
<path style=" stroke:none;fill-rule:nonzero;fill:rgb(54.117647%,54.117647%,54.117647%);fill-opacity:1;" d="M 1.363281 5.445312 C 0.605469 5.445312 0 6.050781 0 6.800781 L 0 16.328125 C 0 17.082031 0.605469 17.691406 1.363281 17.691406 L 20.410156 17.691406 C 21.164062 17.691406 21.773438 17.082031 21.773438 16.328125 L 21.773438 6.800781 C 21.773438 6.050781 21.164062 5.445312 20.410156 5.445312 Z M 4.082031 8.164062 L 17.691406 8.164062 C 18.441406 8.164062 19.046875 8.769531 19.046875 9.527344 L 19.046875 13.609375 C 19.046875 14.359375 18.441406 14.964844 17.691406 14.964844 L 4.082031 14.964844 C 3.328125 14.964844 2.71875 14.359375 2.71875 13.609375 L 2.71875 9.527344 C 2.71875 8.769531 3.328125 8.164062 4.082031 8.164062 Z M 4.082031 8.164062 "/>
<path style=" stroke:none;fill-rule:nonzero;fill:rgb(54.117647%,54.117647%,54.117647%);fill-opacity:1;" d="M 4.082031 9.527344 L 4.082031 10.882812 L 5.445312 10.882812 L 5.445312 9.527344 Z M 4.082031 9.527344 "/>
<path style=" stroke:none;fill-rule:nonzero;fill:rgb(54.117647%,54.117647%,54.117647%);fill-opacity:1;" d="M 6.800781 9.527344 L 6.800781 10.882812 L 8.164062 10.882812 L 8.164062 9.527344 Z M 6.800781 9.527344 "/>
<path style=" stroke:none;fill-rule:nonzero;fill:rgb(54.117647%,54.117647%,54.117647%);fill-opacity:1;" d="M 9.527344 9.527344 L 9.527344 10.882812 L 10.882812 10.882812 L 10.882812 9.527344 Z M 9.527344 9.527344 "/>
<path style=" stroke:none;fill-rule:nonzero;fill:rgb(54.117647%,54.117647%,54.117647%);fill-opacity:1;" d="M 12.246094 9.527344 L 12.246094 10.882812 L 13.609375 10.882812 L 13.609375 9.527344 Z M 12.246094 9.527344 "/>
<path style=" stroke:none;fill-rule:nonzero;fill:rgb(54.117647%,54.117647%,54.117647%);fill-opacity:1;" d="M 4.082031 12.246094 L 4.082031 13.609375 L 6.851562 13.609375 L 6.851562 12.246094 Z M 4.082031 12.246094 "/>
<path style=" stroke:none;fill-rule:nonzero;fill:rgb(54.117647%,54.117647%,54.117647%);fill-opacity:1;" d="M 8.164062 12.246094 L 8.164062 13.609375 L 14.917969 13.609375 L 14.917969 12.246094 Z M 8.164062 12.246094 "/>
<path style=" stroke:none;fill-rule:nonzero;fill:rgb(54.117647%,54.117647%,54.117647%);fill-opacity:1;" d="M 14.964844 9.527344 L 14.964844 10.882812 L 16.328125 10.882812 L 16.328125 13.609375 L 17.691406 13.609375 L 17.691406 9.527344 Z M 14.964844 9.527344 "/>
</g>
</svg>
