<?xml version="1.0" encoding="UTF-8"?>
<svg xmlns="http://www.w3.org/2000/svg" xmlns:xlink="http://www.w3.org/1999/xlink" width="22pt" height="22pt" viewBox="0 0 22 22" version="1.1">
<defs>
<linearGradient id="linear0" gradientUnits="userSpaceOnUse" x1="0" y1="366.648" x2="0" y2="609.505" gradientTransform="matrix(0.0300575,0,0,0.0150975,0.135382,12.561814)">
<stop offset="0" style="stop-color:rgb(0%,0%,0%);stop-opacity:0;"/>
<stop offset="0.5" style="stop-color:rgb(0%,0%,0%);stop-opacity:0.403922;"/>
<stop offset="1" style="stop-color:rgb(0%,0%,0%);stop-opacity:0;"/>
</linearGradient>
<radialGradient id="radial0" gradientUnits="userSpaceOnUse" cx="605.714" cy="486.648" fx="605.714" fy="486.648" r="117.143" gradientTransform="matrix(0.0300575,0,0,0.0150975,0.141295,12.561814)">
<stop offset="0" style="stop-color:rgb(0%,0%,0%);stop-opacity:0.403922;"/>
<stop offset="1" style="stop-color:rgb(0%,0%,0%);stop-opacity:0;"/>
</radialGradient>
<radialGradient id="radial1" gradientUnits="userSpaceOnUse" cx="605.714" cy="486.648" fx="605.714" fy="486.648" r="117.143" gradientTransform="matrix(-0.0300575,0,0,0.0150975,21.858918,12.561814)">
<stop offset="0" style="stop-color:rgb(0%,0%,0%);stop-opacity:0.403922;"/>
<stop offset="1" style="stop-color:rgb(0%,0%,0%);stop-opacity:0;"/>
</radialGradient>
<radialGradient id="radial2" gradientUnits="userSpaceOnUse" cx="9" cy="19.149" fx="9" fy="19.149" r="22" gradientTransform="matrix(1.90909,0,0,1.40909,-8.18182,-4.98219)">
<stop offset="0" style="stop-color:rgb(47.058824%,47.058824%,47.058824%);stop-opacity:1;"/>
<stop offset="1" style="stop-color:rgb(23.529412%,23.529412%,23.529412%);stop-opacity:1;"/>
</radialGradient>
<radialGradient id="radial3" gradientUnits="userSpaceOnUse" cx="5" cy="7.1" fx="5" fy="7.1" r="21" gradientTransform="matrix(2.28528,0.06529,-0.04762,1.66667,-6.08829,-0.1598)">
<stop offset="0" style="stop-color:rgb(100%,100%,100%);stop-opacity:0.4;"/>
<stop offset="1" style="stop-color:rgb(100%,100%,100%);stop-opacity:0;"/>
</radialGradient>
<linearGradient id="linear1" gradientUnits="userSpaceOnUse" x1="0" y1="11" x2="0" y2="42" gradientTransform="matrix(0.458336,0,0,0.458336,0,0)">
<stop offset="0" style="stop-color:rgb(89.803922%,89.803922%,89.803922%);stop-opacity:1;"/>
<stop offset="1" style="stop-color:rgb(66.666667%,66.666667%,66.666667%);stop-opacity:1;"/>
</linearGradient>
<linearGradient id="linear2" gradientUnits="userSpaceOnUse" x1="0" y1="3.656" x2="0" y2="21" gradientTransform="matrix(0.458336,0,0,0.458336,0,0.916664)">
<stop offset="0" style="stop-color:rgb(92.54902%,83.529412%,38.431373%);stop-opacity:1;"/>
<stop offset="1" style="stop-color:rgb(87.45098%,50.588235%,13.333333%);stop-opacity:1;"/>
</linearGradient>
</defs>
<g id="surface1">
<path style=" stroke:none;fill-rule:nonzero;fill:url(#linear0);" d="M 3.742188 18.09375 L 18.257812 18.09375 L 18.257812 21.761719 L 3.742188 21.761719 Z M 3.742188 18.09375 "/>
<path style=" stroke:none;fill-rule:nonzero;fill:url(#radial0);" d="M 18.257812 18.09375 C 18.257812 18.09375 18.257812 21.761719 18.257812 21.761719 C 19.804688 21.769531 22 20.941406 22 19.929688 C 22 18.917969 20.273438 18.09375 18.257812 18.09375 Z M 18.257812 18.09375 "/>
<path style=" stroke:none;fill-rule:nonzero;fill:url(#radial1);" d="M 3.742188 18.09375 C 3.742188 18.09375 3.742188 21.761719 3.742188 21.761719 C 2.195312 21.769531 0 20.941406 0 19.929688 C 0 18.917969 1.726562 18.09375 3.742188 18.09375 Z M 3.742188 18.09375 "/>
<path style="fill-rule:nonzero;fill:url(#radial2);stroke-width:1;stroke-linecap:round;stroke-linejoin:round;stroke:rgb(15.686275%,15.686275%,15.686275%);stroke-opacity:1;stroke-miterlimit:4;" d="M 3.315324 8.505639 L 44.684436 8.505639 C 45.136138 8.505639 45.494091 8.863592 45.494091 9.315294 L 45.494091 43.678759 C 45.494091 44.130461 45.136138 44.505459 44.684436 44.505459 L 3.315324 44.505459 C 2.863622 44.505459 2.505669 44.130461 2.505669 43.678759 L 2.505669 9.315294 C 2.505669 8.863592 2.863622 8.505639 3.315324 8.505639 Z M 3.315324 8.505639 " transform="matrix(0.458336,0,0,0.458336,0,0)"/>
<path style="fill:none;stroke-width:1;stroke-linecap:round;stroke-linejoin:miter;stroke:url(#radial3);stroke-miterlimit:4;" d="M 3.494301 9.494271 L 44.505459 9.494271 L 44.505459 43.499783 L 3.494301 43.499783 Z M 3.494301 9.494271 " transform="matrix(0.458336,0,0,0.458336,0,0)"/>
<path style=" stroke:none;fill-rule:nonzero;fill:url(#linear1);" d="M 2.75 5.039062 C 2.496094 5.039062 2.289062 5.246094 2.289062 5.5 L 2.289062 10.539062 L 2.75 10.539062 L 2.75 18.789062 C 2.75 19.007812 2.992188 19.25 3.210938 19.25 L 18.789062 19.25 C 19.007812 19.25 19.25 19.007812 19.25 18.789062 L 19.25 10.539062 L 19.710938 10.539062 L 19.710938 5.5 C 19.710938 5.246094 19.503906 5.039062 19.25 5.039062 Z M 2.75 5.039062 "/>
<path style=" stroke:none;fill-rule:nonzero;fill:rgb(100%,100%,100%);fill-opacity:1;" d="M 3.210938 10.085938 L 3.210938 17.875 C 3.210938 18.089844 3.449219 18.335938 3.664062 18.335938 L 18.335938 18.335938 C 18.550781 18.335938 18.789062 18.089844 18.789062 17.875 L 18.789062 10.085938 "/>
<path style=" stroke:none;fill-rule:nonzero;fill:url(#linear2);" d="M 3.210938 10.539062 L 3.210938 5.917969 C 3.210938 5.722656 3.449219 5.5 3.664062 5.5 L 18.335938 5.5 C 18.550781 5.5 18.789062 5.722656 18.789062 5.917969 L 18.789062 10.539062 "/>
<path style="fill-rule:nonzero;fill:rgb(100%,100%,100%);fill-opacity:1;stroke-width:0.784;stroke-linecap:butt;stroke-linejoin:round;stroke:rgb(72.941176%,36.470588%,7.058824%);stroke-opacity:1;stroke-miterlimit:4;" d="M 58.076302 31.000093 L 64.000332 24.00007 L 69.924362 31.000093 Z M 58.076302 31.000093 " transform="matrix(0.290132,0,0,0.294642,-7.568536,-0.540176)"/>
<path style=" stroke:none;fill-rule:nonzero;fill:rgb(15.686275%,15.686275%,15.686275%);fill-opacity:1;" d="M 10.988281 15.90625 L 11.867188 16.195312 C 11.808594 16.464844 11.714844 16.691406 11.589844 16.871094 C 11.460938 17.050781 11.304688 17.1875 11.113281 17.277344 C 10.925781 17.371094 10.6875 17.414062 10.394531 17.414062 C 10.042969 17.414062 9.753906 17.363281 9.53125 17.25 C 9.308594 17.136719 9.113281 16.941406 8.949219 16.660156 C 8.789062 16.375 8.710938 16.015625 8.710938 15.574219 C 8.710938 14.988281 8.851562 14.535156 9.136719 14.222656 C 9.421875 13.910156 9.828125 13.75 10.351562 13.75 C 10.757812 13.75 11.082031 13.839844 11.3125 14.019531 C 11.546875 14.203125 11.722656 14.476562 11.835938 14.851562 L 10.949219 15.066406 C 10.917969 14.957031 10.886719 14.878906 10.851562 14.828125 C 10.796875 14.746094 10.730469 14.683594 10.644531 14.636719 C 10.566406 14.589844 10.472656 14.570312 10.375 14.570312 C 10.144531 14.570312 9.972656 14.667969 9.851562 14.871094 C 9.757812 15.015625 9.714844 15.25 9.714844 15.566406 C 9.714844 15.960938 9.765625 16.230469 9.878906 16.375 C 9.988281 16.523438 10.140625 16.59375 10.339844 16.59375 C 10.53125 16.59375 10.675781 16.535156 10.773438 16.417969 C 10.871094 16.300781 10.945312 16.128906 10.988281 15.90625 "/>
<path style=" stroke:none;fill-rule:nonzero;fill:rgb(15.686275%,15.686275%,15.686275%);fill-opacity:1;" d="M 12.355469 13.808594 L 14.835938 13.808594 L 14.835938 14.570312 L 13.363281 14.570312 L 13.363281 15.1875 L 14.621094 15.1875 L 14.621094 15.90625 L 13.363281 15.90625 L 13.363281 17.355469 L 12.355469 17.355469 L 12.355469 13.808594 "/>
<path style=" stroke:none;fill-rule:nonzero;fill:rgb(15.686275%,15.686275%,15.686275%);fill-opacity:1;" d="M 17.875 17.355469 L 15.167969 17.355469 C 15.199219 17.0625 15.292969 16.789062 15.449219 16.53125 C 15.609375 16.273438 15.902344 15.972656 16.335938 15.621094 C 16.597656 15.40625 16.769531 15.242188 16.84375 15.132812 C 16.917969 15.019531 16.953125 14.914062 16.953125 14.816406 C 16.953125 14.707031 16.917969 14.613281 16.84375 14.539062 C 16.769531 14.460938 16.679688 14.425781 16.566406 14.425781 C 16.453125 14.425781 16.359375 14.464844 16.285156 14.542969 C 16.210938 14.621094 16.164062 14.757812 16.136719 14.960938 L 15.234375 14.878906 C 15.269531 14.605469 15.335938 14.390625 15.429688 14.234375 C 15.523438 14.078125 15.65625 13.957031 15.828125 13.875 C 16 13.792969 16.238281 13.75 16.542969 13.75 C 16.863281 13.75 17.105469 13.789062 17.285156 13.867188 C 17.460938 13.945312 17.597656 14.070312 17.699219 14.234375 C 17.800781 14.398438 17.851562 14.578125 17.851562 14.78125 C 17.851562 15 17.792969 15.203125 17.679688 15.402344 C 17.5625 15.597656 17.351562 15.8125 17.046875 16.046875 C 16.867188 16.1875 16.746094 16.28125 16.683594 16.335938 C 16.621094 16.390625 16.546875 16.460938 16.46875 16.550781 L 17.875 16.550781 L 17.875 17.355469 "/>
</g>
</svg>
