<?xml version="1.0" encoding="UTF-8"?>
<svg xmlns="http://www.w3.org/2000/svg" xmlns:xlink="http://www.w3.org/1999/xlink" width="22pt" height="22pt" viewBox="0 0 22 22" version="1.1">
<defs>
<radialGradient id="radial0" gradientUnits="userSpaceOnUse" cx="24.218" cy="45.26" fx="24.218" fy="45.26" r="21.39" gradientTransform="matrix(0.51425,0,0,0.0321406,-1.454564,15.04525)">
<stop offset="0" style="stop-color:rgb(0%,0%,0%);stop-opacity:0.301961;"/>
<stop offset="1" style="stop-color:rgb(0%,0%,0%);stop-opacity:0;"/>
</radialGradient>
<radialGradient id="radial1" gradientUnits="userSpaceOnUse" cx="10.125" cy="15.833" fx="10.125" fy="15.833" r="23" gradientTransform="matrix(1.6034,0.01259,-0.00619,0.788,-6.011,9.3958)">
<stop offset="0" style="stop-color:rgb(72.156863%,69.803922%,92.54902%);stop-opacity:1;"/>
<stop offset="1" style="stop-color:rgb(50.196078%,50.196078%,70.588235%);stop-opacity:1;"/>
</radialGradient>
<linearGradient id="linear0" gradientUnits="userSpaceOnUse" x1="19.885" y1="0" x2="18.962" y2="0" gradientTransform="matrix(0,-1.0833,1.0357,0,-0.5893,51.542)">
<stop offset="0" style="stop-color:rgb(42.352941%,42.352941%,67.058824%);stop-opacity:1;"/>
<stop offset="1" style="stop-color:rgb(67.058824%,67.058824%,81.176471%);stop-opacity:1;"/>
</linearGradient>
<linearGradient id="linear1" gradientUnits="userSpaceOnUse" x1="0" y1="13.962" x2="0" y2="33.038" gradientTransform="matrix(1,0,0,1,0,2)">
<stop offset="0" style="stop-color:rgb(100%,100%,100%);stop-opacity:0.45098;"/>
<stop offset="1" style="stop-color:rgb(100%,100%,100%);stop-opacity:0;"/>
</linearGradient>
</defs>
<g id="surface1">
<path style=" stroke:none;fill-rule:evenodd;fill:url(#radial0);" d="M 22 16.5 C 22 16.878906 17.074219 17.1875 11 17.1875 C 4.925781 17.1875 0 16.878906 0 16.5 C 0 16.121094 4.925781 15.8125 11 15.8125 C 17.074219 15.8125 22 16.121094 22 16.5 Z M 22 16.5 "/>
<path style="fill-rule:evenodd;fill:url(#radial1);stroke-width:1;stroke-linecap:butt;stroke-linejoin:round;stroke:rgb(37.647059%,37.647059%,56.078431%);stroke-opacity:1;stroke-miterlimit:4;" d="M 5.99997 35.496982 L 45.263978 35.496982 C 46.082156 35.52255 46.491245 35.403232 46.491245 34.610622 L 46.491245 32.087908 C 46.491245 31.320866 45.442955 31.303821 45.442955 31.303821 L 45.477045 18.724338 C 45.477045 18.724338 46.499768 18.775474 46.499768 17.957297 L 46.499768 15.494241 L 2.505669 15.494241 C 2.028399 15.494241 1.499993 16.022647 1.499993 16.499918 L 1.499993 32.505519 Z M 5.99997 35.496982 " transform="matrix(0.458336,0,0,0.458336,0,0)"/>
<path style="fill:none;stroke-width:1;stroke-linecap:butt;stroke-linejoin:miter;stroke:url(#linear0);stroke-miterlimit:4;" d="M 44.999775 31.499843 L 17.445935 31.499843 C 16.926052 31.499843 16.499918 31.065186 16.499918 30.536779 L 16.499918 19.474334 C 16.499918 18.928883 16.926052 18.494226 17.445935 18.494226 L 44.999775 18.494226 " transform="matrix(0.458336,0,0,0.458336,0,0)"/>
<path style="fill:none;stroke-width:0.951;stroke-linecap:butt;stroke-linejoin:round;stroke:url(#linear1);stroke-miterlimit:4;" d="M 2.505669 16.431736 L 2.505669 31.994158 C 3.792595 32.854949 5.019861 33.707218 6.306787 34.568009 L 45.562272 34.568009 L 45.562272 32.275407 C 44.778185 32.31802 44.352051 31.525411 44.505459 30.835073 C 44.522505 26.727139 44.496937 22.627728 44.548073 18.536839 C 44.505459 17.77832 45.638976 18.025478 45.562272 17.497072 L 45.494091 16.499918 C 31.39757 16.499918 16.60219 16.431736 2.505669 16.431736 Z M 2.505669 16.431736 " transform="matrix(0.458336,0,0,0.458336,0,0)"/>
<path style=" stroke:none;fill-rule:evenodd;fill:rgb(26.666667%,26.666667%,34.901961%);fill-opacity:1;" d="M 4.125 10.789062 C 3.15625 10.789062 2.363281 10.777344 2.363281 10.816406 C 2.363281 10.855469 3.15625 10.902344 4.125 10.902344 C 5.09375 10.902344 5.882812 10.855469 5.882812 10.816406 C 5.882812 10.777344 5.09375 10.789062 4.125 10.789062 Z M 4.125 11.050781 C 3.398438 11.050781 2.804688 11.035156 2.804688 11.0625 C 2.804688 11.089844 3.398438 11.148438 4.125 11.148438 C 4.851562 11.148438 5.445312 11.089844 5.445312 11.0625 C 5.445312 11.035156 4.851562 11.050781 4.125 11.050781 Z M 4.125 11.367188 C 3.589844 11.367188 3.15625 11.355469 3.15625 11.382812 C 3.15625 11.40625 3.589844 11.460938 4.125 11.460938 C 4.65625 11.460938 5.09375 11.40625 5.09375 11.382812 C 5.09375 11.355469 4.65625 11.367188 4.125 11.367188 Z M 3.097656 10.601562 C 3.296875 10.578125 3.394531 10.496094 3.4375 10.375 C 3.476562 10.253906 3.558594 10.175781 3.699219 10.179688 C 3.84375 10.1875 3.863281 10.25 3.84375 10.324219 C 3.820312 10.398438 3.824219 10.445312 3.804688 10.511719 C 3.769531 10.660156 4.480469 10.652344 4.445312 10.511719 C 4.425781 10.445312 4.429688 10.398438 4.40625 10.324219 C 4.382812 10.25 4.40625 10.1875 4.550781 10.179688 C 4.6875 10.175781 4.773438 10.253906 4.8125 10.375 C 4.855469 10.496094 4.953125 10.578125 5.152344 10.601562 C 5.351562 10.625 5.582031 10.617188 5.777344 10.621094 C 5.976562 10.625 6.050781 10.582031 5.796875 10.558594 C 5.546875 10.53125 5.210938 10.4375 5.148438 10.308594 C 5.085938 10.179688 5.019531 10.121094 4.789062 10.109375 C 4.304688 10.078125 3.964844 10.078125 3.460938 10.109375 C 3.230469 10.121094 3.164062 10.183594 3.101562 10.308594 C 3.039062 10.4375 2.703125 10.53125 2.453125 10.558594 C 2.199219 10.582031 2.273438 10.625 2.472656 10.621094 C 2.667969 10.617188 2.898438 10.625 3.097656 10.601562 Z M 3.097656 10.601562 "/>
<path style=" stroke:none;fill-rule:evenodd;fill:rgb(22.352941%,22.352941%,34.901961%);fill-opacity:1;" d="M 13.992188 12.8125 L 13.636719 12.8125 C 13.539062 12.8125 13.460938 12.894531 13.460938 13 L 13.460938 13.566406 C 13.460938 13.667969 13.539062 13.75 13.636719 13.75 L 13.992188 13.75 C 14.089844 13.75 14.167969 13.667969 14.167969 13.566406 L 14.167969 13 C 14.167969 12.894531 14.089844 12.816406 13.992188 12.816406 Z M 13.96875 13.503906 C 13.96875 13.585938 13.933594 13.652344 13.890625 13.652344 L 13.738281 13.652344 C 13.695312 13.652344 13.660156 13.585938 13.660156 13.503906 L 13.660156 13.058594 C 13.660156 12.980469 13.695312 12.914062 13.738281 12.914062 L 13.890625 12.914062 C 13.933594 12.914062 13.96875 12.980469 13.96875 13.058594 Z M 16.742188 13.097656 L 16.40625 13.097656 C 16.367188 13.097656 16.332031 13.003906 16.332031 12.914062 L 16.332031 12.859375 C 16.332031 12.765625 16.367188 12.691406 16.40625 12.691406 L 16.898438 12.691406 L 16.898438 12.578125 L 16.316406 12.578125 C 16.21875 12.578125 16.140625 12.671875 16.140625 12.789062 L 16.140625 12.980469 C 16.140625 13.09375 16.21875 13.210938 16.316406 13.210938 L 16.65625 13.210938 C 16.699219 13.210938 16.730469 13.285156 16.730469 13.375 L 16.730469 13.46875 C 16.730469 13.5625 16.695312 13.636719 16.65625 13.636719 L 16.144531 13.636719 L 16.144531 13.75 L 16.742188 13.75 C 16.835938 13.75 16.917969 13.65625 16.917969 13.539062 L 16.917969 13.308594 C 16.917969 13.191406 16.835938 13.097656 16.742188 13.097656 Z M 11.679688 13 L 11.679688 13.566406 C 11.679688 13.667969 11.761719 13.75 11.863281 13.75 L 12.292969 13.75 L 12.292969 13.652344 L 11.96875 13.652344 C 11.921875 13.652344 11.886719 13.585938 11.886719 13.503906 L 11.886719 13.324219 L 12.289062 13.324219 L 12.289062 13.238281 L 11.886719 13.238281 L 11.886719 13.058594 C 11.886719 12.980469 11.921875 12.914062 11.96875 12.914062 L 12.292969 12.914062 L 12.292969 12.816406 L 11.863281 12.816406 C 11.761719 12.816406 11.679688 12.894531 11.679688 13 Z M 18.265625 13 L 18.265625 13.566406 C 18.265625 13.667969 18.347656 13.75 18.445312 13.75 L 18.878906 13.75 L 18.878906 13.652344 L 18.550781 13.652344 C 18.507812 13.652344 18.472656 13.585938 18.472656 13.503906 L 18.472656 13.058594 C 18.472656 12.976562 18.507812 12.914062 18.550781 12.914062 L 18.878906 12.914062 L 18.878906 12.8125 L 18.445312 12.8125 C 18.347656 12.816406 18.265625 12.894531 18.265625 13 Z M 12.820312 13.496094 L 12.65625 12.8125 L 12.457031 12.8125 L 12.457031 13.75 L 12.59375 13.75 L 12.59375 13.101562 L 12.75 13.75 L 12.894531 13.75 L 13.039062 13.136719 L 13.039062 13.75 L 13.246094 13.75 L 13.246094 12.8125 L 12.984375 12.8125 Z M 10.996094 13.433594 L 10.789062 12.574219 L 10.539062 12.574219 L 10.539062 13.75 L 10.710938 13.75 L 10.710938 12.9375 L 10.90625 13.75 L 11.089844 13.75 L 11.289062 12.921875 L 11.289062 13.75 L 11.535156 13.75 L 11.535156 12.574219 L 11.203125 12.574219 Z M 14.988281 13.164062 L 14.988281 13 C 14.988281 12.894531 14.910156 12.816406 14.8125 12.816406 L 14.371094 12.816406 L 14.371094 13.75 L 14.546875 13.75 L 14.546875 12.914062 L 14.753906 12.914062 C 14.792969 12.914062 14.828125 12.976562 14.828125 13.058594 L 14.828125 13.105469 C 14.828125 13.183594 14.792969 13.25 14.753906 13.25 L 14.707031 13.25 L 14.707031 13.257812 L 14.628906 13.257812 L 14.835938 13.75 L 14.988281 13.75 L 14.820312 13.347656 C 14.914062 13.34375 14.988281 13.265625 14.988281 13.164062 Z M 17.800781 13.75 L 17.980469 13.75 L 17.980469 12.816406 L 17.800781 12.816406 Z M 16.960938 12.972656 L 17.199219 12.972656 L 17.199219 13.75 L 17.378906 13.75 L 17.378906 12.972656 L 17.617188 12.972656 L 17.617188 12.816406 L 16.960938 12.816406 Z M 19.710938 12.816406 L 19.53125 12.816406 L 19.253906 13.144531 L 19.253906 12.816406 L 19.078125 12.816406 L 19.078125 13.75 L 19.253906 13.75 L 19.253906 13.347656 L 19.53125 13.75 L 19.710938 13.75 L 19.359375 13.234375 Z M 15.46875 13.183594 L 15.3125 12.816406 L 15.132812 12.816406 L 15.359375 13.347656 L 15.359375 13.75 L 15.539062 13.75 L 15.539062 13.34375 L 15.746094 12.816406 L 15.613281 12.816406 L 15.46875 13.179688 Z M 15.46875 13.183594 "/>
<path style=" stroke:none;fill-rule:evenodd;fill:rgb(26.666667%,26.666667%,34.901961%);fill-opacity:1;" d="M 5.644531 8.742188 L 5.644531 8.851562 L 5.675781 8.851562 C 5.699219 8.851562 5.707031 8.855469 5.707031 8.871094 C 5.707031 8.878906 5.703125 8.886719 5.695312 8.898438 L 5.582031 9.074219 C 5.566406 9.097656 5.550781 9.097656 5.539062 9.078125 L 5.429688 8.90625 C 5.425781 8.898438 5.417969 8.890625 5.417969 8.875 C 5.417969 8.859375 5.425781 8.855469 5.457031 8.855469 L 5.488281 8.855469 L 5.488281 8.742188 L 5.089844 8.742188 L 5.089844 8.855469 C 5.1875 8.855469 5.183594 8.863281 5.21875 8.925781 L 5.433594 9.261719 L 5.433594 9.433594 C 5.433594 9.476562 5.417969 9.492188 5.371094 9.492188 L 5.304688 9.492188 L 5.304688 9.597656 L 5.742188 9.597656 L 5.742188 9.492188 L 5.671875 9.492188 C 5.628906 9.492188 5.613281 9.476562 5.613281 9.433594 L 5.613281 9.261719 L 5.796875 8.984375 C 5.859375 8.863281 5.871094 8.855469 5.917969 8.855469 L 5.960938 8.855469 L 5.960938 8.742188 Z M 2.460938 8.941406 C 2.460938 8.871094 2.546875 8.824219 2.652344 8.824219 C 2.730469 8.824219 2.828125 8.875 2.875 8.933594 C 2.898438 8.964844 2.925781 8.988281 2.933594 9.050781 L 3.019531 9.050781 L 3.019531 8.742188 L 2.925781 8.742188 C 2.925781 8.8125 2.90625 8.8125 2.882812 8.792969 C 2.8125 8.734375 2.738281 8.714844 2.644531 8.714844 C 2.425781 8.714844 2.289062 8.824219 2.289062 9 C 2.289062 9.171875 2.402344 9.21875 2.546875 9.25 L 2.679688 9.28125 C 2.835938 9.316406 2.882812 9.332031 2.882812 9.398438 C 2.882812 9.457031 2.832031 9.503906 2.695312 9.507812 C 2.601562 9.507812 2.496094 9.464844 2.453125 9.410156 C 2.425781 9.378906 2.402344 9.363281 2.382812 9.28125 L 2.292969 9.28125 L 2.292969 9.597656 L 2.394531 9.597656 C 2.394531 9.550781 2.40625 9.515625 2.425781 9.535156 C 2.496094 9.589844 2.617188 9.625 2.699219 9.625 C 2.925781 9.625 3.054688 9.519531 3.054688 9.335938 C 3.054688 8.976562 2.460938 9.128906 2.460938 8.941406 Z M 4.671875 8.855469 L 4.730469 8.855469 C 4.773438 8.855469 4.789062 8.871094 4.789062 8.914062 L 4.789062 9.257812 L 4.410156 8.75 L 4.09375 8.75 L 4.09375 8.855469 L 4.15625 8.855469 C 4.203125 8.855469 4.21875 8.871094 4.21875 8.914062 L 4.21875 9.441406 C 4.21875 9.484375 4.203125 9.5 4.15625 9.5 L 4.09375 9.5 L 4.09375 9.601562 L 4.457031 9.601562 L 4.457031 9.5 L 4.398438 9.5 C 4.351562 9.5 4.335938 9.484375 4.335938 9.441406 L 4.335938 9.003906 L 4.777344 9.601562 L 4.914062 9.601562 L 4.914062 8.914062 C 4.914062 8.871094 4.929688 8.855469 4.976562 8.855469 L 5.023438 8.855469 L 5.023438 8.75 L 4.671875 8.75 Z M 3.621094 8.710938 C 3.339844 8.710938 3.167969 8.882812 3.167969 9.164062 C 3.167969 9.445312 3.339844 9.621094 3.613281 9.621094 C 3.898438 9.621094 4.070312 9.449219 4.070312 9.152344 C 4.070312 8.890625 3.886719 8.710938 3.621094 8.710938 Z M 3.613281 9.507812 C 3.460938 9.507812 3.371094 9.378906 3.371094 9.160156 C 3.371094 8.945312 3.464844 8.820312 3.621094 8.820312 C 3.773438 8.820312 3.863281 8.949219 3.863281 9.167969 C 3.863281 9.386719 3.769531 9.507812 3.613281 9.507812 Z M 3.613281 9.507812 "/>
<path style=" stroke:none;fill-rule:evenodd;fill:rgb(26.666667%,26.666667%,34.901961%);fill-opacity:1;" d="M 3.132812 13.179688 L 2.289062 13.945312 L 3.132812 14.710938 Z M 3.132812 13.179688 "/>
<path style=" stroke:none;fill-rule:nonzero;fill:rgb(22.352941%,22.352941%,34.901961%);fill-opacity:1;" d="M 3.914062 14.339844 C 3.996094 14.242188 4.1875 13.988281 4.1875 13.757812 C 4.1875 13.570312 4.074219 13.445312 3.9375 13.445312 C 3.84375 13.445312 3.769531 13.476562 3.679688 13.511719 L 3.691406 13.738281 C 3.734375 13.699219 3.8125 13.652344 3.863281 13.652344 C 3.933594 13.652344 3.984375 13.710938 3.984375 13.800781 C 3.984375 13.960938 3.8125 14.167969 3.726562 14.289062 L 3.664062 14.378906 L 3.664062 14.570312 L 4.199219 14.570312 L 4.199219 14.378906 L 3.882812 14.378906 Z M 4.53125 13.851562 C 4.507812 13.851562 4.480469 13.855469 4.457031 13.859375 L 4.457031 13.652344 L 4.761719 13.652344 L 4.761719 13.464844 L 4.285156 13.464844 L 4.285156 14.054688 C 4.332031 14.039062 4.378906 14.023438 4.421875 14.023438 C 4.480469 14.023438 4.59375 14.058594 4.59375 14.214844 C 4.59375 14.289062 4.550781 14.398438 4.4375 14.398438 C 4.382812 14.398438 4.339844 14.375 4.273438 14.34375 L 4.265625 14.539062 C 4.328125 14.570312 4.367188 14.589844 4.476562 14.589844 C 4.695312 14.589844 4.800781 14.398438 4.800781 14.21875 C 4.800781 13.980469 4.703125 13.851562 4.53125 13.851562 Z M 5.1875 13.863281 C 5.164062 13.863281 5.097656 13.867188 5.039062 13.960938 L 5.035156 13.960938 C 5.039062 13.800781 5.070312 13.632812 5.21875 13.632812 C 5.273438 13.632812 5.332031 13.664062 5.367188 13.683594 L 5.378906 13.492188 C 5.3125 13.464844 5.261719 13.445312 5.191406 13.445312 C 4.929688 13.445312 4.847656 13.746094 4.847656 14.058594 C 4.847656 14.296875 4.898438 14.589844 5.144531 14.589844 C 5.390625 14.589844 5.421875 14.304688 5.421875 14.234375 C 5.421875 13.996094 5.3125 13.863281 5.1875 13.863281 Z M 5.132812 14.414062 C 5.046875 14.414062 5.046875 14.277344 5.046875 14.242188 C 5.046875 14.183594 5.046875 14.050781 5.132812 14.050781 C 5.214844 14.050781 5.222656 14.175781 5.222656 14.226562 C 5.222656 14.28125 5.214844 14.414062 5.132812 14.414062 Z M 6.003906 14.285156 L 6 14.285156 L 5.898438 13.765625 L 5.671875 13.765625 L 5.671875 14.570312 L 5.808594 14.570312 L 5.808594 13.933594 L 5.8125 13.933594 L 5.949219 14.570312 L 6.046875 14.570312 L 6.191406 13.933594 L 6.191406 14.570312 L 6.328125 14.570312 L 6.328125 13.765625 L 6.113281 13.765625 Z M 6.746094 14.152344 C 6.785156 14.144531 6.863281 14.097656 6.863281 13.96875 C 6.863281 13.882812 6.820312 13.765625 6.6875 13.765625 L 6.449219 13.765625 L 6.449219 14.570312 L 6.679688 14.570312 C 6.714844 14.570312 6.875 14.554688 6.875 14.347656 C 6.875 14.222656 6.820312 14.171875 6.746094 14.152344 Z M 6.59375 13.898438 L 6.632812 13.898438 C 6.707031 13.898438 6.71875 13.96875 6.71875 13.996094 C 6.71875 14.011719 6.714844 14.09375 6.628906 14.09375 L 6.59375 14.09375 Z M 6.636719 14.433594 L 6.59375 14.433594 L 6.59375 14.226562 L 6.652344 14.226562 C 6.699219 14.226562 6.734375 14.261719 6.734375 14.328125 C 6.734375 14.433594 6.65625 14.433594 6.636719 14.433594 Z M 6.636719 14.433594 "/>
<path style=" stroke:none;fill-rule:nonzero;fill:rgb(22.352941%,22.352941%,34.901961%);fill-opacity:1;" d="M 13.289062 9.34375 L 13.453125 9.34375 L 13.453125 10.066406 L 13.632812 10.066406 L 13.632812 9.34375 L 13.796875 9.34375 L 13.796875 9.183594 L 13.289062 9.183594 Z M 14.160156 9.164062 C 13.945312 9.164062 13.839844 9.363281 13.839844 9.625 C 13.839844 9.886719 13.945312 10.085938 14.160156 10.085938 C 14.375 10.085938 14.480469 9.886719 14.480469 9.625 C 14.480469 9.363281 14.375 9.164062 14.160156 9.164062 Z M 14.160156 9.933594 C 14.058594 9.933594 14.023438 9.792969 14.023438 9.625 C 14.023438 9.457031 14.058594 9.316406 14.160156 9.316406 C 14.261719 9.316406 14.300781 9.457031 14.300781 9.625 C 14.300781 9.792969 14.261719 9.933594 14.160156 9.933594 Z M 15.03125 9.183594 L 14.527344 9.183594 L 14.527344 9.34375 L 14.691406 9.34375 L 14.691406 10.066406 L 14.867188 10.066406 L 14.867188 9.34375 L 15.03125 9.34375 Z M 15.246094 9.183594 L 14.996094 10.066406 L 15.164062 10.066406 L 15.214844 9.871094 L 15.453125 9.871094 L 15.5 10.066406 L 15.679688 10.066406 L 15.4375 9.183594 Z M 15.25 9.71875 L 15.339844 9.351562 L 15.417969 9.71875 Z M 15.933594 9.183594 L 15.757812 9.183594 L 15.757812 10.066406 L 16.179688 10.066406 L 16.179688 9.90625 L 15.933594 9.90625 Z M 16.75 9.882812 C 16.820312 9.804688 16.984375 9.601562 16.984375 9.414062 C 16.984375 9.265625 16.886719 9.164062 16.769531 9.164062 C 16.691406 9.164062 16.625 9.191406 16.546875 9.21875 L 16.558594 9.402344 C 16.597656 9.371094 16.660156 9.332031 16.707031 9.332031 C 16.765625 9.332031 16.808594 9.378906 16.808594 9.449219 C 16.808594 9.578125 16.660156 9.742188 16.589844 9.839844 L 16.53125 9.914062 L 16.53125 10.066406 L 16.992188 10.066406 L 16.992188 9.914062 L 16.722656 9.914062 Z M 17.320312 9.492188 C 17.300781 9.492188 17.277344 9.492188 17.257812 9.496094 L 17.257812 9.332031 L 17.519531 9.332031 L 17.519531 9.183594 L 17.105469 9.183594 L 17.105469 9.652344 C 17.148438 9.640625 17.191406 9.628906 17.226562 9.628906 C 17.277344 9.628906 17.375 9.65625 17.375 9.785156 C 17.375 9.84375 17.335938 9.929688 17.242188 9.929688 C 17.191406 9.929688 17.15625 9.914062 17.101562 9.886719 L 17.089844 10.042969 C 17.144531 10.066406 17.179688 10.085938 17.273438 10.085938 C 17.460938 10.085938 17.554688 9.929688 17.554688 9.785156 C 17.554688 9.59375 17.46875 9.492188 17.320312 9.492188 Z M 17.925781 9.5 C 17.90625 9.5 17.847656 9.503906 17.796875 9.578125 C 17.800781 9.449219 17.828125 9.316406 17.957031 9.316406 C 18 9.316406 18.050781 9.339844 18.078125 9.355469 L 18.089844 9.203125 C 18.035156 9.179688 17.992188 9.164062 17.929688 9.164062 C 17.707031 9.164062 17.632812 9.40625 17.632812 9.65625 C 17.632812 9.851562 17.679688 10.085938 17.890625 10.085938 C 18.101562 10.085938 18.128906 9.851562 18.128906 9.800781 C 18.128906 9.605469 18.035156 9.5 17.925781 9.5 Z M 17.878906 9.941406 C 17.804688 9.941406 17.804688 9.832031 17.804688 9.804688 C 17.804688 9.757812 17.804688 9.648438 17.878906 9.648438 C 17.949219 9.648438 17.957031 9.75 17.957031 9.789062 C 17.957031 9.835938 17.949219 9.941406 17.878906 9.941406 Z M 18.6875 9.855469 L 18.597656 9.472656 L 18.394531 9.472656 L 18.394531 10.066406 L 18.515625 10.066406 L 18.515625 9.59375 L 18.519531 9.59375 L 18.640625 10.066406 L 18.730469 10.066406 L 18.855469 9.59375 L 18.859375 9.59375 L 18.859375 10.066406 L 18.980469 10.066406 L 18.980469 9.472656 L 18.789062 9.472656 Z M 19.347656 9.757812 C 19.382812 9.75 19.449219 9.714844 19.449219 9.621094 C 19.449219 9.554688 19.414062 9.472656 19.292969 9.472656 L 19.082031 9.472656 L 19.082031 10.066406 L 19.289062 10.066406 C 19.320312 10.066406 19.460938 10.054688 19.460938 9.902344 C 19.460938 9.808594 19.410156 9.773438 19.347656 9.757812 Z M 19.210938 9.570312 L 19.246094 9.570312 C 19.3125 9.570312 19.324219 9.621094 19.324219 9.640625 C 19.324219 9.652344 19.320312 9.714844 19.246094 9.714844 L 19.210938 9.714844 Z M 19.246094 9.964844 L 19.210938 9.964844 L 19.210938 9.808594 L 19.261719 9.808594 C 19.304688 9.808594 19.332031 9.835938 19.332031 9.890625 C 19.332031 9.964844 19.265625 9.964844 19.246094 9.964844 Z M 19.246094 9.964844 "/>
</g>
</svg>
