<?xml version="1.0" encoding="UTF-8"?>
<svg xmlns="http://www.w3.org/2000/svg" xmlns:xlink="http://www.w3.org/1999/xlink" width="22pt" height="22pt" viewBox="0 0 22 22" version="1.1">
<g id="surface1">
<path style=" stroke:none;fill-rule:nonzero;fill:rgb(66.666667%,66.666667%,66.666667%);fill-opacity:1;" d="M 11 3.4375 C 6.824219 3.4375 3.4375 6.824219 3.4375 11 C 3.4375 15.175781 6.824219 18.5625 11 18.5625 C 15.175781 18.5625 18.5625 15.175781 18.5625 11 C 18.5625 6.824219 15.175781 3.4375 11 3.4375 Z M 11 8.636719 C 12.300781 8.636719 13.363281 9.699219 13.363281 11 C 13.363281 12.300781 12.300781 13.363281 11 13.363281 C 9.699219 13.363281 8.636719 12.300781 8.636719 11 C 8.636719 9.699219 9.699219 8.636719 11 8.636719 Z M 11 9.109375 C 9.953125 9.109375 9.109375 9.953125 9.109375 11 C 9.109375 12.046875 9.953125 12.890625 11 12.890625 C 12.046875 12.890625 12.890625 12.046875 12.890625 11 C 12.890625 9.953125 12.046875 9.109375 11 9.109375 Z M 11 9.820312 C 11.652344 9.820312 12.179688 10.347656 12.179688 11 C 12.179688 11.652344 11.652344 12.183594 11 12.183594 C 10.347656 12.183594 9.820312 11.652344 9.820312 11 C 9.820312 10.347656 10.347656 9.820312 11 9.820312 Z M 11 9.820312 "/>
<path style=" stroke:none;fill-rule:nonzero;fill:rgb(49.019608%,49.019608%,49.019608%);fill-opacity:0.254902;" d="M 10.179688 10.15625 C 10.367188 9.976562 10.601562 9.855469 10.859375 9.824219 L 10.765625 9.132812 C 10.359375 9.179688 9.984375 9.359375 9.691406 9.644531 Z M 9.363281 9.308594 C 9.730469 8.957031 10.203125 8.730469 10.710938 8.664062 L 10.050781 3.503906 C 8.425781 3.710938 6.90625 4.4375 5.734375 5.574219 Z M 9.363281 9.308594 "/>
<path style=" stroke:none;fill-rule:nonzero;fill:rgb(87.45098%,87.45098%,87.45098%);fill-opacity:0.462745;" d="M 12.101562 11.410156 C 12.011719 11.648438 11.851562 11.859375 11.636719 12 L 12.015625 12.585938 C 12.363281 12.363281 12.621094 12.042969 12.765625 11.660156 Z M 13.207031 11.820312 C 13.027344 12.296875 12.699219 12.707031 12.265625 12.984375 L 15.085938 17.355469 C 16.460938 16.46875 17.519531 15.15625 18.089844 13.628906 Z M 13.207031 11.820312 "/>
<path style=" stroke:none;fill-rule:nonzero;fill:rgb(49.019608%,49.019608%,49.019608%);fill-opacity:0.254902;" d="M 11.847656 11.816406 C 11.667969 12 11.4375 12.128906 11.183594 12.167969 L 11.300781 12.859375 C 11.703125 12.796875 12.070312 12.601562 12.355469 12.308594 Z M 12.695312 12.632812 C 12.339844 12.996094 11.875 13.242188 11.371094 13.324219 L 12.207031 18.457031 C 13.824219 18.195312 15.316406 17.417969 16.449219 16.242188 Z M 12.695312 12.632812 "/>
<path style=" stroke:none;fill-rule:nonzero;fill:rgb(87.45098%,87.45098%,87.45098%);fill-opacity:0.427451;" d="M 9.90625 10.570312 C 10 10.332031 10.164062 10.125 10.382812 9.988281 L 10.011719 9.394531 C 9.664062 9.609375 9.398438 9.925781 9.246094 10.308594 Z M 8.808594 10.140625 C 9 9.667969 9.335938 9.261719 9.769531 8.992188 L 7.035156 4.570312 C 5.644531 5.429688 4.558594 6.71875 3.960938 8.238281 Z M 8.808594 10.140625 "/>
<path style=" stroke:none;fill-rule:nonzero;fill:rgb(39.607843%,48.235294%,51.372549%);fill-opacity:1;" d="M 11 8.25 C 9.480469 8.25 8.25 9.480469 8.25 11 C 8.25 12.519531 9.480469 13.75 11 13.75 C 12.519531 13.75 13.75 12.519531 13.75 11 C 13.75 9.480469 12.519531 8.25 11 8.25 Z M 11 8.9375 C 12.140625 8.9375 13.0625 9.859375 13.0625 11 C 13.0625 12.140625 12.140625 13.0625 11 13.0625 C 9.859375 13.0625 8.9375 12.140625 8.9375 11 C 8.9375 9.859375 9.859375 8.9375 11 8.9375 Z M 11 8.9375 "/>
</g>
</svg>
