<?xml version="1.0" encoding="UTF-8"?>
<svg xmlns="http://www.w3.org/2000/svg" xmlns:xlink="http://www.w3.org/1999/xlink" width="22pt" height="22pt" viewBox="0 0 22 22" version="1.1">
<g id="surface1">
<path style=" stroke:none;fill-rule:nonzero;fill:rgb(54.117647%,54.117647%,54.117647%);fill-opacity:1;" d="M 4.769531 6.414062 C 4.164062 6.414062 3.664062 6.914062 3.664062 7.519531 L 3.664062 14.46875 C 3.664062 15.074219 4.164062 15.585938 4.769531 15.585938 L 5.5 15.585938 L 5.5 16.039062 L 16.5 16.039062 L 16.5 15.585938 L 17.230469 15.585938 C 17.835938 15.585938 18.335938 15.074219 18.335938 14.46875 L 18.335938 7.519531 C 18.335938 6.914062 17.835938 6.414062 17.230469 6.414062 Z M 4.769531 7.335938 L 17.230469 7.335938 C 17.347656 7.335938 17.414062 7.402344 17.414062 7.519531 L 17.414062 14.46875 C 17.414062 14.578125 17.347656 14.664062 17.230469 14.664062 L 16.230469 14.664062 L 16.039062 10.582031 L 16.039062 10.539062 C 16.039062 10.472656 16.03125 10.410156 16.027344 10.34375 C 15.921875 9.171875 14.945312 8.25 13.75 8.25 C 12.484375 8.25 11.460938 9.277344 11.460938 10.539062 C 11.460938 11.808594 12.484375 12.835938 13.75 12.835938 C 14.535156 12.835938 15.226562 12.429688 15.640625 11.828125 L 15.769531 14.664062 L 15.585938 14.664062 L 15.585938 15.125 L 6.414062 15.125 L 6.414062 14.664062 L 6.402344 14.664062 L 7.132812 11.34375 C 7.382812 11.691406 7.789062 11.914062 8.25 11.914062 C 9.011719 11.914062 9.625 11.300781 9.625 10.539062 C 9.625 9.785156 9.011719 9.164062 8.25 9.164062 C 7.574219 9.164062 7.019531 9.65625 6.90625 10.300781 L 6.886719 10.300781 L 5.917969 14.664062 L 4.769531 14.664062 C 4.652344 14.664062 4.585938 14.578125 4.585938 14.46875 L 4.585938 7.519531 C 4.585938 7.402344 4.652344 7.335938 4.769531 7.335938 Z M 5.273438 7.789062 C 5.144531 7.789062 5.039062 7.894531 5.039062 8.023438 C 5.039062 8.148438 5.144531 8.25 5.273438 8.25 C 5.398438 8.25 5.5 8.148438 5.5 8.023438 C 5.5 7.894531 5.398438 7.789062 5.273438 7.789062 Z M 16.726562 7.789062 C 16.601562 7.789062 16.5 7.894531 16.5 8.023438 C 16.5 8.148438 16.601562 8.25 16.726562 8.25 C 16.855469 8.25 16.960938 8.148438 16.960938 8.023438 C 16.960938 7.894531 16.855469 7.789062 16.726562 7.789062 Z M 8.25 9.625 C 8.757812 9.625 9.164062 10.035156 9.164062 10.539062 C 9.164062 11.046875 8.757812 11.460938 8.25 11.460938 C 7.742188 11.460938 7.335938 11.046875 7.335938 10.539062 C 7.335938 10.035156 7.742188 9.625 8.25 9.625 Z M 13.75 9.625 C 14.257812 9.625 14.664062 10.035156 14.664062 10.539062 C 14.664062 11.046875 14.257812 11.460938 13.75 11.460938 C 13.242188 11.460938 12.835938 11.046875 12.835938 10.539062 C 12.835938 10.035156 13.242188 9.625 13.75 9.625 Z M 5.273438 13.75 C 5.144531 13.75 5.039062 13.851562 5.039062 13.976562 C 5.039062 14.105469 5.144531 14.210938 5.273438 14.210938 C 5.398438 14.210938 5.5 14.105469 5.5 13.976562 C 5.5 13.851562 5.398438 13.75 5.273438 13.75 Z M 8.195312 13.75 C 7.96875 13.75 7.789062 13.929688 7.789062 14.148438 L 7.789062 14.265625 C 7.789062 14.488281 7.96875 14.664062 8.195312 14.664062 L 13.804688 14.664062 C 14.03125 14.664062 14.210938 14.488281 14.210938 14.265625 L 14.210938 14.148438 C 14.210938 13.929688 14.03125 13.75 13.804688 13.75 Z M 16.726562 13.75 C 16.601562 13.75 16.5 13.851562 16.5 13.976562 C 16.5 14.105469 16.601562 14.210938 16.726562 14.210938 C 16.855469 14.210938 16.960938 14.105469 16.960938 13.976562 C 16.960938 13.851562 16.855469 13.75 16.726562 13.75 Z M 16.726562 13.75 "/>
</g>
</svg>
