<?xml version="1.0" encoding="UTF-8"?>
<svg xmlns="http://www.w3.org/2000/svg" xmlns:xlink="http://www.w3.org/1999/xlink" width="22pt" height="22pt" viewBox="0 0 22 22" version="1.1">
<g id="surface1">
<path style=" stroke:none;fill-rule:nonzero;fill:rgb(17.647059%,17.647059%,17.647059%);fill-opacity:1;" d="M 11 8.867188 L 10.785156 9.554688 L 6.875 20.625 L 8.25 20.625 L 11 18.21875 L 13.75 20.625 L 15.125 20.625 L 11.214844 9.554688 Z M 11 10.371094 L 11.5 11.960938 L 11 12.359375 L 10.5 11.960938 Z M 10.355469 12.417969 L 10.640625 12.648438 L 10.15625 13.035156 Z M 11.644531 12.417969 L 11.84375 13.046875 L 11.359375 12.648438 Z M 11 12.933594 L 12.003906 13.734375 L 11 14.496094 L 9.996094 13.734375 Z M 9.796875 14.164062 L 10.613281 14.78125 L 9.28125 15.785156 Z M 12.21875 14.164062 L 12.71875 15.785156 L 11.386719 14.78125 Z M 11 15.066406 L 12.875 16.484375 L 11 17.574219 L 9.125 16.484375 Z M 8.921875 16.886719 L 10.542969 17.832031 L 8.25 19.25 Z M 13.078125 16.886719 L 13.75 19.25 L 11.457031 17.832031 Z M 13.078125 16.886719 "/>
<path style=" stroke:none;fill-rule:evenodd;fill:rgb(17.647059%,17.647059%,17.647059%);fill-opacity:1;" d="M 12.375 9.167969 C 12.375 9.925781 11.757812 10.542969 11 10.542969 C 10.242188 10.542969 9.625 9.925781 9.625 9.167969 C 9.625 8.40625 10.242188 7.792969 11 7.792969 C 11.757812 7.792969 12.375 8.40625 12.375 9.167969 Z M 12.375 9.167969 "/>
<path style=" stroke:none;fill-rule:evenodd;fill:rgb(54.901961%,73.72549%,39.607843%);fill-opacity:0.556863;" d="M 11 5.957031 C 9.226562 5.957031 7.792969 7.394531 7.792969 9.167969 C 7.792969 10.210938 8.292969 11.144531 9.066406 11.730469 L 9.382812 10.785156 C 8.96875 10.371094 8.707031 9.800781 8.707031 9.167969 C 8.707031 7.902344 9.734375 6.875 11 6.875 C 12.265625 6.875 13.292969 7.902344 13.292969 9.167969 C 13.292969 9.800781 13.03125 10.371094 12.617188 10.785156 L 12.933594 11.730469 C 13.707031 11.144531 14.207031 10.210938 14.207031 9.167969 C 14.207031 7.394531 12.773438 5.957031 11 5.957031 Z M 11 5.957031 "/>
<path style=" stroke:none;fill-rule:evenodd;fill:rgb(54.901961%,73.72549%,39.607843%);fill-opacity:0.556863;" d="M 11 4.125 C 8.214844 4.125 5.957031 6.382812 5.957031 9.167969 C 5.957031 11.03125 6.972656 12.664062 8.480469 13.535156 L 8.765625 12.632812 C 7.628906 11.898438 6.875 10.621094 6.875 9.167969 C 6.875 6.886719 8.722656 5.042969 11 5.042969 C 13.277344 5.042969 15.125 6.886719 15.125 9.167969 C 15.125 10.621094 14.371094 11.898438 13.234375 12.632812 L 13.519531 13.535156 C 15.027344 12.664062 16.042969 11.03125 16.042969 9.167969 C 16.042969 6.382812 13.785156 4.125 11 4.125 Z M 11 4.125 "/>
<path style=" stroke:none;fill-rule:evenodd;fill:rgb(54.901961%,73.72549%,39.607843%);fill-opacity:0.556863;" d="M 11 2.292969 C 7.203125 2.292969 4.125 5.371094 4.125 9.167969 C 4.125 11.84375 5.65625 14.164062 7.890625 15.296875 L 8.179688 14.410156 C 6.316406 13.402344 5.042969 11.433594 5.042969 9.167969 C 5.042969 5.875 7.710938 3.207031 11 3.207031 C 14.289062 3.207031 16.957031 5.875 16.957031 9.167969 C 16.957031 11.433594 15.683594 13.402344 13.820312 14.410156 L 14.109375 15.296875 C 16.34375 14.164062 17.875 11.84375 17.875 9.167969 C 17.875 5.371094 14.796875 2.292969 11 2.292969 Z M 11 2.292969 "/>
</g>
</svg>
