<?xml version="1.0" encoding="UTF-8"?>
<svg xmlns="http://www.w3.org/2000/svg" xmlns:xlink="http://www.w3.org/1999/xlink" width="22pt" height="22pt" viewBox="0 0 22 22" version="1.1">
<g id="surface1">
<path style=" stroke:none;fill-rule:nonzero;fill:rgb(54.117647%,54.117647%,54.117647%);fill-opacity:1;" d="M 6.648438 3.664062 C 6.273438 3.664062 5.960938 3.980469 5.960938 4.351562 L 5.960938 17.1875 C 5.960938 17.21875 5.992188 17.496094 6.144531 17.660156 C 6.296875 17.824219 6.5 17.929688 6.800781 18.015625 C 7.40625 18.195312 8.460938 18.335938 10.539062 18.335938 L 11.460938 18.335938 C 13.316406 18.335938 14.371094 18.1875 15.007812 18.015625 C 15.328125 17.933594 15.546875 17.84375 15.714844 17.734375 C 15.875 17.617188 16.039062 17.496094 16.039062 17.1875 L 16.039062 4.351562 C 16.039062 3.980469 15.726562 3.664062 15.351562 3.664062 Z M 6.875 4.585938 L 15.125 4.585938 L 15.125 13.75 L 6.875 13.75 Z M 7.335938 14.210938 C 7.585938 14.210938 7.789062 14.414062 7.789062 14.664062 C 7.789062 14.921875 7.585938 15.125 7.335938 15.125 C 7.078125 15.125 6.875 14.921875 6.875 14.664062 C 6.875 14.414062 7.078125 14.210938 7.335938 14.210938 Z M 8.710938 14.210938 C 8.960938 14.210938 9.164062 14.414062 9.164062 14.664062 C 9.164062 14.921875 8.960938 15.125 8.710938 15.125 C 8.453125 15.125 8.25 14.921875 8.25 14.664062 C 8.25 14.414062 8.453125 14.210938 8.710938 14.210938 Z M 10.085938 14.210938 C 10.335938 14.210938 10.539062 14.414062 10.539062 14.664062 C 10.539062 14.921875 10.335938 15.125 10.085938 15.125 C 9.828125 15.125 9.625 14.921875 9.625 14.664062 C 9.625 14.414062 9.828125 14.210938 10.085938 14.210938 Z M 11.914062 14.210938 C 12.171875 14.210938 12.375 14.414062 12.375 14.664062 C 12.375 14.921875 12.171875 15.125 11.914062 15.125 C 11.664062 15.125 11.460938 14.921875 11.460938 14.664062 C 11.460938 14.414062 11.664062 14.210938 11.914062 14.210938 Z M 13.289062 14.210938 C 13.546875 14.210938 13.75 14.414062 13.75 14.664062 C 13.75 14.921875 13.546875 15.125 13.289062 15.125 C 13.039062 15.125 12.835938 14.921875 12.835938 14.664062 C 12.835938 14.414062 13.039062 14.210938 13.289062 14.210938 Z M 14.664062 14.210938 C 14.921875 14.210938 15.125 14.414062 15.125 14.664062 C 15.125 14.921875 14.921875 15.125 14.664062 15.125 C 14.414062 15.125 14.210938 14.921875 14.210938 14.664062 C 14.210938 14.414062 14.414062 14.210938 14.664062 14.210938 Z M 7.335938 15.585938 C 7.585938 15.585938 7.789062 15.789062 7.789062 16.039062 C 7.789062 16.296875 7.585938 16.5 7.335938 16.5 C 7.078125 16.5 6.875 16.296875 6.875 16.039062 C 6.875 15.789062 7.078125 15.585938 7.335938 15.585938 Z M 8.710938 15.585938 C 8.960938 15.585938 9.164062 15.789062 9.164062 16.039062 C 9.164062 16.296875 8.960938 16.5 8.710938 16.5 C 8.453125 16.5 8.25 16.296875 8.25 16.039062 C 8.25 15.789062 8.453125 15.585938 8.710938 15.585938 Z M 11 15.585938 C 11.507812 15.585938 11.914062 15.992188 11.914062 16.5 C 11.914062 17.007812 11.507812 17.414062 11 17.414062 C 10.492188 17.414062 10.085938 17.007812 10.085938 16.5 C 10.085938 15.992188 10.492188 15.585938 11 15.585938 Z M 13.289062 15.585938 C 13.546875 15.585938 13.75 15.789062 13.75 16.039062 C 13.75 16.296875 13.546875 16.5 13.289062 16.5 C 13.039062 16.5 12.835938 16.296875 12.835938 16.039062 C 12.835938 15.789062 13.039062 15.585938 13.289062 15.585938 Z M 14.664062 15.585938 C 14.921875 15.585938 15.125 15.789062 15.125 16.039062 C 15.125 16.296875 14.921875 16.5 14.664062 16.5 C 14.414062 16.5 14.210938 16.296875 14.210938 16.039062 C 14.210938 15.789062 14.414062 15.585938 14.664062 15.585938 Z M 14.664062 15.585938 "/>
</g>
</svg>
