<?xml version="1.0" encoding="UTF-8"?>
<svg xmlns="http://www.w3.org/2000/svg" xmlns:xlink="http://www.w3.org/1999/xlink" width="22pt" height="22pt" viewBox="0 0 22 22" version="1.1">
<g id="surface1">
<path style=" stroke:none;fill-rule:nonzero;fill:rgb(54.117647%,54.117647%,54.117647%);fill-opacity:1;" d="M 8.539062 3.664062 C 7.878906 3.664062 7.335938 4.199219 7.335938 4.855469 L 7.335938 17.132812 C 7.335938 17.785156 7.878906 18.335938 8.539062 18.335938 L 13.460938 18.335938 C 14.121094 18.335938 14.664062 17.785156 14.664062 17.132812 L 14.664062 4.855469 C 14.664062 4.199219 14.121094 3.664062 13.460938 3.664062 Z M 10.3125 4.585938 L 11.6875 4.585938 C 11.8125 4.585938 11.914062 4.6875 11.914062 4.8125 C 11.914062 4.9375 11.8125 5.039062 11.6875 5.039062 L 10.3125 5.039062 C 10.1875 5.039062 10.085938 4.9375 10.085938 4.8125 C 10.085938 4.6875 10.1875 4.585938 10.3125 4.585938 Z M 8.25 5.5 L 13.75 5.5 L 13.75 16.5 L 8.25 16.5 Z M 11 16.960938 C 11.253906 16.960938 11.460938 17.164062 11.460938 17.414062 C 11.460938 17.671875 11.253906 17.875 11 17.875 C 10.746094 17.875 10.539062 17.671875 10.539062 17.414062 C 10.539062 17.164062 10.746094 16.960938 11 16.960938 Z M 11 16.960938 "/>
</g>
</svg>
