<?xml version="1.0" encoding="UTF-8"?>
<svg xmlns="http://www.w3.org/2000/svg" xmlns:xlink="http://www.w3.org/1999/xlink" width="22pt" height="22pt" viewBox="0 0 22 22" version="1.1">
<g id="surface1">
<path style=" stroke:none;fill-rule:nonzero;fill:rgb(54.117647%,54.117647%,54.117647%);fill-opacity:1;" d="M 6.671875 3.664062 C 6.003906 3.664062 5.457031 4.214844 5.457031 4.886719 L 5.457031 17.101562 C 5.457031 17.769531 6.003906 18.335938 6.671875 18.335938 L 15.328125 18.335938 C 15.996094 18.335938 16.542969 17.769531 16.542969 17.101562 L 16.542969 4.886719 C 16.542969 4.214844 15.996094 3.664062 15.328125 3.664062 Z M 6.671875 4.585938 L 15.328125 4.585938 C 15.503906 4.585938 15.628906 4.707031 15.628906 4.886719 L 15.628906 16.167969 C 15.628906 16.347656 15.503906 16.488281 15.328125 16.488281 L 6.671875 16.488281 C 6.496094 16.488281 6.371094 16.347656 6.371094 16.167969 L 6.371094 4.886719 C 6.371094 4.707031 6.496094 4.585938 6.671875 4.585938 Z M 15.125 16.960938 C 15.378906 16.960938 15.585938 17.164062 15.585938 17.414062 C 15.585938 17.671875 15.378906 17.875 15.125 17.875 C 14.871094 17.875 14.664062 17.671875 14.664062 17.414062 C 14.664062 17.164062 14.871094 16.960938 15.125 16.960938 Z M 15.125 16.960938 "/>
<path style=" stroke:none;fill-rule:nonzero;fill:rgb(54.117647%,54.117647%,54.117647%);fill-opacity:1;" d="M 5.960938 11.914062 L 16.039062 11.914062 L 16.039062 12.375 L 5.960938 12.375 Z M 5.960938 11.914062 "/>
<path style=" stroke:none;fill-rule:nonzero;fill:rgb(54.117647%,54.117647%,54.117647%);fill-opacity:1;" d="M 7.789062 5.960938 L 7.789062 15.585938 L 14.210938 15.585938 L 14.210938 6.875 L 13.289062 5.960938 Z M 8.25 11.914062 L 13.75 11.914062 L 13.75 15.125 L 8.25 15.125 Z M 8.25 11.914062 "/>
</g>
</svg>
