<?xml version="1.0" encoding="UTF-8"?>
<svg xmlns="http://www.w3.org/2000/svg" xmlns:xlink="http://www.w3.org/1999/xlink" width="22pt" height="22pt" viewBox="0 0 22 22" version="1.1">
<g id="surface1">
<path style=" stroke:none;fill-rule:nonzero;fill:rgb(65.098039%,70.588235%,29.019608%);fill-opacity:1;" d="M 18.5625 13.75 L 4.8125 13.75 L 4.8125 6.1875 L 18.5625 6.1875 Z M 18.5625 13.75 "/>
<path style=" stroke:none;fill-rule:nonzero;fill:rgb(2.745098%,21.176471%,25.882353%);fill-opacity:1;" d="M 6.1875 7.5625 L 6.1875 8.9375 L 11 8.9375 L 11 7.5625 Z M 6.1875 7.5625 "/>
<path style=" stroke:none;fill-rule:nonzero;fill:rgb(2.745098%,21.176471%,25.882353%);fill-opacity:1;" d="M 12.375 7.5625 L 12.375 8.9375 L 17.1875 8.9375 L 17.1875 7.5625 Z M 12.375 7.5625 "/>
<path style=" stroke:none;fill-rule:nonzero;fill:rgb(2.745098%,21.176471%,25.882353%);fill-opacity:1;" d="M 6.1875 10.3125 L 6.1875 11 L 17.1875 11 L 17.1875 10.3125 Z M 6.1875 10.3125 "/>
<path style=" stroke:none;fill-rule:nonzero;fill:rgb(2.745098%,21.176471%,25.882353%);fill-opacity:1;" d="M 6.1875 11.6875 L 6.1875 12.375 L 17.1875 12.375 L 17.1875 11.6875 Z M 6.1875 11.6875 "/>
<path style=" stroke:none;fill-rule:nonzero;fill:rgb(52.156863%,60%,0%);fill-opacity:1;" d="M 2.75 6.1875 L 4.125 6.1875 L 4.125 8.25 L 2.75 8.25 Z M 2.75 6.1875 "/>
<path style=" stroke:none;fill-rule:nonzero;fill:rgb(14.901961%,54.509804%,82.352941%);fill-opacity:1;" d="M 2.75 8.9375 L 4.125 8.9375 L 4.125 11 L 2.75 11 Z M 2.75 8.9375 "/>
<path style=" stroke:none;fill-rule:nonzero;fill:rgb(86.27451%,19.607843%,18.431373%);fill-opacity:1;" d="M 2.75 11.6875 L 4.125 11.6875 L 4.125 13.75 L 2.75 13.75 Z M 2.75 11.6875 "/>
<path style=" stroke:none;fill-rule:nonzero;fill:rgb(39.607843%,48.235294%,51.372549%);fill-opacity:1;" d="M 4.8125 3.4375 L 4.125 3.4375 L 4.125 17.875 L 3.4375 17.875 L 3.4375 18.5625 L 4.8125 18.5625 Z M 4.8125 3.4375 "/>
<path style=" stroke:none;fill-rule:nonzero;fill:rgb(99.215686%,96.470588%,89.019608%);fill-opacity:0.337255;" d="M 16.5 6.1875 L 17.875 6.1875 L 17.875 13.75 L 16.5 13.75 Z M 16.5 6.1875 "/>
</g>
</svg>
